<?xml version="1.0" encoding="UTF-8" standalone="no"?>
<!-- Created with Inkscape (http://www.inkscape.org/) -->

<svg
   width="138.90234mm"
   height="72.710297mm"
   viewBox="0 0 138.90234 72.710295"
   version="1.1"
   id="svg16929"
   inkscape:version="1.2.2 (732a01da63, 2022-12-09)"
   sodipodi:docname="acrylic-prototype-outline.svg"
   xmlns:inkscape="http://www.inkscape.org/namespaces/inkscape"
   xmlns:sodipodi="http://sodipodi.sourceforge.net/DTD/sodipodi-0.dtd"
   xmlns="http://www.w3.org/2000/svg"
   xmlns:svg="http://www.w3.org/2000/svg">
  <sodipodi:namedview
     id="namedview16931"
     pagecolor="#ffffff"
     bordercolor="#000000"
     borderopacity="0.25"
     inkscape:showpageshadow="2"
     inkscape:pageopacity="0.0"
     inkscape:pagecheckerboard="0"
     inkscape:deskcolor="#d1d1d1"
     inkscape:document-units="mm"
     showgrid="false"
     inkscape:zoom="2"
     inkscape:cx="207.25"
     inkscape:cy="127.5"
     inkscape:window-width="1858"
     inkscape:window-height="1177"
     inkscape:window-x="54"
     inkscape:window-y="-8"
     inkscape:window-maximized="1"
     inkscape:current-layer="layer1" />
  <defs
     id="defs16926" />
  <g
     inkscape:label="Layer 1"
     inkscape:groupmode="layer"
     id="layer1"
     transform="translate(-175.92775,-32.677737)">
    <path
       id="path529-78-5"
       style="display:inline;fill:none;fill-opacity:0.495215;stroke-width:0.0448567;stroke-linecap:round;stroke-linejoin:round;stroke:#000000;stroke-opacity:1"
       d="m 211.98201,32.677737 c -3.93743,0 -13.1808,4.704284 -21.71288,19.825664 l -1.17461,-0.0041 c -0.59719,-2.747042 -2.67592,-2.468578 -4.24728,-0.855762 l 1.97093,2.814815 -3.68608,2.581238 -1.19475,-1.706356 c -9.33535,3.248648 -5.72004,13.510898 -2.87735,18.529618 0,7.485322 14.82017,24.052736 26.15396,31.525206 l 6.89157,-1.8464 c 2.18443,-11.01729 14.6401,-8.405292 12.08712,-17.933269 l 4.22868,-1.538408 c 1.57848,-0.574456 -0.24156,-9.513631 2.41277,-9.513631 h 14.54485 14.54485 c 2.6543,0 0.83427,8.939175 2.41277,9.513631 l 4.22868,1.538408 c -2.55297,9.52797 9.90269,6.915987 12.08712,17.933269 l 6.89105,1.8464 h 5.2e-4 v -5.2e-4 c 11.33383,-7.47236 26.15396,-24.039304 26.15396,-31.524686 2.84264,-5.01872 6.45797,-15.28097 -2.87734,-18.529618 l -1.19476,1.706356 -3.68608,-2.581238 1.97094,-2.814815 c -1.57139,-1.612816 -3.65011,-1.89121 -4.24729,0.855762 l -1.1746,0.0041 c -8.53211,-15.1213 -17.77551,-19.825664 -21.71289,-19.825664 -3.93749,0 -7.06295,4.394321 -8.68629,7.014043 l -15.22543,1.886706 -4.4018,0.93586 h -5.08341 -5.08341 l -4.4018,-0.93586 -15.22543,-1.886706 c -1.62329,-2.619722 -4.74882,-7.014043 -8.68629,-7.014043 z m 67.61396,6.89622 c 0.8866,-0.023 1.75776,0.42749 2.23243,1.249536 l 6.99285,12.112439 c 6.16203,10.673 8.12934,7.479592 11.90832,14.024984 4.16851,7.228082 2.3585,16.424296 -4.23902,21.532536 l 0.9958,1.724959 -1.9482,1.124996 -1.94872,1.124996 -0.9958,-1.724959 c -0.94009,0.384606 -1.89729,0.675806 -2.86081,0.880566 v 1.204061 h -5.1e-4 c -1.6e-4,0.45706 -0.3708,0.82746 -0.82786,0.82734 -0.45706,1.2e-4 -0.8277,-0.37028 -0.82786,-0.82734 V 91.88911 c -6.42718,0.69898 -12.87344,-2.398674 -16.25017,-8.24084 -3.77897,-6.545396 -0.0298,-6.652562 -6.19187,-17.325558 L 258.6417,54.210273 c -0.69029,-1.195786 -0.2805,-2.724859 0.91519,-3.415295 l 9.42785,-5.443079 9.42836,-5.443595 c 0.37368,-0.21572 0.77987,-0.323887 1.18287,-0.334347 z m -68.8914,1.060917 c 0.66307,10e-6 1.29898,0.263409 1.76785,0.732255 l 10.00559,10.005591 c 0.97628,0.976376 0.97628,2.559336 0,3.535702 l -10.00559,10.005591 c -0.97639,0.976256 -2.55932,0.976256 -3.5357,0 L 195.71221,51.888968 c -0.64419,-0.644335 -0.64419,-1.688858 0,-2.333191 0.29427,-0.294306 0.68893,-0.466523 1.10484,-0.482141 0.45869,-0.01714 0.90379,0.157568 1.22835,0.482141 0.0101,0.01003 0.0201,0.0202 0.03,0.03049 0.82805,0.828045 1.76533,0.876881 2.51406,0.128158 l 8.34729,-8.347295 c 0.46887,-0.468846 1.10478,-0.732245 1.76785,-0.732255 z m 83.17425,8.437728 a 1.65,1.65 0 0 1 1.65003,1.650029 1.65,1.65 0 0 1 -1.65003,1.650028 1.65,1.65 0 0 1 -1.65003,-1.650028 1.65,1.65 0 0 1 1.65003,-1.650029 z m -48.49988,16.82843 c 0.45706,1.6e-4 0.82746,0.370797 0.82734,0.827857 -1.6e-4,0.456866 -0.37048,0.82718 -0.82734,0.82734 -0.45686,-1.6e-4 -0.82718,-0.370474 -0.82734,-0.82734 -1.3e-4,-0.45706 0.37027,-0.827697 0.82734,-0.827857 z m -51.19739,0.409278 2.33061,0.934826 0.0992,3.463355 h 0.78704 l 0.0997,-3.463355 2.33009,-0.934826 3.61529,3.054077 -3.71192,12.722221 -0.3297,-11.690759 -0.69866,-0.03101 -0.0961,3.35225 -1.60197,1.461926 -1.60197,-1.461926 -0.0956,-3.351734 -0.69918,0.03049 -0.33022,11.690759 -3.7114,-12.722221 z m 7.67188,25.689905 c 0.45726,-1.2e-4 0.82799,0.370586 0.82786,0.827856 -1.6e-4,0.45706 -0.3708,0.82746 -0.82786,0.82734 -0.45706,1.2e-4 -0.82769,-0.37028 -0.82785,-0.82734 -1.2e-4,-0.45727 0.37058,-0.827976 0.82785,-0.827856 z" />
  </g>
</svg>
