<?xml version="1.0" encoding="UTF-8" standalone="no"?>
<!-- Created with Inkscape (http://www.inkscape.org/) -->

<svg
   width="138.9037mm"
   height="72.818611mm"
   viewBox="0 0 138.9037 72.818612"
   version="1.1"
   id="svg1"
   inkscape:version="1.3 (0e150ed6c4, 2023-07-21)"
   sodipodi:docname="acrylic_2_outline.svg"
   xmlns:inkscape="http://www.inkscape.org/namespaces/inkscape"
   xmlns:sodipodi="http://sodipodi.sourceforge.net/DTD/sodipodi-0.dtd"
   xmlns="http://www.w3.org/2000/svg"
   xmlns:svg="http://www.w3.org/2000/svg">
  <sodipodi:namedview
     id="namedview1"
     pagecolor="#ffffff"
     bordercolor="#000000"
     borderopacity="0.25"
     inkscape:showpageshadow="2"
     inkscape:pageopacity="0.0"
     inkscape:pagecheckerboard="0"
     inkscape:deskcolor="#d1d1d1"
     inkscape:document-units="mm"
     inkscape:zoom="2"
     inkscape:cx="223.75"
     inkscape:cy="119.75"
     inkscape:window-width="1853"
     inkscape:window-height="1177"
     inkscape:window-x="59"
     inkscape:window-y="-8"
     inkscape:window-maximized="1"
     inkscape:current-layer="g8" />
  <defs
     id="defs1" />
  <g
     inkscape:label="[fixed] BG"
     inkscape:groupmode="layer"
     id="g1"
     transform="translate(46.302082,6.61458)">
    <rect
       style="fill:#ffffff;fill-opacity:1;stroke:none;stroke-width:0.0399998;stroke-linejoin:round;stroke-dasharray:none;stroke-opacity:1"
       id="rect10"
       width="138.944"
       height="72.858002"
       x="-46.302074"
       y="-6.6145802"
       transform="translate(-1.3125e-6)" />
  </g>
  <g
     inkscape:label="Edge.Cuts"
     inkscape:groupmode="layer"
     id="g2"
     transform="translate(46.3021, 6.61458)" />
  <g
     inkscape:label="B.Cu"
     inkscape:groupmode="layer"
     id="g3"
     transform="translate(46.302082,6.61458)" />
  <g
     inkscape:label="B.Mask"
     inkscape:groupmode="layer"
     id="g4"
     transform="translate(46.302082,6.61458)" />
  <g
     inkscape:label="B.SilkS"
     inkscape:groupmode="layer"
     id="g5"
     transform="translate(46.302082,6.61458)" />
  <g
     inkscape:label="F.Cu"
     inkscape:groupmode="layer"
     id="g6"
     transform="translate(46.302082,6.61458)" />
  <g
     inkscape:label="F.Mask"
     inkscape:groupmode="layer"
     id="g7"
     transform="translate(46.302082,6.61458)" />
  <g
     inkscape:label="F.SilkS"
     inkscape:groupmode="layer"
     id="g8"
     transform="translate(46.302082,6.61458)">
    <path
       id="path529-78"
       style="display:inline;fill:none;fill-opacity:0.380392;stroke:#000000;stroke-width:0.04;stroke-linecap:round;stroke-linejoin:round;stroke-dasharray:none;stroke-opacity:1"
       d="m 29.371256,2.49403 c -4.365981,2.77081 -9.829532,8.1175 -15.028778,17.33212 l -1.1748,-0.005 C 12.567119,17.05878 10.471405,17.36521 8.8970079,19.00254 l 1.8808571,2.68827 -3.6016231,2.52096 -1.106887,-1.58129 -0.0055,0.005 c -1.763588,0.60504 -3.068226,1.45837 -4.00652,2.47905 -4.065953,4.42295 -1.23850798,11.98535 1.075773,16.07121 1.71e-4,7.52572 14.9745131,24.21736 26.3319311,31.63287 l 6.600737,-1.77258 c -1.94e-4,-4.07909 3.306652,-7.38614 7.38574,-7.38614 l 5.347195,1.6e-4 c 0.990254,0 1.387181,-0.42955 1.387183,-1.47099 -10e-7,-4.16951 -0.606222,-5.93102 -1.824943,-9.14709 l 4.137121,-1.50664 -1.9e-5,-7.84968 c 2.69e-4,-1.65663 1.34368,-2.99996 3.000307,-3.00023 l 27.90626,3e-5 c 1.65663,2.6e-4 2.99952,1.34393 2.99979,3.00056 l -2.4e-4,7.84924 4.13829,1.50606 c -1.21872,3.21607 -1.8254,4.97813 -1.8254,9.14764 1e-5,1.04145 0.39708,1.4707 1.38733,1.47069 l 5.34694,-2.8e-4 c 4.0791,0 7.38614,3.30736 7.38594,7.38645 l 6.6012,1.77219 c 11.35741,-7.41552 26.33174,-24.10679 26.33194,-31.63251 2.84835,-5.02876 6.47448,-15.32344 -2.93134,-18.55032 l -0.005,-0.005 -1.1062,1.58147 -3.60216,-2.52151 1.88186,-2.68746 c -1.5744,-1.63733 -3.67117,-1.94359 -4.27171,0.81876 l -1.17425,0.004 C 117.62867,7.53923 110.22608,2.12939 105.58222,0.53297 104.51057,0.16457 103.58597,0 102.8477,0 98.91025,-9.9999829e-6 95.78451,4.39441 94.16118,7.01414 l -15.74199,-4.1e-4 0.38135,1.79431 -4.20286,0.89357 -0.36864,-1.73302 -9.554802,5e-4 -0.368796,1.73214 -4.20338,-0.89326 0.38198,-1.79406 -15.74244,-1.5e-4 C 43.11828,4.39404 39.993279,6.0000017e-5 36.055818,6.0000017e-5 35.317543,6.0000017e-5 34.392833,0.16507 33.321171,0.53347 32.160207,0.93258 30.826574,1.56993 29.371246,2.49353 Z M 19.335717,15.64964 c 0.461283,-0.31169 1.017393,-0.49388 1.616003,-0.49382 0.798046,7e-5 1.520344,0.32369 2.043284,0.84673 l 0.512562,0.51261 c 0.447221,0.44722 0.993783,0.44705 1.440973,-1.4e-4 l 7.707489,-7.70735 c 0.605626,-0.59602 1.435487,-0.90741 2.283692,-0.85664 0.0092,-2.7e-4 0.01684,-0.005 0.02606,-0.005 0.04356,10e-6 0.0807,0.0192 0.122792,0.0246 0.681084,0.0645 1.3196,0.3599 1.809798,0.83713 l 9.540366,9.54085 c 1.171226,1.17161 1.170954,3.07055 -2.77e-4,4.24215 L 36.89679,32.1328 c -1.17161,1.17123 -3.070547,1.17095 -4.242157,-2.8e-4 l -6.790842,-6.79081 -2.749713,-2.74933 -1.298754,-1.29866 c -0.242341,-0.27891 -0.511495,-0.35324 -0.863958,-0.35747 -1.59609,1.5e-4 -2.889737,-1.29369 -2.889877,-2.88978 -7.5e-5,-0.79814 0.323428,-1.52069 0.846471,-2.04373 0.130761,-0.13076 0.273993,-0.24869 0.427754,-0.35258 z M 83.99949,17.86401 102.18626,7.36387 a 3.000305,3.000305 0 0 1 4.09782,1.09801 l 11.77447,20.39399 a 3.000305,3.000305 0 0 1 0.004,0.009 l 3.58014,6.20099 a 13.5,13.5 0 0 1 -3.29266,17.17615 l 0.67153,1.16314 -3.6711,2.11951 -0.67928,-1.17656 A 13.5,13.5 0 0 1 98.26012,48.56603 l -7.97238,-13.80857 8.9e-4,-5.1e-4 -7.38714,-12.79492 a 3.000305,3.000305 0 0 1 1.098,-4.09782 z M 69.06266,33.12915 c 0.11954,-0.0506 0.25079,-0.0789 0.38885,-0.0789 0.55223,4e-5 0.99998,0.44811 1.00001,1.00034 -3e-5,0.55224 -0.4481,0.99998 -1.00034,1.00002 -0.55223,-4e-5 -0.99972,-0.44766 -0.99975,-0.99989 2e-5,-0.27612 0.11254,-0.52613 0.29349,-0.70709 0.0905,-0.0905 0.1982,-0.16383 0.31774,-0.21447 z M 25.5481,59.22433 c 0.11954,-0.0507 0.251048,-0.0785 0.389105,-0.0785 0.552436,-2.5e-4 1.000622,0.44695 1.000652,0.99938 -3.3e-5,0.55244 -0.447645,1.00071 -1.000079,1.00046 -0.552236,-3e-5 -1.000428,-0.44784 -1.000462,-1.00008 2e-5,-0.27611 0.112095,-0.52587 0.293046,-0.70682 0.09048,-0.0905 0.198197,-0.16383 0.317738,-0.21448 z m 90.78749,-43.57536 c 0.46118,-0.31154 1.01728,-0.49306 1.61581,-0.49311 1.59631,-1.5e-4 2.89029,1.29392 2.89014,2.89023 -1.2e-4,1.59607 -1.29439,2.88983 -2.89049,2.88969 -1.59585,-1.7e-4 -2.88885,-1.2944 -2.88898,-2.8903 -7e-5,-0.79805 0.32308,-1.52044 0.84602,-2.04348 0.13074,-0.13075 0.27377,-0.24917 0.4275,-0.35303 z m -3.75892,43.57519 c 0.11961,-0.0506 0.25099,-0.0785 0.38911,-0.0785 0.55222,4e-5 0.99997,0.44811 1.00001,1.00034 -3e-5,0.55224 -0.44765,0.99973 -0.99989,0.99976 -0.55243,2.5e-4 -1.00069,-0.44809 -1.00072,-1.00053 2e-5,-0.27622 0.11244,-0.52612 0.29349,-0.70708 0.0905,-0.0905 0.19839,-0.16346 0.318,-0.21403 z"
       transform="translate(-46.302082,-6.61458)" />
  </g>
  <g
     inkscape:label="Dwgs.User"
     inkscape:groupmode="layer"
     id="g9"
     transform="translate(46.302082,6.61458)"
     style="display:inline" />
  <g
     inkscape:label="Drill"
     inkscape:groupmode="layer"
     id="g10"
     transform="translate(46.3021, 6.61458)" />
</svg>
