<?xml version="1.0" encoding="UTF-8" standalone="no"?>
<!-- Created with Inkscape (http://www.inkscape.org/) -->

<svg
   width="138.95366mm"
   height="72.868683mm"
   viewBox="0 0 138.95366 72.868683"
   version="1.1"
   id="svg1"
   inkscape:version="1.3 (0e150ed6c4, 2023-07-21)"
   sodipodi:docname="acrylic-outline_3.svg"
   xmlns:inkscape="http://www.inkscape.org/namespaces/inkscape"
   xmlns:sodipodi="http://sodipodi.sourceforge.net/DTD/sodipodi-0.dtd"
   xmlns="http://www.w3.org/2000/svg"
   xmlns:svg="http://www.w3.org/2000/svg">
  <sodipodi:namedview
     id="namedview1"
     pagecolor="#ffffff"
     bordercolor="#000000"
     borderopacity="0.25"
     inkscape:showpageshadow="2"
     inkscape:pageopacity="0.0"
     inkscape:pagecheckerboard="0"
     inkscape:deskcolor="#d1d1d1"
     inkscape:document-units="mm"
     inkscape:zoom="0.76702441"
     inkscape:cx="262.05163"
     inkscape:cy="137.54451"
     inkscape:window-width="1853"
     inkscape:window-height="1057"
     inkscape:window-x="59"
     inkscape:window-y="-8"
     inkscape:window-maximized="1"
     inkscape:current-layer="layer2" />
  <defs
     id="defs1" />
  <g
     inkscape:label="Layer 1"
     inkscape:groupmode="layer"
     id="layer1"
     transform="translate(-35.429215,-112.15743)" />
  <g
     inkscape:groupmode="layer"
     id="layer2"
     inkscape:label="Dwgs.User">
    <path
       id="path529-78"
       style="display:inline;fill:none;fill-opacity:0.380392;stroke:#000000;stroke-width:0.05;stroke-linecap:round;stroke-linejoin:round;stroke-dasharray:none;stroke-opacity:1"
       d="m 71.509898,112.18333 c -0.738274,0 -1.663057,0.16541 -2.734717,0.53382 -1.160962,0.3991 -2.494305,1.03648 -3.94963,1.96008 -4.365972,2.77081 -9.829821,8.11716 -15.029057,17.33176 l -1.174605,-0.005 c -0.600558,-2.76232 -2.696149,-2.45588 -4.27054,-0.81855 l 1.880505,2.68821 -3.601331,2.52077 -1.106909,-1.5813 -0.0057,0.005 c -1.763574,0.605 -3.068181,1.45824 -4.006474,2.47892 -4.065944,4.42295 -1.238372,11.98552 1.075904,16.07137 1.71e-4,7.5257 14.97433,24.21721 26.331726,31.6327 l 6.60063,-1.77251 c -1.95e-4,-4.07908 3.307033,-7.38611 7.386113,-7.38611 h 5.34696 c 0.990252,0 1.386994,-0.42927 1.386996,-1.47071 -2e-6,-4.1695 -0.605975,-5.93117 -1.824695,-9.14724 l 4.137215,-1.50689 V 155.868 c 2.69e-4,-1.65662 1.34371,-3.00006 3.000334,-3.00033 l 27.906307,5.1e-4 c 1.65663,2.7e-4 2.99955,1.34371 2.99982,3.00034 l -5.2e-4,7.84913 4.13825,1.50637 c -1.21872,3.21607 -1.82521,4.97774 -1.82521,9.14724 0,1.04145 0.39674,1.47072 1.38699,1.47072 h 5.34696 c 4.07908,0 7.38631,3.30703 7.38611,7.38611 l 6.60115,1.7725 c 11.3574,-7.4155 26.33204,-24.10699 26.33224,-31.63269 2.84834,-5.02874 6.4742,-15.32342 -2.9316,-18.55029 l -0.005,-0.005 -1.10587,1.5813 -3.60237,-2.5213 1.88206,-2.68769 c -1.5744,-1.63733 -3.67104,-1.94327 -4.27158,0.81907 l -1.1746,0.004 c -6.93309,-12.28608 -14.33553,-17.69584 -18.97937,-19.29226 -1.07165,-0.3684 -1.99594,-0.5333 -2.7342,-0.5333 -3.93744,-1e-5 -7.06349,4.39484 -8.68682,7.01456 l -15.74219,-5.2e-4 0.38137,1.79421 -4.20284,0.89348 -0.36845,-1.73271 -9.55497,5.2e-4 -0.368457,1.73168 -4.203361,-0.89297 0.381889,-1.79421 H 80.195672 c -1.623318,-2.61971 -4.748321,-7.01403 -8.685774,-7.01404 z m 67.672352,6.97322 c 0.49689,0.008 0.98131,0.13744 1.41542,0.3793 a 3.000305,3.000305 0 0 1 0.0806,0.0491 c 0.42311,0.25346 0.79571,0.60251 1.05988,1.05989 l 11.77448,20.3941 a 3.000305,3.000305 0 0 1 0.004,0.009 l 0.10645,0.185 c 1.99056,1.29772 3.6476,3.04619 4.83743,5.10305 3.83134,6.63603 2.06335,14.96398 -3.83284,19.52646 l 0.91623,1.58698 -3.7021,2.13785 -0.92708,-1.60558 c -6.86526,2.72305 -14.86954,0.0778 -18.67225,-6.50865 -1.16932,-2.046 -1.84518,-4.33692 -1.973,-6.69003 l -4.52789,-7.84242 0.001,-5.1e-4 -7.38715,-12.79509 c -0.26401,-0.45746 -0.38015,-0.95482 -0.38809,-1.44797 a 3.000305,3.000305 0 0 1 -0.002,-0.0941 c 0.008,-0.49689 0.13744,-0.9813 0.37931,-1.41542 a 3.000305,3.000305 0 0 1 0.0491,-0.0801 c 0.25345,-0.42312 0.60251,-0.79623 1.05988,-1.0604 l 18.18671,-10.50015 c 0.45747,-0.26402 0.95481,-0.37963 1.44797,-0.38757 a 3.000305,3.000305 0 0 1 0.0941,-0.003 z m -68.762208,0.97203 c 0.04356,1e-5 0.08038,0.0194 0.122473,0.0248 0.681082,0.0645 1.319512,0.35941 1.809709,0.83664 l 9.540502,9.54102 c 1.171223,1.17161 1.171228,3.07052 0,4.24212 l -9.542053,9.54205 c -1.171607,1.17123 -3.070511,1.17123 -4.242118,0 l -6.7908,-6.7908 -2.749703,-2.7497 -1.298629,-1.29863 c -0.242339,-0.27891 -0.511567,-0.35285 -0.86403,-0.35708 -1.596086,1.4e-4 -2.889606,-1.29417 -2.889746,-2.89027 -7.4e-5,-0.79814 0.323419,-1.52024 0.84646,-2.04328 0.130761,-0.13076 0.27412,-0.24905 0.427881,-0.35295 0.461283,-0.31169 1.017313,-0.49356 1.615922,-0.49351 0.798044,7e-5 1.520347,0.32343 2.043286,0.84646 l 0.51263,0.51263 c 0.447221,0.44722 0.993551,0.44719 1.440739,0 l 7.70754,-7.70754 c 0.605625,-0.59602 1.43538,-0.90706 2.283582,-0.85628 0.0092,-2.7e-4 0.01714,-0.006 0.02636,-0.006 z m 82.985638,7.21041 c 1.5963,-1.5e-4 2.88989,1.29396 2.88974,2.89027 -1.2e-4,1.59607 -1.29416,2.88988 -2.89026,2.88974 -1.59585,-1.6e-4 -2.8891,-1.29436 -2.88923,-2.89026 -8e-5,-0.79804 0.32352,-1.52077 0.84646,-2.0438 0.13074,-0.13076 0.27363,-0.24911 0.42736,-0.35295 0.46118,-0.31155 1.0174,-0.49294 1.61593,-0.493 z m -48.49989,17.6444 a 1.25,1.25 0 0 1 1.25006,1.25006 1.25,1.25 0 0 1 -1.25006,1.25005 1.25,1.25 0 0 1 -1.25005,-1.25005 1.25,1.25 0 0 1 1.25005,-1.25006 z m 43.51414,26.08575 a 1.25,1.25 0 0 1 1.24954,1.25005 1.25,1.25 0 0 1 -1.24954,1.25006 1.25,1.25 0 0 1 -1.25005,-1.25006 1.25,1.25 0 0 1 1.25005,-1.25005 z m -87.028278,0.01 a 1.25,1.25 0 0 1 1.250053,1.25005 1.25,1.25 0 0 1 -1.250053,1.25006 1.25,1.25 0 0 1 -1.250053,-1.25006 1.25,1.25 0 0 1 1.250053,-1.25005 z"
       transform="translate(-35.429214,-112.15743)" />
  </g>
</svg>
