  0
SECTION
  2
HEADER
  9
$ACADVER
  1
AC1014
  9
$HANDSEED
  5
FFFF
  9
$INSUNITS
 70
     4
  9
$MEASUREMENT
 70
     1
  0
ENDSEC
  0
SECTION
  2
TABLES
  0
TABLE
  2
VPORT
  5
8
330
0
100
AcDbSymbolTable
 70
     4
  0
VPORT
  5
2E
330
8
100
AcDbSymbolTableRecord
100
AcDbViewportTableRecord
  2
*ACTIVE
 70
     0
 10
0.0
 20
0.0
 11
1.0
 21
1.0
 12
210.0
 22
148.5
 13
0.0
 23
0.0
 14
10.0
 24
10.0
 15
10.0
 25
10.0
 16
0.0
 26
0.0
 36
1.0
 17
0.0
 27
0.0
 37
0.0
 40
341.0
 41
1.24
 42
50.0
 43
0.0
 44
0.0
 50
0.0
 51
0.0
 71
     0
 72
   100
 73
     1
 74
     3
 75
     0
 76
     0
 77
     0
 78
     0
  0
ENDTAB
  0
TABLE
  2
LTYPE
  5
5
330
0
100
AcDbSymbolTable
 70
     1
  0
LTYPE
  5
14
330
5
100
AcDbSymbolTableRecord
100
AcDbLinetypeTableRecord
  2
BYBLOCK
 70
     0
  3

 72
    65
 73
     0
 40
0.0
  0
LTYPE
  5
15
330
5
100
AcDbSymbolTableRecord
100
AcDbLinetypeTableRecord
  2
BYLAYER
 70
     0
  3

 72
    65
 73
     0
 40
0.0
  0
LTYPE
  5
16
330
5
100
AcDbSymbolTableRecord
100
AcDbLinetypeTableRecord
  2
CONTINUOUS
 70
     0
  3
Solid line
 72
    65
 73
     0
 40
0.0
  0
ENDTAB
  0
TABLE
  2
LAYER
  5
2
100
AcDbSymbolTable
 70
3
  0
LAYER
  5
50
100
AcDbSymbolTableRecord
100
AcDbLayerTableRecord
  2
0
 70
0
  6
CONTINUOUS
  0
LAYER
  5
51
100
AcDbSymbolTableRecord
100
AcDbLayerTableRecord
  2
Layer_1
 70
0
  6
CONTINUOUS
  0
LAYER
  5
52
100
AcDbSymbolTableRecord
100
AcDbLayerTableRecord
  2
Dwgs.User
 70
0
  6
CONTINUOUS
  0
ENDTAB
  0
TABLE
  2
STYLE
  5
3
330
0
100
AcDbSymbolTable
 70
     1
  0
STYLE
  5
11
330
3
100
AcDbSymbolTableRecord
100
AcDbTextStyleTableRecord
  2
STANDARD
 70
     0
 40
0.0
 41
1.0
 50
0.0
 71
     0
 42
2.5
  3
txt
  4

  0
ENDTAB
  0
TABLE
  2
VIEW
  5
6
330
0
100
AcDbSymbolTable
 70
     0
  0
ENDTAB
  0
TABLE
  2
UCS
  5
7
330
0
100
AcDbSymbolTable
 70
     0
  0
ENDTAB
  0
TABLE
  2
APPID
  5
9
330
0
100
AcDbSymbolTable
 70
     2
  0
APPID
  5
12
330
9
100
AcDbSymbolTableRecord
100
AcDbRegAppTableRecord
  2
ACAD
 70
     0
  0
ENDTAB
  0
TABLE
  2
DIMSTYLE
  5
A
330
0
100
AcDbSymbolTable
 70
     1
  0
DIMSTYLE
105
27
330
A
100
AcDbSymbolTableRecord
100
AcDbDimStyleTableRecord
  2
ISO-25
 70
     0
  3

  4

  5

  6

  7

 40
1.0
 41
2.5
 42
0.625
 43
3.75
 44
1.25
 45
0.0
 46
0.0
 47
0.0
 48
0.0
140
2.5
141
2.5
142
0.0
143
0.03937007874016
144
1.0
145
0.0
146
1.0
147
0.625
 71
     0
 72
     0
 73
     0
 74
     0
 75
     0
 76
     0
 77
     1
 78
     8
170
     0
171
     3
172
     1
173
     0
174
     0
175
     0
176
     0
177
     0
178
     0
270
     2
271
     2
272
     2
273
     2
274
     3
340
11
275
     0
280
     0
281
     0
282
     0
283
     0
284
     8
285
     0
286
     0
287
     3
288
     0
  0
ENDTAB
  0
TABLE
  2
BLOCK_RECORD
  5
1
330
0
100
AcDbSymbolTable
 70
     1
  0
BLOCK_RECORD
  5
1F
330
1
100
AcDbSymbolTableRecord
100
AcDbBlockTableRecord
  2
*MODEL_SPACE
  0
BLOCK_RECORD
  5
1B
330
1
100
AcDbSymbolTableRecord
100
AcDbBlockTableRecord
  2
*PAPER_SPACE
  0
ENDTAB
  0
ENDSEC
  0
SECTION
  2
BLOCKS
  0
BLOCK
  5
20
330
1F
100
AcDbEntity
  8
0
100
AcDbBlockBegin
  2
*MODEL_SPACE
 70
     0
 10
0.0
 20
0.0
 30
0.0
  3
*MODEL_SPACE
  1

  0
ENDBLK
  5
21
330
1F
100
AcDbEntity
  8
0
100
AcDbBlockEnd
  0
BLOCK
  5
1C
330
1B
100
AcDbEntity
 67
     1
  8
0
100
AcDbBlockBegin
  2
*PAPER_SPACE
  1

  0
ENDBLK
  5
1D
330
1B
100
AcDbEntity
 67
     1
  8
0
100
AcDbBlockEnd
  0
ENDSEC
  0
SECTION
  2
ENTITIES
  0
SPLINE
  5
100
100
AcDbEntity
  8
Dwgs.User
 62
7
100
AcDbSpline
 70
8
 71
3
 72
8
 73
4
 74
0
 40
0
 40
0
 40
0
 40
0
 40
1
 40
1
 40
1
 40
1
 10
36.080684
 20
72.842783
 30
0.0
 10
35.342410
 20
72.842783
 30
0.0
 10
34.417627
 20
72.677373
 30
0.0
 10
33.345967
 20
72.308963
 30
0.0
  0
SPLINE
  5
101
100
AcDbEntity
  8
Dwgs.User
 62
7
100
AcDbSpline
 70
8
 71
3
 72
8
 73
4
 74
0
 40
0
 40
0
 40
0
 40
0
 40
1
 40
1
 40
1
 40
1
 10
33.345967
 20
72.308963
 30
0.0
 10
32.185005
 20
71.909863
 30
0.0
 10
30.851662
 20
71.272483
 30
0.0
 10
29.396337
 20
70.348883
 30
0.0
  0
SPLINE
  5
102
100
AcDbEntity
  8
Dwgs.User
 62
7
100
AcDbSpline
 70
8
 71
3
 72
8
 73
4
 74
0
 40
0
 40
0
 40
0
 40
0
 40
1
 40
1
 40
1
 40
1
 10
29.396337
 20
70.348883
 30
0.0
 10
25.030365
 20
67.578073
 30
0.0
 10
19.566516
 20
62.231723
 30
0.0
 10
14.367280
 20
53.017123
 30
0.0
  0
SPLINE
  5
103
100
AcDbEntity
  8
Dwgs.User
 62
7
100
AcDbSpline
 70
8
 71
3
 72
8
 73
4
 74
0
 40
0
 40
0
 40
0
 40
0
 40
1
 40
1
 40
1
 40
1
 10
13.192675
 20
53.022123
 30
0.0
 10
12.592117
 20
55.784443
 30
0.0
 10
10.496526
 20
55.478003
 30
0.0
 10
8.922135
 20
53.840673
 30
0.0
  0
LWPOLYLINE
  5
104
100
AcDbEntity
  8
Dwgs.User
 62
7
100
AcDbPolyline
 90
2
 70
0
 10
14.367280
 20
53.017123
 30
0.0
 10
13.192675
 20
53.022123
 30
0.0
  0
SPLINE
  5
105
100
AcDbEntity
  8
Dwgs.User
 62
7
100
AcDbSpline
 70
8
 71
3
 72
8
 73
4
 74
0
 40
0
 40
0
 40
0
 40
0
 40
1
 40
1
 40
1
 40
1
 10
6.088700
 20
50.207993
 30
0.0
 10
4.325126
 20
49.602993
 30
0.0
 10
3.020519
 20
48.749753
 30
0.0
 10
2.082226
 20
47.729073
 30
0.0
  0
SPLINE
  5
106
100
AcDbEntity
  8
Dwgs.User
 62
7
100
AcDbSpline
 70
8
 71
3
 72
8
 73
4
 74
0
 40
0
 40
0
 40
0
 40
0
 40
1
 40
1
 40
1
 40
1
 10
2.082226
 20
47.729073
 30
0.0
 10
-1.983718
 20
43.306123
 30
0.0
 10
0.843854
 20
35.743553
 30
0.0
 10
3.158130
 20
31.657703
 30
0.0
  0
SPLINE
  5
107
100
AcDbEntity
  8
Dwgs.User
 62
7
100
AcDbSpline
 70
8
 71
3
 72
8
 73
4
 74
0
 40
0
 40
0
 40
0
 40
0
 40
1
 40
1
 40
1
 40
1
 10
3.158130
 20
31.657703
 30
0.0
 10
3.158301
 20
24.132003
 30
0.0
 10
18.132460
 20
7.440493
 30
0.0
 10
29.489856
 20
0.025003
 30
0.0
  0
LWPOLYLINE
  5
108
100
AcDbEntity
  8
Dwgs.User
 62
7
100
AcDbPolyline
 90
5
 70
0
 10
8.922135
 20
53.840673
 30
0.0
 10
10.802640
 20
51.152463
 30
0.0
 10
7.201309
 20
48.631693
 30
0.0
 10
6.094400
 20
50.212993
 30
0.0
 10
6.088700
 20
50.207993
 30
0.0
  0
SPLINE
  5
109
100
AcDbEntity
  8
Dwgs.User
 62
7
100
AcDbSpline
 70
8
 71
3
 72
8
 73
4
 74
0
 40
0
 40
0
 40
0
 40
0
 40
1
 40
1
 40
1
 40
1
 10
36.090486
 20
1.797513
 30
0.0
 10
36.090291
 20
5.876593
 30
0.0
 10
39.397519
 20
9.183623
 30
0.0
 10
43.476599
 20
9.183623
 30
0.0
  0
LWPOLYLINE
  5
10a
100
AcDbEntity
  8
Dwgs.User
 62
7
100
AcDbPolyline
 90
2
 70
0
 10
29.489856
 20
0.025003
 30
0.0
 10
36.090486
 20
1.797513
 30
0.0
  0
SPLINE
  5
10b
100
AcDbEntity
  8
Dwgs.User
 62
7
100
AcDbSpline
 70
8
 71
3
 72
8
 73
4
 74
0
 40
0
 40
0
 40
0
 40
0
 40
1
 40
1
 40
1
 40
1
 10
48.823559
 20
9.183623
 30
0.0
 10
49.813811
 20
9.183623
 30
0.0
 10
50.210553
 20
9.612893
 30
0.0
 10
50.210555
 20
10.654333
 30
0.0
  0
SPLINE
  5
10c
100
AcDbEntity
  8
Dwgs.User
 62
7
100
AcDbSpline
 70
8
 71
3
 72
8
 73
4
 74
0
 40
0
 40
0
 40
0
 40
0
 40
1
 40
1
 40
1
 40
1
 10
50.210555
 20
10.654333
 30
0.0
 10
50.210553
 20
14.823833
 30
0.0
 10
49.604580
 20
16.585503
 30
0.0
 10
48.385860
 20
19.801573
 30
0.0
  0
LWPOLYLINE
  5
10d
100
AcDbEntity
  8
Dwgs.User
 62
7
100
AcDbPolyline
 90
2
 70
0
 10
43.476599
 20
9.183623
 30
0.0
 10
48.823559
 20
9.183623
 30
0.0
  0
SPLINE
  5
10e
100
AcDbEntity
  8
Dwgs.User
 62
7
100
AcDbSpline
 70
8
 71
3
 72
8
 73
4
 74
0
 40
0
 40
0
 40
0
 40
0
 40
1
 40
1
 40
1
 40
1
 10
52.523075
 20
29.158113
 30
0.0
 10
52.523344
 20
30.814733
 30
0.0
 10
53.866785
 20
32.158173
 30
0.0
 10
55.523409
 20
32.158443
 30
0.0
  0
LWPOLYLINE
  5
10f
100
AcDbEntity
  8
Dwgs.User
 62
7
100
AcDbPolyline
 90
3
 70
0
 10
48.385860
 20
19.801573
 30
0.0
 10
52.523075
 20
21.308463
 30
0.0
 10
52.523075
 20
29.158113
 30
0.0
  0
SPLINE
  5
110
100
AcDbEntity
  8
Dwgs.User
 62
7
100
AcDbSpline
 70
8
 71
3
 72
8
 73
4
 74
0
 40
0
 40
0
 40
0
 40
0
 40
1
 40
1
 40
1
 40
1
 10
83.429716
 20
32.157933
 30
0.0
 10
85.086346
 20
32.157663
 30
0.0
 10
86.429266
 20
30.814223
 30
0.0
 10
86.429536
 20
29.157593
 30
0.0
  0
LWPOLYLINE
  5
111
100
AcDbEntity
  8
Dwgs.User
 62
7
100
AcDbPolyline
 90
2
 70
0
 10
55.523409
 20
32.158443
 30
0.0
 10
83.429716
 20
32.157933
 30
0.0
  0
SPLINE
  5
112
100
AcDbEntity
  8
Dwgs.User
 62
7
100
AcDbSpline
 70
8
 71
3
 72
8
 73
4
 74
0
 40
0
 40
0
 40
0
 40
0
 40
1
 40
1
 40
1
 40
1
 10
90.567266
 20
19.802093
 30
0.0
 10
89.348546
 20
16.586023
 30
0.0
 10
88.742056
 20
14.824353
 30
0.0
 10
88.742056
 20
10.654853
 30
0.0
  0
SPLINE
  5
113
100
AcDbEntity
  8
Dwgs.User
 62
7
100
AcDbSpline
 70
8
 71
3
 72
8
 73
4
 74
0
 40
0
 40
0
 40
0
 40
0
 40
1
 40
1
 40
1
 40
1
 10
88.742056
 20
10.654853
 30
0.0
 10
88.742056
 20
9.613403
 30
0.0
 10
89.138796
 20
9.184133
 30
0.0
 10
90.129046
 20
9.184133
 30
0.0
  0
LWPOLYLINE
  5
114
100
AcDbEntity
  8
Dwgs.User
 62
7
100
AcDbPolyline
 90
3
 70
0
 10
86.429536
 20
29.157593
 30
0.0
 10
86.429016
 20
21.308463
 30
0.0
 10
90.567266
 20
19.802093
 30
0.0
  0
SPLINE
  5
115
100
AcDbEntity
  8
Dwgs.User
 62
7
100
AcDbSpline
 70
8
 71
3
 72
8
 73
4
 74
0
 40
0
 40
0
 40
0
 40
0
 40
1
 40
1
 40
1
 40
1
 10
95.476006
 20
9.184133
 30
0.0
 10
99.555086
 20
9.184133
 30
0.0
 10
102.862316
 20
5.877103
 30
0.0
 10
102.862116
 20
1.798023
 30
0.0
  0
LWPOLYLINE
  5
116
100
AcDbEntity
  8
Dwgs.User
 62
7
100
AcDbPolyline
 90
2
 70
0
 10
90.129046
 20
9.184133
 30
0.0
 10
95.476006
 20
9.184133
 30
0.0
  0
SPLINE
  5
117
100
AcDbEntity
  8
Dwgs.User
 62
7
100
AcDbSpline
 70
8
 71
3
 72
8
 73
4
 74
0
 40
0
 40
0
 40
0
 40
0
 40
1
 40
1
 40
1
 40
1
 10
109.463266
 20
0.025523
 30
0.0
 10
120.820666
 20
7.441023
 30
0.0
 10
135.795306
 20
24.132513
 30
0.0
 10
135.795506
 20
31.658213
 30
0.0
  0
SPLINE
  5
118
100
AcDbEntity
  8
Dwgs.User
 62
7
100
AcDbSpline
 70
8
 71
3
 72
8
 73
4
 74
0
 40
0
 40
0
 40
0
 40
0
 40
1
 40
1
 40
1
 40
1
 10
135.795506
 20
31.658213
 30
0.0
 10
138.643846
 20
36.686953
 30
0.0
 10
142.269706
 20
46.981633
 30
0.0
 10
132.863906
 20
50.208503
 30
0.0
  0
LWPOLYLINE
  5
119
100
AcDbEntity
  8
Dwgs.User
 62
7
100
AcDbPolyline
 90
2
 70
0
 10
102.862116
 20
1.798023
 30
0.0
 10
109.463266
 20
0.025523
 30
0.0
  0
SPLINE
  5
11a
100
AcDbEntity
  8
Dwgs.User
 62
7
100
AcDbSpline
 70
8
 71
3
 72
8
 73
4
 74
0
 40
0
 40
0
 40
0
 40
0
 40
1
 40
1
 40
1
 40
1
 10
130.032726
 20
53.841193
 30
0.0
 10
128.458326
 20
55.478523
 30
0.0
 10
126.361686
 20
55.784463
 30
0.0
 10
125.761146
 20
53.022123
 30
0.0
  0
LWPOLYLINE
  5
11b
100
AcDbEntity
  8
Dwgs.User
 62
7
100
AcDbPolyline
 90
5
 70
0
 10
132.863906
 20
50.208503
 30
0.0
 10
132.858906
 20
50.213503
 30
0.0
 10
131.753036
 20
48.632203
 30
0.0
 10
128.150666
 20
51.153503
 30
0.0
 10
130.032726
 20
53.841193
 30
0.0
  0
SPLINE
  5
11c
100
AcDbEntity
  8
Dwgs.User
 62
7
100
AcDbSpline
 70
8
 71
3
 72
8
 73
4
 74
0
 40
0
 40
0
 40
0
 40
0
 40
1
 40
1
 40
1
 40
1
 10
124.586546
 20
53.018123
 30
0.0
 10
117.653456
 20
65.304203
 30
0.0
 10
110.251016
 20
70.713963
 30
0.0
 10
105.607176
 20
72.310383
 30
0.0
  0
SPLINE
  5
11d
100
AcDbEntity
  8
Dwgs.User
 62
7
100
AcDbSpline
 70
8
 71
3
 72
8
 73
4
 74
0
 40
0
 40
0
 40
0
 40
0
 40
1
 40
1
 40
1
 40
1
 10
105.607176
 20
72.310383
 30
0.0
 10
104.535526
 20
72.678783
 30
0.0
 10
103.611236
 20
72.843683
 30
0.0
 10
102.872976
 20
72.843683
 30
0.0
  0
SPLINE
  5
11e
100
AcDbEntity
  8
Dwgs.User
 62
7
100
AcDbSpline
 70
8
 71
3
 72
8
 73
4
 74
0
 40
0
 40
0
 40
0
 40
0
 40
1
 40
1
 40
1
 40
1
 10
102.872976
 20
72.843683
 30
0.0
 10
98.935536
 20
72.843693
 30
0.0
 10
95.809486
 20
68.448843
 30
0.0
 10
94.186156
 20
65.829123
 30
0.0
  0
LWPOLYLINE
  5
11f
100
AcDbEntity
  8
Dwgs.User
 62
7
100
AcDbPolyline
 90
2
 70
0
 10
125.761146
 20
53.022123
 30
0.0
 10
124.586546
 20
53.018123
 30
0.0
  0
SPLINE
  5
120
100
AcDbEntity
  8
Dwgs.User
 62
7
100
AcDbSpline
 70
8
 71
3
 72
8
 73
4
 74
0
 40
0
 40
0
 40
0
 40
0
 40
1
 40
1
 40
1
 40
1
 10
44.766458
 20
65.829643
 30
0.0
 10
43.143140
 20
68.449353
 30
0.0
 10
40.018137
 20
72.843673
 30
0.0
 10
36.080684
 20
72.843683
 30
0.0
  0
LWPOLYLINE
  5
121
100
AcDbEntity
  8
Dwgs.User
 62
7
100
AcDbPolyline
 90
10
 70
0
 10
94.186156
 20
65.829123
 30
0.0
 10
78.443966
 20
65.829643
 30
0.0
 10
78.825336
 20
64.035433
 30
0.0
 10
74.622496
 20
63.141953
 30
0.0
 10
74.254046
 20
64.874663
 30
0.0
 10
64.699076
 20
64.874143
 30
0.0
 10
64.330619
 20
63.142463
 30
0.0
 10
60.127258
 20
64.035433
 30
0.0
 10
60.509147
 20
65.829643
 30
0.0
 10
44.766458
 20
65.829643
 30
0.0
  0
SPLINE
  5
122
100
AcDbEntity
  8
Dwgs.User
 62
7
100
AcDbSpline
 70
8
 71
3
 72
8
 73
4
 74
0
 40
0
 40
0
 40
0
 40
0
 40
1
 40
1
 40
1
 40
1
 10
103.753036
 20
65.869563
 30
0.0
 10
104.249926
 20
65.861563
 30
0.0
 10
104.734346
 20
65.732123
 30
0.0
 10
105.168456
 20
65.490263
 30
0.0
  0
SPLINE
  5
123
100
AcDbEntity
  8
Dwgs.User
 62
7
100
AcDbSpline
 70
8
 71
3
 72
8
 73
4
 74
0
 40
0
 40
0
 40
0
 40
0
 40
1
 40
1
 40
1
 40
1
 10
105.168456
 20
65.490263
 30
0.0
 10
105.195578
 20
65.474320
 30
0.0
 10
105.222448
 20
65.457951
 30
0.0
 10
105.249056
 20
65.441163
 30
0.0
  0
SPLINE
  5
124
100
AcDbEntity
  8
Dwgs.User
 62
7
100
AcDbSpline
 70
8
 71
3
 72
8
 73
4
 74
0
 40
0
 40
0
 40
0
 40
0
 40
1
 40
1
 40
1
 40
1
 10
105.249056
 20
65.441163
 30
0.0
 10
105.672166
 20
65.187703
 30
0.0
 10
106.044766
 20
64.838653
 30
0.0
 10
106.308936
 20
64.381273
 30
0.0
  0
LWPOLYLINE
  5
125
100
AcDbEntity
  8
Dwgs.User
 62
7
100
AcDbPolyline
 90
2
 70
0
 10
36.080684
 20
72.843683
 30
0.0
 10
36.080684
 20
72.842783
 30
0.0
  0
SPLINE
  5
126
100
AcDbEntity
  8
Dwgs.User
 62
7
100
AcDbSpline
 70
8
 71
3
 72
8
 73
4
 74
0
 40
0
 40
0
 40
0
 40
0
 40
1
 40
1
 40
1
 40
1
 10
118.083416
 20
43.987173
 30
0.0
 10
118.084754
 20
43.984175
 30
0.0
 10
118.086088
 20
43.981175
 30
0.0
 10
118.087416
 20
43.978173
 30
0.0
  0
LWPOLYLINE
  5
127
100
AcDbEntity
  8
Dwgs.User
 62
7
100
AcDbPolyline
 90
2
 70
0
 10
106.308936
 20
64.381273
 30
0.0
 10
118.083416
 20
43.987173
 30
0.0
  0
SPLINE
  5
128
100
AcDbEntity
  8
Dwgs.User
 62
7
100
AcDbSpline
 70
8
 71
3
 72
8
 73
4
 74
0
 40
0
 40
0
 40
0
 40
0
 40
1
 40
1
 40
1
 40
1
 10
118.193866
 20
43.793173
 30
0.0
 10
120.184426
 20
42.495453
 30
0.0
 10
121.841466
 20
40.746983
 30
0.0
 10
123.031296
 20
38.690123
 30
0.0
  0
SPLINE
  5
129
100
AcDbEntity
  8
Dwgs.User
 62
7
100
AcDbSpline
 70
8
 71
3
 72
8
 73
4
 74
0
 40
0
 40
0
 40
0
 40
0
 40
1
 40
1
 40
1
 40
1
 10
123.031296
 20
38.690123
 30
0.0
 10
126.862636
 20
32.054093
 30
0.0
 10
125.094646
 20
23.726143
 30
0.0
 10
119.198456
 20
19.163663
 30
0.0
  0
LWPOLYLINE
  5
12a
100
AcDbEntity
  8
Dwgs.User
 62
7
100
AcDbPolyline
 90
2
 70
0
 10
118.087416
 20
43.978173
 30
0.0
 10
118.193866
 20
43.793173
 30
0.0
  0
SPLINE
  5
12b
100
AcDbEntity
  8
Dwgs.User
 62
7
100
AcDbSpline
 70
8
 71
3
 72
8
 73
4
 74
0
 40
0
 40
0
 40
0
 40
0
 40
1
 40
1
 40
1
 40
1
 10
115.485506
 20
17.044413
 30
0.0
 10
108.620246
 20
14.321363
 30
0.0
 10
100.615966
 20
16.966613
 30
0.0
 10
96.813256
 20
23.553063
 30
0.0
  0
SPLINE
  5
12c
100
AcDbEntity
  8
Dwgs.User
 62
7
100
AcDbSpline
 70
8
 71
3
 72
8
 73
4
 74
0
 40
0
 40
0
 40
0
 40
0
 40
1
 40
1
 40
1
 40
1
 10
96.813256
 20
23.553063
 30
0.0
 10
95.643936
 20
25.599063
 30
0.0
 10
94.968076
 20
27.889983
 30
0.0
 10
94.840256
 20
30.243093
 30
0.0
  0
LWPOLYLINE
  5
12d
100
AcDbEntity
  8
Dwgs.User
 62
7
100
AcDbPolyline
 90
4
 70
0
 10
119.198456
 20
19.163663
 30
0.0
 10
120.114686
 20
17.576683
 30
0.0
 10
116.412586
 20
15.438833
 30
0.0
 10
115.485506
 20
17.044413
 30
0.0
  0
SPLINE
  5
12e
100
AcDbEntity
  8
Dwgs.User
 62
7
100
AcDbSpline
 70
8
 71
3
 72
8
 73
4
 74
0
 40
0
 40
0
 40
0
 40
0
 40
1
 40
1
 40
1
 40
1
 10
82.926216
 20
50.881113
 30
0.0
 10
82.662206
 20
51.338573
 30
0.0
 10
82.546066
 20
51.835933
 30
0.0
 10
82.538126
 20
52.329083
 30
0.0
  0
SPLINE
  5
12f
100
AcDbEntity
  8
Dwgs.User
 62
7
100
AcDbSpline
 70
8
 71
3
 72
8
 73
4
 74
0
 40
0
 40
0
 40
0
 40
0
 40
1
 40
1
 40
1
 40
1
 10
82.538126
 20
52.329083
 30
0.0
 10
82.536967
 20
52.360437
 30
0.0
 10
82.536301
 20
52.391808
 30
0.0
 10
82.536126
 20
52.423183
 30
0.0
  0
SPLINE
  5
130
100
AcDbEntity
  8
Dwgs.User
 62
7
100
AcDbSpline
 70
8
 71
3
 72
8
 73
4
 74
0
 40
0
 40
0
 40
0
 40
0
 40
1
 40
1
 40
1
 40
1
 10
82.536126
 20
52.423183
 30
0.0
 10
82.544126
 20
52.920073
 30
0.0
 10
82.673566
 20
53.404483
 30
0.0
 10
82.915436
 20
53.838603
 30
0.0
  0
SPLINE
  5
131
100
AcDbEntity
  8
Dwgs.User
 62
7
100
AcDbSpline
 70
8
 71
3
 72
8
 73
4
 74
0
 40
0
 40
0
 40
0
 40
0
 40
1
 40
1
 40
1
 40
1
 10
82.915436
 20
53.838603
 30
0.0
 10
82.931384
 20
53.865558
 30
0.0
 10
82.947752
 20
53.892261
 30
0.0
 10
82.964536
 20
53.918703
 30
0.0
  0
SPLINE
  5
132
100
AcDbEntity
  8
Dwgs.User
 62
7
100
AcDbSpline
 70
8
 71
3
 72
8
 73
4
 74
0
 40
0
 40
0
 40
0
 40
0
 40
1
 40
1
 40
1
 40
1
 10
82.964536
 20
53.918703
 30
0.0
 10
83.217986
 20
54.341823
 30
0.0
 10
83.567046
 20
54.714933
 30
0.0
 10
84.024416
 20
54.979103
 30
0.0
  0
LWPOLYLINE
  5
133
100
AcDbEntity
  8
Dwgs.User
 62
7
100
AcDbPolyline
 90
4
 70
0
 10
94.840256
 20
30.243093
 30
0.0
 10
90.312366
 20
38.085513
 30
0.0
 10
90.313366
 20
38.086023
 30
0.0
 10
82.926216
 20
50.881113
 30
0.0
  0
SPLINE
  5
134
100
AcDbEntity
  8
Dwgs.User
 62
7
100
AcDbSpline
 70
8
 71
3
 72
8
 73
4
 74
0
 40
0
 40
0
 40
0
 40
0
 40
1
 40
1
 40
1
 40
1
 10
102.211126
 20
65.479253
 30
0.0
 10
102.668596
 20
65.743273
 30
0.0
 10
103.165936
 20
65.858883
 30
0.0
 10
103.659096
 20
65.866823
 30
0.0
  0
SPLINE
  5
135
100
AcDbEntity
  8
Dwgs.User
 62
7
100
AcDbSpline
 70
8
 71
3
 72
8
 73
4
 74
0
 40
0
 40
0
 40
0
 40
0
 40
1
 40
1
 40
1
 40
1
 10
103.659096
 20
65.866823
 30
0.0
 10
103.690445
 20
65.868315
 30
0.0
 10
103.721816
 20
65.869315
 30
0.0
 10
103.753196
 20
65.869823
 30
0.0
  0
LWPOLYLINE
  5
136
100
AcDbEntity
  8
Dwgs.User
 62
7
100
AcDbPolyline
 90
2
 70
0
 10
84.024416
 20
54.979103
 30
0.0
 10
102.211126
 20
65.479253
 30
0.0
  0
SPLINE
  5
137
100
AcDbEntity
  8
Dwgs.User
 62
7
100
AcDbSpline
 70
8
 71
3
 72
8
 73
4
 74
0
 40
0
 40
0
 40
0
 40
0
 40
1
 40
1
 40
1
 40
1
 10
34.990828
 20
64.897533
 30
0.0
 10
35.034388
 20
64.897523
 30
0.0
 10
35.071208
 20
64.878133
 30
0.0
 10
35.113301
 20
64.872733
 30
0.0
  0
SPLINE
  5
138
100
AcDbEntity
  8
Dwgs.User
 62
7
100
AcDbSpline
 70
8
 71
3
 72
8
 73
4
 74
0
 40
0
 40
0
 40
0
 40
0
 40
1
 40
1
 40
1
 40
1
 10
35.113301
 20
64.872733
 30
0.0
 10
35.794383
 20
64.808233
 30
0.0
 10
36.432813
 20
64.513323
 30
0.0
 10
36.923010
 20
64.036093
 30
0.0
  0
LWPOLYLINE
  5
139
100
AcDbEntity
  8
Dwgs.User
 62
7
100
AcDbPolyline
 90
2
 70
0
 10
103.753196
 20
65.869823
 30
0.0
 10
103.753036
 20
65.869563
 30
0.0
  0
SPLINE
  5
13a
100
AcDbEntity
  8
Dwgs.User
 62
7
100
AcDbSpline
 70
8
 71
3
 72
8
 73
4
 74
0
 40
0
 40
0
 40
0
 40
0
 40
1
 40
1
 40
1
 40
1
 10
46.463512
 20
54.495073
 30
0.0
 10
47.634735
 20
53.323463
 30
0.0
 10
47.634740
 20
51.424553
 30
0.0
 10
46.463512
 20
50.252953
 30
0.0
  0
LWPOLYLINE
  5
13b
100
AcDbEntity
  8
Dwgs.User
 62
7
100
AcDbPolyline
 90
2
 70
0
 10
36.923010
 20
64.036093
 30
0.0
 10
46.463512
 20
54.495073
 30
0.0
  0
SPLINE
  5
13c
100
AcDbEntity
  8
Dwgs.User
 62
7
100
AcDbSpline
 70
8
 71
3
 72
8
 73
4
 74
0
 40
0
 40
0
 40
0
 40
0
 40
1
 40
1
 40
1
 40
1
 10
36.921459
 20
40.710903
 30
0.0
 10
35.749852
 20
39.539673
 30
0.0
 10
33.850948
 20
39.539673
 30
0.0
 10
32.679341
 20
40.710903
 30
0.0
  0
LWPOLYLINE
  5
13d
100
AcDbEntity
  8
Dwgs.User
 62
7
100
AcDbPolyline
 90
2
 70
0
 10
46.463512
 20
50.252953
 30
0.0
 10
36.921459
 20
40.710903
 30
0.0
  0
SPLINE
  5
13e
100
AcDbEntity
  8
Dwgs.User
 62
7
100
AcDbSpline
 70
8
 71
3
 72
8
 73
4
 74
0
 40
0
 40
0
 40
0
 40
0
 40
1
 40
1
 40
1
 40
1
 10
21.840209
 20
51.550033
 30
0.0
 10
21.597870
 20
51.828943
 30
0.0
 10
21.328642
 20
51.902883
 30
0.0
 10
20.976179
 20
51.907113
 30
0.0
  0
SPLINE
  5
13f
100
AcDbEntity
  8
Dwgs.User
 62
7
100
AcDbSpline
 70
8
 71
3
 72
8
 73
4
 74
0
 40
0
 40
0
 40
0
 40
0
 40
1
 40
1
 40
1
 40
1
 10
20.976179
 20
51.907113
 30
0.0
 10
19.380093
 20
51.906973
 30
0.0
 10
18.086573
 20
53.201283
 30
0.0
 10
18.086433
 20
54.797383
 30
0.0
  0
SPLINE
  5
140
100
AcDbEntity
  8
Dwgs.User
 62
7
100
AcDbSpline
 70
8
 71
3
 72
8
 73
4
 74
0
 40
0
 40
0
 40
0
 40
0
 40
1
 40
1
 40
1
 40
1
 10
18.086433
 20
54.797383
 30
0.0
 10
18.086359
 20
55.595523
 30
0.0
 10
18.409852
 20
56.317623
 30
0.0
 10
18.932893
 20
56.840663
 30
0.0
  0
SPLINE
  5
141
100
AcDbEntity
  8
Dwgs.User
 62
7
100
AcDbSpline
 70
8
 71
3
 72
8
 73
4
 74
0
 40
0
 40
0
 40
0
 40
0
 40
1
 40
1
 40
1
 40
1
 10
18.932893
 20
56.840663
 30
0.0
 10
19.063654
 20
56.971423
 30
0.0
 10
19.207013
 20
57.089713
 30
0.0
 10
19.360774
 20
57.193613
 30
0.0
  0
SPLINE
  5
142
100
AcDbEntity
  8
Dwgs.User
 62
7
100
AcDbSpline
 70
8
 71
3
 72
8
 73
4
 74
0
 40
0
 40
0
 40
0
 40
0
 40
1
 40
1
 40
1
 40
1
 10
19.360774
 20
57.193613
 30
0.0
 10
19.822057
 20
57.505303
 30
0.0
 10
20.378087
 20
57.687173
 30
0.0
 10
20.976696
 20
57.687123
 30
0.0
  0
SPLINE
  5
143
100
AcDbEntity
  8
Dwgs.User
 62
7
100
AcDbSpline
 70
8
 71
3
 72
8
 73
4
 74
0
 40
0
 40
0
 40
0
 40
0
 40
1
 40
1
 40
1
 40
1
 10
20.976696
 20
57.687123
 30
0.0
 10
21.774740
 20
57.687053
 30
0.0
 10
22.497043
 20
57.363693
 30
0.0
 10
23.019982
 20
56.840663
 30
0.0
  0
LWPOLYLINE
  5
144
100
AcDbEntity
  8
Dwgs.User
 62
7
100
AcDbPolyline
 90
4
 70
0
 10
32.679341
 20
40.710903
 30
0.0
 10
25.888541
 20
47.501703
 30
0.0
 10
23.138838
 20
50.251403
 30
0.0
 10
21.840209
 20
51.550033
 30
0.0
  0
SPLINE
  5
145
100
AcDbEntity
  8
Dwgs.User
 62
7
100
AcDbSpline
 70
8
 71
3
 72
8
 73
4
 74
0
 40
0
 40
0
 40
0
 40
0
 40
1
 40
1
 40
1
 40
1
 10
23.532612
 20
56.328033
 30
0.0
 10
23.979833
 20
55.880813
 30
0.0
 10
24.526163
 20
55.880843
 30
0.0
 10
24.973351
 20
56.328033
 30
0.0
  0
LWPOLYLINE
  5
146
100
AcDbEntity
  8
Dwgs.User
 62
7
100
AcDbPolyline
 90
2
 70
0
 10
23.019982
 20
56.840663
 30
0.0
 10
23.532612
 20
56.328033
 30
0.0
  0
SPLINE
  5
147
100
AcDbEntity
  8
Dwgs.User
 62
7
100
AcDbSpline
 70
8
 71
3
 72
8
 73
4
 74
0
 40
0
 40
0
 40
0
 40
0
 40
1
 40
1
 40
1
 40
1
 10
32.680891
 20
64.035573
 30
0.0
 10
33.286516
 20
64.631593
 30
0.0
 10
34.116271
 20
64.942633
 30
0.0
 10
34.964473
 20
64.891853
 30
0.0
  0
SPLINE
  5
148
100
AcDbEntity
  8
Dwgs.User
 62
7
100
AcDbSpline
 70
8
 71
3
 72
8
 73
4
 74
0
 40
0
 40
0
 40
0
 40
0
 40
1
 40
1
 40
1
 40
1
 10
34.964473
 20
64.891853
 30
0.0
 10
34.973673
 20
64.892123
 30
0.0
 10
34.981613
 20
64.897853
 30
0.0
 10
34.990833
 20
64.897853
 30
0.0
  0
LWPOLYLINE
  5
149
100
AcDbEntity
  8
Dwgs.User
 62
7
100
AcDbPolyline
 90
2
 70
0
 10
24.973351
 20
56.328033
 30
0.0
 10
32.680891
 20
64.035573
 30
0.0
  0
SPLINE
  5
14a
100
AcDbEntity
  8
Dwgs.User
 62
7
100
AcDbSpline
 70
8
 71
3
 72
8
 73
4
 74
0
 40
0
 40
0
 40
0
 40
0
 40
1
 40
1
 40
1
 40
1
 10
117.976466
 20
57.687123
 30
0.0
 10
119.572766
 20
57.687273
 30
0.0
 10
120.866356
 20
56.393163
 30
0.0
 10
120.866206
 20
54.796853
 30
0.0
  0
SPLINE
  5
14b
100
AcDbEntity
  8
Dwgs.User
 62
7
100
AcDbSpline
 70
8
 71
3
 72
8
 73
4
 74
0
 40
0
 40
0
 40
0
 40
0
 40
1
 40
1
 40
1
 40
1
 10
120.866206
 20
54.796853
 30
0.0
 10
120.866086
 20
53.200783
 30
0.0
 10
119.572046
 20
51.906973
 30
0.0
 10
117.975946
 20
51.907113
 30
0.0
  0
SPLINE
  5
14c
100
AcDbEntity
  8
Dwgs.User
 62
7
100
AcDbSpline
 70
8
 71
3
 72
8
 73
4
 74
0
 40
0
 40
0
 40
0
 40
0
 40
1
 40
1
 40
1
 40
1
 10
117.975946
 20
51.907113
 30
0.0
 10
116.380096
 20
51.907273
 30
0.0
 10
115.086846
 20
53.201473
 30
0.0
 10
115.086716
 20
54.797373
 30
0.0
  0
SPLINE
  5
14d
100
AcDbEntity
  8
Dwgs.User
 62
7
100
AcDbSpline
 70
8
 71
3
 72
8
 73
4
 74
0
 40
0
 40
0
 40
0
 40
0
 40
1
 40
1
 40
1
 40
1
 10
115.086716
 20
54.797373
 30
0.0
 10
115.086636
 20
55.595413
 30
0.0
 10
115.410236
 20
56.318143
 30
0.0
 10
115.933176
 20
56.841173
 30
0.0
  0
SPLINE
  5
14e
100
AcDbEntity
  8
Dwgs.User
 62
7
100
AcDbSpline
 70
8
 71
3
 72
8
 73
4
 74
0
 40
0
 40
0
 40
0
 40
0
 40
1
 40
1
 40
1
 40
1
 10
115.933176
 20
56.841173
 30
0.0
 10
116.063916
 20
56.971933
 30
0.0
 10
116.206806
 20
57.090283
 30
0.0
 10
116.360536
 20
57.194123
 30
0.0
  0
SPLINE
  5
14f
100
AcDbEntity
  8
Dwgs.User
 62
7
100
AcDbSpline
 70
8
 71
3
 72
8
 73
4
 74
0
 40
0
 40
0
 40
0
 40
0
 40
1
 40
1
 40
1
 40
1
 10
116.360536
 20
57.194123
 30
0.0
 10
116.821716
 20
57.505673
 30
0.0
 10
117.377936
 20
57.687063
 30
0.0
 10
117.976466
 20
57.687123
 30
0.0
  0
LWPOLYLINE
  5
150
100
AcDbEntity
  8
Dwgs.User
 62
7
100
AcDbPolyline
 90
2
 70
0
 10
34.990833
 20
64.897853
 30
0.0
 10
34.990828
 20
64.897533
 30
0.0
  0
SPLINE
  5
151
100
AcDbEntity
  8
Dwgs.User
 62
7
100
AcDbSpline
 70
8
 71
3
 72
8
 73
4
 74
0
 40
0
 40
0
 40
0
 40
0
 40
1
 40
1
 40
1
 40
1
 10
69.476576
 20
40.042723
 30
0.0
 10
69.808117
 20
40.042739
 30
0.0
 10
70.126084
 20
39.911042
 30
0.0
 10
70.360519
 20
39.676606
 30
0.0
  0
SPLINE
  5
152
100
AcDbEntity
  8
Dwgs.User
 62
7
100
AcDbSpline
 70
8
 71
3
 72
8
 73
4
 74
0
 40
0
 40
0
 40
0
 40
0
 40
1
 40
1
 40
1
 40
1
 10
70.360519
 20
39.676606
 30
0.0
 10
70.594955
 20
39.442171
 30
0.0
 10
70.726652
 20
39.124204
 30
0.0
 10
70.726636
 20
38.792663
 30
0.0
  0
SPLINE
  5
153
100
AcDbEntity
  8
Dwgs.User
 62
7
100
AcDbSpline
 70
8
 71
3
 72
8
 73
4
 74
0
 40
0
 40
0
 40
0
 40
0
 40
1
 40
1
 40
1
 40
1
 10
70.726636
 20
38.792663
 30
0.0
 10
70.726649
 20
38.461123
 30
0.0
 10
70.594951
 20
38.143159
 30
0.0
 10
70.360516
 20
37.908726
 30
0.0
  0
SPLINE
  5
154
100
AcDbEntity
  8
Dwgs.User
 62
7
100
AcDbSpline
 70
8
 71
3
 72
8
 73
4
 74
0
 40
0
 40
0
 40
0
 40
0
 40
1
 40
1
 40
1
 40
1
 10
70.360516
 20
37.908726
 30
0.0
 10
70.126081
 20
37.674293
 30
0.0
 10
69.808116
 20
37.542597
 30
0.0
 10
69.476576
 20
37.542613
 30
0.0
  0
SPLINE
  5
155
100
AcDbEntity
  8
Dwgs.User
 62
7
100
AcDbSpline
 70
8
 71
3
 72
8
 73
4
 74
0
 40
0
 40
0
 40
0
 40
0
 40
1
 40
1
 40
1
 40
1
 10
69.476576
 20
37.542613
 30
0.0
 10
69.145038
 20
37.542600
 30
0.0
 10
68.827075
 20
37.674297
 30
0.0
 10
68.592643
 20
37.908730
 30
0.0
  0
SPLINE
  5
156
100
AcDbEntity
  8
Dwgs.User
 62
7
100
AcDbSpline
 70
8
 71
3
 72
8
 73
4
 74
0
 40
0
 40
0
 40
0
 40
0
 40
1
 40
1
 40
1
 40
1
 10
68.592643
 20
37.908730
 30
0.0
 10
68.358210
 20
38.143162
 30
0.0
 10
68.226513
 20
38.461125
 30
0.0
 10
68.226526
 20
38.792663
 30
0.0
  0
SPLINE
  5
157
100
AcDbEntity
  8
Dwgs.User
 62
7
100
AcDbSpline
 70
8
 71
3
 72
8
 73
4
 74
0
 40
0
 40
0
 40
0
 40
0
 40
1
 40
1
 40
1
 40
1
 10
68.226526
 20
38.792663
 30
0.0
 10
68.226510
 20
39.124203
 30
0.0
 10
68.358206
 20
39.442168
 30
0.0
 10
68.592639
 20
39.676603
 30
0.0
  0
SPLINE
  5
158
100
AcDbEntity
  8
Dwgs.User
 62
7
100
AcDbSpline
 70
8
 71
3
 72
8
 73
4
 74
0
 40
0
 40
0
 40
0
 40
0
 40
1
 40
1
 40
1
 40
1
 10
68.592639
 20
39.676603
 30
0.0
 10
68.827072
 20
39.911038
 30
0.0
 10
69.145036
 20
40.042736
 30
0.0
 10
69.476576
 20
40.042723
 30
0.0
  0
LWPOLYLINE
  5
159
100
AcDbEntity
  8
Dwgs.User
 62
7
100
AcDbPolyline
 90
1
 70
1
 10
117.976466
 20
57.687123
 30
0.0
  0
SPLINE
  5
15a
100
AcDbEntity
  8
Dwgs.User
 62
7
100
AcDbSpline
 70
8
 71
3
 72
8
 73
4
 74
0
 40
0
 40
0
 40
0
 40
0
 40
1
 40
1
 40
1
 40
1
 10
112.990716
 20
13.956973
 30
0.0
 10
113.680912
 20
13.956719
 30
0.0
 10
114.240284
 20
13.397119
 30
0.0
 10
114.240256
 20
12.706923
 30
0.0
  0
SPLINE
  5
15b
100
AcDbEntity
  8
Dwgs.User
 62
7
100
AcDbSpline
 70
8
 71
3
 72
8
 73
4
 74
0
 40
0
 40
0
 40
0
 40
0
 40
1
 40
1
 40
1
 40
1
 10
114.240256
 20
12.706923
 30
0.0
 10
114.240289
 20
12.016723
 30
0.0
 10
113.680916
 20
11.457117
 30
0.0
 10
112.990716
 20
11.456863
 30
0.0
  0
SPLINE
  5
15c
100
AcDbEntity
  8
Dwgs.User
 62
7
100
AcDbSpline
 70
8
 71
3
 72
8
 73
4
 74
0
 40
0
 40
0
 40
0
 40
0
 40
1
 40
1
 40
1
 40
1
 10
112.990716
 20
11.456863
 30
0.0
 10
112.659176
 20
11.456850
 30
0.0
 10
112.341212
 20
11.588548
 30
0.0
 10
112.106779
 20
11.822983
 30
0.0
  0
SPLINE
  5
15d
100
AcDbEntity
  8
Dwgs.User
 62
7
100
AcDbSpline
 70
8
 71
3
 72
8
 73
4
 74
0
 40
0
 40
0
 40
0
 40
0
 40
1
 40
1
 40
1
 40
1
 10
112.106779
 20
11.822983
 30
0.0
 10
111.872346
 20
12.057418
 30
0.0
 10
111.740650
 20
12.375383
 30
0.0
 10
111.740666
 20
12.706923
 30
0.0
  0
SPLINE
  5
15e
100
AcDbEntity
  8
Dwgs.User
 62
7
100
AcDbSpline
 70
8
 71
3
 72
8
 73
4
 74
0
 40
0
 40
0
 40
0
 40
0
 40
1
 40
1
 40
1
 40
1
 10
111.740666
 20
12.706923
 30
0.0
 10
111.740653
 20
13.038461
 30
0.0
 10
111.872350
 20
13.356424
 30
0.0
 10
112.106783
 20
13.590856
 30
0.0
  0
SPLINE
  5
15f
100
AcDbEntity
  8
Dwgs.User
 62
7
100
AcDbSpline
 70
8
 71
3
 72
8
 73
4
 74
0
 40
0
 40
0
 40
0
 40
0
 40
1
 40
1
 40
1
 40
1
 10
112.106783
 20
13.590856
 30
0.0
 10
112.341215
 20
13.825289
 30
0.0
 10
112.659178
 20
13.956986
 30
0.0
 10
112.990716
 20
13.956973
 30
0.0
  0
LWPOLYLINE
  5
160
100
AcDbEntity
  8
Dwgs.User
 62
7
100
AcDbPolyline
 90
1
 70
1
 10
69.476576
 20
40.042723
 30
0.0
  0
SPLINE
  5
161
100
AcDbEntity
  8
Dwgs.User
 62
7
100
AcDbSpline
 70
8
 71
3
 72
8
 73
4
 74
0
 40
0
 40
0
 40
0
 40
0
 40
1
 40
1
 40
1
 40
1
 10
25.962438
 20
13.946973
 30
0.0
 10
26.293976
 20
13.946987
 30
0.0
 10
26.611940
 20
13.815290
 30
0.0
 10
26.846373
 20
13.580858
 30
0.0
  0
SPLINE
  5
162
100
AcDbEntity
  8
Dwgs.User
 62
7
100
AcDbSpline
 70
8
 71
3
 72
8
 73
4
 74
0
 40
0
 40
0
 40
0
 40
0
 40
1
 40
1
 40
1
 40
1
 10
26.846373
 20
13.580858
 30
0.0
 10
27.080807
 20
13.346425
 30
0.0
 10
27.212504
 20
13.028461
 30
0.0
 10
27.212491
 20
12.696923
 30
0.0
  0
SPLINE
  5
163
100
AcDbEntity
  8
Dwgs.User
 62
7
100
AcDbSpline
 70
8
 71
3
 72
8
 73
4
 74
0
 40
0
 40
0
 40
0
 40
0
 40
1
 40
1
 40
1
 40
1
 10
27.212491
 20
12.696923
 30
0.0
 10
27.212507
 20
12.365383
 30
0.0
 10
27.080811
 20
12.047417
 30
0.0
 10
26.846377
 20
11.812982
 30
0.0
  0
SPLINE
  5
164
100
AcDbEntity
  8
Dwgs.User
 62
7
100
AcDbSpline
 70
8
 71
3
 72
8
 73
4
 74
0
 40
0
 40
0
 40
0
 40
0
 40
1
 40
1
 40
1
 40
1
 10
26.846377
 20
11.812982
 30
0.0
 10
26.611943
 20
11.578547
 30
0.0
 10
26.293978
 20
11.446849
 30
0.0
 10
25.962438
 20
11.446863
 30
0.0
  0
SPLINE
  5
165
100
AcDbEntity
  8
Dwgs.User
 62
7
100
AcDbSpline
 70
8
 71
3
 72
8
 73
4
 74
0
 40
0
 40
0
 40
0
 40
0
 40
1
 40
1
 40
1
 40
1
 10
25.962438
 20
11.446863
 30
0.0
 10
25.630898
 20
11.446849
 30
0.0
 10
25.312933
 20
11.578547
 30
0.0
 10
25.078499
 20
11.812982
 30
0.0
  0
SPLINE
  5
166
100
AcDbEntity
  8
Dwgs.User
 62
7
100
AcDbSpline
 70
8
 71
3
 72
8
 73
4
 74
0
 40
0
 40
0
 40
0
 40
0
 40
1
 40
1
 40
1
 40
1
 10
25.078499
 20
11.812982
 30
0.0
 10
24.844065
 20
12.047417
 30
0.0
 10
24.712369
 20
12.365383
 30
0.0
 10
24.712385
 20
12.696923
 30
0.0
  0
SPLINE
  5
167
100
AcDbEntity
  8
Dwgs.User
 62
7
100
AcDbSpline
 70
8
 71
3
 72
8
 73
4
 74
0
 40
0
 40
0
 40
0
 40
0
 40
1
 40
1
 40
1
 40
1
 10
24.712385
 20
12.696923
 30
0.0
 10
24.712372
 20
13.028461
 30
0.0
 10
24.844069
 20
13.346425
 30
0.0
 10
25.078503
 20
13.580858
 30
0.0
  0
SPLINE
  5
168
100
AcDbEntity
  8
Dwgs.User
 62
7
100
AcDbSpline
 70
8
 71
3
 72
8
 73
4
 74
0
 40
0
 40
0
 40
0
 40
0
 40
1
 40
1
 40
1
 40
1
 10
25.078503
 20
13.580858
 30
0.0
 10
25.312936
 20
13.815290
 30
0.0
 10
25.630900
 20
13.946987
 30
0.0
 10
25.962438
 20
13.946973
 30
0.0
  0
LWPOLYLINE
  5
169
100
AcDbEntity
  8
Dwgs.User
 62
7
100
AcDbPolyline
 90
1
 70
1
 10
112.990716
 20
13.956973
 30
0.0
  0
LWPOLYLINE
  5
16a
100
AcDbEntity
  8
Dwgs.User
 62
7
100
AcDbPolyline
 90
1
 70
1
 10
25.962438
 20
13.946973
 30
0.0
  0
ENDSEC
  0
SECTION
  2
OBJECTS
  0
DICTIONARY
  5
C
330
0
100
AcDbDictionary
  3
ACAD_GROUP
350
D
  3
ACAD_MLINESTYLE
350
17
  0
DICTIONARY
  5
D
330
C
100
AcDbDictionary
  0
DICTIONARY
  5
1A
330
C
100
AcDbDictionary
  0
DICTIONARY
  5
17
330
C
100
AcDbDictionary
  3
STANDARD
350
18
  0
DICTIONARY
  5
19
330
C
100
AcDbDictionary
  0
ENDSEC
  0
EOF
