<?xml version="1.0" encoding="UTF-8" standalone="no"?>
<!-- Created with Inkscape (http://www.inkscape.org/) -->

<svg
   width="138.90237mm"
   height="74.647743mm"
   viewBox="0 0 138.90237 74.647743"
   version="1.1"
   id="svg16929"
   inkscape:version="1.2.2 (732a01da63, 2022-12-09)"
   sodipodi:docname="acrylic-prototype.svg"
   xmlns:inkscape="http://www.inkscape.org/namespaces/inkscape"
   xmlns:sodipodi="http://sodipodi.sourceforge.net/DTD/sodipodi-0.dtd"
   xmlns="http://www.w3.org/2000/svg"
   xmlns:svg="http://www.w3.org/2000/svg">
  <sodipodi:namedview
     id="namedview16931"
     pagecolor="#ffffff"
     bordercolor="#000000"
     borderopacity="0.25"
     inkscape:showpageshadow="2"
     inkscape:pageopacity="0.0"
     inkscape:pagecheckerboard="0"
     inkscape:deskcolor="#d1d1d1"
     inkscape:document-units="mm"
     showgrid="false"
     inkscape:zoom="0.84096521"
     inkscape:cx="123.07287"
     inkscape:cy="212.85066"
     inkscape:window-width="1858"
     inkscape:window-height="1177"
     inkscape:window-x="54"
     inkscape:window-y="-8"
     inkscape:window-maximized="1"
     inkscape:current-layer="layer1" />
  <defs
     id="defs16926" />
  <g
     inkscape:label="Layer 1"
     inkscape:groupmode="layer"
     id="layer1"
     transform="translate(-170.91745,-101.10838)">
    <path
       id="path529-78-5"
       style="display:inline;fill:#000000;fill-opacity:1;stroke-width:0.0448567;stroke-linecap:round;stroke-linejoin:round"
       d="m 206.97172,101.10838 c -3.93747,0 -13.18075,4.70419 -21.71289,19.82567 l -1.1746,-0.004 c -0.59719,-2.74705 -2.67589,-2.46862 -4.24729,-0.8558 l 1.97094,2.81482 -3.68608,2.58123 -1.19476,-1.70635 c -9.33537,3.24866 -5.72003,13.51086 -2.87734,18.52962 0,8.22641 17.90092,27.42583 29.40079,33.46255 l -0.70177,-2.61896 4.34651,-1.16478 c 2.18445,-11.01737 15.78274,-2.90263 12.08711,-17.93328 l 4.22869,-1.53892 c 1.57848,-0.57446 -0.24156,-9.51312 2.41277,-9.51312 h 14.54485 14.54485 c 2.65432,0 0.83427,8.93866 2.41277,9.51312 l 4.22868,1.53892 c -3.69563,15.03065 9.90265,6.91591 12.08712,17.93327 l 4.3465,1.16479 -0.70176,2.61896 c 11.49987,-6.03672 29.40079,-25.23614 29.40079,-33.46255 2.84266,-5.01876 6.45802,-15.28096 -2.87735,-18.52962 l -1.19476,1.70635 -3.68608,-2.58123 1.97094,-2.81482 c -1.57141,-1.61282 -3.6501,-1.89122 -4.24728,0.85576 l -1.17461,0.004 c -8.53213,-15.1214 -17.77544,-19.82563 -21.71288,-19.82563 -3.93749,0 -7.06296,4.39432 -8.6863,7.01405 l -15.22542,1.8867 -4.4018,0.93586 h -5.08341 -5.08341 l -4.4018,-0.93586 -15.22543,-1.8867 c -1.62333,-2.61973 -4.74882,-7.01405 -8.68629,-7.01405 z m 67.61396,6.89622 c 0.8866,-0.023 1.75775,0.42749 2.23242,1.24954 l 6.99286,12.11244 c 6.16209,10.67306 8.12931,7.47954 11.90831,14.02498 4.16855,7.22813 2.35857,16.42426 -4.23901,21.53254 l 0.9958,1.72496 -1.9482,1.12499 -1.94872,1.125 -0.9958,-1.72496 c -0.94009,0.38461 -1.89729,0.67581 -2.86081,0.88057 v 1.20406 h -5.2e-4 c -1.6e-4,0.45706 -0.37079,0.82746 -0.82785,0.82734 -0.45706,1.2e-4 -0.8277,-0.37028 -0.82786,-0.82734 v -0.93896 c -6.42724,0.69898 -12.87344,-2.39865 -16.25017,-8.24084 -3.77901,-6.54544 -0.0298,-6.6525 -6.19187,-17.32556 l -6.99286,-12.11244 c -0.69029,-1.19579 -0.28052,-2.72486 0.91519,-3.4153 l 9.42785,-5.44307 9.42837,-5.4436 c 0.37368,-0.21572 0.77987,-0.32389 1.18287,-0.33435 z m -68.8914,1.06092 c 0.66307,10e-6 1.29898,0.26341 1.76785,0.73226 l 10.00559,10.00559 c 0.97628,0.97638 0.97628,2.55931 0,3.5357 l -10.00559,10.00559 c -0.97639,0.97628 -2.55932,0.97628 -3.5357,0 l -10.00559,-10.00559 c -0.97629,-0.97639 -0.97629,-2.55932 0,-3.5357 l 10.00559,-10.00559 c 0.46887,-0.46885 1.10478,-0.73225 1.76785,-0.73226 z m 34.67437,25.26616 c 0.45706,1.6e-4 0.82746,0.37079 0.82734,0.82785 -1.6e-4,0.45687 -0.37048,0.82718 -0.82734,0.82734 -0.45686,-1.6e-4 -0.82718,-0.37047 -0.82734,-0.82734 -1.3e-4,-0.45706 0.37027,-0.82769 0.82734,-0.82785 z m -43.52551,26.09918 c 0.45726,-1.2e-4 0.82798,0.37059 0.82785,0.82786 -1.6e-4,0.45706 -0.37079,0.82746 -0.82785,0.82734 -0.45706,1.2e-4 -0.8277,-0.37028 -0.82786,-0.82734 -1.2e-4,-0.45727 0.37059,-0.82798 0.82786,-0.82786 z" />
  </g>
</svg>
