  0
SECTION
  2
HEADER
  9
$ACADVER
  1
AC1014
  9
$HANDSEED
  5
FFFF
  9
$INSUNITS
 70
     4
  9
$MEASUREMENT
 70
     1
  0
ENDSEC
  0
SECTION
  2
TABLES
  0
TABLE
  2
VPORT
  5
8
330
0
100
AcDbSymbolTable
 70
     4
  0
VPORT
  5
2E
330
8
100
AcDbSymbolTableRecord
100
AcDbViewportTableRecord
  2
*ACTIVE
 70
     0
 10
0.0
 20
0.0
 11
1.0
 21
1.0
 12
210.0
 22
148.5
 13
0.0
 23
0.0
 14
10.0
 24
10.0
 15
10.0
 25
10.0
 16
0.0
 26
0.0
 36
1.0
 17
0.0
 27
0.0
 37
0.0
 40
341.0
 41
1.24
 42
50.0
 43
0.0
 44
0.0
 50
0.0
 51
0.0
 71
     0
 72
   100
 73
     1
 74
     3
 75
     0
 76
     0
 77
     0
 78
     0
  0
ENDTAB
  0
TABLE
  2
LTYPE
  5
5
330
0
100
AcDbSymbolTable
 70
     1
  0
LTYPE
  5
14
330
5
100
AcDbSymbolTableRecord
100
AcDbLinetypeTableRecord
  2
BYBLOCK
 70
     0
  3

 72
    65
 73
     0
 40
0.0
  0
LTYPE
  5
15
330
5
100
AcDbSymbolTableRecord
100
AcDbLinetypeTableRecord
  2
BYLAYER
 70
     0
  3

 72
    65
 73
     0
 40
0.0
  0
LTYPE
  5
16
330
5
100
AcDbSymbolTableRecord
100
AcDbLinetypeTableRecord
  2
CONTINUOUS
 70
     0
  3
Solid line
 72
    65
 73
     0
 40
0.0
  0
ENDTAB
  0
TABLE
  2
LAYER
  5
2
100
AcDbSymbolTable
 70
2
  0
LAYER
  5
50
100
AcDbSymbolTableRecord
100
AcDbLayerTableRecord
  2
0
 70
0
  6
CONTINUOUS
  0
LAYER
  5
51
100
AcDbSymbolTableRecord
100
AcDbLayerTableRecord
  2
Layer_1
 70
0
  6
CONTINUOUS
  0
ENDTAB
  0
TABLE
  2
STYLE
  5
3
330
0
100
AcDbSymbolTable
 70
     1
  0
STYLE
  5
11
330
3
100
AcDbSymbolTableRecord
100
AcDbTextStyleTableRecord
  2
STANDARD
 70
     0
 40
0.0
 41
1.0
 50
0.0
 71
     0
 42
2.5
  3
txt
  4

  0
ENDTAB
  0
TABLE
  2
VIEW
  5
6
330
0
100
AcDbSymbolTable
 70
     0
  0
ENDTAB
  0
TABLE
  2
UCS
  5
7
330
0
100
AcDbSymbolTable
 70
     0
  0
ENDTAB
  0
TABLE
  2
APPID
  5
9
330
0
100
AcDbSymbolTable
 70
     2
  0
APPID
  5
12
330
9
100
AcDbSymbolTableRecord
100
AcDbRegAppTableRecord
  2
ACAD
 70
     0
  0
ENDTAB
  0
TABLE
  2
DIMSTYLE
  5
A
330
0
100
AcDbSymbolTable
 70
     1
  0
DIMSTYLE
105
27
330
A
100
AcDbSymbolTableRecord
100
AcDbDimStyleTableRecord
  2
ISO-25
 70
     0
  3

  4

  5

  6

  7

 40
1.0
 41
2.5
 42
0.625
 43
3.75
 44
1.25
 45
0.0
 46
0.0
 47
0.0
 48
0.0
140
2.5
141
2.5
142
0.0
143
0.03937007874016
144
1.0
145
0.0
146
1.0
147
0.625
 71
     0
 72
     0
 73
     0
 74
     0
 75
     0
 76
     0
 77
     1
 78
     8
170
     0
171
     3
172
     1
173
     0
174
     0
175
     0
176
     0
177
     0
178
     0
270
     2
271
     2
272
     2
273
     2
274
     3
340
11
275
     0
280
     0
281
     0
282
     0
283
     0
284
     8
285
     0
286
     0
287
     3
288
     0
  0
ENDTAB
  0
TABLE
  2
BLOCK_RECORD
  5
1
330
0
100
AcDbSymbolTable
 70
     1
  0
BLOCK_RECORD
  5
1F
330
1
100
AcDbSymbolTableRecord
100
AcDbBlockTableRecord
  2
*MODEL_SPACE
  0
BLOCK_RECORD
  5
1B
330
1
100
AcDbSymbolTableRecord
100
AcDbBlockTableRecord
  2
*PAPER_SPACE
  0
ENDTAB
  0
ENDSEC
  0
SECTION
  2
BLOCKS
  0
BLOCK
  5
20
330
1F
100
AcDbEntity
  8
0
100
AcDbBlockBegin
  2
*MODEL_SPACE
 70
     0
 10
0.0
 20
0.0
 30
0.0
  3
*MODEL_SPACE
  1

  0
ENDBLK
  5
21
330
1F
100
AcDbEntity
  8
0
100
AcDbBlockEnd
  0
BLOCK
  5
1C
330
1B
100
AcDbEntity
 67
     1
  8
0
100
AcDbBlockBegin
  2
*PAPER_SPACE
  1

  0
ENDBLK
  5
1D
330
1B
100
AcDbEntity
 67
     1
  8
0
100
AcDbBlockEnd
  0
ENDSEC
  0
SECTION
  2
ENTITIES
  0
SPLINE
  5
100
100
AcDbEntity
  8
Layer_1
 62
7
100
AcDbSpline
 70
8
 71
3
 72
8
 73
4
 74
0
 40
0
 40
0
 40
0
 40
0
 40
1
 40
1
 40
1
 40
1
 10
29.371262
 20
70.325081
 30
0.0
 10
25.005281
 20
67.554271
 30
0.0
 10
19.541730
 20
62.207571
 30
0.0
 10
14.342484
 20
52.992961
 30
0.0
  0
SPLINE
  5
101
100
AcDbEntity
  8
Layer_1
 62
7
100
AcDbSpline
 70
8
 71
3
 72
8
 73
4
 74
0
 40
0
 40
0
 40
0
 40
0
 40
1
 40
1
 40
1
 40
1
 10
13.167684
 20
52.997961
 30
0.0
 10
12.567125
 20
55.760321
 30
0.0
 10
10.471411
 20
55.453901
 30
0.0
 10
8.897014
 20
53.816571
 30
0.0
  0
LWPOLYLINE
  5
102
100
AcDbEntity
  8
Layer_1
 62
7
100
AcDbPolyline
 90
2
 70
0
 10
14.342484
 20
52.992961
 30
0.0
 10
13.167684
 20
52.997961
 30
0.0
  0
SPLINE
  5
103
100
AcDbEntity
  8
Layer_1
 62
7
100
AcDbSpline
 70
8
 71
3
 72
8
 73
4
 74
0
 40
0
 40
0
 40
0
 40
0
 40
1
 40
1
 40
1
 40
1
 10
6.063861
 20
50.183631
 30
0.0
 10
4.300274
 20
49.578591
 30
0.0
 10
2.995635
 20
48.725261
 30
0.0
 10
2.057341
 20
47.704581
 30
0.0
  0
SPLINE
  5
104
100
AcDbEntity
  8
Layer_1
 62
7
100
AcDbSpline
 70
8
 71
3
 72
8
 73
4
 74
0
 40
0
 40
0
 40
0
 40
0
 40
1
 40
1
 40
1
 40
1
 10
2.057341
 20
47.704581
 30
0.0
 10
-2.008612
 20
43.281621
 30
0.0
 10
0.818833
 20
35.719231
 30
0.0
 10
3.133114
 20
31.633371
 30
0.0
  0
SPLINE
  5
105
100
AcDbEntity
  8
Layer_1
 62
7
100
AcDbSpline
 70
8
 71
3
 72
8
 73
4
 74
0
 40
0
 40
0
 40
0
 40
0
 40
1
 40
1
 40
1
 40
1
 10
3.133114
 20
31.633371
 30
0.0
 10
3.133285
 20
24.107651
 30
0.0
 10
18.107627
 20
7.416001
 30
0.0
 10
29.465045
 20
0.000501
 30
0.0
  0
LWPOLYLINE
  5
106
100
AcDbEntity
  8
Layer_1
 62
7
100
AcDbPolyline
 90
5
 70
0
 10
8.897014
 20
53.816571
 30
0.0
 10
10.777871
 20
51.128301
 30
0.0
 10
7.176248
 20
48.607341
 30
0.0
 10
6.069361
 20
50.188631
 30
0.0
 10
6.063861
 20
50.183631
 30
0.0
  0
SPLINE
  5
107
100
AcDbEntity
  8
Layer_1
 62
7
100
AcDbSpline
 70
8
 71
3
 72
8
 73
4
 74
0
 40
0
 40
0
 40
0
 40
0
 40
1
 40
1
 40
1
 40
1
 10
36.065782
 20
1.773081
 30
0.0
 10
36.065588
 20
5.852171
 30
0.0
 10
39.372434
 20
9.159221
 30
0.0
 10
43.451522
 20
9.159221
 30
0.0
  0
LWPOLYLINE
  5
108
100
AcDbEntity
  8
Layer_1
 62
7
100
AcDbPolyline
 90
2
 70
0
 10
29.465045
 20
0.000501
 30
0.0
 10
36.065782
 20
1.773081
 30
0.0
  0
SPLINE
  5
109
100
AcDbEntity
  8
Layer_1
 62
7
100
AcDbSpline
 70
8
 71
3
 72
8
 73
4
 74
0
 40
0
 40
0
 40
0
 40
0
 40
1
 40
1
 40
1
 40
1
 10
48.798717
 20
9.159051
 30
0.0
 10
49.788971
 20
9.159051
 30
0.0
 10
50.185898
 20
9.588611
 30
0.0
 10
50.185900
 20
10.630051
 30
0.0
  0
SPLINE
  5
10a
100
AcDbEntity
  8
Layer_1
 62
7
100
AcDbSpline
 70
8
 71
3
 72
8
 73
4
 74
0
 40
0
 40
0
 40
0
 40
0
 40
1
 40
1
 40
1
 40
1
 10
50.185900
 20
10.630051
 30
0.0
 10
50.185899
 20
14.799561
 30
0.0
 10
49.579678
 20
16.561061
 30
0.0
 10
48.360957
 20
19.777141
 30
0.0
  0
LWPOLYLINE
  5
10b
100
AcDbEntity
  8
Layer_1
 62
7
100
AcDbPolyline
 90
2
 70
0
 10
43.451522
 20
9.159221
 30
0.0
 10
48.798717
 20
9.159051
 30
0.0
  0
SPLINE
  5
10c
100
AcDbEntity
  8
Layer_1
 62
7
100
AcDbSpline
 70
8
 71
3
 72
8
 73
4
 74
0
 40
0
 40
0
 40
0
 40
0
 40
1
 40
1
 40
1
 40
1
 10
52.498059
 20
29.133461
 30
0.0
 10
52.498328
 20
30.790081
 30
0.0
 10
53.841739
 20
32.133421
 30
0.0
 10
55.498366
 20
32.133691
 30
0.0
  0
LWPOLYLINE
  5
10d
100
AcDbEntity
  8
Layer_1
 62
7
100
AcDbPolyline
 90
3
 70
0
 10
48.360957
 20
19.777141
 30
0.0
 10
52.498078
 20
21.283771
 30
0.0
 10
52.498059
 20
29.133461
 30
0.0
  0
SPLINE
  5
10e
100
AcDbEntity
  8
Layer_1
 62
7
100
AcDbSpline
 70
8
 71
3
 72
8
 73
4
 74
0
 40
0
 40
0
 40
0
 40
0
 40
1
 40
1
 40
1
 40
1
 10
83.404626
 20
32.133661
 30
0.0
 10
85.061257
 20
32.133401
 30
0.0
 10
86.404144
 20
30.789731
 30
0.0
 10
86.404412
 20
29.133101
 30
0.0
  0
LWPOLYLINE
  5
10f
100
AcDbEntity
  8
Layer_1
 62
7
100
AcDbPolyline
 90
2
 70
0
 10
55.498366
 20
32.133691
 30
0.0
 10
83.404626
 20
32.133661
 30
0.0
  0
SPLINE
  5
110
100
AcDbEntity
  8
Layer_1
 62
7
100
AcDbSpline
 70
8
 71
3
 72
8
 73
4
 74
0
 40
0
 40
0
 40
0
 40
0
 40
1
 40
1
 40
1
 40
1
 10
90.542466
 20
19.777801
 30
0.0
 10
89.323744
 20
16.561721
 30
0.0
 10
88.717066
 20
14.799671
 30
0.0
 10
88.717067
 20
10.630151
 30
0.0
  0
SPLINE
  5
111
100
AcDbEntity
  8
Layer_1
 62
7
100
AcDbSpline
 70
8
 71
3
 72
8
 73
4
 74
0
 40
0
 40
0
 40
0
 40
0
 40
1
 40
1
 40
1
 40
1
 10
88.717067
 20
10.630151
 30
0.0
 10
88.717071
 20
9.588711
 30
0.0
 10
89.114142
 20
9.159461
 30
0.0
 10
90.104401
 20
9.159471
 30
0.0
  0
LWPOLYLINE
  5
112
100
AcDbEntity
  8
Layer_1
 62
7
100
AcDbPolyline
 90
3
 70
0
 10
86.404412
 20
29.133101
 30
0.0
 10
86.404173
 20
21.283861
 30
0.0
 10
90.542466
 20
19.777801
 30
0.0
  0
SPLINE
  5
113
100
AcDbEntity
  8
Layer_1
 62
7
100
AcDbSpline
 70
8
 71
3
 72
8
 73
4
 74
0
 40
0
 40
0
 40
0
 40
0
 40
1
 40
1
 40
1
 40
1
 10
95.451337
 20
9.159751
 30
0.0
 10
99.530432
 20
9.159751
 30
0.0
 10
102.837479
 20
5.852391
 30
0.0
 10
102.837279
 20
1.773301
 30
0.0
  0
LWPOLYLINE
  5
114
100
AcDbEntity
  8
Layer_1
 62
7
100
AcDbPolyline
 90
2
 70
0
 10
90.104401
 20
9.159471
 30
0.0
 10
95.451337
 20
9.159751
 30
0.0
  0
SPLINE
  5
115
100
AcDbEntity
  8
Layer_1
 62
7
100
AcDbSpline
 70
8
 71
3
 72
8
 73
4
 74
0
 40
0
 40
0
 40
0
 40
0
 40
1
 40
1
 40
1
 40
1
 10
109.438479
 20
0.001111
 30
0.0
 10
120.795889
 20
7.416631
 30
0.0
 10
135.770219
 20
24.107901
 30
0.0
 10
135.770419
 20
31.633621
 30
0.0
  0
SPLINE
  5
116
100
AcDbEntity
  8
Layer_1
 62
7
100
AcDbSpline
 70
8
 71
3
 72
8
 73
4
 74
0
 40
0
 40
0
 40
0
 40
0
 40
1
 40
1
 40
1
 40
1
 10
135.770419
 20
31.633621
 30
0.0
 10
138.618769
 20
36.662371
 30
0.0
 10
142.244899
 20
46.957061
 30
0.0
 10
132.839079
 20
50.183931
 30
0.0
  0
LWPOLYLINE
  5
117
100
AcDbEntity
  8
Layer_1
 62
7
100
AcDbPolyline
 90
2
 70
0
 10
102.837279
 20
1.773301
 30
0.0
 10
109.438479
 20
0.001111
 30
0.0
  0
SPLINE
  5
118
100
AcDbEntity
  8
Layer_1
 62
7
100
AcDbSpline
 70
8
 71
3
 72
8
 73
4
 74
0
 40
0
 40
0
 40
0
 40
0
 40
1
 40
1
 40
1
 40
1
 10
130.007579
 20
53.816441
 30
0.0
 10
128.433179
 20
55.453771
 30
0.0
 10
126.336409
 20
55.760031
 30
0.0
 10
125.735869
 20
52.997681
 30
0.0
  0
LWPOLYLINE
  5
119
100
AcDbEntity
  8
Layer_1
 62
7
100
AcDbPolyline
 90
5
 70
0
 10
132.839079
 20
50.183931
 30
0.0
 10
132.834079
 20
50.188931
 30
0.0
 10
131.727879
 20
48.607471
 30
0.0
 10
128.125719
 20
51.128981
 30
0.0
 10
130.007579
 20
53.816441
 30
0.0
  0
SPLINE
  5
11a
100
AcDbEntity
  8
Layer_1
 62
7
100
AcDbSpline
 70
8
 71
3
 72
8
 73
4
 74
0
 40
0
 40
0
 40
0
 40
0
 40
1
 40
1
 40
1
 40
1
 10
124.561619
 20
52.993681
 30
0.0
 10
117.628679
 20
65.279881
 30
0.0
 10
110.226089
 20
70.689721
 30
0.0
 10
105.582229
 20
72.286141
 30
0.0
  0
SPLINE
  5
11b
100
AcDbEntity
  8
Layer_1
 62
7
100
AcDbSpline
 70
8
 71
3
 72
8
 73
4
 74
0
 40
0
 40
0
 40
0
 40
0
 40
1
 40
1
 40
1
 40
1
 10
105.582229
 20
72.286141
 30
0.0
 10
104.510579
 20
72.654541
 30
0.0
 10
103.585979
 20
72.819111
 30
0.0
 10
102.847709
 20
72.819111
 30
0.0
  0
SPLINE
  5
11c
100
AcDbEntity
  8
Layer_1
 62
7
100
AcDbSpline
 70
8
 71
3
 72
8
 73
4
 74
0
 40
0
 40
0
 40
0
 40
0
 40
1
 40
1
 40
1
 40
1
 10
102.847709
 20
72.819111
 30
0.0
 10
98.910252
 20
72.819111
 30
0.0
 10
95.784518
 20
68.424701
 30
0.0
 10
94.161188
 20
65.804971
 30
0.0
  0
LWPOLYLINE
  5
11d
100
AcDbEntity
  8
Layer_1
 62
7
100
AcDbPolyline
 90
2
 70
0
 10
125.735869
 20
52.997681
 30
0.0
 10
124.561619
 20
52.993681
 30
0.0
  0
SPLINE
  5
11e
100
AcDbEntity
  8
Layer_1
 62
7
100
AcDbSpline
 70
8
 71
3
 72
8
 73
4
 74
0
 40
0
 40
0
 40
0
 40
0
 40
1
 40
1
 40
1
 40
1
 10
44.741608
 20
65.805351
 30
0.0
 10
43.118286
 20
68.425071
 30
0.0
 10
39.993285
 20
72.819041
 30
0.0
 10
36.055824
 20
72.819051
 30
0.0
  0
SPLINE
  5
11f
100
AcDbEntity
  8
Layer_1
 62
7
100
AcDbSpline
 70
8
 71
3
 72
8
 73
4
 74
0
 40
0
 40
0
 40
0
 40
0
 40
1
 40
1
 40
1
 40
1
 10
36.055824
 20
72.819051
 30
0.0
 10
35.317549
 20
72.819051
 30
0.0
 10
34.392839
 20
72.654041
 30
0.0
 10
33.321177
 20
72.285641
 30
0.0
  0
SPLINE
  5
120
100
AcDbEntity
  8
Layer_1
 62
7
100
AcDbSpline
 70
8
 71
3
 72
8
 73
4
 74
0
 40
0
 40
0
 40
0
 40
0
 40
1
 40
1
 40
1
 40
1
 10
33.321177
 20
72.285641
 30
0.0
 10
32.160213
 20
71.886531
 30
0.0
 10
30.826580
 20
71.249181
 30
0.0
 10
29.371252
 20
70.325581
 30
0.0
  0
LWPOLYLINE
  5
121
100
AcDbEntity
  8
Layer_1
 62
7
100
AcDbPolyline
 90
10
 70
0
 10
94.161188
 20
65.804971
 30
0.0
 10
78.419194
 20
65.805381
 30
0.0
 10
78.800551
 20
64.011071
 30
0.0
 10
74.597691
 20
63.117491
 30
0.0
 10
74.229043
 20
64.850521
 30
0.0
 10
64.674244
 20
64.850021
 30
0.0
 10
64.305448
 20
63.117881
 30
0.0
 10
60.102068
 20
64.011141
 30
0.0
 10
60.484048
 20
65.805201
 30
0.0
 10
44.741608
 20
65.805351
 30
0.0
  0
SPLINE
  5
122
100
AcDbEntity
  8
Layer_1
 62
7
100
AcDbSpline
 70
8
 71
3
 72
8
 73
4
 74
0
 40
0
 40
0
 40
0
 40
0
 40
1
 40
1
 40
1
 40
1
 10
19.335723
 20
57.169471
 30
0.0
 10
19.797006
 20
57.481161
 30
0.0
 10
20.353116
 20
57.663341
 30
0.0
 10
20.951726
 20
57.663291
 30
0.0
  0
SPLINE
  5
123
100
AcDbEntity
  8
Layer_1
 62
7
100
AcDbSpline
 70
8
 71
3
 72
8
 73
4
 74
0
 40
0
 40
0
 40
0
 40
0
 40
1
 40
1
 40
1
 40
1
 10
20.951726
 20
57.663291
 30
0.0
 10
21.749772
 20
57.663221
 30
0.0
 10
22.472070
 20
57.339601
 30
0.0
 10
22.995010
 20
56.816561
 30
0.0
  0
LWPOLYLINE
  5
124
100
AcDbEntity
  8
Layer_1
 62
7
100
AcDbPolyline
 90
2
 70
0
 10
29.371252
 20
70.325581
 30
0.0
 10
29.371262
 20
70.325081
 30
0.0
  0
SPLINE
  5
125
100
AcDbEntity
  8
Layer_1
 62
7
100
AcDbSpline
 70
8
 71
3
 72
8
 73
4
 74
0
 40
0
 40
0
 40
0
 40
0
 40
1
 40
1
 40
1
 40
1
 10
23.507572
 20
56.303951
 30
0.0
 10
23.954793
 20
55.856731
 30
0.0
 10
24.501355
 20
55.856901
 30
0.0
 10
24.948545
 20
56.304091
 30
0.0
  0
LWPOLYLINE
  5
126
100
AcDbEntity
  8
Layer_1
 62
7
100
AcDbPolyline
 90
2
 70
0
 10
22.995010
 20
56.816561
 30
0.0
 10
23.507572
 20
56.303951
 30
0.0
  0
SPLINE
  5
127
100
AcDbEntity
  8
Layer_1
 62
7
100
AcDbSpline
 70
8
 71
3
 72
8
 73
4
 74
0
 40
0
 40
0
 40
0
 40
0
 40
1
 40
1
 40
1
 40
1
 10
32.656034
 20
64.011441
 30
0.0
 10
33.261660
 20
64.607461
 30
0.0
 10
34.091521
 20
64.918851
 30
0.0
 10
34.939726
 20
64.868071
 30
0.0
  0
SPLINE
  5
128
100
AcDbEntity
  8
Layer_1
 62
7
100
AcDbSpline
 70
8
 71
3
 72
8
 73
4
 74
0
 40
0
 40
0
 40
0
 40
0
 40
1
 40
1
 40
1
 40
1
 10
34.939726
 20
64.868071
 30
0.0
 10
34.948926
 20
64.868351
 30
0.0
 10
34.956566
 20
64.873071
 30
0.0
 10
34.965786
 20
64.873071
 30
0.0
  0
SPLINE
  5
129
100
AcDbEntity
  8
Layer_1
 62
7
100
AcDbSpline
 70
8
 71
3
 72
8
 73
4
 74
0
 40
0
 40
0
 40
0
 40
0
 40
1
 40
1
 40
1
 40
1
 10
34.965786
 20
64.873071
 30
0.0
 10
35.009346
 20
64.873071
 30
0.0
 10
35.046486
 20
64.853871
 30
0.0
 10
35.088578
 20
64.848471
 30
0.0
  0
SPLINE
  5
12a
100
AcDbEntity
  8
Layer_1
 62
7
100
AcDbSpline
 70
8
 71
3
 72
8
 73
4
 74
0
 40
0
 40
0
 40
0
 40
0
 40
1
 40
1
 40
1
 40
1
 10
35.088578
 20
64.848471
 30
0.0
 10
35.769662
 20
64.783971
 30
0.0
 10
36.408178
 20
64.488581
 30
0.0
 10
36.898376
 20
64.011351
 30
0.0
  0
LWPOLYLINE
  5
12b
100
AcDbEntity
  8
Layer_1
 62
7
100
AcDbPolyline
 90
2
 70
0
 10
24.948545
 20
56.304091
 30
0.0
 10
32.656034
 20
64.011441
 30
0.0
  0
SPLINE
  5
12c
100
AcDbEntity
  8
Layer_1
 62
7
100
AcDbSpline
 70
8
 71
3
 72
8
 73
4
 74
0
 40
0
 40
0
 40
0
 40
0
 40
1
 40
1
 40
1
 40
1
 10
46.438742
 20
54.470501
 30
0.0
 10
47.609968
 20
53.298891
 30
0.0
 10
47.609696
 20
51.399951
 30
0.0
 10
46.438465
 20
50.228341
 30
0.0
  0
LWPOLYLINE
  5
12d
100
AcDbEntity
  8
Layer_1
 62
7
100
AcDbPolyline
 90
2
 70
0
 10
36.898376
 20
64.011351
 30
0.0
 10
46.438742
 20
54.470501
 30
0.0
  0
SPLINE
  5
12e
100
AcDbEntity
  8
Layer_1
 62
7
100
AcDbSpline
 70
8
 71
3
 72
8
 73
4
 74
0
 40
0
 40
0
 40
0
 40
0
 40
1
 40
1
 40
1
 40
1
 10
36.896796
 20
40.686311
 30
0.0
 10
35.725186
 20
39.515081
 30
0.0
 10
33.826249
 20
39.515361
 30
0.0
 10
32.654639
 20
40.686581
 30
0.0
  0
LWPOLYLINE
  5
12f
100
AcDbEntity
  8
Layer_1
 62
7
100
AcDbPolyline
 90
2
 70
0
 10
46.438465
 20
50.228341
 30
0.0
 10
36.896796
 20
40.686311
 30
0.0
  0
SPLINE
  5
130
100
AcDbEntity
  8
Layer_1
 62
7
100
AcDbSpline
 70
8
 71
3
 72
8
 73
4
 74
0
 40
0
 40
0
 40
0
 40
0
 40
1
 40
1
 40
1
 40
1
 10
21.815330
 20
51.525391
 30
0.0
 10
21.572989
 20
51.804301
 30
0.0
 10
21.303835
 20
51.878621
 30
0.0
 10
20.951372
 20
51.882861
 30
0.0
  0
SPLINE
  5
131
100
AcDbEntity
  8
Layer_1
 62
7
100
AcDbSpline
 70
8
 71
3
 72
8
 73
4
 74
0
 40
0
 40
0
 40
0
 40
0
 40
1
 40
1
 40
1
 40
1
 10
20.951372
 20
51.882861
 30
0.0
 10
19.355282
 20
51.882711
 30
0.0
 10
18.061635
 20
53.176541
 30
0.0
 10
18.061495
 20
54.772641
 30
0.0
  0
SPLINE
  5
132
100
AcDbEntity
  8
Layer_1
 62
7
100
AcDbSpline
 70
8
 71
3
 72
8
 73
4
 74
0
 40
0
 40
0
 40
0
 40
0
 40
1
 40
1
 40
1
 40
1
 10
18.061495
 20
54.772641
 30
0.0
 10
18.061420
 20
55.570781
 30
0.0
 10
18.384923
 20
56.293331
 30
0.0
 10
18.907966
 20
56.816371
 30
0.0
  0
SPLINE
  5
133
100
AcDbEntity
  8
Layer_1
 62
7
100
AcDbSpline
 70
8
 71
3
 72
8
 73
4
 74
0
 40
0
 40
0
 40
0
 40
0
 40
1
 40
1
 40
1
 40
1
 10
18.907966
 20
56.816371
 30
0.0
 10
19.038727
 20
56.947131
 30
0.0
 10
19.181959
 20
57.065051
 30
0.0
 10
19.335720
 20
57.168951
 30
0.0
  0
LWPOLYLINE
  5
134
100
AcDbEntity
  8
Layer_1
 62
7
100
AcDbPolyline
 90
4
 70
0
 10
32.654639
 20
40.686581
 30
0.0
 10
25.863797
 20
47.477401
 30
0.0
 10
23.114084
 20
50.226721
 30
0.0
 10
21.815330
 20
51.525391
 30
0.0
  0
LWPOLYLINE
  5
135
100
AcDbEntity
  8
Layer_1
 62
7
100
AcDbPolyline
 90
2
 70
0
 10
19.335720
 20
57.168951
 30
0.0
 10
19.335723
 20
57.169471
 30
0.0
  0
SPLINE
  5
136
100
AcDbEntity
  8
Layer_1
 62
7
100
AcDbSpline
 70
8
 71
3
 72
8
 73
4
 74
0
 40
0
 40
0
 40
0
 40
0
 40
1
 40
1
 40
1
 40
1
 10
102.186269
 20
65.455241
 30
0.0
 10
103.621099
 20
66.283322
 30
0.0
 10
105.455539
 20
65.791780
 30
0.0
 10
106.284089
 20
64.357221
 30
0.0
  0
LWPOLYLINE
  5
137
100
AcDbEntity
  8
Layer_1
 62
7
100
AcDbPolyline
 90
2
 70
0
 10
83.999501
 20
54.955101
 30
0.0
 10
102.186269
 20
65.455241
 30
0.0
  0
SPLINE
  5
138
100
AcDbEntity
  8
Layer_1
 62
7
100
AcDbSpline
 70
8
 71
3
 72
8
 73
4
 74
0
 40
0
 40
0
 40
0
 40
0
 40
1
 40
1
 40
1
 40
1
 10
118.058559
 20
43.963241
 30
0.0
 10
118.059897
 20
43.960243
 30
0.0
 10
118.061231
 20
43.957243
 30
0.0
 10
118.062559
 20
43.954241
 30
0.0
  0
LWPOLYLINE
  5
139
100
AcDbEntity
  8
Layer_1
 62
7
100
AcDbPolyline
 90
2
 70
0
 10
106.284089
 20
64.357221
 30
0.0
 10
118.058559
 20
43.963241
 30
0.0
  0
SPLINE
  5
13a
100
AcDbEntity
  8
Layer_1
 62
7
100
AcDbSpline
 70
8
 71
3
 72
8
 73
4
 74
0
 40
0
 40
0
 40
0
 40
0
 40
1
 40
1
 40
1
 40
1
 10
121.642699
 20
37.753251
 30
0.0
 10
124.903294
 20
31.994701
 30
0.0
 10
123.509046
 20
24.721608
 30
0.0
 10
118.350039
 20
20.577091
 30
0.0
  0
LWPOLYLINE
  5
13b
100
AcDbEntity
  8
Layer_1
 62
7
100
AcDbPolyline
 90
2
 70
0
 10
118.062559
 20
43.954241
 30
0.0
 10
121.642699
 20
37.753251
 30
0.0
  0
SPLINE
  5
13c
100
AcDbEntity
  8
Layer_1
 62
7
100
AcDbSpline
 70
8
 71
3
 72
8
 73
4
 74
0
 40
0
 40
0
 40
0
 40
0
 40
1
 40
1
 40
1
 40
1
 10
114.671189
 20
18.471011
 30
0.0
 10
108.522678
 20
16.145854
 30
0.0
 10
101.593205
 20
18.587298
 30
0.0
 10
98.260122
 20
24.253081
 30
0.0
  0
LWPOLYLINE
  5
13d
100
AcDbEntity
  8
Layer_1
 62
7
100
AcDbPolyline
 90
4
 70
0
 10
118.350039
 20
20.577091
 30
0.0
 10
119.021569
 20
19.413961
 30
0.0
 10
115.350469
 20
17.294451
 30
0.0
 10
114.671189
 20
18.471011
 30
0.0
  0
SPLINE
  5
13e
100
AcDbEntity
  8
Layer_1
 62
7
100
AcDbSpline
 70
8
 71
3
 72
8
 73
4
 74
0
 40
0
 40
0
 40
0
 40
0
 40
1
 40
1
 40
1
 40
1
 10
82.901492
 20
50.857071
 30
0.0
 10
82.073402
 20
52.291900
 30
0.0
 10
82.564940
 20
54.126347
 30
0.0
 10
83.999501
 20
54.954901
 30
0.0
  0
LWPOLYLINE
  5
13f
100
AcDbEntity
  8
Layer_1
 62
7
100
AcDbPolyline
 90
4
 70
0
 10
98.260122
 20
24.253081
 30
0.0
 10
90.287744
 20
38.061651
 30
0.0
 10
90.288638
 20
38.062161
 30
0.0
 10
82.901492
 20
50.857071
 30
0.0
  0
SPLINE
  5
140
100
AcDbEntity
  8
Layer_1
 62
7
100
AcDbSpline
 70
8
 71
3
 72
8
 73
4
 74
0
 40
0
 40
0
 40
0
 40
0
 40
1
 40
1
 40
1
 40
1
 10
69.062665
 20
39.689951
 30
0.0
 10
69.182206
 20
39.740551
 30
0.0
 10
69.313454
 20
39.768851
 30
0.0
 10
69.451513
 20
39.768851
 30
0.0
  0
SPLINE
  5
141
100
AcDbEntity
  8
Layer_1
 62
7
100
AcDbSpline
 70
8
 71
3
 72
8
 73
4
 74
0
 40
0
 40
0
 40
0
 40
0
 40
1
 40
1
 40
1
 40
1
 10
69.451513
 20
39.768851
 30
0.0
 10
70.003746
 20
39.768821
 30
0.0
 10
70.451494
 20
39.320751
 30
0.0
 10
70.451527
 20
38.768521
 30
0.0
  0
SPLINE
  5
142
100
AcDbEntity
  8
Layer_1
 62
7
100
AcDbSpline
 70
8
 71
3
 72
8
 73
4
 74
0
 40
0
 40
0
 40
0
 40
0
 40
1
 40
1
 40
1
 40
1
 10
70.451527
 20
38.768521
 30
0.0
 10
70.451494
 20
38.216281
 30
0.0
 10
70.003423
 20
37.768541
 30
0.0
 10
69.451189
 20
37.768501
 30
0.0
  0
SPLINE
  5
143
100
AcDbEntity
  8
Layer_1
 62
7
100
AcDbSpline
 70
8
 71
3
 72
8
 73
4
 74
0
 40
0
 40
0
 40
0
 40
0
 40
1
 40
1
 40
1
 40
1
 10
69.451189
 20
37.768501
 30
0.0
 10
68.898960
 20
37.768541
 30
0.0
 10
68.451470
 20
38.216161
 30
0.0
 10
68.451433
 20
38.768391
 30
0.0
  0
SPLINE
  5
144
100
AcDbEntity
  8
Layer_1
 62
7
100
AcDbSpline
 70
8
 71
3
 72
8
 73
4
 74
0
 40
0
 40
0
 40
0
 40
0
 40
1
 40
1
 40
1
 40
1
 10
68.451433
 20
38.768391
 30
0.0
 10
68.451452
 20
39.044511
 30
0.0
 10
68.563976
 20
39.294521
 30
0.0
 10
68.744928
 20
39.475471
 30
0.0
  0
SPLINE
  5
145
100
AcDbEntity
  8
Layer_1
 62
7
100
AcDbSpline
 70
8
 71
3
 72
8
 73
4
 74
0
 40
0
 40
0
 40
0
 40
0
 40
1
 40
1
 40
1
 40
1
 10
68.744928
 20
39.475471
 30
0.0
 10
68.835408
 20
39.565971
 30
0.0
 10
68.943123
 20
39.639311
 30
0.0
 10
69.062665
 20
39.689951
 30
0.0
  0
LWPOLYLINE
  5
146
100
AcDbEntity
  8
Layer_1
 62
7
100
AcDbPolyline
 90
2
 70
0
 10
83.999501
 20
54.954901
 30
0.0
 10
83.999501
 20
54.955101
 30
0.0
  0
SPLINE
  5
147
100
AcDbEntity
  8
Layer_1
 62
7
100
AcDbSpline
 70
8
 71
3
 72
8
 73
4
 74
0
 40
0
 40
0
 40
0
 40
0
 40
1
 40
1
 40
1
 40
1
 10
25.548106
 20
13.594771
 30
0.0
 10
25.667646
 20
13.645371
 30
0.0
 10
25.799154
 20
13.673271
 30
0.0
 10
25.937211
 20
13.673271
 30
0.0
  0
SPLINE
  5
148
100
AcDbEntity
  8
Layer_1
 62
7
100
AcDbSpline
 70
8
 71
3
 72
8
 73
4
 74
0
 40
0
 40
0
 40
0
 40
0
 40
1
 40
1
 40
1
 40
1
 10
25.937211
 20
13.673271
 30
0.0
 10
26.489647
 20
13.673521
 30
0.0
 10
26.937833
 20
13.226331
 30
0.0
 10
26.937863
 20
12.673901
 30
0.0
  0
SPLINE
  5
149
100
AcDbEntity
  8
Layer_1
 62
7
100
AcDbSpline
 70
8
 71
3
 72
8
 73
4
 74
0
 40
0
 40
0
 40
0
 40
0
 40
1
 40
1
 40
1
 40
1
 10
26.937863
 20
12.673901
 30
0.0
 10
26.937830
 20
12.121461
 30
0.0
 10
26.490218
 20
11.673191
 30
0.0
 10
25.937784
 20
11.673441
 30
0.0
  0
SPLINE
  5
14a
100
AcDbEntity
  8
Layer_1
 62
7
100
AcDbSpline
 70
8
 71
3
 72
8
 73
4
 74
0
 40
0
 40
0
 40
0
 40
0
 40
1
 40
1
 40
1
 40
1
 10
25.937784
 20
11.673441
 30
0.0
 10
25.385548
 20
11.673471
 30
0.0
 10
24.937356
 20
12.121281
 30
0.0
 10
24.937322
 20
12.673521
 30
0.0
  0
SPLINE
  5
14b
100
AcDbEntity
  8
Layer_1
 62
7
100
AcDbSpline
 70
8
 71
3
 72
8
 73
4
 74
0
 40
0
 40
0
 40
0
 40
0
 40
1
 40
1
 40
1
 40
1
 10
24.937322
 20
12.673521
 30
0.0
 10
24.937342
 20
12.949631
 30
0.0
 10
25.049417
 20
13.199391
 30
0.0
 10
25.230368
 20
13.380341
 30
0.0
  0
SPLINE
  5
14c
100
AcDbEntity
  8
Layer_1
 62
7
100
AcDbSpline
 70
8
 71
3
 72
8
 73
4
 74
0
 40
0
 40
0
 40
0
 40
0
 40
1
 40
1
 40
1
 40
1
 10
25.230368
 20
13.380341
 30
0.0
 10
25.320848
 20
13.470841
 30
0.0
 10
25.428565
 20
13.544171
 30
0.0
 10
25.548106
 20
13.594821
 30
0.0
  0
LWPOLYLINE
  5
14d
100
AcDbEntity
  8
Layer_1
 62
7
100
AcDbPolyline
 90
1
 70
1
 10
69.062665
 20
39.689951
 30
0.0
  0
SPLINE
  5
14e
100
AcDbEntity
  8
Layer_1
 62
7
100
AcDbSpline
 70
8
 71
3
 72
8
 73
4
 74
0
 40
0
 40
0
 40
0
 40
0
 40
1
 40
1
 40
1
 40
1
 10
116.335599
 20
57.170131
 30
0.0
 10
116.796779
 20
57.481681
 30
0.0
 10
117.352879
 20
57.663191
 30
0.0
 10
117.951409
 20
57.663251
 30
0.0
  0
SPLINE
  5
14f
100
AcDbEntity
  8
Layer_1
 62
7
100
AcDbSpline
 70
8
 71
3
 72
8
 73
4
 74
0
 40
0
 40
0
 40
0
 40
0
 40
1
 40
1
 40
1
 40
1
 10
117.951409
 20
57.663251
 30
0.0
 10
119.547719
 20
57.663401
 30
0.0
 10
120.841699
 20
56.369331
 30
0.0
 10
120.841549
 20
54.773021
 30
0.0
  0
SPLINE
  5
150
100
AcDbEntity
  8
Layer_1
 62
7
100
AcDbSpline
 70
8
 71
3
 72
8
 73
4
 74
0
 40
0
 40
0
 40
0
 40
0
 40
1
 40
1
 40
1
 40
1
 10
120.841549
 20
54.773021
 30
0.0
 10
120.841429
 20
53.176951
 30
0.0
 10
119.547159
 20
51.883191
 30
0.0
 10
117.951059
 20
51.883331
 30
0.0
  0
SPLINE
  5
151
100
AcDbEntity
  8
Layer_1
 62
7
100
AcDbSpline
 70
8
 71
3
 72
8
 73
4
 74
0
 40
0
 40
0
 40
0
 40
0
 40
1
 40
1
 40
1
 40
1
 10
117.951059
 20
51.883331
 30
0.0
 10
116.355209
 20
51.883501
 30
0.0
 10
115.062209
 20
53.177731
 30
0.0
 10
115.062079
 20
54.773631
 30
0.0
  0
SPLINE
  5
152
100
AcDbEntity
  8
Layer_1
 62
7
100
AcDbSpline
 70
8
 71
3
 72
8
 73
4
 74
0
 40
0
 40
0
 40
0
 40
0
 40
1
 40
1
 40
1
 40
1
 10
115.062079
 20
54.773631
 30
0.0
 10
115.062009
 20
55.571681
 30
0.0
 10
115.385159
 20
56.294071
 30
0.0
 10
115.908099
 20
56.817101
 30
0.0
  0
SPLINE
  5
153
100
AcDbEntity
  8
Layer_1
 62
7
100
AcDbSpline
 70
8
 71
3
 72
8
 73
4
 74
0
 40
0
 40
0
 40
0
 40
0
 40
1
 40
1
 40
1
 40
1
 10
115.908099
 20
56.817101
 30
0.0
 10
116.038839
 20
56.947861
 30
0.0
 10
116.181869
 20
57.066281
 30
0.0
 10
116.335599
 20
57.170131
 30
0.0
  0
LWPOLYLINE
  5
154
100
AcDbEntity
  8
Layer_1
 62
7
100
AcDbPolyline
 90
1
 70
1
 10
25.548106
 20
13.594821
 30
0.0
  0
SPLINE
  5
155
100
AcDbEntity
  8
Layer_1
 62
7
100
AcDbSpline
 70
8
 71
3
 72
8
 73
4
 74
0
 40
0
 40
0
 40
0
 40
0
 40
1
 40
1
 40
1
 40
1
 10
112.576679
 20
13.594941
 30
0.0
 10
112.696289
 20
13.645541
 30
0.0
 10
112.827669
 20
13.673441
 30
0.0
 10
112.965789
 20
13.673441
 30
0.0
  0
SPLINE
  5
156
100
AcDbEntity
  8
Layer_1
 62
7
100
AcDbSpline
 70
8
 71
3
 72
8
 73
4
 74
0
 40
0
 40
0
 40
0
 40
0
 40
1
 40
1
 40
1
 40
1
 10
112.965789
 20
13.673441
 30
0.0
 10
113.518009
 20
13.673411
 30
0.0
 10
113.965759
 20
13.225341
 30
0.0
 10
113.965799
 20
12.673111
 30
0.0
  0
SPLINE
  5
157
100
AcDbEntity
  8
Layer_1
 62
7
100
AcDbSpline
 70
8
 71
3
 72
8
 73
4
 74
0
 40
0
 40
0
 40
0
 40
0
 40
1
 40
1
 40
1
 40
1
 10
113.965799
 20
12.673111
 30
0.0
 10
113.965769
 20
12.120871
 30
0.0
 10
113.518149
 20
11.673381
 30
0.0
 10
112.965909
 20
11.673351
 30
0.0
  0
SPLINE
  5
158
100
AcDbEntity
  8
Layer_1
 62
7
100
AcDbSpline
 70
8
 71
3
 72
8
 73
4
 74
0
 40
0
 40
0
 40
0
 40
0
 40
1
 40
1
 40
1
 40
1
 10
112.965909
 20
11.673351
 30
0.0
 10
112.413479
 20
11.673101
 30
0.0
 10
111.965219
 20
12.121441
 30
0.0
 10
111.965189
 20
12.673881
 30
0.0
  0
SPLINE
  5
159
100
AcDbEntity
  8
Layer_1
 62
7
100
AcDbSpline
 70
8
 71
3
 72
8
 73
4
 74
0
 40
0
 40
0
 40
0
 40
0
 40
1
 40
1
 40
1
 40
1
 10
111.965189
 20
12.673881
 30
0.0
 10
111.965209
 20
12.950091
 30
0.0
 10
112.077629
 20
13.200001
 30
0.0
 10
112.258679
 20
13.380961
 30
0.0
  0
SPLINE
  5
15a
100
AcDbEntity
  8
Layer_1
 62
7
100
AcDbSpline
 70
8
 71
3
 72
8
 73
4
 74
0
 40
0
 40
0
 40
0
 40
0
 40
1
 40
1
 40
1
 40
1
 10
112.258679
 20
13.380961
 30
0.0
 10
112.349179
 20
13.471461
 30
0.0
 10
112.457069
 20
13.544421
 30
0.0
 10
112.576679
 20
13.594991
 30
0.0
  0
LWPOLYLINE
  5
15b
100
AcDbEntity
  8
Layer_1
 62
7
100
AcDbPolyline
 90
1
 70
1
 10
116.335599
 20
57.170131
 30
0.0
  0
LWPOLYLINE
  5
15c
100
AcDbEntity
  8
Layer_1
 62
7
100
AcDbPolyline
 90
1
 70
1
 10
112.576679
 20
13.594991
 30
0.0
  0
ENDSEC
  0
SECTION
  2
OBJECTS
  0
DICTIONARY
  5
C
330
0
100
AcDbDictionary
  3
ACAD_GROUP
350
D
  3
ACAD_MLINESTYLE
350
17
  0
DICTIONARY
  5
D
330
C
100
AcDbDictionary
  0
DICTIONARY
  5
1A
330
C
100
AcDbDictionary
  0
DICTIONARY
  5
17
330
C
100
AcDbDictionary
  3
STANDARD
350
18
  0
DICTIONARY
  5
19
330
C
100
AcDbDictionary
  0
ENDSEC
  0
EOF
