<?xml version="1.0" encoding="UTF-8" standalone="no"?>
<!-- Created with Inkscape (http://www.inkscape.org/) -->

<svg
   version="1.1"
   id="svg6190"
   width="1753.5468"
   height="1728"
   viewBox="0 0 1753.5468 1728"
   sodipodi:docname="MF24_ship.pdf"
   xmlns:inkscape="http://www.inkscape.org/namespaces/inkscape"
   xmlns:sodipodi="http://sodipodi.sourceforge.net/DTD/sodipodi-0.dtd"
   xmlns="http://www.w3.org/2000/svg"
   xmlns:svg="http://www.w3.org/2000/svg">
  <defs
     id="defs6194">
    <clipPath
       clipPathUnits="userSpaceOnUse"
       id="clipPath6322">
      <path
         d="M 0,1296 H 1315.156 V 0 H 0 Z"
         id="path6320" />
    </clipPath>
    <clipPath
       clipPathUnits="userSpaceOnUse"
       id="clipPath8927">
      <g
         id="g8933"
         style="stroke-width:1">
        <g
           id="g8931"
           style="stroke-width:1">
          <path
             d="M 0,1296 H 1315.156 V 0 H 0 Z"
             id="path8929"
             style="stroke-width:1" />
        </g>
      </g>
    </clipPath>
    <clipPath
       clipPathUnits="userSpaceOnUse"
       id="clipPath8942">
      <g
         id="g8948"
         style="stroke-width:1">
        <g
           id="g8946"
           style="stroke-width:1">
          <path
             d="M 0,1296 H 1315.156 V 0 H 0 Z"
             id="path8944"
             style="stroke-width:1" />
        </g>
      </g>
    </clipPath>
    <clipPath
       clipPathUnits="userSpaceOnUse"
       id="clipPath8957">
      <g
         id="g8963"
         style="stroke-width:1">
        <g
           id="g8961"
           style="stroke-width:1">
          <path
             d="M 0,1296 H 1315.156 V 0 H 0 Z"
             id="path8959"
             style="stroke-width:1" />
        </g>
      </g>
    </clipPath>
    <clipPath
       clipPathUnits="userSpaceOnUse"
       id="clipPath8972">
      <g
         id="g8978"
         style="stroke-width:1">
        <g
           id="g8976"
           style="stroke-width:1">
          <path
             d="M 0,1296 H 1315.156 V 0 H 0 Z"
             id="path8974"
             style="stroke-width:1" />
        </g>
      </g>
    </clipPath>
    <clipPath
       clipPathUnits="userSpaceOnUse"
       id="clipPath8987">
      <g
         id="g8993"
         style="stroke-width:1">
        <g
           id="g8991"
           style="stroke-width:1">
          <path
             d="M 0,1296 H 1315.156 V 0 H 0 Z"
             id="path8989"
             style="stroke-width:1" />
        </g>
      </g>
    </clipPath>
    <clipPath
       clipPathUnits="userSpaceOnUse"
       id="clipPath9002">
      <g
         id="g9008"
         style="stroke-width:1">
        <g
           id="g9006"
           style="stroke-width:1">
          <path
             d="M 0,1296 H 1315.156 V 0 H 0 Z"
             id="path9004"
             style="stroke-width:1" />
        </g>
      </g>
    </clipPath>
    <clipPath
       clipPathUnits="userSpaceOnUse"
       id="clipPath9017">
      <g
         id="g9023"
         style="stroke-width:1">
        <g
           id="g9021"
           style="stroke-width:1">
          <path
             d="M 0,1296 H 1315.156 V 0 H 0 Z"
             id="path9019"
             style="stroke-width:1" />
        </g>
      </g>
    </clipPath>
    <clipPath
       clipPathUnits="userSpaceOnUse"
       id="clipPath9032">
      <g
         id="g9038"
         style="stroke-width:1">
        <g
           id="g9036"
           style="stroke-width:1">
          <path
             d="M 0,1296 H 1315.156 V 0 H 0 Z"
             id="path9034"
             style="stroke-width:1" />
        </g>
      </g>
    </clipPath>
    <clipPath
       clipPathUnits="userSpaceOnUse"
       id="clipPath9047">
      <g
         id="g9053"
         style="stroke-width:1">
        <g
           id="g9051"
           style="stroke-width:1">
          <path
             d="M 0,1296 H 1315.156 V 0 H 0 Z"
             id="path9049"
             style="stroke-width:1" />
        </g>
      </g>
    </clipPath>
    <clipPath
       clipPathUnits="userSpaceOnUse"
       id="clipPath9062">
      <g
         id="g9068"
         style="stroke-width:1">
        <g
           id="g9066"
           style="stroke-width:1">
          <path
             d="M 0,1296 H 1315.156 V 0 H 0 Z"
             id="path9064"
             style="stroke-width:1" />
        </g>
      </g>
    </clipPath>
    <clipPath
       clipPathUnits="userSpaceOnUse"
       id="clipPath9077">
      <g
         id="g9083"
         style="stroke-width:1">
        <g
           id="g9081"
           style="stroke-width:1">
          <path
             d="M 0,1296 H 1315.156 V 0 H 0 Z"
             id="path9079"
             style="stroke-width:1" />
        </g>
      </g>
    </clipPath>
    <clipPath
       clipPathUnits="userSpaceOnUse"
       id="clipPath9092">
      <g
         id="g9098"
         style="stroke-width:1">
        <g
           id="g9096"
           style="stroke-width:1">
          <path
             d="M 0,1296 H 1315.156 V 0 H 0 Z"
             id="path9094"
             style="stroke-width:1" />
        </g>
      </g>
    </clipPath>
    <clipPath
       clipPathUnits="userSpaceOnUse"
       id="clipPath9107">
      <g
         id="g9113"
         style="stroke-width:1">
        <g
           id="g9111"
           style="stroke-width:1">
          <path
             d="M 0,1296 H 1315.156 V 0 H 0 Z"
             id="path9109"
             style="stroke-width:1" />
        </g>
      </g>
    </clipPath>
    <clipPath
       clipPathUnits="userSpaceOnUse"
       id="clipPath9122">
      <g
         id="g9128"
         style="stroke-width:1">
        <g
           id="g9126"
           style="stroke-width:1">
          <path
             d="M 0,1296 H 1315.156 V 0 H 0 Z"
             id="path9124"
             style="stroke-width:1" />
        </g>
      </g>
    </clipPath>
    <clipPath
       clipPathUnits="userSpaceOnUse"
       id="clipPath9137">
      <g
         id="g9143"
         style="stroke-width:1">
        <g
           id="g9141"
           style="stroke-width:1">
          <path
             d="M 0,1296 H 1315.156 V 0 H 0 Z"
             id="path9139"
             style="stroke-width:1" />
        </g>
      </g>
    </clipPath>
    <clipPath
       clipPathUnits="userSpaceOnUse"
       id="clipPath9152">
      <g
         id="g9158"
         style="stroke-width:1">
        <g
           id="g9156"
           style="stroke-width:1">
          <path
             d="M 0,1296 H 1315.156 V 0 H 0 Z"
             id="path9154"
             style="stroke-width:1" />
        </g>
      </g>
    </clipPath>
    <clipPath
       clipPathUnits="userSpaceOnUse"
       id="clipPath9167">
      <g
         id="g9173"
         style="stroke-width:1">
        <g
           id="g9171"
           style="stroke-width:1">
          <path
             d="M 0,1296 H 1315.156 V 0 H 0 Z"
             id="path9169"
             style="stroke-width:1" />
        </g>
      </g>
    </clipPath>
    <clipPath
       clipPathUnits="userSpaceOnUse"
       id="clipPath9182">
      <g
         id="g9188"
         style="stroke-width:1">
        <g
           id="g9186"
           style="stroke-width:1">
          <path
             d="M 0,1296 H 1315.156 V 0 H 0 Z"
             id="path9184"
             style="stroke-width:1" />
        </g>
      </g>
    </clipPath>
    <clipPath
       clipPathUnits="userSpaceOnUse"
       id="clipPath9197">
      <g
         id="g9203"
         style="stroke-width:1">
        <g
           id="g9201"
           style="stroke-width:1">
          <path
             d="M 0,1296 H 1315.156 V 0 H 0 Z"
             id="path9199"
             style="stroke-width:1" />
        </g>
      </g>
    </clipPath>
    <clipPath
       clipPathUnits="userSpaceOnUse"
       id="clipPath9212">
      <g
         id="g9218"
         style="stroke-width:1">
        <g
           id="g9216"
           style="stroke-width:1">
          <path
             d="M 0,1296 H 1315.156 V 0 H 0 Z"
             id="path9214"
             style="stroke-width:1" />
        </g>
      </g>
    </clipPath>
    <clipPath
       clipPathUnits="userSpaceOnUse"
       id="clipPath9227">
      <g
         id="g9233"
         style="stroke-width:1">
        <g
           id="g9231"
           style="stroke-width:1">
          <path
             d="M 0,1296 H 1315.156 V 0 H 0 Z"
             id="path9229"
             style="stroke-width:1" />
        </g>
      </g>
    </clipPath>
    <clipPath
       clipPathUnits="userSpaceOnUse"
       id="clipPath9242">
      <g
         id="g9248"
         style="stroke-width:1">
        <g
           id="g9246"
           style="stroke-width:1">
          <path
             d="M 0,1296 H 1315.156 V 0 H 0 Z"
             id="path9244"
             style="stroke-width:1" />
        </g>
      </g>
    </clipPath>
    <clipPath
       clipPathUnits="userSpaceOnUse"
       id="clipPath9257">
      <g
         id="g9263"
         style="stroke-width:1">
        <g
           id="g9261"
           style="stroke-width:1">
          <path
             d="M 0,1296 H 1315.156 V 0 H 0 Z"
             id="path9259"
             style="stroke-width:1" />
        </g>
      </g>
    </clipPath>
    <clipPath
       clipPathUnits="userSpaceOnUse"
       id="clipPath9272">
      <g
         id="g9278"
         style="stroke-width:1">
        <g
           id="g9276"
           style="stroke-width:1">
          <path
             d="M 0,1296 H 1315.156 V 0 H 0 Z"
             id="path9274"
             style="stroke-width:1" />
        </g>
      </g>
    </clipPath>
    <clipPath
       clipPathUnits="userSpaceOnUse"
       id="clipPath9287">
      <g
         id="g9293"
         style="stroke-width:1">
        <g
           id="g9291"
           style="stroke-width:1">
          <path
             d="M 0,1296 H 1315.156 V 0 H 0 Z"
             id="path9289"
             style="stroke-width:1" />
        </g>
      </g>
    </clipPath>
    <clipPath
       clipPathUnits="userSpaceOnUse"
       id="clipPath9302">
      <g
         id="g9308"
         style="stroke-width:1">
        <g
           id="g9306"
           style="stroke-width:1">
          <path
             d="M 0,1296 H 1315.156 V 0 H 0 Z"
             id="path9304"
             style="stroke-width:1" />
        </g>
      </g>
    </clipPath>
    <clipPath
       clipPathUnits="userSpaceOnUse"
       id="clipPath9317">
      <path
         d="m 1022.0038,472.43064 c 0,0 -5.765,-0.861 -9.973,-1.07805 13.771,-66.14895 6.862,-105.88996 -5.66,-132.33901 6.057,3.28605 9.914,6.21203 16.177,10.13903 8.911,26.54002 12.239,64.98698 -0.544,123.27803"
         style="fill:#feff72;fill-opacity:1;fill-rule:nonzero;stroke:none;stroke-width:0.999998"
         id="path9319" />
    </clipPath>
  </defs>
  <sodipodi:namedview
     id="namedview6192"
     pagecolor="#ffffff"
     bordercolor="#000000"
     borderopacity="0.25"
     inkscape:showpageshadow="2"
     inkscape:pageopacity="0.0"
     inkscape:pagecheckerboard="0"
     inkscape:deskcolor="#d1d1d1"
     showgrid="false">
    <inkscape:page
       x="0"
       y="0"
       id="page6196"
       width="1753.5468"
       height="1728" />
  </sodipodi:namedview>
  <g
     id="g6198"
     inkscape:groupmode="layer"
     inkscape:label="Page 1"
     transform="matrix(1.3333333,0,0,-1.3333333,0,1728)">
    <g
       id="g9314"
       clip-path="url(#clipPath9317)">
      <g
         id="g8762"
         style="stroke-width:1">
        <path
           d="M 0,1296 H 1315.156 V 0 H 0 Z"
           id="path8760"
           style="stroke-width:1" />
      </g>
    </g>
    <path
       d="m 1162.6627,849.314 -0.031,-0.037 c 0.01,0.014 0.021,0.027 0.031,0.037 M 659.2037,93.008 c -24.683,0 -50.772,15.35 -75.449,44.389 -20.593,24.233 -36.009,52.951 -43.835,72.337 -24.154,9.076 -64.845,34.063 -91.139,60.145 -31.304,-5.785 -57.997,2.938 -77.382,25.297 -48.05,5.514 -117.986,47.42 -183.022,109.755 -73.452,70.403 -125.406,150.833 -142.671,220.824 -19.009,21.75 -29.953,54.319 -30.051,89.527 -0.096,35.165 10.625,67.031 28.678,85.243 7.096,7.159 19.982,12.891 26.641,13.868 5.985,11.211 11.442,19.87 19.34,27.767 20.081,20.079 41.327,27.563 58.291,20.535 2.348,-0.972 5.48,-2.62 8.606,-5.318 5.102,9.397 10.478,17.929 17.791,28.285 91.63,125.604 148.399,137.538 186.891,137.538 29.247,0 59.975,-21.212 80.858,-55.597 6.999,4.602 14.879,11.267 23.474,19.86 18.33,18.328 36.636,42.138 51.347,61.271 10.734,13.961 19.961,25.963 27.095,33.096 2.311,2.311 4.433,4.156 6.488,5.639 17.746,12.815 81.362,14.198 107.889,14.198 26.526,10e-4 90.139,-1.381 107.89,-14.198 8.549,-6.175 18.501,-19.12 33.567,-38.713 20.022,-26.046 49.889,-64.894 74.832,-81.208 6.203,10.186 13.282,19.282 21.08,27.078 18.425,18.425 39.657,28.573 59.778,28.573 0.003,0 0.002,0 0.004,0 90.753,7.668 199.797,-156.861 204.995,-166.429 5.023,3.126 14.44,7.188 26.368,5.688 23.344,-2.939 43.539,-19.993 58.419,-49.326 9.686,-1.009 19.314,-6.399 27.977,-15.691 6.893,-7.395 13.211,-17.344 17.333,-27.297 8.783,-21.2 12.267,-48.097 9.559,-73.796 -2.101,-19.95 -8.832,-48.4 -28.908,-71.089 -20.984,-68.838 -71.717,-146.995 -139.302,-214.573 -66.973,-66.967 -136.34,-110.033 -185.973,-115.537 -1.399,-1.613 -2.834,-3.156 -4.277,-4.599 -19.205,-19.202 -43.778,-26.153 -73.075,-20.678 -28.563,-28.399 -69.7,-51.781 -91.051,-59.987 -9.189,-22.994 -28.866,-58.357 -55.17,-84.658 -21.38,-21.378 -42.875,-32.219 -63.886,-32.219"
       style="fill:#26325e;fill-opacity:1;fill-rule:nonzero;stroke:none"
       id="path6210"
       clip-path="url(#clipPath9182)" />
    <path
       d="m 827.597,392.8836 c -6.727,-18.137 -15.863,-42.862 -21.183,-57.658 l -0.066,-0.179 c -1.707,-4.443 -4.519,-8.633 -8.386,-12.529 -4.584,-4.582 -22.497,-19.733 -61.08,-22.927 l -5.853,-0.483 -4.114,4.188 c -7.561,7.695 -16.627,14.42 -26.216,19.451 -13.259,7.013 -28.214,10.716 -43.266,10.716 -14.144,0 -27.894,-3.297 -39.764,-9.534 -7.87,-4.088 -15.072,-9.378 -21.425,-15.733 -1.393,-1.394 -2.762,-2.86 -4.065,-4.356 l -4.13,-4.744 -6.272,0.482 c -19.425,1.492 -36.96,6.726 -50.71,15.138 -6.097,3.788 -14.14,10.135 -17.989,18.961 l -1.227,2.725 v 0.469 c -0.375,1.043 -0.898,2.522 -1.631,4.617 l -0.051,0.149 c -0.704,2.012 -1.362,3.898 -1.801,5.033 l -0.091,0.241 c -4.439,12.439 -10.862,29.983 -15.113,41.592 l -0.674,1.836 c -0.151,0.419 -0.334,0.967 -0.567,1.667 l -4.72,14.223 12.025,3.875 c 30.056,9.688 89.568,25.941 150.463,25.941 56.587,10e-4 113.767,-9.039 169.95,-26.869 l 12.521,-3.974 z m 1.634,19.029 c -59.277,19.708 -119.684,29.7 -179.543,29.698 -70.344,0 -140.181,-22.025 -159.908,-28.775 l -9.944,-3.4 3.601,-9.872 c 1.296,-3.551 2.289,-6.55 2.945,-8.534 l 0.237,-0.714 c 0.228,-0.686 0.412,-1.239 0.553,-1.643 l 0.334,-0.907 c 4.368,-11.927 10.971,-29.953 15.552,-42.792 l 0.075,-0.199 c 0.41,-1.055 1.058,-2.912 1.832,-5.124 2.155,-6.163 2.61,-7.3 2.92,-8 l 0.105,-0.23 c 4.41,-10.113 13.37,-17.228 20.155,-21.443 15.584,-9.534 35.48,-15.144 57.542,-16.222 l 5.259,-0.257 3.288,4.114 c 1.844,2.31 3.846,4.546 5.946,6.648 5.955,5.954 12.696,10.905 20.067,14.734 11.093,5.829 23.952,8.91 37.189,8.91 14.136,0 28.191,-3.483 40.668,-10.084 10.099,-5.296 19.446,-12.466 27.029,-20.733 l 3.29,-3.59 4.864,0.266 c 34.059,1.87 57.661,13.934 68.389,24.597 l 0.114,0.115 c 4.479,4.479 7.771,9.412 9.787,14.661 l 0.054,0.149 c 5.779,16.066 16.245,44.363 24.006,65.27 l 3.712,9.994 z"
       style="fill:#25995c;fill-opacity:1;fill-rule:nonzero;stroke:none"
       id="path6214"
       clip-path="url(#clipPath9197)" />
    <path
       d="m 657.8835,888.6962 c -7.488,10e-4 -14.527,2.923 -19.816,8.227 -5.29,5.304 -8.191,12.35 -8.172,19.839 0.02,7.51 2.973,14.588 8.316,19.929 5.341,5.343 12.419,8.295 19.929,8.316 7.566,0 14.604,-2.922 19.895,-8.227 5.289,-5.303 8.191,-12.349 8.171,-19.838 -0.021,-7.523 -2.97,-14.605 -8.304,-19.94 -5.339,-5.337 -12.421,-8.286 -19.942,-8.306 z"
       style="fill:#25995c;fill-opacity:1;fill-rule:nonzero;stroke:none"
       id="path6218"
       clip-path="url(#clipPath9047)" />
    <path
       d="m 292.5626,472.231 c -30.565,46.77 -49.229,99.711 -55.481,157.374 -6.127,56.497 -0.398,118.131 17.008,183.199 -0.398,0.005 -0.779,-0.01 -1.187,0.006 -10.967,-0.5 -16.522,4.538 -19.249,8.845 -7.699,12.177 -2.015,32.628 3.656,43.35 l 0.476,0.866 c 1.939,3.483 4.6,8.253 7.944,11.597 2.198,2.198 4.522,3.602 6.905,4.172 l 1.414,0.003 c 3.906,-0.934 7.106,-3.998 9.714,-7.494 1.238,1.511 2.532,2.992 3.943,4.403 5.975,5.974 12.911,10.39 20.308,13.279 -2.24,11.788 2.277,26.501 6.79,35.033 l 0.485,0.875 c 1.943,3.486 4.598,8.256 7.942,11.6 2.198,2.198 4.521,3.603 6.899,4.172 h 1.417 c 5.376,-1.278 9.415,-6.594 12.414,-11.532 11.087,11.341 23.42,21.01 36.958,27.491 18.331,8.777 36.372,11.849 53.841,9.202 -12.889,15.708 -31.779,33.173 -52.084,33.058 -28.647,-0.162 -55.533,-14.611 -68.1,-22.594 -61.652,-45.447 -96.625,-98.431 -106.99,-115.812 -32.176,-53.951 -35.717,-91.179 -40.712,-116.626 -1.539,18.799 3.916,53.388 10.811,76.975 -8.613,19.013 -30.388,19.284 -46.151,3.901 -40.464,-39.489 -34.265,-119.992 -19.036,-162.874 -16.982,23.133 -29.946,79.542 -12.896,128.179 -3.982,-0.406 -19.013,-1.788 -30.226,-23.726 -22.436,-49.43 -9.08,-111.392 16.505,-132.62 0.119,-0.12 0.216,-0.265 0.336,-0.385 9.403,-60.943 59.639,-137.399 117.306,-196.472 -28.763,45.339 -50.864,122.691 -39.458,179.767 -0.356,-28.151 12.482,-164.167 98.565,-232.911 16.126,-13.088 32.233,-24.703 47.865,-34.59 -9.206,30.935 -8.516,71.381 2.068,120.289"
       style="fill:#25995c;fill-opacity:1;fill-rule:nonzero;stroke:none"
       id="path6222"
       clip-path="url(#clipPath9227)" />
    <path
       d="m 1268.8805,771.506 c -11.213,21.938 -26.244,23.319 -30.226,23.726 17.05,-48.638 4.086,-105.046 -12.897,-128.179 15.23,42.882 21.429,123.385 -19.035,162.873 -15.763,15.383 -37.538,15.113 -46.151,-3.9 6.894,-23.587 12.35,-58.176 10.81,-76.976 -4.736,24.135 -5.484,58.803 -36.157,107.542 -0.514,0.943 -1.018,1.91 -1.54,2.832 -22.309,33.136 -58.168,79.747 -118.132,124.689 -10.539,5.944 -23.141,16.061 -59.706,17.616 -14.325,0.61 -30.5,-8.031 -44.854,-22.385 -2.727,-2.727 -5.83,-6.704 -8.902,-11.038 17.274,3.067 35.119,0.511 53.267,-7.65 3.199,2.66 6.543,4.02 9.965,4.016 10.676,0 18.69,-13.313 23.734,-25.175 15.472,-12.762 29.37,-29.004 41.662,-48.693 3.715,3.446 7.711,5.213 11.895,5.211 19.771,0 28.969,-38.799 29.969,-43.296 2.126,-10.363 -0.098,-18.736 -5.764,-24.854 -0.977,-1.054 -2.582,-2.387 -5.027,-3.641 8.19,-23.471 15.083,-49.644 20.654,-78.496 7.461,-4.926 15.869,-11.204 24.817,-19.143 28.264,-28.263 43.822,-65.832 43.822,-105.797 0,-41.259 -16.783,-78.663 -43.879,-105.759 -21.923,-21.924 -49.15,-36.264 -81.159,-41.251 12.842,-58.877 8.637,-97.913 1.922,-121.512 17.372,11.185 33.834,24.038 51.763,39.294 60.288,64.386 87.846,135.638 93.273,227.883 7.968,-35.788 -5.248,-120.724 -40.658,-177.591 40.559,43.277 77.082,93.622 100.823,144.205 0.01,-0.006 0.015,-0.013 0.021,-0.019 12.134,24.701 15.161,35.825 18.849,52.463 0.12,0.12 0.216,0.264 0.336,0.385 25.585,21.228 38.941,83.19 16.505,132.62"
       style="fill:#25995c;fill-opacity:1;fill-rule:nonzero;stroke:none"
       id="path6226"
       clip-path="url(#clipPath8927)" />
    <path
       d="m 519.1171,496.6304 c 1.765,-29.136 16.124,-47.389 46.132,-57.954 30.577,5.54 60.429,8.282 91.467,8.273 31.208,0.097 64.999,-3.678 95.72,-9.282 29.989,10.571 45.664,29.831 47.423,58.963 -12.346,0.671 -23.852,5.797 -32.659,14.604 -9.466,9.466 -14.68,22.055 -14.683,35.44 l 0.003,172.381 c -9.305,-7.21 -19.058,-13.699 -29.125,-19.271 -52.405,-29.283 -112.07,-16.229 -156.936,18.427 v -171.537 c -0.006,-26.708 -20.99,-48.599 -47.342,-50.044"
       style="fill:#5fed7d;fill-opacity:1;fill-rule:nonzero;stroke:none"
       id="path6230"
       clip-path="url(#clipPath9062)" />
    <path
       d="m 843.0113,518.2198 c -35.309,76.625 -20.468,156.447 12.423,230.95 -17.997,-61.888 -35.946,-127.747 -18.757,-191.656 10.009,-37.808 28.208,-74.417 29.267,-114.245 -3.643,26.147 -13.451,50.474 -22.933,74.951 m 1.061,-109.599 c -9.437,-24.694 -19.297,-51.901 -28.261,-76.824 -12.173,-31.763 -58.797,-42.714 -89.442,-42.852 l -0.734,-0.012 c 0,0 -0.466,0.64 -0.466,0.64 -7.935,9.913 -18.272,18.264 -29.535,24.171 -22.483,11.894 -50.78,13.091 -73.46,1.175 -11.221,-5.827 -21.25,-14.706 -28.219,-25.225 -10e-4,-0.001 -0.431,-0.75 -0.432,-0.75 -23.569,-0.012 -47.792,4.674 -68.12,17.111 -9.126,5.667 -17.63,13.51 -22.024,23.59 -1.009,2.119 -4.086,11.423 -4.996,13.699 -4.541,12.73 -11.127,30.715 -15.833,43.559 -0.379,1.217 -8.849,23.688 -9.194,24.459 19.727,7.728 39.996,14.067 60.576,19.201 -21.477,15.283 -33.729,37.302 -34.507,62.227 l -0.008,21.367 3.209,-10e-4 c 28.265,-0.003 46.532,15.178 46.537,38.672 v 180.462 c -2.076,2.046 -4.124,4.121 -6.097,6.269 -35.534,37.448 -86.244,118.735 -38.398,163.719 22.215,15.207 41.158,33.542 53.723,57.473 22.411,52.303 39.373,75.31 100.667,75.826 60.671,-0.352 78.821,-23.347 100.915,-75.551 9.996,-18.432 23.647,-34.96 40.312,-47.763 8.583,-6.204 19.334,-13.111 24.749,-23.167 6.193,-10.166 8.391,-22.066 8.236,-33.368 -3.956,-47.07 -29.21,-90.611 -63.851,-123.173 v -181.16 c 0.007,-23.496 18.273,-38.676 46.537,-38.673 l 3.21,0.004 -0.008,-21.305 c -0.626,-20.104 -8.665,-38.302 -22.968,-52.605 -3.333,-3.333 -7.024,-6.439 -11.023,-9.324 20.375,-5.119 40.445,-11.414 59.99,-19.061 -10e-4,0 -1.085,-2.81 -1.085,-2.81 m -391.495,34.648 c 1.004,39.843 19.225,76.448 29.247,114.251 17.32,63.869 -0.639,129.891 -18.736,191.65 32.747,-74.451 47.679,-154.444 12.462,-230.965 -9.495,-24.473 -19.291,-48.796 -22.973,-74.936 m 551.269,28.006 c -0.806,-0.013 -1.588,-0.122 -2.397,-0.122 -39.964,10e-4 -77.533,15.559 -105.797,43.823 -30.196,30.196 -45.894,71.018 -43.609,114.034 3.566,67.158 53.263,124.561 119.103,138.265 27.684,5.762 54.769,3.337 79.541,-5.309 -0,0.014 -0.01,0.028 -0.01,0.042 0,0 1.427,-0.423 4.008,-1.436 -3.864,19.292 -8.537,39.418 -15.456,59.739 -1.027,0.026 -2.076,0.064 -3.175,0.13 -8.433,0.898 -14.624,3.759 -18.819,8.678 -5.058,5.928 -6.607,13.884 -4.593,23.696 0.01,0.034 1.677,7.628 4.996,16.339 -6.4,11.443 -14.106,23.2 -23.215,33.916 -2.076,-5.253 -5.574,-8.719 -8.615,-10.738 -6.002,-3.558 -11.82,-3.55 -20.882,-3.55 -11.233,0 -18.542,1.432 -24.985,8.991 -5.056,5.926 -6.604,13.879 -4.587,23.699 0.031,0.145 2.418,9.108 6.634,18.779 -17.354,5.555 -35.927,5.853 -55.486,0.862 18.365,-48.804 -3.065,-125.693 -16.523,-166.292 10.329,41.269 28.107,133.429 -2.962,172.769 0.002,-10e-4 0.005,-0.002 0.007,-0.004 -45.234,27.185 -95.416,110.035 -112.347,122.264 -19.159,13.837 -171.679,13.837 -190.838,0 -1.158,-0.836 -2.471,-2.002 -3.927,-3.459 -15.166,-15.165 -45.854,-61.759 -78.294,-94.198 -15.179,-16.566 -33.1,-26.33 -32.825,-26.178 -29.369,-40.177 -11.93,-130.294 -1.711,-171.194 -13.472,40.614 -34.99,117.912 -16.318,166.719 -26.718,6.438 -51.577,2.959 -73.969,-10.371 -8.919,-5.309 -17.016,-11.955 -24.342,-19.374 1.762,-7.012 2.481,-14.471 1.044,-20.906 6.556,-2.872 12.702,-6.97 18.069,-12.337 1.903,-1.903 3.633,-3.91 5.222,-5.991 3.601,5.314 7.042,8.171 10.838,9.086 l 1.421,-0.003 c 7.018,-1.679 11.767,-10.231 14.881,-15.839 6.808,-12.841 12.844,-36.045 1.559,-47.33 -4.078,-4.078 -9.891,-5.986 -17.58,-5.665 -1.399,-0.063 -2.708,-0.035 -3.937,0.069 -2.881,-6.601 -7.003,-12.791 -12.403,-18.191 -5.462,-5.462 -11.731,-9.618 -18.417,-12.502 2.131,-10.551 1.604,-21.623 -5.167,-28.394 -4.078,-4.078 -9.89,-5.986 -17.58,-5.665 -10.977,-0.497 -16.528,4.538 -19.252,8.848 -4.192,6.633 -4.414,15.711 -2.836,24.337 -6.172,2.368 -12.024,5.803 -17.277,10.311 -27.538,-114.492 -11.741,-229.561 43.976,-314.144 l 0.617,-0.938 -0.24,-1.096 c -16.066,-73.267 -8.596,-114.673 7.28,-141.713 16.569,-8.124 31.917,-13.442 45.568,-15.842 -19.036,38.635 -20.757,88.858 -13.259,127.893 -4.251,-39.764 2.426,-93.867 27.835,-129.505 -0.009,10e-4 -0.019,10e-4 -0.028,0.002 0.034,0 0.073,-0.007 0.108,-0.007 17.986,-25.966 43.198,-31.333 73.442,-22.352 27.644,-31.977 78.362,-59.855 95.572,-65.048 -1.947,16.634 -2.984,33.4 -3.937,49.931 3.898,-23.558 8.875,-47.031 15.99,-69.759 17.84,-38.281 57.396,-93.938 95.454,-93.938 16.702,-0.001 33.664,10.734 48.953,26.023 23.576,23.576 36.765,46.99 42.497,60.272 9.868,23.769 13.555,51.726 18.224,77.402 -0.694,-16.778 -1.888,-33.634 -4.026,-50.378 14.268,3.566 60.144,27.986 89.632,57.474 2.637,2.637 5.143,5.315 7.483,8.021 22.481,-6.676 42.086,-5.163 58.1,6.596 36.898,33.414 46.745,98.989 41.803,145.266 7.523,-39.151 5.782,-89.596 -13.436,-128.289 14.141,2.267 30.178,8.098 47.293,16.674 15.377,26.514 22.685,66.798 7.904,137.107"
       style="fill:#5fed7d;fill-opacity:1;fill-rule:nonzero;stroke:none"
       id="path6234"
       clip-path="url(#clipPath9242)" />
    <path
       d="m 654.9785,882.0474 c -17.874,1.47 -31.924,16.445 -31.875,34.71 0.024,9.334 3.685,18.12 10.304,24.739 5.908,5.909 13.547,9.451 21.76,10.162 l 0.055,20.319 c -3.33,-0.131 -6.466,-0.367 -9.439,-0.695 -21.077,-2.47 -30.519,-9.476 -38.708,-19.198 -5.672,-7.026 -9.478,-15.212 -13.343,-23.581 l -1.243,-2.67 c -3.601,-7.725 -7.88,-14.944 -12.687,-21.652 -8.368,-12.507 -20.358,-22.763 -30.574,-29.378 -9.719,-6.264 -16.182,-14.135 -16.227,-32.026 -0.077,-28.28 21.511,-68.128 51.326,-94.75 22.865,-17.342 46.323,-26.404 70.214,-27.215 z"
       style="fill:#5fed7d;fill-opacity:1;fill-rule:nonzero;stroke:none"
       id="path6238"
       clip-path="url(#clipPath9077)" />
    <path
       d="m 672.6356,971.5348 c -3.234,0.283 -6.622,0.48 -10.267,0.534 l -0.056,-20.531 c 17.303,-2.024 30.734,-16.735 30.685,-34.591 -0.024,-9.335 -3.684,-18.122 -10.302,-24.74 -5.623,-5.623 -12.813,-9.1 -20.571,-10.037 l -0.438,-161.349 c 24.126,0.839 48.674,10.029 73.486,27.616 29.835,26.757 51.627,66.734 51.704,95.026 0.056,19.383 -8.276,27.366 -16.438,32.623 -9.717,6.256 -19.135,13.543 -25.474,22.222 -6.188,7.902 -11.588,16.615 -15.964,26.094 l -1.105,2.399 c -4.473,9.742 -8.865,19.238 -16.206,26.932 -8.447,8.364 -19.231,15.914 -39.054,17.802"
       style="fill:#5fed7d;fill-opacity:1;fill-rule:nonzero;stroke:none"
       id="path6242"
       clip-path="url(#clipPath9092)" />
    <path
       d="m 269.3923,866.1075 c 0.803,-1.514 1.592,-3.172 2.345,-4.929 5.264,8.185 13.072,14.581 22.306,18.053 -1.271,1.145 -2.392,2.478 -3.356,4.001 -0.337,0.533 -0.64,1.087 -0.928,1.649 -8.565,-3.609 -15.973,-9.436 -21.505,-16.758 0.384,-0.67 0.764,-1.343 1.138,-2.016"
       style="fill:#5fed7d;fill-opacity:1;fill-rule:nonzero;stroke:none"
       id="path6246"
       clip-path="url(#clipPath8987)" />
    <path
       d="m 328.379,879.9549 c -0.414,-0.414 -0.855,-0.794 -1.305,-1.164 9.318,-3.79 17.102,-10.58 22.15,-19.17 0.83,2.062 1.71,3.96 2.59,5.626 l 0.854,1.602 c -5.332,7.514 -12.593,13.561 -21.059,17.419 -0.874,-1.565 -1.935,-3.018 -3.23,-4.313"
       style="fill:#5fed7d;fill-opacity:1;fill-rule:nonzero;stroke:none"
       id="path6250"
       clip-path="url(#clipPath9107)" />
    <path
       d="m 351.2871,817.6386 c -4.445,-9.611 -12.14,-17.423 -21.677,-22 0.841,-2.034 1.627,-4.198 2.323,-6.443 10.982,5.095 19.918,13.881 25.183,24.769 -2.41,0.974 -4.317,2.272 -5.829,3.674"
       style="fill:#5fed7d;fill-opacity:1;fill-rule:nonzero;stroke:none"
       id="path6254"
       clip-path="url(#clipPath9002)" />
    <path
       d="m 291.7541,795.0218 c -9.817,4.319 -17.827,12.006 -22.556,21.595 -1.759,-1.37 -3.79,-2.409 -6.064,-3.139 5.526,-11.126 14.892,-20.021 26.36,-24.928 0.676,2.276 1.444,4.454 2.26,6.472"
       style="fill:#5fed7d;fill-opacity:1;fill-rule:nonzero;stroke:none"
       id="path6258"
       clip-path="url(#clipPath9122)" />
    <path
       d="m 1001.1067,755.4722 c -17.445,0 -34.874,-3.546 -51.299,-10.737 -40.59,-16.876 -69.931,-53.912 -78.523,-99.086 -8.564,-45.032 5.056,-90.082 36.437,-120.506 38.352,-38.571 93.622,-49.583 144.269,-28.764 51.061,20.987 82.868,68.036 83.009,122.783 v 0.039 c 0.971,45.277 -21.488,87.725 -60.076,113.549 -22.48,15.044 -48.16,22.722 -73.817,22.722 m -0.724,-273.646 c -35.235,0 -69.28,13.882 -95.594,40.346 -32.366,31.378 -46.434,77.84 -37.605,124.258 8.855,46.558 39.131,84.743 80.985,102.146 41.856,18.326 90.12,13.714 129.077,-12.356 39.774,-26.617 62.924,-70.387 61.929,-117.09 -0.153,-56.46 -32.951,-104.973 -85.597,-126.613 -17.473,-7.182 -35.487,-10.691 -53.195,-10.691"
       style="fill:#5fed7d;fill-opacity:1;fill-rule:nonzero;stroke:none"
       id="path6262"
       clip-path="url(#clipPath9017)" />
    <path
       d="m 1113.4102,608.5491 c -0.404,-2.946 -0.996,-6.841 -1.999,-10.842 -0.328,-1.302 -1.163,-2.42 -2.321,-3.1 -0.778,-0.456 -1.654,-0.691 -2.539,-0.691 -0.435,0 -0.873,0.057 -1.299,0.172 l -11.727,3.15 c -1.235,-4.228 -2.827,-8.397 -4.756,-12.448 l 10.878,-5.453 c 1.196,-0.599 2.102,-1.653 2.518,-2.925 0.415,-1.272 0.303,-2.657 -0.31,-3.847 -0.898,-1.747 -1.932,-3.524 -3.159,-5.43 -0.434,-0.673 -0.846,-1.358 -1.259,-2.042 l -0.075,-0.124 c -0.633,-1.052 -1.223,-2.028 -1.841,-2.956 -0.753,-1.128 -1.931,-1.902 -3.266,-2.147 -0.299,-0.055 -0.602,-0.082 -0.902,-0.082 -1.037,0 -2.055,0.322 -2.911,0.932 l -9.916,7.08 c -2.688,-3.561 -5.636,-6.964 -8.8,-10.158 l 8.358,-8.73 c 0.934,-0.976 1.435,-2.288 1.388,-3.638 -0.046,-1.35 -0.636,-2.625 -1.636,-3.533 l -3.844,-3.496 c -0.108,-0.099 -0.223,-0.195 -0.341,-0.284 l -4.141,-3.143 c -0.876,-0.665 -1.942,-1.019 -3.029,-1.019 -0.246,0 -0.495,0.018 -0.741,0.055 -1.336,0.199 -2.533,0.93 -3.323,2.025 l -7.065,9.801 c -3.713,-2.543 -7.587,-4.807 -11.565,-6.761 l 5.096,-11.066 c 0.563,-1.227 0.61,-2.63 0.126,-3.89 -0.485,-1.262 -1.457,-2.273 -2.698,-2.807 -1.393,-0.599 -2.825,-1.122 -4.21,-1.627 l -1.559,-0.573 c -1.877,-0.707 -3.85,-1.45 -5.86,-2.044 -0.465,-0.136 -0.942,-0.204 -1.418,-0.204 -0.845,0 -1.685,0.214 -2.438,0.633 -1.175,0.655 -2.037,1.755 -2.393,3.052 l -3.221,11.748 c -4.291,-1.062 -8.678,-1.778 -13.097,-2.135 l 0.704,-12.035 c 0.079,-1.353 -0.393,-2.681 -1.309,-3.679 -0.916,-0.999 -2.199,-1.584 -3.552,-1.622 0,0 -5.269,-0.146 -5.316,-0.146 -0.118,0 -0.236,0.004 -0.354,0.013 l -5.182,0.368 c -1.331,0.095 -2.568,0.715 -3.439,1.725 -0.871,1.009 -1.303,2.324 -1.203,3.653 l 0.92,12.064 c -0.255,0.015 -0.511,0.03 -0.766,0.043 -1.975,0.11 -4.011,0.223 -6.034,0.615 -0.065,0.013 -6.438,1.512 -6.438,1.512 l -3.211,-11.905 c -0.603,-2.232 -2.623,-3.706 -4.835,-3.706 -0.413,-10e-4 -0.834,0.051 -1.253,0.159 -3.155,0.814 -6.148,2.088 -9.041,3.321 -0.859,0.366 -1.724,0.735 -2.6,1.094 -1.26,0.515 -2.256,1.523 -2.759,2.789 -0.502,1.267 -0.466,2.683 0.098,3.923 l 4.915,10.799 c -1.463,0.704 -2.82,1.536 -4.146,2.35 -0.541,0.331 -1.079,0.661 -1.621,0.98 -0.068,0.039 -0.135,0.08 -0.2,0.123 -0.775,0.504 -1.742,1.056 -2.597,1.543 -0.972,0.556 -1.959,1.119 -2.928,1.746 l -7.053,-9.668 c -0.811,-1.112 -2.044,-1.841 -3.409,-2.017 -0.213,-0.027 -0.426,-0.041 -0.638,-0.041 -1.149,0 -2.27,0.395 -3.17,1.13 -0.678,0.554 -1.361,1.103 -2.046,1.653 -2.059,1.654 -4.19,3.365 -6.184,5.189 -1.003,0.919 -1.59,2.207 -1.625,3.567 -0.036,1.36 0.483,2.676 1.439,3.646 l 8.579,8.707 c -0.342,0.373 -0.685,0.745 -1.027,1.117 -2.624,2.853 -5.322,5.784 -7.608,9.116 l -9.935,-6.789 c -0.864,-0.591 -1.848,-0.874 -2.822,-0.874 -1.597,0 -3.167,0.762 -4.137,2.179 l -0.231,0.332 c -1.162,1.679 -2.221,3.21 -3.194,4.917 -0.046,0.081 -0.09,0.163 -0.13,0.245 l -2.623,5.261 c -0.6,1.202 -0.691,2.595 -0.255,3.864 0.437,1.27 1.365,2.312 2.576,2.891 l 10.792,5.163 c -1.413,2.936 -2.385,5.999 -3.331,8.982 -0.383,1.21 -0.772,2.436 -1.189,3.649 l -11.772,-3.085 c -0.417,-0.109 -0.844,-0.163 -1.27,-0.163 -0.936,0 -1.864,0.263 -2.672,0.772 -1.172,0.739 -1.986,1.931 -2.247,3.293 l -0.149,0.772 c -0.604,3.125 -1.223,6.339 -1.783,9.537 -0.237,1.361 0.097,2.76 0.925,3.867 0.827,1.105 2.076,1.82 3.449,1.975 l 12.113,1.367 c -0.045,1.177 -0.117,2.36 -0.186,3.52 -0.193,3.199 -0.39,6.486 -0.09,9.81 l -11.913,1.055 c -1.338,0.118 -2.572,0.769 -3.426,1.806 -0.854,1.036 -1.255,2.372 -1.115,3.707 l 0.623,5.934 c 0.013,0.132 0.032,0.263 0.057,0.392 0.354,1.915 0.831,3.708 1.336,5.606 l 0.118,0.44 c 0.598,2.239 2.621,3.718 4.837,3.718 0.418,0 0.842,-0.053 1.266,-0.164 l 11.632,-3.033 c 1.048,3.996 2.699,7.723 4.307,11.349 0,0 0.329,0.746 0.457,1.034 l -10.984,5.498 c -1.205,0.603 -2.117,1.668 -2.529,2.952 -0.411,1.285 -0.287,2.681 0.344,3.873 1.283,2.422 2.799,4.697 4.264,6.897 0.506,0.758 1.018,1.529 1.527,2.312 0.742,1.144 1.917,1.936 3.257,2.194 0.314,0.06 0.631,0.09 0.946,0.09 1.029,0 2.04,-0.316 2.892,-0.919 l 9.745,-6.888 c 1.813,2.46 3.882,4.687 5.899,6.857 0.981,1.054 1.983,2.13 2.945,3.227 l -8.435,8.767 c -0.967,1.004 -1.471,2.365 -1.393,3.757 0.078,1.391 0.733,2.687 1.807,3.576 l 9.028,7.474 c 0.904,0.748 2.036,1.151 3.195,1.151 0.221,0 0.442,-0.015 0.664,-0.044 1.385,-0.185 2.628,-0.939 3.433,-2.081 l 6.969,-9.895 5.696,3.374 3.699,2.231 c 0.152,0.092 0.308,0.175 0.469,0.25 0.556,0.259 1.129,0.499 1.726,0.737 l -4.788,10.933 c -0.541,1.236 -0.562,2.637 -0.056,3.887 0.506,1.251 1.494,2.245 2.741,2.757 l 1.714,0.709 c 2.794,1.164 5.669,2.36 8.682,3.156 0.429,0.114 0.86,0.168 1.283,0.168 2.212,0 4.234,-1.475 4.835,-3.712 l 3.19,-11.872 6.13,1.481 c 0.241,0.058 0.484,0.098 0.732,0.12 l 6.301,0.562 -0.788,12.262 c -0.176,2.751 1.903,5.128 4.654,5.319 0.966,0.067 1.995,0.101 3.056,0.101 2.243,0 4.375,-0.137 6.632,-0.282 l 0.249,-0.016 c 0.79,-0.05 1.591,-0.101 2.399,-0.144 1.36,-0.072 2.631,-0.694 3.522,-1.723 0.892,-1.03 1.325,-2.378 1.202,-3.734 l -1.079,-11.848 c 1.307,-0.16 2.556,-0.419 3.78,-0.673 0.892,-0.186 1.779,-0.371 2.672,-0.51 0.115,-0.018 0.227,-0.039 0.34,-0.064 0.893,-0.203 1.813,-0.354 2.786,-0.515 1.203,-0.199 2.422,-0.4 3.644,-0.704 l 3.264,11.437 c 0.374,1.309 1.264,2.41 2.467,3.049 0.731,0.388 1.54,0.586 2.351,0.586 0.523,0 1.049,-0.082 1.556,-0.248 0.837,-0.273 1.672,-0.533 2.493,-0.789 l 0.165,-0.052 c 2.512,-0.78 5.11,-1.587 7.6,-2.665 1.226,-0.53 2.188,-1.527 2.675,-2.77 0.488,-1.243 0.458,-2.629 -0.082,-3.85 l -4.959,-11.235 5.928,-2.872 c 0.074,-0.036 0.147,-0.074 0.219,-0.113 1.642,-0.897 3.19,-1.954 4.829,-3.074 0.248,-0.169 0.492,-0.336 0.732,-0.499 l 6.961,10.093 c 0.972,1.409 2.538,2.166 4.129,2.166 0.973,0 1.956,-0.283 2.82,-0.872 3.054,-2.085 5.696,-4.456 8.491,-6.967 l 1.047,-0.937 c 1.011,-0.903 1.614,-2.178 1.669,-3.533 0.056,-1.356 -0.441,-2.675 -1.375,-3.658 l -8.219,-8.642 c 1.189,-1.179 2.236,-2.439 3.259,-3.672 0.385,-0.462 0.759,-0.913 1.139,-1.358 0.056,-0.066 0.112,-0.133 0.165,-0.203 0.515,-0.67 1.201,-1.442 1.866,-2.189 0.78,-0.877 1.557,-1.75 2.279,-2.683 l 9.775,6.821 c 0.847,0.591 1.85,0.901 2.867,0.901 0.334,0 0.668,-0.033 1.001,-0.101 1.344,-0.274 2.517,-1.088 3.246,-2.25 0.448,-0.717 0.899,-1.425 1.344,-2.122 l 0.111,-0.175 c 1.501,-2.349 2.91,-4.558 4.17,-6.959 0.629,-1.198 0.746,-2.6 0.326,-3.886 -0.421,-1.286 -1.346,-2.348 -2.561,-2.942 l -11.016,-5.389 c 0.155,-0.363 0.546,-1.275 0.546,-1.275 1.532,-3.566 3.107,-7.235 4.092,-11.171 l 11.631,2.945 c 0.405,0.103 0.818,0.154 1.23,0.154 0.901,0 1.795,-0.244 2.581,-0.716 1.144,-0.688 1.966,-1.805 2.284,-3.101 l 1.404,-5.726 c 0.06,-0.245 0.102,-0.493 0.125,-0.744 l 0.526,-5.833 c 0.248,-2.753 -1.78,-5.186 -4.532,-5.439 l -12.032,-1.105 c 0.388,-4.307 0.422,-8.717 0.101,-13.366 l 12.041,-1.263 c 1.348,-0.142 2.582,-0.824 3.419,-1.892 0.838,-1.067 1.206,-2.428 1.021,-3.772 m -41.273,120.038 c -21.384,14.311 -45.946,21.875 -71.03,21.875 -17.071,0 -33.655,-3.47 -49.376,-10.353 -39.014,-16.221 -67.248,-51.883 -75.525,-95.396 -8.248,-43.372 4.837,-86.727 35.068,-116.038 24.143,-24.281 55.801,-37.653 89.141,-37.653 h 10e-4 c 16.829,0 33.543,3.362 49.671,9.99 49.15,20.203 79.767,65.48 79.903,118.15 v 0.147 c 0.934,43.558 -20.694,84.41 -57.853,109.278"
       style="fill:#feff72;fill-opacity:1;fill-rule:nonzero;stroke:none"
       id="path6266"
       clip-path="url(#clipPath9257)" />
    <path
       d="m 714.489,965.7533 c 8.559,-8.443 13.318,-18.615 17.576,-27.796 3.613,-7.79 8.405,-17.207 14.76,-26.356 8.702,-11.647 19.16,-21.542 31.007,-29.19 13.132,-8.48 19.791,-21.553 19.791,-38.856 -0.004,-28.584 -22.998,-79.258 -55.883,-103.302 l -0.092,-0.074 c -56.394,-39.916 -111.658,-39.897 -164.265,0.059 -32.503,29.046 -56.052,72.474 -56.052,103.316 0,17.304 6.655,30.393 19.79,38.857 13.352,8.619 24.898,20.121 34.19,33.745 4.145,6.492 8.109,13.689 11.873,21.801 3.016,6.509 6.281,13.52 10.952,20.06 9.933,14.545 25.847,25.921 61.227,25.923 28.821,0 44.788,-7.534 55.126,-18.187 m 77.429,-61.215 c -17.778,12.883 -32.545,29.77 -43.536,48.757 -21.356,45.102 -34.322,66.487 -89.102,65.849 -55.089,0.563 -67.321,-20.982 -88.872,-66.14 -13.25,-23.702 -33.944,-43.261 -56.538,-57.578 -43.427,-38.926 5.593,-115.554 36.785,-148.758 42.842,-47.001 110.19,-71.246 168.642,-37.917 53.044,29.624 97.912,86.283 102.95,147.907 0.607,21.743 -11.988,37.738 -30.329,47.88"
       style="fill:#feff72;fill-opacity:1;fill-rule:nonzero;stroke:none"
       id="path6270"
       clip-path="url(#clipPath9212)" />
    <path
       d="m 556.7041,435.68 c -27.626,12.274 -42.09,33.562 -43.028,63.451 l -0.085,2.748 h 2.746 c 24.705,-0.006 44.801,20.09 44.795,44.796 v 175.061 c 0,0 -4.9,4.864 -7.639,7.413 V 552.827 c -0.013,-25.807 -19.501,-42.594 -49.745,-42.993 l 0.003,-16.944 c 0.78,-24.974 13.508,-46.349 35.768,-60.898 5.7,1.355 11.44,2.53 17.185,3.688"
       style="fill:#feff72;fill-opacity:1;fill-rule:nonzero;stroke:none"
       id="path6274"
       clip-path="url(#clipPath9272)" />
    <path
       d="m 757.9481,723.2914 -0.103,-176.617 c -0.004,-11.969 4.657,-23.216 13.118,-31.677 8.46,-8.461 19.708,-13.121 31.673,-13.121 h 2.746 l -0.085,-2.743 c -0.611,-19.541 -7,-35.414 -19.075,-47.49 -6.407,-6.407 -14.5,-11.687 -24.095,-15.939 5.783,-1.172 11.558,-2.368 17.295,-3.74 22.281,14.552 35.023,35.94 35.803,60.963 l 0.004,16.906 c -30.257,0.406 -49.742,17.189 -49.742,42.991 v 177.062 c -3.279,-3.401 -7.539,-6.595 -7.539,-6.595"
       style="fill:#feff72;fill-opacity:1;fill-rule:nonzero;stroke:none"
       id="path6278"
       clip-path="url(#clipPath9137)" />
    <path
       d="m 1037.6866,882.5272 c -6.395,-6.395 -12.363,-22.874 -14.383,-31.996 -1.287,-6.279 -0.537,-11.099 2.228,-14.336 2.962,-3.477 8.42,-5.166 16.689,-5.166 9.265,-10e-4 13.006,0.655 16.892,4.542 4.022,4.022 3.744,10.328 2.803,14.911 -2.58,11.705 -11.158,34.635 -19.302,34.634 -1.549,10e-4 -3.208,-0.87 -4.927,-2.589 m 25.552,-51.083 c -5.816,-5.816 -12.099,-6.252 -21.019,-6.253 -10.079,0 -16.992,2.359 -21.132,7.212 -3.992,4.68 -5.168,11.188 -3.495,19.345 0.051,0.236 5.72,24.544 15.943,34.769 2.947,2.948 5.999,4.439 9.078,4.436 16.118,10e-4 24.925,-38.866 25.013,-39.259 1.23,-6 1.47,-14.393 -4.388,-20.25"
       style="fill:#feff72;fill-opacity:1;fill-rule:nonzero;stroke:none"
       id="path6282"
       clip-path="url(#clipPath9152)" />
    <path
       d="m 253.3709,824.2709 c -0.137,0.006 -0.275,0.006 -0.412,0 -6.376,-0.266 -8.486,1.742 -9.612,3.521 -4.149,6.565 -1.228,21.768 4.103,31.847 l 0.386,0.693 c 1.48,2.66 3.463,6.222 5.505,8.495 2.16,-2.473 4.586,-6.84 5.54,-8.557 6.068,-11.447 9.024,-28.15 3.493,-33.681 -1.736,-1.736 -4.68,-2.494 -9.003,-2.318 m 9.891,38.429 c -2.119,3.813 -5.945,10.7 -9.915,12.391 -0.973,-0.413 -2.012,-1.156 -3.048,-2.192 -2.715,-2.714 -5.114,-7.028 -6.846,-10.139 l -0.431,-0.778 c -5.149,-9.733 -9.762,-27.609 -3.908,-36.869 2.639,-4.169 7.179,-6.134 14.053,-5.848 5.797,-0.236 9.969,1.002 12.75,3.782 8.278,8.278 3.397,28.236 -2.655,39.653 m 37.592,-99.597 c -4.156,6.577 -1.239,21.779 4.093,31.852 l 0.361,0.645 c 1.507,2.702 3.503,6.282 5.537,8.546 2.156,-2.469 4.579,-6.831 5.531,-8.546 6.07,-11.462 9.026,-28.169 3.498,-33.696 -1.736,-1.737 -4.677,-2.494 -8.991,-2.313 -0.139,0.006 -0.28,0.006 -0.42,0 -6.455,-0.271 -8.575,1.875 -9.609,3.512 m 9.82,-8.517 c 5.791,-0.243 9.96,0.991 12.743,3.775 8.275,8.275 3.395,28.239 -2.654,39.659 -2.116,3.81 -5.939,10.7 -9.913,12.388 -0.973,-0.413 -2.015,-1.159 -3.054,-2.198 -2.708,-2.708 -5.111,-7.025 -6.864,-10.171 l -0.413,-0.74 c -5.148,-9.726 -9.761,-27.596 -3.901,-36.869 2.629,-4.166 7.173,-6.134 14.056,-5.844 m -9.827,135.078 c -4.147,6.562 -1.23,21.759 4.098,31.835 l 0.375,0.674 c 1.501,2.691 3.5,6.276 5.532,8.537 2.107,-2.413 4.477,-6.676 5.532,-8.574 6.068,-11.443 9.026,-28.146 3.494,-33.678 -1.737,-1.736 -4.678,-2.493 -8.992,-2.313 -0.14,0.006 -0.28,0.006 -0.42,0 -6.381,-0.268 -8.492,1.739 -9.619,3.519 m 9.83,-8.524 c 5.791,-0.243 9.96,0.992 12.744,3.775 8.281,8.281 3.394,28.245 -2.658,39.656 -2.27,4.084 -5.973,10.741 -9.916,12.391 -0.973,-0.413 -2.012,-1.156 -3.048,-2.192 -2.698,-2.698 -5.095,-7.003 -6.858,-10.164 l -0.425,-0.765 c -5.145,-9.73 -9.755,-27.596 -3.901,-36.857 2.638,-4.169 7.179,-6.134 14.062,-5.844 m 63.215,-20.886 c 6.069,-11.449 9.017,-28.136 3.486,-33.667 -1.737,-1.737 -4.678,-2.494 -8.991,-2.313 -0.14,0.006 -0.28,0.005 -0.42,0 -6.454,-0.272 -8.581,1.877 -9.618,3.517 -4.148,6.563 -1.232,21.761 4.096,31.837 l 2.185,4.099 1.519,2.202 c 0.782,1.162 1.529,2.143 2.209,2.905 2.111,-2.418 4.479,-6.681 5.534,-8.58 m -8.551,12.68 c -1.052,-1.052 -2.167,-2.45 -3.316,-4.16 l -1.682,-2.437 -2.327,-4.367 c -5.145,-9.73 -9.754,-27.597 -3.901,-36.857 2.636,-4.166 7.179,-6.134 14.063,-5.845 5.79,-0.242 9.959,0.992 12.743,3.776 8.278,8.278 3.407,28.22 -2.639,39.625 -2.276,4.096 -5.982,10.775 -9.947,12.428 -0.96,-0.4 -1.949,-1.118 -2.994,-2.163"
       style="fill:#feff72;fill-opacity:1;fill-rule:nonzero;stroke:none"
       id="path6286"
       clip-path="url(#clipPath9167)" />
    <path
       d="m 961.4003,951.6157 c -6.195,-6.195 -13.686,-24.749 -15.388,-32.44 -1.287,-6.274 -0.539,-11.092 2.225,-14.327 2.66,-3.123 5.259,-5.17 16.693,-5.17 11.079,10e-4 12.816,0.468 16.891,4.543 4.026,4.026 3.746,10.335 2.804,14.918 -1.964,8.909 -12.216,34.634 -19.303,34.634 -1.17,0 -2.49,-0.726 -3.922,-2.158 m 24.549,-51.522 c -5.638,-5.637 -9.241,-6.251 -21.021,-6.251 -11.343,0 -16.478,1.753 -21.134,7.214 -3.992,4.679 -5.167,11.184 -3.492,19.336 0.054,0.229 6.836,25.052 16.879,35.096 2.738,2.738 5.477,4.125 8.14,4.123 14.543,-0.001 24.921,-38.872 25.015,-39.264 1.745,-8.482 0.187,-15.679 -4.387,-20.254"
       style="fill:#feff72;fill-opacity:1;fill-rule:nonzero;stroke:none"
       id="path6290"
       clip-path="url(#clipPath9287)" />
    <path
       d="m 428.8768,949.0716 c -2.258,3.576 -5.74,8.819 -10.179,14.627 -18.057,3.838 -36.83,1.172 -55.977,-7.993 -13.419,-6.424 -25.641,-16.092 -36.614,-27.444 0.102,-0.183 0.206,-0.371 0.305,-0.548 1.313,-2.477 2.595,-5.342 3.732,-8.429 7.02,6.774 14.705,12.869 23.096,17.864 23.027,13.707 48.438,17.683 75.637,11.923"
       style="fill:#feff72;fill-opacity:1;fill-rule:nonzero;stroke:none"
       id="path6294"
       clip-path="url(#clipPath8942)" />
    <path
       d="m 898.6799,963.3423 c -3.477,-5.208 -6.702,-10.45 -9.043,-14.353 19.444,4.179 37.974,3.388 55.377,-2.38 2.095,4.027 4.494,7.858 7.157,10.91 -18.297,7.915 -36.227,9.852 -53.491,5.823"
       style="fill:#feff72;fill-opacity:1;fill-rule:nonzero;stroke:none"
       id="path6298"
       clip-path="url(#clipPath9032)" />
    <path
       d="m 992.2271,931.2496 c 1.954,-5.623 2.996,-9.73 3.064,-9.872 0.802,-3.633 1.04,-6.875 0.9,-9.793 9.726,-10.751 17.991,-22.68 24.893,-34.45 1.898,3.873 4.114,7.586 6.651,10.593 -10.625,17.173 -22.467,31.689 -35.508,43.522"
       style="fill:#feff72;fill-opacity:1;fill-rule:nonzero;stroke:none"
       id="path6302"
       clip-path="url(#clipPath9302)" />
    <path
       d="m 1057.9431,822.6056 c -2.95,-1 -6.7,-1.797 -11.417,-2.14 7.214,-21.639 11.955,-42.971 15.928,-63.304 4.164,-2 9.279,-4.713 15.126,-8.325 -5.376,27.024 -11.928,51.622 -19.637,73.769"
       style="fill:#feff72;fill-opacity:1;fill-rule:nonzero;stroke:none"
       id="path6306"
       clip-path="url(#clipPath8957)" />
    <path
       d="m 307.7361,475.0788 c -56.543,87.03 -72.121,204.519 -42.735,322.52 -3.026,3.46 -5.575,7.189 -7.661,11.102 -32.362,-123.293 -22.377,-230.665 29.67,-319.522 3.128,-5.288 6.379,-10.54 9.804,-15.739 l 0.248,-0.375 -0.097,-0.438 c -5.223,-23.817 -7.857,-44.351 -8.54,-62.121 -0.004,-0.1 -0.007,-0.199 -0.011,-0.299 -0.045,-1.212 -0.08,-2.409 -0.107,-3.595 -0.005,-0.203 -0.009,-0.405 -0.013,-0.608 -0.023,-1.099 -0.037,-2.187 -0.044,-3.265 -0.002,-0.238 -0.003,-0.477 -0.004,-0.714 -0.004,-1.069 0,-2.127 0.01,-3.174 0.002,-0.207 0.004,-0.415 0.007,-0.622 0.014,-1.103 0.036,-2.195 0.067,-3.275 0.003,-0.126 0.006,-0.252 0.01,-0.378 0.554,-18.552 3.44,-33.642 7.685,-46.058 5.172,-3.159 10.286,-6.141 15.319,-8.892 -14.878,33.214 -16.059,77.572 -3.608,135.453"
       style="fill:#feff72;fill-opacity:1;fill-rule:nonzero;stroke:none"
       id="path6310"
       clip-path="url(#clipPath8972)" />
  </g>
</svg>
