<?xml version="1.0" encoding="UTF-8" standalone="no"?>
<!-- Created with Inkscape (http://www.inkscape.org/) -->

<svg
   width="139.00299mm"
   height="109.01299mm"
   viewBox="0 0 139.00299 109.01299"
   version="1.1"
   id="svg10315"
   sodipodi:docname="ship-silk.svg"
   inkscape:version="1.3 (0e150ed6c4, 2023-07-21)"
   xmlns:inkscape="http://www.inkscape.org/namespaces/inkscape"
   xmlns:sodipodi="http://sodipodi.sourceforge.net/DTD/sodipodi-0.dtd"
   xmlns="http://www.w3.org/2000/svg"
   xmlns:svg="http://www.w3.org/2000/svg">
  <sodipodi:namedview
     id="namedview10317"
     pagecolor="#ffffff"
     bordercolor="#000000"
     borderopacity="0.25"
     inkscape:showpageshadow="2"
     inkscape:pageopacity="0.0"
     inkscape:pagecheckerboard="0"
     inkscape:deskcolor="#d1d1d1"
     inkscape:document-units="mm"
     showgrid="false"
     inkscape:zoom="0.58971546"
     inkscape:cx="226.38036"
     inkscape:cy="489.21899"
     inkscape:window-width="1853"
     inkscape:window-height="1057"
     inkscape:window-x="59"
     inkscape:window-y="-8"
     inkscape:window-maximized="1"
     inkscape:current-layer="g10444" />
  <defs
     id="defs10312">
    <clipPath
       clipPathUnits="userSpaceOnUse"
       id="clipPath4257-8-0-5">
      <g
         id="g4263-8-6-4"
         style="stroke-width:1">
        <g
           id="g4261-2-4-2"
           style="stroke-width:1">
          <path
             d="M 0,1296 H 1315.156 V 0 H 0 Z"
             id="path4259-7-0-6"
             style="stroke-width:1" />
        </g>
      </g>
    </clipPath>
    <clipPath
       clipPathUnits="userSpaceOnUse"
       id="clipPath4257-8-0-5-3">
      <g
         id="g4263-8-6-4-6"
         style="stroke-width:1">
        <g
           id="g4261-2-4-2-2"
           style="stroke-width:1">
          <path
             d="M 0,1296 H 1315.156 V 0 H 0 Z"
             id="path4259-7-0-6-8"
             style="stroke-width:1" />
        </g>
      </g>
    </clipPath>
    <clipPath
       clipPathUnits="userSpaceOnUse"
       id="clipPath30">
      <path
         d="M 0,1296 H 1315.156 V 0 H 0 Z"
         transform="translate(-1113.4102,-608.54912)"
         id="path30" />
    </clipPath>
    <clipPath
       clipPathUnits="userSpaceOnUse"
       id="clipPath28">
      <path
         d="M 0,1296 H 1315.156 V 0 H 0 Z"
         transform="translate(-1001.1067,-755.47222)"
         id="path28" />
    </clipPath>
  </defs>
  <g
     inkscape:label="[fixed] BG"
     inkscape:groupmode="layer"
     sodipodi:insensitive="true"
     id="g10444"
     transform="translate(10.38005,-14.499459)"
     style="display:none">
    <path
       id="path529-78-7"
       style="display:inline;fill:#000081;fill-opacity:0.380392;stroke-width:0.0448567;stroke-linecap:round;stroke-linejoin:round"
       d="m 25.72534,23.94458 c -0.738274,3e-6 -1.663057,0.165415 -2.734717,0.533818 -1.160962,0.399102 -2.494305,1.036485 -3.94963,1.960087 -4.365972,2.770803 -9.8298208,8.11716 -15.0290572,17.331758 l -1.174605,-0.0047 c -0.600558,-2.76232 -2.69614902,-2.455884 -4.270541,-0.818554 l 1.88050593,2.688208 -3.60133093,2.520776 -1.106909,-1.581299 -0.0057,0.0052 c -1.763579,0.605018 -3.068186,1.458258 -4.006478,2.478935 -4.0659438,4.422948 -1.238373,11.985517 1.075903,16.071371 1.71e-4,7.525699 14.974331,24.217204 26.3317272,31.632694 l 6.60063,-1.772501 c -1.95e-4,-4.079081 3.307033,-7.386116 7.386113,-7.386113 h 5.34696 c 0.990252,10e-7 1.386994,-0.42927 1.386996,-1.470711 -2e-6,-4.169502 -0.605975,-5.931175 -1.824695,-9.147245 l 4.137215,-1.506885 v -7.84965 c 2.69e-4,-1.656624 1.34371,-3.000065 3.000334,-3.000334 l 27.906307,5.17e-4 c 1.656627,2.66e-4 2.999547,1.343707 2.999816,3.000334 l -5.16e-4,7.849133 4.138248,1.506368 c -1.218718,3.216067 -1.825212,4.977743 -1.825211,9.147245 4e-6,1.041442 0.396738,1.470716 1.386995,1.470711 h 5.346961 c 4.079081,3e-6 7.386311,3.307034 7.386111,7.386113 l 6.601146,1.772502 C 110.46531,89.346855 125.43995,72.65537 125.44015,65.129663 c 2.84834,-5.02874 6.4742,-15.323416 -2.9316,-18.550289 l -0.005,-0.0047 -1.10587,1.581299 -3.60237,-2.521293 1.88206,-2.687691 c -1.5744,-1.637331 -3.67104,-1.943275 -4.27158,0.819071 l -1.1746,0.0041 C 107.29827,31.483979 99.895831,26.074213 95.252002,24.477798 c -1.07165,-0.368404 -1.99594,-0.533298 -2.7342,-0.533301 -3.93744,-7e-6 -7.063495,4.394838 -8.686815,7.014559 l -15.742192,-5.17e-4 0.381372,1.794206 -4.202844,0.893485 -0.368453,-1.73271 -9.554972,5.16e-4 -0.368453,1.731678 -4.203361,-0.892969 0.381889,-1.794206 H 34.411114 C 32.787796,28.33891 29.662793,23.944587 25.72534,23.94458 Z m 67.672352,6.973218 c 0.49689,0.0076 0.98131,0.137438 1.41542,0.379305 a 3.000305,3.000305 0 0 1 0.0806,0.04909 c 0.42311,0.253455 0.79571,0.602509 1.05988,1.059884 l 11.774468,20.394104 a 3.000305,3.000305 0 0 1 0.004,0.0088 l 0.10645,0.185002 c 1.99056,1.297721 3.6476,3.046189 4.83743,5.103047 3.83134,6.636031 2.06335,14.963981 -3.83284,19.526457 l 0.91623,1.586983 -3.7021,2.137854 -0.92708,-1.605586 c -6.865248,2.723048 -14.869528,0.07785 -18.672233,-6.508647 -1.169329,-2.046004 -1.84518,-4.33692 -1.973006,-6.690031 l -4.527889,-7.842415 0.001,-5.17e-4 -7.387146,-12.795085 C 72.306858,45.44858 72.190725,44.951225 72.182786,44.45807 a 3.000305,3.000305 0 0 1 -0.0021,-0.09405 c 0.0076,-0.496887 0.137441,-0.9813 0.379305,-1.415417 a 3.000305,3.000305 0 0 1 0.04909,-0.0801 c 0.253451,-0.423117 0.602507,-0.796234 1.059883,-1.060401 L 91.855672,31.307955 c 0.45747,-0.26402 0.95481,-0.379633 1.44797,-0.387573 a 3.000305,3.000305 0 0 1 0.094,-0.0026 z m -68.762208,0.972033 c 0.04356,6e-6 0.08038,0.0194 0.122473,0.0248 0.681082,0.06454 1.319512,0.359411 1.809709,0.836642 l 9.540502,9.541019 c 1.171223,1.171608 1.171228,3.070515 0,4.242119 l -9.542053,9.542053 c -1.171607,1.171227 -3.070511,1.171225 -4.242118,0 l -6.7908,-6.7908 -2.749703,-2.749703 -1.298629,-1.298629 c -0.242339,-0.278912 -0.511567,-0.352852 -0.86403,-0.357084 -1.5960858,1.44e-4 -2.8896062,-1.294171 -2.8897462,-2.890263 -7.4e-5,-0.798142 0.323419,-1.520243 0.84646,-2.043286 0.130761,-0.130761 0.27412,-0.249053 0.4278814,-0.35295 0.4612831,-0.311687 1.0173128,-0.493562 1.6159218,-0.49351 0.798044,7.1e-5 1.520347,0.323429 2.043286,0.84646 l 0.51263,0.51263 c 0.447221,0.447219 0.993551,0.447189 1.440739,0 l 7.70754,-7.70754 c 0.605625,-0.596023 1.43538,-0.907054 2.283582,-0.856278 0.0092,-2.74e-4 0.01713,-0.0057 0.02635,-0.0057 z m 82.985626,7.210413 c 1.5963,-1.49e-4 2.88989,1.293962 2.88974,2.890263 -1.2e-4,1.596069 -1.29416,2.889889 -2.89026,2.889746 -1.59585,-1.59e-4 -2.8891,-1.294366 -2.88923,-2.890263 -8e-5,-0.798043 0.32352,-1.520764 0.84646,-2.043803 0.13074,-0.130756 0.27363,-0.249101 0.42736,-0.35295 0.46118,-0.31155 1.0174,-0.492937 1.61593,-0.492993 z M 59.121234,56.744645 a 1.25,1.25 0 0 1 1.250053,1.250053 1.25,1.25 0 0 1 -1.250053,1.250053 1.25,1.25 0 0 1 -1.250053,-1.250053 1.25,1.25 0 0 1 1.250053,-1.250053 z m 43.514126,26.085746 a 1.25,1.25 0 0 1 1.24954,1.250053 1.25,1.25 0 0 1 -1.24954,1.250053 1.25,1.25 0 0 1 -1.25005,-1.250053 1.25,1.25 0 0 1 1.25005,-1.250053 z m -87.028266,0.0098 a 1.25,1.25 0 0 1 1.250053,1.250053 1.25,1.25 0 0 1 -1.250053,1.250053 1.25,1.25 0 0 1 -1.250053,-1.250053 1.25,1.25 0 0 1 1.250053,-1.250053 z" />
    <circle
       cx="110.00144"
       cy="51.276646"
       r="15"
       id="circle3"
       style="fill:#ff26e2;fill-opacity:0;stroke:#ff26e2;stroke-width:0.05;stroke-linecap:round;stroke-linejoin:round;stroke-opacity:1"
       transform="translate(-10.38005,14.499459)" />
    <path
       id="path529-78"
       style="display:inline;fill:#000081;fill-opacity:0.380392;stroke-width:0.0448567;stroke-linecap:round;stroke-linejoin:round"
       d="m -109.78777,52.700017 c -3.9604,0 -9.33812,0.31307 -10.44846,1.52291 -4.55235,4.96034 -7.32576,11.053512 -14.26166,14.302484 -1.62336,-2.619752 -4.74877,-7.014042 -8.68629,-7.014042 -3.93752,0 -13.18064,4.703985 -21.71289,19.825668 l -1.1746,-0.0041 c -0.82248,-3.78324 -4.45975,-1.84109 -5.70353,1.44539 l -1.39991,1.36788 c -9.40599,3.22709 -5.77949,13.52145 -2.93109,18.550293 0,9.88978 25.88013,35.65671 35.39577,35.32187 2.59212,2.91714 6.12831,3.90168 8.52196,2.34973 4.00914,4.02884 5.08341,4.86321 11.18071,7.70289 3.76607,5.78745 7.42748,12.3418 11.21999,12.3424 3.79252,-6e-4 7.45392,-6.55495 11.219993,-12.3424 6.0973,-2.83968 7.17158,-3.67405 11.18071,-7.70289 2.39365,1.55195 5.92984,0.56741 8.52196,-2.34973 9.51564,0.33484 35.395769,-25.43209 35.395769,-35.32187 2.8484,-5.028843 6.47491,-15.323203 -2.93108,-18.550293 l -1.39992,-1.36788 c -1.24378,-3.28648 -4.88105,-5.22863 -5.70353,-1.44539 l -1.1746,0.0041 c -8.532239,-15.121685 -17.775369,-19.825668 -21.712889,-19.825668 -3.93751,0 -7.06293,4.39429 -8.68629,7.014042 -6.93589,-3.248972 -9.70931,-9.342144 -14.26166,-14.302484 -1.110343,-1.20984 -6.488053,-1.52291 -10.448463,-1.52291 z" />
    <path
       id="path472-7-6-6-9-9"
       clip-path="url(#clipPath4257-8-0-5-3)"
       style="fill:#ff0000;fill-opacity:0.509434;fill-rule:nonzero;stroke:none;stroke-width:3.26398"
       d="m 658.69871,1101.6601 c -26.6856,-0.01 -89.85828,-1.4196 -107.54444,-14.1914 -2.055,-1.483 -4.1768,-3.3287 -6.48779,-5.6397 -7.13397,-7.133 -16.36126,-19.1342 -27.09522,-33.0952 -14.71094,-19.133 -33.01723,-42.9435 -51.34717,-61.27147 -8.59496,-8.59297 -16.47514,-15.25838 -23.47412,-19.86035 -20.88292,34.38482 -51.61102,55.59812 -80.85791,55.59812 -38.49184,0 -95.261,-11.935 -186.89063,-137.53855 -7.31298,-10.35596 -12.68855,-18.88771 -17.79053,-28.28467 -3.12598,2.698 -6.25943,4.34538 -8.60742,5.31738 C 131.63954,869.72222 110.39387,862.239 90.312952,842.16008 82.414983,834.26311 76.957595,825.60346 70.972619,814.3925 64.313647,813.4155 51.427477,807.68379 44.331505,800.52483 26.278577,782.31289 15.55826,750.44604 15.654258,715.28117 15.752258,680.07332 26.696605,647.50423 45.705529,625.75431 62.970458,555.76359 114.92375,475.3333 188.37545,404.93058 253.4112,342.59582 323.34908,300.68968 371.3989,295.17569 c 19.38492,-22.35889 46.07797,-31.08281 77.38183,-25.29785 26.2939,-26.08188 66.98428,-51.06906 91.13819,-60.14502 7.82597,-19.38592 23.24253,-48.10401 43.83545,-72.33692 24.51007,-28.84256 50.40955,-44.145005 74.94434,-44.351072 24.53478,0.206067 50.43427,15.508512 74.94434,44.351072 20.59292,24.23291 36.00947,52.951 43.83545,72.33692 24.1539,9.07596 64.84429,34.06314 91.13818,60.14502 31.30387,-5.78496 57.99692,2.93896 77.38184,25.29785 48.04981,5.51399 117.98768,47.42013 183.02348,109.75489 73.4517,70.40272 125.405,150.83301 142.6699,220.82373 19.0089,21.74992 29.9533,54.31901 30.0513,89.52686 0.096,35.16487 -10.6244,67.03172 -28.6773,85.24366 -7.096,7.15896 -19.9821,12.89067 -26.6411,13.86767 -5.985,11.21096 -11.4424,19.87061 -19.3403,27.76758 -20.081,20.07892 -41.3266,27.56214 -58.2906,20.53418 -2.348,-0.972 -5.4814,-2.61938 -8.6074,-5.31738 -5.102,9.39696 -10.4775,17.92871 -17.7905,28.28467 -91.6296,125.60355 -148.3988,137.53855 -186.89064,137.53855 -29.24689,0 -59.975,-21.2133 -80.85792,-55.59812 -6.99897,4.60197 -14.87916,11.26738 -23.47412,19.86035 -18.32993,18.32797 -36.63622,42.13847 -51.34717,61.27147 -10.73396,13.961 -19.96124,25.9622 -27.09521,33.0952 -2.31099,2.311 -4.4328,4.1567 -6.4878,5.6397 -17.68616,12.7718 -80.85884,14.1814 -107.54443,14.1914 z m 0,-21.4439 c 42.72927,-0.03 85.32322,-3.4773 94.86035,-10.3652 1.15799,-0.836 2.47128,-2.003 3.92725,-3.46 15.16592,-15.1648 45.85316,-61.7578 78.29297,-94.19674 15.17889,-16.56588 33.10068,-26.33022 32.82568,-26.17822 29.36882,-40.17676 11.92988,-130.29507 1.71094,-171.19483 13.47191,40.61376 34.99025,117.91303 16.31836,166.71973 26.71783,6.438 51.57687,2.95885 73.96875,-10.37109 8.91894,-5.309 17.77644,-11.34649 24.34131,-19.37402 28.47838,-34.82348 50.78028,-76.46249 61.41508,-120.17286 25.4977,-104.79934 11.7402,-229.55977 -43.9761,-314.14014 l -0.6167,-0.9375 0.2402,-1.09717 c 16.0659,-73.26658 8.5956,-114.6721 -7.28025,-141.71192 -16.56892,-8.12394 -31.91744,-13.44231 -45.56836,-15.84228 19.03591,38.63479 20.75772,88.85782 13.25976,127.89258 4.25095,-39.7634 -2.4267,-93.86614 -27.83496,-129.50391 0.009,2.2e-4 0.0188,0 0.0278,0 -0.009,-10e-4 -0.0188,-0.002 -0.0278,-0.003 -0.0268,-0.002 -0.0546,-0.006 -0.0806,-0.006 -17.98589,-25.96587 -43.19759,-31.33302 -73.44141,-22.35205 -27.64383,-31.97682 -78.36238,-59.85487 -95.57227,-65.04786 1.94697,16.63393 2.9845,33.39976 3.9375,49.93067 -3.89799,-23.55787 -8.87528,-47.03094 -15.99023,-69.75879 -17.72795,-38.04055 -56.90056,-93.18326 -94.73731,-93.87452 -37.83675,0.69126 -77.00937,55.83397 -94.73731,93.87452 -7.11495,22.72785 -12.09225,46.20092 -15.99023,69.75879 0.953,-16.53091 1.99053,-33.29674 3.9375,-49.93067 -17.2099,5.19299 -67.92844,33.07104 -95.57227,65.04786 -30.24382,-8.98097 -55.45553,-3.61382 -73.44141,22.35205 -0.026,0 -0.0538,0.004 -0.0806,0.006 -0.009,10e-4 -0.0188,0.002 -0.0278,0.003 0.009,0 0.0186,2.2e-4 0.0278,0 -25.40825,35.63777 -32.0859,89.74051 -27.83496,129.50391 -7.49795,-39.03476 -5.77614,-89.25779 13.25977,-127.89258 -13.65093,2.39997 -28.99944,7.71834 -45.56836,15.84228 -15.8759,27.03982 -23.34617,68.44534 -7.28028,141.71192 l 0.24024,1.09717 -0.6167,0.9375 c -55.71636,84.58037 -69.47384,209.3408 -43.97608,314.14014 10.63477,43.71037 32.93662,85.34938 61.41504,120.17286 6.56488,8.02753 15.42237,14.06502 24.34131,19.37402 22.39188,13.32994 47.25092,16.80909 73.96876,10.37109 -18.6719,-48.8067 2.84645,-126.10597 16.31836,-166.71973 -10.21894,40.89976 -27.65789,131.01807 1.71093,171.19483 -0.275,-0.152 17.64679,9.61234 32.82569,26.17822 32.4398,32.43894 63.12704,79.03194 78.29297,94.19674 1.45597,1.457 2.76926,2.624 3.92724,3.46 9.53713,6.8879 52.13109,10.3348 94.86036,10.3652 z m 0,-43.6626 c -60.97397,-0.6108 -77.94513,-23.6118 -100.30811,-75.8027 -12.56493,-23.93086 -31.50827,-42.26623 -53.72315,-57.47314 -47.8457,-44.98373 2.86418,-126.27197 38.39795,-163.71973 1.973,-2.148 4.0207,-4.22356 6.09668,-6.26953 V 552.82707 c -0.005,-23.49388 -18.2718,-38.67488 -46.53662,-38.67188 l -3.20801,0.001 0.007,-21.36768 c 0.77797,-24.92485 13.03044,-46.94367 34.50732,-62.22657 -20.57988,-5.13398 -40.8488,-11.47322 -60.57568,-19.20117 0.345,-0.771 8.81436,-23.24152 9.19336,-24.45849 4.70595,-12.84394 11.29254,-30.83015 15.83349,-43.56006 0.91,-2.276 3.98612,-11.57879 4.99512,-13.69776 4.39396,-10.07994 12.89796,-17.92434 22.02393,-23.59131 20.32785,-12.43691 44.55223,-17.12284 68.12109,-17.11084 10e-4,0 0.42967,0.749 0.43067,0.75 6.96898,10.51894 16.99927,19.39911 28.22021,25.22608 11.25707,5.91442 23.89772,8.58201 36.52442,8.33056 12.6267,0.25145 25.26734,-2.41614 36.52441,-8.33056 11.22094,-5.82697 21.25124,-14.70714 28.22022,-25.22608 0.001,-0.001 0.42966,-0.75 0.43066,-0.75 23.56887,-0.012 47.79325,4.67393 68.1211,17.11084 9.12597,5.66697 17.62997,13.51137 22.02392,23.59131 1.009,2.11897 4.08512,11.42176 4.99512,13.69776 4.54096,12.72991 11.12754,30.71612 15.8335,43.56006 0.379,1.21697 8.84836,23.68749 9.19336,24.45849 -19.72688,7.72795 -39.99581,14.06719 -60.57569,19.20117 21.47688,15.2829 33.72936,37.30172 34.50733,62.22657 l 0.007,21.36768 -3.20801,-0.001 c -28.26482,-0.003 -46.53162,15.178 -46.53662,38.67188 V 733.2885 c 2.07599,2.04597 4.12368,4.12153 6.09668,6.26953 35.53378,37.44776 86.24365,118.736 38.39795,163.71973 -22.21488,15.20691 -41.15822,33.54228 -53.72314,57.47314 -22.36298,52.1909 -39.33414,75.1919 -100.30811,75.8027 z m 0,-17.4345 c 54.54626,0.3905 66.82301,-21.13266 88.29053,-66.11575 13.24992,-23.70188 33.9447,-43.26024 56.53857,-57.57715 43.42675,-38.92576 -5.59335,-115.554 -36.78515,-148.75782 -28.4612,-31.22414 -67.74517,-52.28065 -108.04395,-53.21045 -40.29878,0.9298 -79.58276,21.98631 -108.04395,53.21045 -31.19181,33.20382 -80.2119,109.83206 -36.78516,148.75782 22.59388,14.31691 43.28865,33.87527 56.53858,57.57715 21.46752,44.98309 33.74426,66.50625 88.29053,66.11575 z m -296.02296,-17.3892 c 20.30488,0.115 39.19508,-17.3507 52.08399,-33.05858 -17.4689,2.64697 -35.51091,-0.42521 -53.8418,-9.20215 -13.53793,-6.48097 -26.71034,-16.05738 -36.95801,-27.49073 -30.73503,-34.29112 -55.7615,-75.3412 -69.87158,-119.17529 -18.79201,-58.37883 -23.13381,-126.70256 -17.00684,-183.19923 6.25195,-57.66264 24.91614,-110.60432 55.48096,-157.37402 -10.58394,-48.9077 -11.2743,-89.35376 -2.06836,-120.28858 -15.63193,9.88694 -31.73934,21.50291 -47.86524,34.59082 C 156.5464,455.27575 143.70793,591.29145 144.06393,619.4423 132.658,562.36663 154.75961,485.01394 183.52243,439.67521 125.85577,498.74785 75.619214,575.20474 66.216271,636.14738 c -0.119998,0.12 -0.217914,0.26527 -0.336914,0.38525 -25.584844,21.22808 -38.94026,83.18994 -16.504395,132.61964 11.212931,21.93788 26.243611,23.32007 30.225587,23.72607 -17.049898,-48.63673 -4.085413,-105.04537 12.896485,-128.17822 -15.22891,42.88173 -21.428124,123.38429 19.035646,162.87305 15.76289,15.38291 37.53843,15.112 46.15137,-3.90088 -6.89496,-23.58685 -12.34954,-58.17573 -10.81055,-76.97461 4.99495,25.44685 8.53513,62.67579 40.71094,116.62646 10.36494,17.38091 45.3391,70.36382 106.99072,115.81055 12.56694,7.98297 39.45376,22.43321 68.10059,22.59521 z m 592.04591,0 c 28.64684,-0.162 55.53364,-14.61224 68.10064,-22.59521 61.6516,-45.44673 96.6257,-98.42964 106.9907,-115.81055 32.1758,-53.95067 35.716,-91.17961 40.7109,-116.62646 1.539,18.79888 -3.9156,53.38776 -10.8105,76.97461 8.6129,19.01288 30.3884,19.28379 46.1513,3.90088 40.4638,-39.48876 34.2646,-119.99132 19.0357,-162.87305 16.9819,23.13285 29.9464,79.54149 12.8965,128.17822 3.9819,-0.406 19.0126,-1.78819 30.2256,-23.72607 22.4358,-49.4297 9.0804,-111.39156 -16.5044,-132.61964 -0.119,-0.11998 -0.217,-0.26525 -0.337,-0.38525 -9.4029,-60.94264 -59.6395,-137.39953 -117.3061,-196.47217 28.7628,45.33873 50.8644,122.69142 39.4585,179.76709 0.356,-28.15085 -12.4825,-164.16655 -98.565,-232.91016 -16.1259,-13.08791 -32.2333,-24.70388 -47.8652,-34.59082 9.2059,30.93482 8.5156,71.38088 -2.0684,120.28858 30.5649,46.7697 49.2291,99.71138 55.481,157.37402 6.127,56.49667 1.7852,124.8204 -17.0068,183.19923 -14.1101,43.83409 -39.1366,84.88417 -69.87161,119.17529 -10.24767,11.43335 -23.42009,21.00976 -36.95801,27.49073 -18.33089,8.77694 -36.37291,11.84912 -53.8418,9.20215 12.88891,15.70788 31.7791,33.17358 52.08398,33.05858 z M 658.69871,983.91155 c -34.88431,-0.15301 -50.69758,-11.44805 -60.56397,-25.89551 -4.67098,-6.53997 -7.9352,-13.5506 -10.95117,-20.05957 -3.76399,-8.11194 -7.7276,-15.3093 -11.87256,-21.80127 -9.29195,-13.62391 -20.83899,-25.1252 -34.19092,-33.74414 -13.13494,-8.46394 -19.79004,-21.55403 -19.79004,-38.85791 0,-30.84182 23.54944,-74.26961 56.05225,-103.31543 26.49578,-20.12406 53.66762,-30.09058 81.31641,-29.95313 27.64879,-0.13745 54.82062,9.82907 81.31641,29.95313 32.5028,29.04582 56.05224,72.47361 56.05224,103.31543 0,17.30388 -6.6551,30.39397 -19.79004,38.85791 -13.35192,8.61894 -24.89896,20.12023 -34.19091,33.74414 -4.14496,6.49197 -8.10858,13.68933 -11.87256,21.80127 -3.01597,6.50897 -6.28019,13.5196 -10.95118,20.05957 -9.86639,14.44746 -25.67966,25.7425 -60.56396,25.89551 z m -3.47608,-11.93408 -0.0557,-20.32032 c -8.21294,-0.71097 -15.85228,-4.25265 -21.76025,-10.16162 -6.61896,-6.61897 -10.27972,-15.40434 -10.30372,-24.73828 -0.049,-18.26491 14.00112,-33.24094 31.875,-34.71094 l -0.43652,-161.23389 c -23.89086,0.811 -47.34948,9.87199 -70.21436,27.21387 -29.81482,26.62185 -51.40366,66.47067 -51.32666,94.75049 0.045,17.89091 6.5086,25.76194 16.22754,32.02588 10.21594,6.61497 22.20627,16.87053 30.57422,29.37744 4.80696,6.70797 9.08603,13.92838 12.68701,21.65332 l 1.24219,2.66895 c 3.86496,8.36894 7.67131,16.55511 13.34326,23.58105 8.18896,9.72194 17.63162,16.72825 38.7085,19.19825 2.97296,0.328 6.10947,0.5648 9.43945,0.6958 z m 6.95215,0 c 3.32999,-0.131 6.4665,-0.3678 9.43946,-0.6958 21.07687,-2.47 30.51954,-9.47631 38.70849,-19.19825 5.67196,-7.02594 9.47831,-15.21211 13.34326,-23.58105 l 1.24219,-2.66895 c 3.60099,-7.72494 7.88006,-14.94535 12.68701,-21.65332 8.36796,-12.50691 20.35828,-22.76247 30.57422,-29.37744 9.71894,-6.26394 16.18254,-14.13497 16.22754,-32.02588 0.077,-28.27982 -21.51184,-68.12864 -51.32666,-94.75049 -22.86488,-17.34188 -46.32349,-26.40287 -70.21436,-27.21387 l -0.43652,161.23389 c 17.87388,1.47 31.924,16.44603 31.875,34.71094 -0.024,9.33394 -3.68476,18.11931 -10.30371,24.73828 -5.90797,5.90897 -13.54731,9.45065 -21.76025,10.16162 z m -260.60596,-6.58594 c 5.77217,0.0708 11.48565,-0.49398 17.12842,-1.69336 4.43898,-5.80794 7.92123,-11.05049 10.1792,-14.62646 -27.19884,5.75994 -52.61035,1.78308 -75.63721,-11.92383 -8.39094,-4.99497 -16.81139,-10.43219 -23.09619,-17.86377 C 300.43374,884.15377 276.3072,842.19547 264.99997,797.59807 234.99008,679.2345 251.19264,562.10704 307.73532,475.07755 295.28438,417.19688 296.46531,372.8387 311.34323,339.62491 c -5.03298,2.75097 -10.14735,5.73263 -15.31934,8.8916 -4.24495,12.41594 -7.13057,27.50721 -7.68457,46.05909 -0.004,0.126 -0.007,0.25193 -0.0102,0.37793 -0.031,1.08 -0.0519,2.17239 -0.0659,3.27539 -0.003,0.207 -0.004,0.41409 -0.006,0.62109 -0.01,1.04697 -0.0144,2.10532 -0.0102,3.17432 10e-4,0.237 8.6e-4,0.47538 0.003,0.71338 0.007,1.078 0.0209,2.16616 0.0439,3.26513 0.004,0.203 0.008,0.40491 0.0132,0.60791 0.027,1.186 0.0619,2.3842 0.10693,3.5962 0.004,0.1 0.006,0.19882 0.0102,0.29882 0.683,17.76991 3.31709,38.30425 8.54004,62.1211 l 0.0967,0.43799 -0.24755,0.375 c -3.42497,5.19897 -6.67622,10.45031 -9.8042,15.73828 -52.0467,88.85646 -62.6063,191.20864 -29.66895,319.52198 10.63166,41.41754 51.54419,101.31616 68.76563,119.56055 10.46965,11.09156 23.19487,21.01988 36.61377,27.44385 13.16348,6.3009 26.15031,9.53129 38.84912,9.68701 z m 514.25978,0 c 12.6988,-0.15572 25.68563,-3.38611 38.84912,-9.68701 13.4189,-6.42397 26.14412,-16.35229 36.61377,-27.44385 17.22141,-18.24439 58.13401,-78.14301 68.76561,-119.56055 32.9374,-128.31334 22.3778,-230.66552 -29.6689,-319.52198 -3.128,-5.28797 -6.3793,-10.53931 -9.8042,-15.73828 l -0.2476,-0.375 0.097,-0.43799 c 5.2229,-23.81685 7.857,-44.35119 8.54,-62.1211 0,-0.1 0.01,-0.19882 0.01,-0.29882 0.045,-1.212 0.08,-2.4102 0.1069,-3.5962 0.01,-0.203 0.01,-0.40491 0.013,-0.60791 0.023,-1.09897 0.037,-2.18713 0.044,-3.26513 0,-0.238 0,-0.47638 0,-0.71338 0,-1.069 -3e-4,-2.12735 -0.01,-3.17432 0,-0.207 0,-0.41409 -0.01,-0.62109 -0.014,-1.103 -0.035,-2.19539 -0.066,-3.27539 0,-0.126 -0.01,-0.25193 -0.01,-0.37793 -0.554,-18.55188 -3.4396,-33.64315 -7.6846,-46.05909 -5.172,-3.15897 -10.2863,-6.14063 -15.3193,-8.8916 14.8779,33.21379 16.0588,77.57197 3.6079,135.45264 56.5427,87.02949 72.7452,204.15695 42.7353,322.52052 -11.3072,44.5974 -35.4337,86.5557 -65.14302,121.68604 -6.2848,7.43158 -14.70525,12.8688 -23.09619,17.86377 -23.02687,13.70691 -48.43838,17.68377 -75.63721,11.92383 2.25797,3.57597 5.74021,8.81852 10.1792,14.62646 5.64276,1.19938 11.35624,1.76416 17.12842,1.69336 z m -257.688,-20.38477 c 0.19,0 0.3688,-0.0505 0.55811,-0.0542 0.18931,0.004 0.3681,0.0542 0.5581,0.0542 7.50996,-0.021 14.58825,-2.97297 19.9292,-8.31591 5.34296,-5.34097 8.29592,-12.41926 8.31592,-19.9292 0.019,-7.48897 -2.88094,-14.53441 -8.1709,-19.83838 -5.28898,-5.30397 -12.32843,-8.22703 -19.8164,-8.22803 h -0.0776 c -0.25065,7e-4 -0.48865,0.0677 -0.73828,0.0747 -0.24963,-0.007 -0.48763,-0.074 -0.73828,-0.0747 h -0.0776 c -7.48797,10e-4 -14.52742,2.92406 -19.81641,8.22803 -5.28995,5.30397 -8.1899,12.34941 -8.1709,19.83838 0.02,7.50994 2.97297,14.58823 8.31592,19.9292 5.34096,5.34294 12.41925,8.29491 19.9292,8.31591 z M 463.08786,749.16887 c 18.0969,-61.75864 36.05527,-127.7813 18.73536,-191.64991 -10.02194,-37.80279 -28.24308,-74.40773 -29.24708,-114.25049 3.682,26.13985 13.47821,50.4627 22.97315,74.93555 35.21677,76.52055 20.28539,156.5143 -12.46143,230.96485 z m 391.22169,0 c -32.74681,-74.45055 -47.6782,-154.4443 -12.46142,-230.96485 9.49494,-24.47285 19.29115,-48.7957 22.97314,-74.93555 -1.004,39.84276 -19.22513,76.4477 -29.24707,114.25049 -17.31991,63.86861 0.63846,129.89127 18.73535,191.64991 z M 553.49216,729.14885 c 2.73899,-2.549 7.63916,-7.41358 7.63916,-7.41358 V 546.67472 c 0.006,-24.70585 -20.09007,-44.80239 -44.79492,-44.79639 h -2.74512 l 0.085,-2.74804 c 0.938,-29.88882 15.40101,-51.17724 43.02686,-63.45118 -5.74497,-1.15797 -11.4841,-2.33201 -17.18408,-3.68701 -22.25985,14.54891 -34.98856,35.9241 -35.76856,60.89795 l -0.003,16.94385 c 30.24382,0.399 49.73163,17.18632 49.74463,42.99317 z m 210.41309,0 V 552.82707 c 0.013,-25.80685 19.50081,-42.59417 49.74463,-42.99317 l -0.003,-16.94385 c -0.78,-24.97385 -13.5087,-46.34904 -35.76855,-60.89795 -5.69999,1.355 -11.43911,2.52904 -17.18408,3.68701 27.62585,12.27394 42.08885,33.56236 43.02685,63.45118 l 0.085,2.74804 h -2.74511 c -24.70485,-0.006 -44.80093,20.09054 -44.79493,44.79639 v 175.06055 c 0,0 4.90018,4.86458 7.63916,7.41358 z M 566.45896,718.21086 c 26.99013,-20.84808 59.34051,-33.78483 92.23975,-34.48389 32.89924,0.69906 65.24961,13.63581 92.23975,34.48389 v -171.5376 c 0.006,-26.70785 20.99045,-48.59846 47.34228,-50.04346 -1.765,-29.13582 -16.1245,-47.38868 -46.13232,-57.95362 -30.57682,5.53997 -60.4285,8.28098 -91.46631,8.27198 -0.65012,0.002 -1.33109,-0.0503 -1.9834,-0.0513 -0.65231,10e-4 -1.33328,0.0533 -1.9834,0.0513 -31.03781,0.009 -60.88949,-2.73201 -91.46631,-8.27198 -30.00782,10.56494 -44.36733,28.8178 -46.13233,57.95362 26.35184,1.445 47.33629,23.33561 47.34229,50.04346 z m 83.22803,-276.60059 c 3.00093,10e-5 6.00824,-0.1374 9.01172,-0.1875 3.00348,0.0501 6.01079,0.1876 9.01172,0.1875 70.34358,0 140.18132,-22.02545 159.9082,-28.77539 l 9.94336,-3.39991 -3.60058,-9.87158 c -1.29597,-3.55097 -2.2898,-6.55018 -2.9458,-8.53418 l -0.23731,-0.71484 c -0.228,-0.686 -0.41125,-1.23809 -0.55224,-1.64209 l -0.33399,-0.90674 c -4.36798,-11.92694 -10.97126,-29.95357 -15.55224,-42.79248 l -0.0747,-0.19922 c -0.40997,-1.055 -1.05855,-2.91205 -1.83252,-5.12402 -2.155,-6.16297 -2.60944,-7.29952 -2.91944,-7.99952 l -0.10546,-0.22998 c -4.40997,-10.11294 -13.36984,-17.22888 -20.15479,-21.44385 -15.58391,-9.53394 -35.48013,-15.14368 -57.54199,-16.22168 l -5.25879,-0.25634 -3.28858,4.11328 c -1.84399,2.31 -3.84581,4.54695 -5.9458,6.64892 -5.95495,5.95397 -12.69592,10.90443 -20.06689,14.7334 -11.09291,5.82897 -23.95253,8.91065 -37.18946,8.91065 -0.42246,0 -0.84042,-0.0716 -1.26269,-0.0776 -0.42227,0.006 -0.84024,0.0776 -1.2627,0.0776 -13.23692,0 -26.09654,-3.08168 -37.18945,-8.91065 -7.37097,-3.82897 -14.11194,-8.77943 -20.0669,-14.7334 -2.09998,-2.10197 -4.1018,-4.33892 -5.9458,-6.64892 l -3.28857,-4.11328 -5.25879,0.25634 c -22.06187,1.078 -41.95808,6.68774 -57.54199,16.22168 -6.78496,4.21497 -15.74482,11.33091 -20.15479,21.44385 l -0.10547,0.22998 c -0.31,0.7 -0.76443,1.83655 -2.91943,7.99952 -0.77397,2.21197 -1.42255,4.06902 -1.83252,5.12402 l -0.0747,0.19922 c -4.58098,12.83891 -11.18426,30.86554 -15.55225,42.79248 l -0.33398,0.90674 c -0.14099,0.404 -0.32425,0.95609 -0.55225,1.64209 l -0.2373,0.71484 c -0.656,1.984 -1.64983,4.98321 -2.9458,8.53418 l -3.60059,9.87158 9.94336,3.39991 c 19.72688,6.74994 89.56463,28.77539 159.90821,28.77539 z m 0.003,-5.56641 c -60.89464,0 -120.40708,-16.25298 -150.4629,-25.94092 l -12.0249,-3.87451 4.71973,-14.22363 c 0.233,-0.7 0.41589,-1.248 0.56689,-1.667 l 0.6753,-1.83544 c 4.25098,-11.60894 10.6738,-29.15384 15.11279,-41.59278 l 0.0908,-0.24023 c 0.439,-1.135 1.09629,-3.02121 1.80029,-5.03321 l 0.0513,-0.14941 c 0.733,-2.09497 1.25684,-3.57422 1.63184,-4.61719 v -0.46875 l 1.22607,-2.72461 c 3.84899,-8.82597 11.89278,-15.17297 17.98975,-18.96094 13.74991,-8.41194 31.28508,-13.64569 50.70996,-15.13769 l 6.271,-0.48194 4.13086,4.74317 c 1.303,1.496 2.67194,2.96247 4.06494,4.35644 6.35295,6.35497 13.55486,11.64443 21.4248,15.73243 11.86994,6.23694 25.62073,9.53466 39.76465,9.53466 0.42351,0 0.84231,-0.0718 1.26563,-0.0776 0.42332,0.006 0.84211,0.0776 1.26562,0.0776 14.14393,0 27.89471,-3.29772 39.76465,-9.53466 7.86994,-4.088 15.07185,-9.37746 21.42481,-15.73243 1.393,-1.39397 2.76194,-2.86044 4.06494,-4.35644 l 4.13086,-4.74317 6.27099,0.48194 c 19.42489,1.492 36.96006,6.72575 50.70997,15.13769 6.09697,3.78797 14.14076,10.13497 17.98974,18.96094 l 1.22608,2.72461 v 0.46875 c 0.375,1.04297 0.89883,2.52222 1.63183,4.61719 l 0.0513,0.14941 c 0.704,2.012 1.3613,3.89821 1.8003,5.03321 l 0.0908,0.24023 c 4.43898,12.43894 10.8618,29.98384 15.11279,41.59278 l 0.67529,1.83544 c 0.151,0.419 0.3339,0.967 0.5669,1.667 l 4.71972,14.22363 -12.0249,3.87451 c -30.05582,9.68794 -89.56825,25.94092 -150.46289,25.94092 -2.99945,5e-5 -6.00623,-0.12801 -9.00879,-0.17871 -3.00256,0.0507 -6.00934,0.17876 -9.00879,0.17871 z"
       transform="matrix(0.10808184,0,0,-0.10808184,-179.70844,54.713472)" />
    <path
       id="path529-78-9"
       style="color:#000000;fill:#00ff00;fill-opacity:0.430025;stroke-linecap:round;stroke-linejoin:round;-inkscape-stroke:none"
       d="m -109.78777,52.700047 c -3.9604,0 -9.33812,0.313068 -10.44846,1.522905 -4.55235,4.960336 -7.32577,11.053517 -14.26166,14.302486 -1.62336,-2.61975 -4.74878,-7.014042 -8.68629,-7.014042 -3.93752,0 -13.18065,4.703996 -21.71289,19.825663 l -1.17461,-0.0041 c -0.82248,-3.783271 -4.45975,-1.841121 -5.70353,1.445355 l -1.39991,1.367876 c -9.40598,3.227086 -5.77948,13.521454 -2.93109,18.55029 0,9.88977 25.88015,35.65671 35.39578,35.32187 2.59211,2.91713 6.12831,3.90167 8.52196,2.34972 4.00913,4.02884 5.08342,4.86321 11.18071,7.70289 3.76607,5.78745 7.42748,12.3418 11.21999,12.3424 3.79251,-6e-4 7.45392,-6.55495 11.219983,-12.3424 6.0973,-2.83968 7.17159,-3.67405 11.18072,-7.70289 2.39364,1.55195 5.92984,0.56741 8.52196,-2.34972 9.51563,0.33484 35.395774,-25.4321 35.395774,-35.32187 2.8484,-5.028836 6.4749,-15.323204 -2.93108,-18.55029 l -1.39992,-1.367876 c -1.24378,-3.286476 -4.88105,-5.228626 -5.70353,-1.445389 l -1.1746,0.0041 C -63.210697,66.21539 -72.453847,61.511396 -76.391357,61.511396 c -3.93751,0 -7.06294,4.394292 -8.68629,7.014042 -6.93589,-3.248969 -9.70932,-9.34215 -14.26167,-14.302486 -1.110333,-1.209837 -6.488053,-1.522905 -10.448453,-1.522905 z m 0,2.300118 c 1.91959,0 4.19503,0.08048 6.02702,0.293005 0.91599,0.106263 1.72648,0.249397 2.26601,0.398426 0.38856,0.107328 0.61543,0.278726 0.59686,0.240295 4.161153,4.603941 7.205813,11.097324 14.844583,14.67559 a 2.30023,2.30023 0 0 0 2.9316,-0.870748 c 0.76689,-1.237555 1.87519,-2.847778 3.11712,-4.047298 1.24193,-1.19952 2.50008,-1.878955 3.61322,-1.878955 1.0529,0 4.10926,0.897297 7.70495,3.746541 3.59571,2.849245 7.86235,7.56954 12.00393,14.909685 a 2.30023,2.30023 0 0 0 2.011764,1.169954 l 1.17564,-0.0036 a 2.30023,2.30023 0 0 0 2.22105,-1.79679 c 0.38947,0.303953 0.9973,0.898315 1.32189,1.755965 a 2.30023,2.30023 0 0 0 0.54518,0.831991 l 1.39837,1.366841 a 2.30023,2.30023 0 0 0 0.86144,0.531234 c 1.95354,0.67024 2.98152,1.570581 3.6251,2.597774 0.64357,1.027192 0.91828,2.291283 0.88264,3.769796 -0.0713,2.957026 -1.53307,6.579815 -2.83187,8.872849 a 2.30023,2.30023 0 0 0 -0.29714,1.13274 c 0,1.46931 -1.33486,4.81495 -3.79667,8.4491 -2.46181,3.63415 -5.91618,7.6872 -9.658324,11.41791 -3.74216,3.73072 -7.78367,7.1501 -11.37709,9.55859 -3.59342,2.40849 -6.8773,3.64367 -8.18348,3.59771 a 2.30023,2.30023 0 0 0 -1.80093,0.77153 c -2.07286,2.3328 -4.39703,2.69505 -5.55056,1.94716 a 2.30023,2.30023 0 0 0 -2.88303,0.30903 c -3.97618,3.99575 -4.48454,4.42933 -10.51925,7.23986 a 2.30023,2.30023 0 0 0 -0.957053,0.83044 c -1.91369,2.94082 -3.76214,5.98986 -5.48029,8.1716 -1.71814,2.18174 -3.2413,3.12478 -3.81268,3.12487 -0.57138,-9e-5 -2.09455,-0.94313 -3.81269,-3.12487 -1.71814,-2.18174 -3.56659,-5.23078 -5.48029,-8.1716 a 2.30023,2.30023 0 0 0 -0.95498,-0.83044 c -6.0347,-2.81052 -6.54554,-3.24409 -10.52183,-7.23986 a 2.30023,2.30023 0 0 0 -2.88252,-0.30903 c -1.15339,0.74783 -3.47821,0.38564 -5.55108,-1.94716 a 2.30023,2.30023 0 0 0 -1.80041,-0.77153 c -1.30622,0.046 -4.59057,-1.18922 -8.18399,-3.59771 -3.59342,-2.40849 -7.63443,-5.82787 -11.37657,-9.55859 -3.74214,-3.73071 -7.19446,-7.78376 -9.65626,-11.41791 -2.4618,-3.63415 -3.79718,-6.97978 -3.79718,-8.4491 a 2.30023,2.30023 0 0 0 -0.29869,-1.13274 c -1.2988,-2.293034 -2.76058,-5.915822 -2.83187,-8.872849 -0.0356,-1.478513 0.23906,-2.742604 0.88263,-3.769796 0.64358,-1.027193 1.67156,-1.927534 3.6251,-2.597774 a 2.30023,2.30023 0 0 0 0.86145,-0.531234 l 1.40043,-1.366841 a 2.30023,2.30023 0 0 0 0.5426,-0.831991 c 0.3242,-0.856614 0.93269,-1.44984 1.3224,-1.754415 a 2.30023,2.30023 0 0 0 2.22261,1.79524 l 1.17409,0.0036 a 2.30023,2.30023 0 0 0 2.01176,-1.169954 c 4.14162,-7.340147 8.4077,-12.060437 12.0034,-14.909685 3.59571,-2.849247 6.65264,-3.746541 7.70548,-3.746541 1.11314,0 2.37128,0.679435 3.61321,1.878955 1.24193,1.19952 2.35231,2.809745 3.11919,4.047298 a 2.30023,2.30023 0 0 0 2.92954,0.870748 c 7.63917,-3.578402 10.68362,-10.07215 14.84509,-14.676107 -0.0222,0.04219 0.20676,-0.131593 0.59841,-0.239778 0.53951,-0.149026 1.34744,-0.292163 2.26343,-0.398426 1.83197,-0.212524 4.10795,-0.293005 6.02754,-0.293005 z" />
  </g>
  <g
     inkscape:label="Edge.Cuts"
     inkscape:groupmode="layer"
     id="g10446"
     transform="translate(10.3801, -14.4995)" />
  <g
     inkscape:label="B.Cu"
     inkscape:groupmode="layer"
     id="g10448"
     transform="translate(10.38005,-14.499459)" />
  <g
     inkscape:label="B.Mask"
     inkscape:groupmode="layer"
     id="g10450"
     transform="translate(10.38005,-14.499459)" />
  <g
     inkscape:label="B.SilkS"
     inkscape:groupmode="layer"
     id="g10452"
     transform="translate(10.38005,-14.499459)" />
  <g
     inkscape:label="F.Cu"
     inkscape:groupmode="layer"
     id="g10454"
     transform="translate(10.38005,-14.499459)" />
  <g
     inkscape:label="F.Mask"
     inkscape:groupmode="layer"
     id="g10456"
     transform="translate(10.38005,-14.499459)" />
  <g
     inkscape:label="F.SilkS"
     inkscape:groupmode="layer"
     id="g10458"
     transform="translate(10.38005,-14.499459)">
    <path
       id="path27"
       clip-path="url(#clipPath28)"
       style="fill:#000000;fill-opacity:1;fill-rule:nonzero;stroke:none;stroke-width:3.89767"
       d="M -3.9756031,4.1211356 C -20.645116,3.6221518 -37.242024,-0.02371164 -52.938008,-6.8959548 -94.791966,-24.298937 -125.06837,-62.484491 -133.92336,-109.04244 c -8.82899,-46.41796 5.2395,-92.87888 37.605467,-124.25685 26.313974,-26.46397 60.359278,-40.34619 95.59424319,-40.34619 17.70798181,0 35.72135581,3.50844 53.19433881,10.69043 52.645951,21.63998 85.443681,70.15383 85.596681,126.61378 0.995,46.70295 -22.15377,90.472384 -61.927735,117.089358 C 51.791535,-2.9581787 23.806918,4.9527754 -3.9756031,4.1211356 Z M -1.6959893e-5,5.2995327e-4 C 25.656957,5.2995327e-4 51.336415,-7.6781425 73.816393,-22.722127 112.40435,-48.546102 134.86357,-90.994007 133.89257,-136.27096 v -0.0395 c -0.141,-54.74695 -31.94736,-101.79623 -83.008307,-122.78321 -50.6469494,-20.81898 -105.917577,-9.80582 -144.269539,28.76514 -31.380964,30.42397 -45.000514,75.47342 -36.436524,120.50537 8.59199,45.173959 37.932993,82.210452 78.522952,99.086435 C -34.873864,-3.5457825 -17.445,5.2995327e-4 -1.6959893e-5,5.2995327e-4 Z m 0,-5.01123075327 C -17.071,-5.0107008 -33.654523,-8.479759 -49.375508,-15.362752 c -39.013961,-16.220984 -67.247422,-51.883533 -75.524422,-95.396488 -8.24799,-43.37196 4.83593,-86.72663 35.066901,-116.0376 24.142976,-24.28098 55.801639,-37.65382 89.14160576,-37.65382 h 0.001465 c 16.82898324,0 33.54194024,3.36225 49.66992424,9.99024 49.149951,20.20298 79.766834,65.47996 79.902834,118.14991 v 0.14795 c 0.934,43.557954 -20.69358,84.409371 -57.85254,109.277346 C 49.646281,-12.574228 25.083958,-5.0107008 -1.6959893e-5,-5.0107008 Z M -1.012224,-22.754354 c 2.2429977,0 4.3743502,-0.13625 6.6313479,-0.28125 l 0.2490235,-0.01611 c 0.7899992,-0.05 1.591415,-0.10202 2.3994142,-0.14502 1.3599986,-0.072 2.6304854,-0.693657 3.5214844,-1.722656 0.891999,-1.029999 1.325637,-2.377888 1.202637,-3.733887 l -1.07959,-11.847657 c 1.306999,-0.16 2.556763,-0.419828 3.780762,-0.673828 0.891999,-0.186 1.778876,-0.370766 2.671875,-0.509766 0.115,-0.018 0.226844,-0.03799 0.339844,-0.06299 0.892999,-0.203 1.813134,-0.354625 2.786133,-0.515625 1.202999,-0.199 2.422532,-0.40059 3.644531,-0.70459 l 3.263672,11.437501 c 0.374,1.308998 1.263798,2.410805 2.466797,3.049804 0.731,0.388 1.540075,0.585938 2.351075,0.585938 0.522999,0 1.048664,-0.08302 1.555664,-0.249023 0.836999,-0.273 1.672165,-0.532087 2.493164,-0.788086 l 0.165527,-0.05274 c 2.511998,-0.779999 5.109613,-1.586552 7.59961,-2.664551 1.225999,-0.529999 2.187805,-1.527021 2.674805,-2.770019 0.487999,-1.242999 0.457968,-2.628611 -0.08203,-3.84961 l -4.958497,-11.235352 5.926758,-2.872559 c 0.074,-0.036 0.147727,-0.07379 0.219727,-0.112793 1.641998,-0.896999 3.190592,-1.953243 4.82959,-3.073242 0.248,-0.169 0.490957,-0.336512 0.730957,-0.499512 l 6.960938,10.092774 c 0.971999,1.408999 2.538396,2.166504 4.129395,2.166504 0.972999,0 1.955825,-0.284047 2.819824,-0.873047 3.053997,-2.084998 5.696702,-4.4558 8.4917,-6.966797 l 1.045898,-0.936035 c 1.010999,-0.902999 1.614922,-2.178205 1.669922,-3.533204 0.056,-1.355998 -0.441489,-2.674716 -1.375488,-3.657715 l -8.219239,-8.642578 c 1.188999,-1.178999 2.236279,-2.439365 3.259278,-3.672364 0.384999,-0.461999 0.759648,-0.91291 1.139648,-1.35791 0.056,-0.066 0.111063,-0.132148 0.164063,-0.202148 0.514999,-0.67 1.201211,-1.442943 1.866211,-2.189942 0.779999,-0.876999 1.557297,-1.74913 2.279297,-2.682129 l 9.774902,6.820313 c 0.847,0.590999 1.849701,0.900879 2.8667,0.900879 0.333999,0 0.668953,-0.03307 1.001953,-0.101074 1.343999,-0.274 2.517095,-1.088002 3.246094,-2.25 0.447999,-0.717 0.898262,-1.424095 1.343262,-2.121094 l 0.111328,-0.175782 c 1.500998,-2.348997 2.910411,-4.558475 4.170407,-6.959473 0.629,-1.197998 0.7452,-2.598767 0.3252,-3.884765 -0.421,-1.285999 -1.34555,-2.348872 -2.560548,-2.942872 l -11.015626,-5.38916 c 0.155,-0.363 0.544922,-1.274414 0.544922,-1.274414 1.531998,-3.565997 3.107774,-7.2349 4.092774,-11.1709 l 11.630858,2.94434 c 0.405,0.103 0.81847,0.15381 1.23047,0.15381 0.901,0 1.79359,-0.24284 2.57959,-0.71484 1.144,-0.688 1.96716,-1.80508 2.28516,-3.10108 l 1.40332,-5.72607 c 0.06,-0.245 0.10151,-0.49314 0.12451,-0.74414 l 0.52734,-5.83301 c 0.248,-2.753 -1.78023,-5.18597 -4.53223,-5.43897 l -12.032221,-1.10595 c 0.387999,-4.307 0.422073,-8.71624 0.101074,-13.36524 l 12.041017,-1.26269 c 1.348,-0.142 2.58194,-0.82458 3.41894,-1.89258 0.838,-1.067 1.206,-2.42798 1.021,-3.77198 -0.404,-2.94599 -0.99651,-6.84031 -1.99951,-10.8413 -0.328,-1.302 -1.16232,-2.42108 -2.32031,-3.10108 -0.778,-0.456 -1.65504,-0.68994 -2.54004,-0.68994 -0.435,0 -0.87186,0.0564 -1.29786,0.17139 l -11.727534,3.14941 c -1.234999,-4.228 -2.82735,-8.39578 -4.756348,-12.44678 l 10.87793,-5.45361 c 1.195999,-0.599 2.102062,-1.6533 2.518062,-2.92529 0.415,-1.272 0.30392,-2.65669 -0.30908,-3.84668 -0.897997,-1.747 -1.932667,-3.52418 -3.159666,-5.43018 -0.433999,-0.673 -0.845301,-1.35799 -1.2583,-2.04199 l -0.07617,-0.12305 c -0.633,-1.052 -1.221845,-2.02806 -1.839844,-2.95605 -0.752999,-1.128 -1.931603,-1.90247 -3.266602,-2.14747 -0.299,-0.055 -0.602344,-0.082 -0.902344,-0.082 -1.036999,0 -2.054645,0.32164 -2.910644,0.93164 l -9.915528,7.07959 c -2.687997,-3.56099 -5.636785,-6.96323 -8.800782,-10.15722 l 8.358399,-8.73047 c 0.933999,-0.976 1.435672,-2.28721 1.388672,-3.63721 -0.046,-1.35 -0.636232,-2.6252 -1.636231,-3.5332 l -3.84375,-3.49658 c -0.108,-0.099 -0.223309,-0.19518 -0.341308,-0.28418 l -4.141114,-3.14209 c -0.875999,-0.665 -1.942298,-1.01954 -3.029297,-1.01954 -0.246,0 -0.495211,0.0187 -0.741211,0.0557 -1.335999,0.199 -2.532267,0.92941 -3.322266,2.02441 l -7.064941,9.80127 c -3.712997,-2.54299 -7.586946,-4.80772 -11.564942,-6.76172 l 5.094726,-11.06543 c 0.563,-1.227 0.609976,-2.63062 0.125977,-3.89062 -0.485,-1.262 -1.455779,-2.27264 -2.696778,-2.80664 -1.392998,-0.599 -2.824962,-1.12244 -4.209961,-1.62744 l -1.560058,-0.57276 c -1.876999,-0.707 -3.849378,-1.44946 -5.859376,-2.04346 -0.464999,-0.136 -0.941969,-0.20361 -1.417968,-0.20361 -0.845,0 -1.684501,0.21381 -2.437501,0.63281 -1.174998,0.655 -2.037555,1.75428 -2.393554,3.05127 l -3.221192,11.74805 c -4.290996,-1.062 -8.678173,-1.77728 -13.097169,-2.13428 l 0.70459,-12.03515 c 0.079,-1.353 -0.393571,-2.68169 -1.30957,-3.67969 -0.9159992,-0.999 -2.1992477,-1.58358 -3.5522464,-1.62158 0,0 -5.2689183,-0.14649 -5.3159182,-0.14649 -0.1179999,0 -0.2350275,0.004 -0.3530274,0.0132 l -5.1826174,0.36767 c -1.3309987,0.095 -2.5684542,0.71559 -3.4394533,1.72559 -0.8709992,1.009 -1.3026367,2.32432 -1.2026368,3.65332 l 0.9199219,12.06445 c -0.2549997,0.015 -0.5111136,0.0295 -0.7661133,0.0425 -1.9749981,0.11 -4.0106941,0.22324 -6.0336921,0.61524 -0.065,0.013 -6.437988,1.51172 -6.437988,1.51172 l -3.210938,-11.90479 c -0.602999,-2.232 -2.623452,-3.70605 -4.835449,-3.70605 -0.413,-10e-4 -0.833442,0.0502 -1.252442,0.1582 -3.154997,0.814 -6.148019,2.0878 -9.041016,3.3208 -0.858999,0.366 -1.724099,0.73524 -2.600098,1.09424 -1.259998,0.515 -2.256766,1.52306 -2.759765,2.78906 -0.502,1.267 -0.465855,2.68285 0.09814,3.92285 l 4.916016,10.79883 c -1.462999,0.704 -2.820974,1.53708 -4.146973,2.35108 -0.540999,0.33099 -1.078118,0.66098 -1.620117,0.97998 -0.068,0.039 -0.135684,0.08 -0.200684,0.12304 -0.774999,0.504 -1.742169,1.05548 -2.597168,1.54248 -0.971999,0.556 -1.959224,1.1191 -2.928223,1.7461 l -7.051758,-9.66797 c -0.810999,-1.112 -2.045158,-1.84109 -3.410156,-2.01709 -0.213,-0.027 -0.425208,-0.041 -0.637207,-0.041 -1.148999,0 -2.269923,0.3944 -3.169922,1.1294 -0.678,0.554 -1.361388,1.10381 -2.046387,1.65381 -2.058998,1.65399 -4.190573,3.36447 -6.184571,5.18847 -1.002999,0.919 -1.589512,2.2069 -1.624512,3.5669 -0.036,1.36 0.482478,2.67599 1.438477,3.64599 l 8.57959,8.70703 c -0.341999,0.373 -0.684856,0.74568 -1.026855,1.11768 -2.623998,2.853 -5.322401,5.78373 -7.608399,9.11572 l -9.934571,-6.78955 c -0.863999,-0.591 -1.848755,-0.87304 -2.822754,-0.87304 -1.596998,0 -3.16672,0.76122 -4.136719,2.17822 l -0.22998,0.33252 c -1.161999,1.679 -2.221826,3.21048 -3.194825,4.91748 -0.046,0.081 -0.09037,0.16263 -0.130371,0.24463 l -2.62207,5.26025 c -0.6,1.202 -0.690883,2.59526 -0.254883,3.86426 0.436999,1.27 1.364197,2.3126 2.575195,2.8916 l 10.79297,5.16211 c -1.412999,2.936 -2.385056,5.99943 -3.331055,8.98242 -0.383,1.21 -0.772454,2.43593 -1.189453,3.64893 l -11.771483,-3.08496 c -0.417,-0.109 -0.84402,-0.1626 -1.27002,-0.1626 -0.936,0 -1.86388,0.26297 -2.67188,0.77197 -1.17199,0.739 -1.98607,1.93097 -2.24707,3.29297 l -0.14941,0.77198 c -0.604,3.12499 -1.22272,6.3396 -1.78272,9.53759 -0.237,1.361 0.0963,2.75873 0.92432,3.86573 0.827,1.105 2.07671,1.82107 3.44971,1.97607 l 12.112791,1.3667 c -0.045,1.177 -0.117036,2.36002 -0.186035,3.52002 -0.193,3.199 -0.39082,6.48606 -0.09082,9.81006 l -11.912106,1.05469 c -1.338,0.118 -2.57227,0.76915 -3.42627,1.80615 -0.854,1.036 -1.25475,2.37252 -1.11475,3.70752 l 0.62256,5.93408 c 0.013,0.132 0.0321,0.26211 0.0571,0.39111 0.354,1.915 0.83094,3.70796 1.33594,5.60596 l 0.11865,0.44092 c 0.598,2.239 2.62091,3.71777 4.83691,3.71777 0.418,0 0.84163,-0.0531 1.26563,-0.16406 l 11.632322,-3.03369 c 1.047999,3.99599 2.698642,7.723608 4.306641,11.349605 0,0 0.329031,0.74618 0.457031,1.034179 l -10.984864,5.497559 c -1.204999,0.603 -2.116321,1.667662 -2.52832,2.951661 -0.411,1.284998 -0.286761,2.681048 0.344238,3.873047 1.282999,2.421997 2.799162,4.697952 4.264161,6.897949 0.505999,0.758 1.017367,1.528525 1.526367,2.311524 0.741999,1.143999 1.917814,1.936336 3.257812,2.194336 0.314,0.06 0.629825,0.08935 0.944825,0.08935 1.028999,0 2.041067,-0.315457 2.893066,-0.918457 l 9.744141,-6.88916 c 1.812999,2.459997 3.881928,4.688401 5.898926,6.858399 0.980999,1.053999 1.983802,2.128587 2.945801,3.225586 l -8.436035,8.76709 c -0.966999,1.003999 -1.469602,2.365326 -1.391602,3.757324 0.078,1.390999 0.732154,2.686685 1.806153,3.575684 l 9.027832,7.475098 c 0.903999,0.747999 2.035826,1.149903 3.194824,1.149903 0.221,0 0.44304,-0.01495 0.66504,-0.04395 1.384998,-0.185 2.627129,-0.938079 3.432129,-2.080078 l 6.969727,-9.89502 5.695312,3.373535 3.698731,2.230957 c 0.152,0.092 0.309215,0.175489 0.470215,0.250489 0.555999,0.259 1.128586,0.498816 1.725586,0.736816 l -4.788575,10.93213 c -0.540999,1.235998 -0.561663,2.637696 -0.05566,3.887695 0.506,1.250999 1.493724,2.244837 2.740723,2.756836 l 1.713867,0.708985 c 2.793998,1.163999 5.669133,2.360739 8.68213,3.156738 0.428999,0.114 0.860203,0.166992 1.283203,0.166992 2.211998,0 4.23445,-1.474916 4.835449,-3.711914 l 3.188965,-11.871094 6.130372,1.480957 c 0.241,0.058 0.484422,0.09812 0.732422,0.120117 l 6.300293,0.561035 -0.7880859,12.262208 c -0.1759999,2.750997 1.9042764,5.127848 4.6552736,5.318848 0.9659991,0.067 1.9946653,0.101074 3.0556643,0.101074 z"
       transform="matrix(0.09103861,0,0,-0.08998438,99.549125,53.652285)" />
    <path
       id="rect5260"
       style="fill:#1a1a1a;fill-opacity:1;stroke:none;stroke-width:3;stroke-linecap:butt;stroke-linejoin:round;stroke-dasharray:none;stroke-opacity:0.430025"
       d="M 59.121651 15.149032 C 59.117425 15.149032 59.112443 15.149549 59.108215 15.149549 C 57.130802 15.149884 54.802448 15.228032 52.828495 15.457023 C 51.839361 15.571774 50.939466 15.724176 50.217285 15.923661 C 49.860311 16.022264 49.547461 16.132795 49.288143 16.255424 C 49.283544 16.257607 49.278755 16.259959 49.27419 16.262142 C 49.016972 16.385139 48.814197 16.52063 48.676294 16.669869 C 48.675585 16.670637 48.673899 16.671169 48.673193 16.671936 L 48.673193 16.672453 C 48.671283 16.674528 48.669418 16.676568 48.667509 16.678654 C 47.523193 17.926165 46.490624 19.244617 45.476489 20.571957 C 44.476563 21.880684 43.494188 23.1974 42.438431 24.461642 C 42.437637 24.462593 42.437159 24.463791 42.436364 24.464742 C 42.435742 24.465488 42.43492 24.466063 42.434297 24.466809 C 41.906974 25.098082 41.360984 25.716256 40.785819 26.313725 C 40.780901 26.318833 40.776272 26.324123 40.77135 26.329228 C 40.768151 26.332547 40.764733 26.335728 40.761531 26.339046 C 40.186372 26.93506 39.58145 27.510229 38.935803 28.057288 C 38.929739 28.062426 38.923787 28.067658 38.917716 28.072791 C 37.613143 29.175775 36.142074 30.163787 34.411531 30.974422 C 34.409648 30.971384 34.406699 30.96713 34.404813 30.964087 C 34.003099 30.316218 33.50894 29.56098 32.934619 28.790576 C 32.9288 28.78277 32.924436 28.776165 32.918599 28.768355 C 32.338931 27.992632 31.677273 27.202894 30.944043 26.493559 C 30.935445 26.48524 30.926822 26.477566 30.918204 26.469271 C 30.556936 26.121489 30.178929 25.792773 29.784423 25.495687 C 29.781603 25.493562 29.778978 25.491091 29.776155 25.488969 L 29.775638 25.488969 C 29.773832 25.487612 29.771761 25.486714 29.769954 25.485352 C 29.367686 25.183469 28.949342 24.913421 28.51525 24.687984 C 28.081815 24.462884 27.633143 24.282469 27.17063 24.157267 C 27.165296 24.15583 27.159947 24.15456 27.15461 24.153133 C 26.693179 24.029596 26.218083 23.961373 25.730407 23.960897 C 25.728646 23.960897 25.727001 23.96038 25.72524 23.96038 C 25.723761 23.96038 25.721552 23.960897 25.720072 23.960897 C 25.233853 23.961383 24.666542 24.033857 24.030253 24.188273 C 24.025987 24.189311 24.022122 24.18982 24.01785 24.190857 C 23.378544 24.346884 22.669149 24.586765 21.9017 24.919495 C 21.899776 24.920327 21.897942 24.920719 21.896016 24.921562 C 21.125693 25.255869 20.296475 25.685571 19.420198 26.219674 C 15.034617 28.892746 9.4672915 34.208207 4.1601478 43.530762 C 4.1109435 43.617195 4.0615119 43.699438 4.0123532 43.78656 L 2.8377479 43.782426 C 2.7707945 43.474447 2.6834003 43.208149 2.5819495 42.97369 C 2.1582176 41.994423 1.4582483 41.640514 0.68645798 41.730355 C 0.67053214 41.732191 0.6554177 41.73124 0.63943242 41.733456 C 0.40019159 41.766858 0.15532683 41.847109 -0.090755566 41.960315 C -0.11552788 41.971682 -0.13884486 41.981269 -0.16361934 41.993388 C -0.68720238 42.24983 -1.2067182 42.6701 -1.6705041 43.211402 C -1.6855392 43.228931 -1.6984861 43.245301 -1.7133955 43.263078 C -2.1785284 43.817739 -2.5848488 44.485502 -2.86578 45.227816 L -4.2656945 46.595691 C -4.9550713 46.832209 -5.5665927 47.110792 -6.1213952 47.41838 C -6.1631952 47.441585 -6.2038355 47.46508 -6.2449019 47.48866 C -6.781681 47.796426 -7.2603435 48.13334 -7.6778894 48.499968 C -7.6835067 48.50491 -7.6898625 48.509486 -7.6954593 48.514437 C -8.1277639 48.896184 -8.4970562 49.307822 -8.812187 49.742786 C -8.8170086 49.749453 -8.8213442 49.756261 -8.8261397 49.76294 C -9.1400049 50.199241 -9.3987337 50.658981 -9.6069706 51.138049 C -10.179394 52.454962 -10.376519 53.912375 -10.316488 55.404456 L -10.316488 55.404973 C -10.245309 57.172433 -9.8173719 58.98402 -9.2312829 60.6646 C -9.2243 60.684658 -9.2166061 60.702975 -9.2095788 60.722994 C -8.920257 61.545894 -8.5963045 62.337494 -8.2566654 63.073755 C -8.2512343 63.08554 -8.2460836 63.095587 -8.2406457 63.107345 C -7.8975867 63.848399 -7.5415301 64.537327 -7.1967818 65.14598 C -7.1967818 65.392878 -7.1761909 65.651989 -7.1445886 65.918026 C -6.9778396 67.321751 -6.383917 68.980595 -5.4521854 70.802999 C -4.718936 72.237185 -3.7706038 73.774085 -2.6704431 75.361377 C -2.6286046 75.421745 -2.5861342 75.480693 -2.5438358 75.541211 C -1.4536406 77.101033 -0.21582312 78.707751 1.1339759 80.322315 C 1.172882 80.368854 1.2096141 80.413743 1.2486976 80.460291 C 2.628367 82.103421 4.1143169 83.749378 5.6675493 85.354566 C 5.6972804 85.385293 5.7271719 85.414303 5.7569495 85.444999 C 7.2905673 87.02589 8.8836828 88.56098 10.494128 90.013713 C 10.565841 90.078407 10.635779 90.140567 10.707552 90.204916 C 12.316632 91.647537 13.937399 93.003437 15.529996 94.225859 C 15.565677 94.253248 15.6008 94.281802 15.63645 94.309058 C 17.245797 95.539443 18.819994 96.628284 20.318851 97.540385 C 20.416458 97.599786 20.510793 97.653589 20.607723 97.711434 C 21.262257 98.102036 21.90366 98.462868 22.522851 98.778036 C 22.56551 98.799749 22.610088 98.825947 22.652559 98.847282 C 23.288715 99.166862 23.896052 99.429894 24.485522 99.660152 C 24.598982 99.704476 24.71298 99.750587 24.824519 99.79141 C 25.417608 100.00849 25.987206 100.18355 26.52054 100.29629 C 26.545346 100.30153 26.570289 100.3073 26.594954 100.31231 C 27.168716 100.42879 27.706912 100.48517 28.198991 100.46785 C 28.847018 101.19714 29.553802 101.8055 30.287235 102.28376 C 31.020013 102.76161 31.77909 103.10936 32.532059 103.31781 C 32.532734 103.318 32.533452 103.31814 32.534126 103.31833 C 32.535209 103.31863 32.536144 103.31855 32.537227 103.31884 C 33.289822 103.52657 34.036147 103.59547 34.743811 103.51521 L 34.744327 103.51521 C 34.744866 103.51515 34.745339 103.51476 34.745878 103.5147 C 35.099442 103.47445 35.443548 103.39731 35.773722 103.28164 C 36.102179 103.16656 36.416923 103.01272 36.714233 102.82068 C 36.716333 102.81933 36.718852 102.81894 36.720951 102.81758 C 36.729813 102.82649 36.734855 102.83093 36.743689 102.8398 C 37.734694 103.83543 38.548181 104.63785 39.301672 105.32131 C 40.061045 106.01009 40.76139 106.5801 41.526859 107.11344 C 41.527257 107.11372 41.527496 107.1142 41.527893 107.11448 C 41.528844 107.11514 41.530042 107.11588 41.530993 107.11654 C 42.296094 107.64932 43.126378 108.14565 44.145821 108.68544 L 44.146338 108.68544 C 45.157967 109.22108 46.359917 109.80108 47.864974 110.50238 C 47.879832 110.50931 47.886745 110.51352 47.901664 110.52047 C 48.843177 111.96733 49.778163 113.46189 50.710278 114.89023 C 52.10854 117.03287 53.500299 119.02573 54.898136 120.48317 C 55.361613 120.96641 55.825566 121.39062 56.290816 121.74201 C 56.294576 121.74485 56.298425 121.74796 56.302185 121.75079 C 56.768007 122.10142 57.234615 122.37884 57.703133 122.56883 C 57.703627 122.56903 57.704189 122.56915 57.704683 122.56935 C 57.70558 122.56971 57.70637 122.57002 57.707267 122.57038 C 58.175803 122.75987 58.646407 122.86184 59.11855 122.86235 C 59.11958 122.86235 59.120622 122.86287 59.121651 122.86287 C 59.12268 122.86287 59.123721 122.86235 59.124751 122.86235 C 59.596588 122.86184 60.066251 122.75963 60.534485 122.57038 C 60.537002 122.56936 60.539718 122.56882 60.542236 122.5678 C 61.009199 122.37812 61.474249 122.10159 61.938533 121.75234 C 61.945149 121.74737 61.951556 121.74133 61.95817 121.73632 C 62.421343 121.38583 62.883749 120.96428 63.345166 120.48317 C 63.81108 119.99737 64.276421 119.45209 64.741463 118.86156 C 65.671547 117.68053 66.600908 116.31857 67.533024 114.89023 C 68.465139 113.46189 69.400125 111.96733 70.341638 110.52047 C 70.356556 110.51352 70.36347 110.50931 70.378328 110.50238 C 71.883569 109.80099 73.085255 109.22114 74.096964 108.68544 C 75.114655 108.14658 75.943648 107.65086 76.707658 107.11913 C 76.711912 107.11617 76.716844 107.11279 76.721093 107.10983 C 77.481857 106.5794 78.178779 106.01202 78.933361 105.32802 C 78.942246 105.31997 78.951849 105.31079 78.96075 105.3027 C 79.708903 104.62305 80.516411 103.82707 81.499096 102.8398 C 81.508033 102.83083 81.513385 102.82659 81.522351 102.81758 C 81.52445 102.81894 81.526969 102.81933 81.529069 102.82068 C 81.826376 103.01272 82.140607 103.16656 82.469063 103.28164 L 82.46958 103.28164 C 82.80027 103.39745 83.14483 103.47505 83.498974 103.51521 C 84.206449 103.59545 84.952654 103.52696 85.705041 103.31936 C 85.707479 103.31869 85.709838 103.31797 85.712276 103.31729 C 86.464194 103.10894 87.222216 102.76178 87.953999 102.2848 C 87.955437 102.28386 87.956697 102.28263 87.958134 102.2817 C 88.690592 101.8037 89.397087 101.19623 90.044311 100.46785 C 90.536251 100.48517 91.073737 100.42872 91.647314 100.31231 C 91.672832 100.30713 91.698644 100.3012 91.724312 100.29577 C 92.256553 100.18314 92.824987 100.00843 93.416715 99.791927 C 93.529426 99.750692 93.644659 99.704444 93.75933 99.659636 C 94.348278 99.429509 94.955204 99.166552 95.590743 98.847282 C 95.633665 98.82572 95.678887 98.799467 95.722001 98.777519 C 96.338085 98.463886 96.975711 98.104918 97.626794 97.716602 C 97.727721 97.65641 97.825889 97.600198 97.927551 97.538318 C 99.425324 96.626659 100.99828 95.538453 102.60634 94.309058 C 102.64207 94.281738 102.67702 94.252795 102.71279 94.225342 C 104.30445 93.003627 105.92502 91.649175 107.53317 90.207499 C 107.6072 90.141118 107.67881 90.076329 107.75279 90.009579 C 109.3618 88.557963 110.95355 87.02451 112.48584 85.444999 C 112.51561 85.414302 112.5455 85.385294 112.57524 85.354566 C 114.13026 83.747517 115.61824 82.099632 116.99926 80.454606 C 117.0349 80.412132 117.06813 80.370984 117.10364 80.328516 C 118.45551 78.711804 119.69498 77.103094 120.78662 75.541211 C 120.82892 75.480693 120.87139 75.421745 120.91323 75.361377 C 122.01339 73.774085 122.96172 72.237185 123.69497 70.802999 C 124.6267 68.980595 125.22063 67.321751 125.38737 65.918026 C 125.41898 65.651989 125.44008 65.392878 125.44008 65.14598 C 125.78159 64.543052 126.13353 63.860551 126.47361 63.127499 C 126.48334 63.106495 126.49283 63.088647 126.50255 63.067554 C 126.84112 62.333138 127.16389 61.543479 127.45236 60.722994 C 127.45939 60.702974 127.46709 60.684659 127.47407 60.6646 C 127.7663 59.826639 128.01899 58.957139 128.20839 58.075094 C 128.39883 57.188147 128.52358 56.291152 128.55927 55.404973 L 128.55927 55.404456 C 128.61927 53.913337 128.42236 52.45688 127.85079 51.140633 L 127.85079 51.140117 L 127.85027 51.1396 C 127.64211 50.660425 127.38376 50.20038 127.06996 49.763973 C 127.06526 49.757418 127.06074 49.750882 127.05601 49.744336 C 126.74169 49.310272 126.37383 48.899158 125.9429 48.518054 C 125.93434 48.510466 125.92464 48.503399 125.91602 48.495834 C 125.50063 48.131665 125.02499 47.796753 124.49182 47.490727 C 124.44905 47.466146 124.40671 47.44152 124.36315 47.417346 C 123.80867 47.110039 123.19787 46.832032 122.509 46.595691 L 121.10908 45.227816 C 120.82778 44.484511 120.42055 43.816095 119.95463 43.261011 C 119.94068 43.244392 119.9289 43.228838 119.91484 43.212435 C 119.45081 42.670608 118.93035 42.250004 118.4064 41.993388 C 118.38163 41.981268 118.35831 41.971682 118.33354 41.960315 C 118.08743 41.847096 117.84262 41.766854 117.60335 41.733456 C 117.58737 41.73124 117.57226 41.732191 117.55633 41.730355 C 116.78484 41.640595 116.08511 41.994165 115.66135 42.972656 C 115.66118 42.973061 115.66101 42.973286 115.66084 42.97369 C 115.5594 43.208121 115.4725 43.474498 115.40555 43.782426 L 114.23095 43.786043 C 114.18178 43.698911 114.13236 43.616688 114.08315 43.530245 C 114.08262 43.529316 114.08213 43.528591 114.0816 43.527661 C 113.02075 41.664325 111.9494 39.960867 110.87922 38.407044 C 109.80853 36.852491 108.73894 35.446588 107.68199 34.179911 C 105.56791 31.646286 103.50513 29.66537 101.58469 28.151856 C 100.62457 27.39517 99.700176 26.754284 98.823103 26.219674 C 97.947675 25.686067 97.119056 25.256795 96.349353 24.922595 C 96.345667 24.920996 96.342186 24.920061 96.338501 24.918461 C 95.572511 24.586522 94.864255 24.347228 94.225968 24.191374 C 94.220934 24.190142 94.216524 24.189495 94.211499 24.188273 C 93.575619 24.03403 93.00919 23.961383 92.52323 23.960897 C 92.52175 23.960897 92.519541 23.96038 92.518062 23.96038 C 92.5163 23.96038 92.514656 23.960897 92.512894 23.960897 C 92.025219 23.961373 91.550124 24.029596 91.088692 24.153133 C 91.083355 24.15456 91.078006 24.15583 91.072672 24.157267 C 90.610307 24.282426 90.161359 24.462992 89.728051 24.687984 L 89.727535 24.687984 C 89.291493 24.914426 88.871073 25.185446 88.467146 25.488969 C 88.066586 25.789968 87.682652 26.123305 87.316312 26.476506 C 87.313211 26.479496 87.310109 26.482297 87.307011 26.485291 C 87.305768 26.48649 87.304636 26.487707 87.303393 26.488908 C 86.566629 27.201014 85.901899 27.994455 85.320052 28.773523 C 84.740104 29.550048 84.24325 30.311807 83.838488 30.964604 C 83.836668 30.967542 83.833587 30.971489 83.83177 30.974422 C 82.097805 30.162183 80.623812 29.172214 79.317317 28.06659 C 78.66407 27.513777 78.052627 26.932083 77.471435 26.329228 C 76.890333 25.726466 76.339206 25.102519 75.806937 24.465259 L 75.806937 24.464742 C 74.742247 23.190016 73.752111 21.862048 72.743558 20.542501 C 71.736768 19.225267 70.711499 17.917333 69.575793 16.679171 C 69.573804 16.677009 69.572098 16.674615 69.570109 16.672453 L 69.570109 16.671936 C 69.569403 16.671169 69.567717 16.670637 69.567008 16.669869 C 69.429706 16.521289 69.227314 16.386268 68.971696 16.263692 C 68.965093 16.260526 68.958216 16.257536 68.951542 16.254391 C 68.69276 16.132269 68.381724 16.021908 68.026017 15.923661 C 67.304505 15.72436 66.404926 15.572247 65.416874 15.45754 C 65.416137 15.457454 65.415545 15.45711 65.414807 15.457023 C 65.414483 15.456991 65.414097 15.457067 65.413773 15.457023 C 63.439926 15.228075 61.112341 15.149884 59.135087 15.149549 C 59.130859 15.149549 59.125877 15.149032 59.121651 15.149032 z M 59.121651 17.449667 C 61.041237 17.449667 63.316692 17.530151 65.148673 17.742672 C 66.064663 17.848938 66.875157 17.992074 67.414685 18.141097 C 67.803245 18.248433 68.030115 18.419826 68.011547 18.381393 C 72.136082 22.944825 75.166309 29.363104 82.658199 32.960348 C 84.554627 37.766758 82.976518 45.89113 81.99364 49.824951 C 83.327895 45.802566 85.351329 38.47746 84.134594 33.216663 A 2.30023 2.30023 0 0 0 85.787723 32.186235 C 85.921535 31.970297 86.07761 31.732373 86.231107 31.497905 C 88.187293 31.448596 90.03916 31.906762 91.7517 32.926241 C 92.715673 33.500045 93.673005 34.152544 94.382548 35.02017 C 97.460532 38.78394 99.870955 43.284762 101.02039 48.009042 C 101.47332 49.870652 101.79996 51.793766 102.02239 53.743058 L 102.90037 53.973535 C 102.63493 51.7844 102.2337 49.576382 101.67254 47.363086 C 100.45044 42.542936 97.842655 38.007854 94.631628 34.210917 C 93.952359 33.407702 93.042044 32.820148 92.13514 32.280286 C 90.449838 31.277098 88.638032 30.796429 86.736503 30.757898 C 87.067675 30.285158 87.423794 29.809823 87.807755 29.345581 C 88.89507 29.470978 89.994723 29.740194 91.111429 30.274723 C 92.561764 30.969035 93.937236 32.042159 95.068811 33.240951 C 96.930123 35.21283 101.35183 41.686694 102.50092 46.163159 C 103.23163 49.009762 103.75299 51.732062 104.08945 54.353874 L 104.65789 54.571432 C 104.33461 51.546435 103.7558 48.526544 102.85231 45.719776 C 101.32728 40.982126 98.622726 36.545141 95.300838 32.838908 C 94.193255 31.603175 92.769447 30.567984 91.30625 29.867513 C 90.25711 29.365179 89.217736 29.048087 88.190678 28.891862 C 88.423158 28.629949 88.660429 28.375005 88.904846 28.138937 C 90.146775 26.939419 91.404926 26.259981 92.518062 26.259981 C 93.570965 26.259981 96.627335 27.157287 100.22302 30.006523 C 103.81871 32.855759 108.08536 37.576083 112.22694 44.916207 A 2.30023 2.30023 0 0 0 112.42486 45.155469 C 113.7041 48.423701 114.06909 50.973692 114.44024 52.864559 C 114.57935 51.165287 114.14236 48.362697 113.57517 45.96989 A 2.30023 2.30023 0 0 0 114.2387 46.086161 L 115.41434 46.082544 A 2.30023 2.30023 0 0 0 117.63539 44.285755 C 118.02486 44.589706 118.63269 45.184073 118.95728 46.04172 A 2.30023 2.30023 0 0 0 119.50246 46.87371 L 120.64089 47.986304 C 122.23803 52.456582 121.55545 58.240957 120.3174 61.727067 C 122.04044 59.379947 123.34508 53.869749 121.97828 48.853951 C 123.64189 49.462241 124.60321 50.24622 125.22718 51.136499 C 125.86482 52.790009 126.16985 54.53064 126.18577 56.227661 C 125.84935 58.945561 124.58131 61.993944 123.43814 64.012199 A 2.30023 2.30023 0 0 0 123.18802 64.778561 C 123.17797 64.789991 123.16878 64.802448 123.15805 64.813184 C 122.96476 66.065962 122.56836 67.390974 122.0806 68.740593 C 121.4412 70.176791 120.52644 71.849001 119.34433 73.594043 C 117.51084 76.300653 115.12567 79.239006 112.48222 82.104118 C 114.4896 77.343465 115.6899 71.351162 114.7441 66.618242 C 114.77259 68.871853 113.99916 77.516251 109.82553 84.869841 C 109.77859 84.916832 109.73303 84.965059 109.68601 85.011951 C 106.26353 88.423948 102.5947 91.56598 99.243233 93.922001 C 99.818583 90.818161 99.66736 87.027615 98.693912 82.529415 C 99.650573 81.065559 100.48595 79.539362 101.22554 77.96742 L 100.71549 78.013412 C 100.27528 78.919526 99.810166 79.816933 99.294393 80.697486 C 98.956313 81.269017 98.604678 81.83676 98.234509 82.398674 L 98.208154 82.438981 L 98.218489 82.486524 C 98.782989 85.060681 99.06761 87.280246 99.14143 89.200842 C 99.14143 89.211651 99.142464 89.222074 99.142464 89.232882 C 99.147328 89.363877 99.150925 89.493304 99.153833 89.621489 C 99.154913 89.643429 99.155059 89.665177 99.155383 89.687118 C 99.157869 89.805896 99.159277 89.923556 99.160034 90.040068 L 99.160034 90.117582 C 99.160034 90.23312 99.160049 90.347556 99.159 90.460714 C 99.159 90.483087 99.159048 90.505005 99.157967 90.527376 C 99.156454 90.646591 99.154083 90.764632 99.150732 90.88136 C 99.150732 90.894978 99.149699 90.909083 99.149699 90.922701 C 99.111492 92.202317 98.94415 93.282632 98.728019 94.279602 C 98.589047 94.374828 98.446619 94.478244 98.308923 94.570541 C 97.920488 94.830882 97.53769 95.070525 97.158606 95.303312 C 98.210261 91.909716 98.219979 87.643169 97.053702 82.221424 C 97.91722 80.892311 98.683768 79.492039 99.37139 78.041834 L 98.468603 77.995842 C 97.816021 79.385371 97.087757 80.716605 96.267704 81.961491 L 96.201041 82.062777 L 96.22688 82.181633 C 97.688132 88.845495 97.298409 92.991911 96.131278 95.905343 C 93.992866 97.113225 92.125003 97.846359 90.925394 98.077303 C 92.521981 94.078287 92.689476 89.247428 91.948071 85.387639 C 92.363872 89.277037 91.795129 94.420889 89.651054 98.220964 A 2.30023 2.30023 0 0 0 88.324519 98.939783 C 86.251658 101.27258 83.927487 101.63484 82.773954 100.88695 A 2.30023 2.30023 0 0 0 79.890926 101.19598 C 76.252616 104.85219 75.467744 105.54545 70.745748 107.78679 C 70.887367 106.33382 71.005821 104.87585 71.088879 103.43512 C 70.830969 104.99382 70.503363 106.54125 70.131832 108.07669 C 69.871638 108.19892 69.655355 108.30372 69.371671 108.43584 A 2.30023 2.30023 0 0 0 68.414624 109.26628 C 66.500938 112.2071 64.652478 115.25614 62.934338 117.43788 C 61.216199 119.61961 59.693031 120.56266 59.121651 120.56275 C 58.550271 120.56266 57.027103 119.61961 55.308964 117.43788 C 53.590824 115.25614 51.742365 112.2071 49.828678 109.26628 A 2.30023 2.30023 0 0 0 48.873698 108.43584 C 48.588979 108.30324 48.371507 108.1983 48.110437 108.07566 C 47.739027 106.54057 47.411755 104.99344 47.153906 103.43512 C 47.236945 104.87551 47.355476 106.33313 47.497037 107.78575 C 42.776602 105.54525 41.989731 104.85166 38.351859 101.19598 A 2.30023 2.30023 0 0 0 35.469348 100.88695 C 34.315957 101.63478 31.991131 101.27258 29.918265 98.939783 A 2.30023 2.30023 0 0 0 28.591731 98.220964 C 26.447655 94.420889 25.878913 89.277037 26.294714 85.387639 C 25.553316 89.247393 25.720772 94.078308 27.317391 98.077303 C 26.117782 97.84632 24.249566 97.113433 22.111507 95.90586 C 20.944223 92.992413 20.554579 88.845837 22.015905 82.181633 L 22.04226 82.062777 L 21.975598 81.961491 C 15.953696 72.819924 14.466566 59.3359 17.2224 48.009042 C 18.37182 43.284762 20.78225 38.78394 23.860237 35.02017 C 24.569781 34.152544 25.527113 33.500045 26.491084 32.926241 C 28.203956 31.906565 30.05647 31.448379 32.013228 31.497905 C 32.166864 31.732424 32.323806 31.970253 32.457645 32.186235 A 2.30023 2.30023 0 0 0 34.109224 33.216146 C 32.892182 38.476986 34.915353 45.802407 36.249662 49.824951 C 35.2668 45.891193 33.687874 37.766787 35.584069 32.960348 C 43.076961 29.363042 46.107266 22.944503 50.232271 18.380876 C 50.210101 18.423071 50.439038 18.249287 50.830684 18.141097 C 51.37019 17.992074 52.178129 17.848938 53.094112 17.742672 C 54.926077 17.530151 57.202066 17.449667 59.121651 17.449667 z M 59.121134 21.536239 C 52.53144 21.602396 50.696889 24.088308 48.279935 29.72902 C 46.9219 32.315501 44.874588 34.297461 42.473571 35.941044 C 37.302342 40.80295 42.783167 49.588682 46.623706 53.636088 C 46.83695 53.868248 47.058205 54.092434 47.28258 54.313566 L 47.28258 73.818319 C 47.28204 76.357569 45.307814 77.998233 42.252913 77.997909 L 41.906164 77.997909 L 41.906681 80.307328 C 41.990765 83.001243 43.314917 85.38122 45.636169 87.033016 C 43.411866 87.587906 41.221391 88.273094 39.089282 89.108342 C 39.12657 89.191673 40.042057 91.620059 40.08302 91.751591 C 40.591646 93.139783 41.303234 95.083966 41.794026 96.459831 C 41.892381 96.705825 42.224991 97.711339 42.334045 97.940361 C 42.80895 99.029815 43.727914 99.877576 44.714262 100.49008 C 46.911323 101.83427 49.529763 102.34087 52.07712 102.33958 C 52.077228 102.33958 52.12352 102.25855 52.123628 102.25844 C 52.876846 101.12154 53.960797 100.16178 55.173571 99.531995 C 56.390252 98.892754 57.756938 98.604614 59.121651 98.631791 C 60.486362 98.604614 61.852533 98.892754 63.069214 99.531995 C 64.281988 100.16178 65.365939 101.12154 66.119157 102.25844 C 66.119265 102.25855 66.165557 102.33958 66.165665 102.33958 C 68.713023 102.34087 71.331461 101.83427 73.528523 100.49008 C 74.514871 99.877576 75.433836 99.029815 75.90874 97.940361 C 76.017794 97.711339 76.350404 96.705825 76.448759 96.459831 C 76.939552 95.083966 77.651138 93.139783 78.159765 91.751591 C 78.200728 91.620059 79.116215 89.191673 79.153503 89.108342 C 77.021394 88.273094 74.830919 87.587906 72.606616 87.033016 C 74.927868 85.38122 76.25202 83.001243 76.336104 80.307328 L 76.336621 77.997909 L 75.989872 77.997909 C 72.934969 77.998233 70.960745 76.357569 70.960205 73.818319 L 70.960205 54.313566 C 71.18458 54.092434 71.405834 53.868248 71.619079 53.636088 C 75.459619 49.588682 80.940443 40.80295 75.769214 35.941044 C 73.368197 34.297461 71.320884 32.315501 69.96285 29.72902 C 67.545895 24.088308 65.711345 21.602396 59.121651 21.536239 L 59.121134 21.536239 z M 59.121651 23.420878 C 65.017088 23.378672 66.34398 25.704861 68.664221 30.566695 C 70.096289 33.128429 72.332981 35.242179 74.774959 36.789571 C 79.468584 40.996722 74.170229 49.278943 70.798974 52.86766 C 67.722848 56.242408 63.477199 58.518235 59.121651 58.61873 C 54.766102 58.518235 50.519936 56.242408 47.443811 52.86766 C 44.072555 49.278943 38.774202 40.996722 43.467826 36.789571 C 45.909805 35.242179 48.147011 33.128429 49.579081 30.566695 C 51.899321 25.704861 53.226212 23.378672 59.121651 23.420878 z M 25.72524 26.259981 C 26.838377 26.259981 28.096529 26.939419 29.338456 28.138937 C 29.582908 28.375039 29.819983 28.629909 30.052624 28.891862 C 29.025398 29.048054 27.98585 29.365095 26.936535 29.867513 C 25.473337 30.567984 24.050044 31.603175 22.942464 32.838908 C 19.620578 36.545141 16.915508 40.982126 15.39047 45.719776 C 13.359403 52.029441 12.890129 59.413876 13.552339 65.520117 C 14.228061 71.752376 16.245383 77.474481 19.548873 82.529415 C 18.575421 87.027664 18.42469 90.818143 19.000069 93.922001 C 15.648525 91.565935 11.979941 88.424148 8.5572954 85.011951 C 8.5099232 84.964723 8.4640136 84.916136 8.4167355 84.868807 C 4.2436175 77.515437 3.4701915 68.871749 3.4986894 66.618242 C 2.5529893 71.350561 3.7526143 77.342198 5.7595333 82.102568 C 3.1172641 79.237968 0.73417296 76.300143 -1.0989628 73.594043 C -2.2861548 71.841492 -3.2046979 70.161753 -3.8445316 68.721472 C -4.3287285 67.378563 -4.7228861 66.06005 -4.9152673 64.813184 C -4.9254904 64.80296 -4.9342104 64.79111 -4.9436893 64.780111 A 2.30023 2.30023 0 0 0 -5.1948368 64.012199 C -6.3384428 61.993166 -7.6071592 58.943253 -7.9429895 56.224561 C -7.9267489 54.529017 -7.6217508 52.790112 -6.9849084 51.138049 C -6.360925 50.247083 -5.3997391 49.462089 -3.7349776 48.853434 C -5.1020484 53.869361 -3.7976978 59.379871 -2.0746138 61.727067 C -3.312519 58.241361 -3.9950422 52.45792 -2.398625 47.987854 L -1.2570926 46.87371 A 2.30023 2.30023 0 0 0 -0.7144901 46.04172 C -0.3902982 45.185108 0.21820205 44.591879 0.6079098 44.287305 A 2.30023 2.30023 0 0 0 2.8305132 46.082544 L 4.0046017 46.086161 A 2.30023 2.30023 0 0 0 4.6676103 45.96989 C 4.1004283 48.362697 3.663435 51.165287 3.8025468 52.864559 C 4.1736852 50.973792 4.5387028 48.423961 5.8179277 45.155986 A 2.30023 2.30023 0 0 0 6.0163652 44.916207 C 10.157978 37.576081 14.424075 32.855762 18.019767 30.006523 C 21.615458 27.157284 24.672403 26.259981 25.72524 26.259981 z M 59.121651 27.225814 C 55.351305 27.242352 53.642171 28.463108 52.575797 30.02461 C 52.070951 30.73146 51.717859 31.489454 51.39189 32.192953 C 50.985073 33.069702 50.556757 33.847736 50.108764 34.549398 C 49.104477 36.021887 47.856478 37.264657 46.413383 38.196204 C 44.993739 39.110998 44.274495 40.52572 44.274495 42.395947 C 44.274495 45.729375 46.819574 50.423392 50.332523 53.562708 C 53.196224 55.737745 56.133331 56.815092 59.121651 56.800236 C 62.10997 56.815092 65.046558 55.737745 67.910262 53.562708 C 71.42321 50.423392 73.96829 45.729375 73.96829 42.395947 C 73.96829 40.52572 73.249046 39.110998 71.829402 38.196204 C 70.386308 37.264657 69.138308 36.021887 68.134021 34.549398 C 67.686028 33.847736 67.257711 33.069702 66.850895 32.192953 C 66.524926 31.489454 66.172352 30.73146 65.667505 30.02461 C 64.601131 28.463108 62.891996 27.242352 59.121651 27.225814 z M 57.621484 28.611259 L 57.621484 31.010079 C 57.169047 31.19854 56.745201 31.453252 56.387968 31.810547 C 55.672581 32.525934 55.276934 33.47546 55.27434 34.484286 C 55.270118 36.058306 56.251184 37.368931 57.621484 37.931104 L 57.621484 55.535197 C 55.402491 55.249523 53.217912 54.339833 51.083382 52.720899 C 47.860954 49.843571 45.527595 45.536702 45.535917 42.48018 C 45.54078 40.546506 46.239378 39.69539 47.289815 39.018376 C 48.393968 38.303422 49.689587 37.19514 50.594006 35.843376 C 51.11355 35.11837 51.576301 34.337872 51.965499 33.50295 L 52.099857 33.214596 C 52.517589 32.310067 52.928598 31.425287 53.54163 30.665914 C 54.411282 29.633462 55.425878 28.890293 57.621484 28.611259 z M 60.621301 28.611259 C 62.816906 28.890293 63.831504 29.633462 64.701155 30.665914 C 65.314188 31.425287 65.725715 32.310067 66.143444 33.214596 L 66.277286 33.50295 C 66.666485 34.337872 67.129238 35.11837 67.648779 35.843376 C 68.553202 37.19514 69.849333 38.303422 70.953487 39.018376 C 72.003923 39.69539 72.702521 40.546506 72.707385 42.48018 C 72.715707 45.536702 70.382348 49.843571 67.15992 52.720899 C 65.02539 54.339833 62.840399 55.249523 60.621301 55.535197 L 60.621301 37.931104 C 61.991601 37.368931 62.972667 36.058306 62.968444 34.484286 C 62.965851 33.47546 62.570205 32.525934 61.854817 31.810547 C 61.497585 31.453252 61.073737 31.19854 60.621301 31.010079 L 60.621301 28.611259 z M 30.435547 29.345581 C 30.819852 29.809874 31.176308 30.285105 31.507832 30.757898 C 29.60525 30.796032 27.792632 31.276669 26.106612 32.280286 C 25.199708 32.820148 24.289909 33.407702 23.61064 34.210917 C 20.399617 38.007854 17.791826 42.542936 16.569726 47.363086 C 13.326215 60.155987 15.077354 72.815152 21.188566 82.221424 C 20.022273 87.643169 20.032006 91.909716 21.083663 95.303312 C 20.704582 95.070532 20.322272 94.830872 19.933862 94.570541 C 19.795999 94.478137 19.653388 94.374424 19.514249 94.279085 C 19.298182 93.282241 19.130775 92.202098 19.09257 90.922701 C 19.092137 90.909083 19.091365 90.894978 19.091019 90.88136 C 19.087669 90.764632 19.085815 90.646591 19.084301 90.527376 C 19.083977 90.505005 19.083484 90.483087 19.083268 90.460714 C 19.082187 90.347556 19.08178 90.23312 19.082234 90.117582 C 19.082342 90.091967 19.08252 90.065791 19.082751 90.040068 C 19.083508 89.923556 19.084916 89.805896 19.087402 89.687118 C 19.087834 89.665177 19.08839 89.643429 19.088952 89.621489 C 19.09187 89.493304 19.095454 89.363877 19.100321 89.232882 C 19.100753 89.222074 19.100901 89.211651 19.101355 89.200842 C 19.175174 87.280246 19.45979 85.060681 20.024296 82.486524 L 20.035148 82.438981 L 20.008276 82.398674 C 19.638099 81.83676 19.286468 81.269017 18.948392 80.697486 C 13.323112 71.093754 12.181956 60.031445 15.74187 46.163159 C 16.890955 41.686694 21.312655 35.21283 23.173974 33.240951 C 24.305549 32.042159 25.681022 30.969035 27.131355 30.274723 C 28.248137 29.740159 29.348023 29.470959 30.435547 29.345581 z M 59.061189 31.430725 C 59.081725 31.430725 59.10119 31.436527 59.121651 31.436926 C 59.142112 31.436494 59.16106 31.430725 59.181596 31.430725 C 59.993284 31.432995 60.758728 31.752422 61.335986 32.329895 C 61.913459 32.907154 62.232477 33.672085 62.234639 34.483769 C 62.236693 35.293187 61.923236 36.054565 61.351489 36.627824 C 60.779849 37.201085 60.01881 37.517067 59.209501 37.517175 L 59.201233 37.517175 C 59.174142 37.5171 59.148631 37.509664 59.121651 37.508907 C 59.09467 37.509664 59.068643 37.5171 59.041552 37.517175 L 59.033284 37.517175 C 58.223975 37.517067 57.462938 37.201085 56.891296 36.627824 C 56.319552 36.054565 56.006092 35.293187 56.008146 34.483769 C 56.010307 33.672085 56.329843 32.907154 56.907316 32.329895 C 57.484575 31.752422 58.249502 31.432995 59.061189 31.430725 z M 37.979272 52.597392 C 39.93521 59.272353 41.876434 66.408363 40.004471 73.311373 C 38.921287 77.397151 36.951938 81.353195 36.843424 85.659457 C 37.241381 82.834225 38.30025 80.205271 39.326477 77.560209 C 43.132754 69.289762 41.518593 60.644113 37.979272 52.597392 z M 80.263513 52.597392 C 76.724193 60.644113 75.110547 69.289762 78.916825 77.560209 C 79.943051 80.205271 81.001405 82.834225 81.399361 85.659457 C 81.290847 81.353195 79.321499 77.397151 78.238313 73.311373 C 76.366352 66.408363 78.307576 59.272353 80.263513 52.597392 z M 47.750769 54.761084 C 48.0468 55.036584 48.576041 55.562586 48.576041 55.562586 L 48.576041 74.483395 C 48.57669 77.153638 46.404613 79.325608 43.734476 79.324959 L 43.437854 79.324959 L 43.447155 79.622099 C 43.548536 82.852525 45.111677 85.153494 48.097518 86.480078 C 47.476593 86.605232 46.856327 86.732053 46.240267 86.878504 C 43.83439 85.306035 42.458656 82.995685 42.374353 80.296476 L 42.373836 78.465064 C 45.642631 78.421939 47.749364 76.607558 47.750769 73.818319 L 47.750769 54.761084 z M 70.492533 54.761084 L 70.492533 73.818319 C 70.493938 76.607558 72.600154 78.421939 75.868949 78.465064 L 75.868432 80.296476 C 75.784129 82.995685 74.408395 85.306035 72.002518 86.878504 C 71.386457 86.732053 70.766192 86.605232 70.145267 86.480078 C 73.131108 85.153494 74.694249 82.852525 74.79563 79.622099 L 74.804931 79.324959 L 74.508309 79.324959 C 71.838174 79.325608 69.666095 77.153638 69.666744 74.483395 L 69.666744 55.562586 C 69.666744 55.562586 70.196501 55.036584 70.492533 54.761084 z M 49.152234 55.943441 C 52.069364 58.196731 55.565853 59.59479 59.121651 59.670345 C 62.677447 59.59479 66.173937 58.196731 69.091068 55.943441 L 69.091068 74.483395 C 69.091717 77.370016 71.359408 79.736191 74.207552 79.892367 C 74.016787 83.041407 72.465096 85.014193 69.22181 86.156067 C 65.917023 85.557301 62.690202 85.261092 59.335591 85.262065 C 59.265325 85.261849 59.192154 85.267124 59.121651 85.267232 C 59.051148 85.267124 58.97746 85.261849 58.907194 85.262065 C 55.552583 85.261092 52.325762 85.557301 49.020975 86.156067 C 45.777689 85.014193 44.225997 83.041407 44.035233 79.892367 C 46.883376 79.736191 49.151585 77.370016 49.152234 74.483395 L 49.152234 55.943441 z M 58.14755 85.838774 C 58.471896 85.838763 58.79703 85.853513 59.121651 85.858928 C 59.446272 85.853513 59.770889 85.838763 60.095235 85.838774 C 67.698068 85.838774 75.246309 88.219636 77.378418 88.949178 L 78.453287 89.316598 L 78.064164 90.383199 C 77.924093 90.766994 77.816739 91.091189 77.745837 91.305624 L 77.719999 91.383138 C 77.695356 91.457282 77.675809 91.516723 77.660571 91.560388 L 77.624397 91.658574 C 77.152302 92.947654 76.438481 94.895969 75.943363 96.283614 L 75.935095 96.305318 C 75.890785 96.419345 75.820826 96.619702 75.737174 96.858773 C 75.50426 97.524876 75.455453 97.647665 75.421948 97.72332 L 75.410579 97.748641 C 74.933943 98.841662 73.965229 99.610768 73.231901 100.06633 C 71.54757 101.09677 69.39712 101.70268 67.012642 101.81919 L 66.444201 101.8471 L 66.089184 101.40268 C 65.889883 101.15302 65.673298 100.91105 65.446329 100.68386 C 64.802709 100.04035 64.074134 99.505033 63.27747 99.091195 C 62.078532 98.46119 60.688741 98.128463 59.258077 98.128463 C 59.212416 98.128463 59.167291 98.136083 59.121651 98.136731 C 59.076011 98.136083 59.030885 98.128463 58.985225 98.128463 C 57.554561 98.128463 56.164253 98.46119 54.965315 99.091195 C 54.168651 99.505033 53.440077 100.04035 52.796456 100.68386 C 52.569488 100.91105 52.35342 101.15302 52.154117 101.40268 L 51.798584 101.8471 L 51.230143 101.81919 C 48.845664 101.70268 46.695215 101.09677 45.010884 100.06633 C 44.277555 99.610768 43.309359 98.841662 42.832723 97.748641 L 42.821354 97.72332 C 42.787848 97.647665 42.738527 97.524876 42.505611 96.858773 C 42.421961 96.619702 42.352 96.419345 42.30769 96.305318 L 42.299422 96.283614 C 41.804304 94.895969 41.090485 92.947654 40.618387 91.658574 L 40.582214 91.560388 C 40.566976 91.516723 40.547429 91.457282 40.522786 91.383138 L 40.496948 91.305624 C 40.426046 91.091189 40.318692 90.766994 40.178621 90.383199 L 39.789498 89.316598 L 40.864367 88.949178 C 42.996476 88.219636 50.544717 85.838774 58.14755 85.838774 z M 58.14755 86.440287 C 51.565972 86.440287 45.133968 88.197164 41.885494 89.244251 L 40.585831 89.66283 L 41.095878 91.200204 C 41.121061 91.275861 41.141052 91.335268 41.157373 91.380554 L 41.230236 91.578992 C 41.68969 92.833703 42.383956 94.729908 42.863728 96.074325 L 42.873547 96.100163 C 42.920995 96.222834 42.991763 96.426855 43.06785 96.644316 L 43.073535 96.660335 C 43.152759 96.886763 43.209221 97.046804 43.249751 97.15953 L 43.249751 97.210173 L 43.38256 97.504728 C 43.798562 98.458651 44.667657 99.144289 45.326627 99.553699 C 46.812738 100.46287 48.707961 101.02852 50.80743 101.18977 L 51.485424 101.24197 L 51.931909 100.72934 C 52.072739 100.56765 52.220602 100.40923 52.371158 100.25857 C 53.057794 99.571705 53.836186 99.000246 54.686779 98.558411 C 55.9697 97.884312 57.456015 97.527466 58.984708 97.527466 C 59.030482 97.527466 59.075898 97.535624 59.121651 97.536251 C 59.167404 97.535603 59.212303 97.527466 59.258077 97.527466 C 60.786771 97.527466 62.273085 97.884312 63.556006 98.558411 C 64.406599 99.000246 65.184991 99.571705 65.871626 100.25857 C 66.022184 100.40923 66.170046 100.56765 66.310876 100.72934 L 66.75736 101.24197 L 67.435355 101.18977 C 69.534825 101.02852 71.430047 100.46287 72.916158 99.553699 C 73.575126 99.144289 74.44474 98.458651 74.860742 97.504728 L 74.993033 97.210173 L 74.993033 97.15953 C 75.033564 97.046804 75.090026 96.886763 75.16925 96.660335 L 75.174935 96.644316 C 75.251023 96.426855 75.322307 96.222834 75.369755 96.100163 L 75.379573 96.074325 C 75.859346 94.729908 76.553097 92.833703 77.012548 91.578992 L 77.085929 91.380554 C 77.102249 91.335268 77.121724 91.275861 77.146907 91.200204 L 77.656954 89.66283 L 76.357291 89.244251 C 73.108817 88.197164 66.676813 86.440287 60.095235 86.440287 C 59.771049 86.440282 59.446173 86.454446 59.121651 86.459924 C 58.797129 86.454446 58.471736 86.440282 58.14755 86.440287 z " />
  </g>
  <g
     inkscape:label="Dwgs.User"
     inkscape:groupmode="layer"
     id="g10460"
     transform="translate(10.38005,-14.499459)" />
  <g
     inkscape:label="Drill"
     inkscape:groupmode="layer"
     id="g10462"
     transform="translate(10.3801, -14.4995)" />
</svg>
