<?xml version="1.0" encoding="UTF-8" standalone="no"?>
<!-- Created with Inkscape (http://www.inkscape.org/) -->

<svg
   width="139.00299mm"
   height="109.01299mm"
   viewBox="0 0 139.00299 109.01299"
   version="1.1"
   id="svg10315"
   sodipodi:docname="ship-silk.svg"
   inkscape:version="1.2.2 (732a01da63, 2022-12-09)"
   xmlns:inkscape="http://www.inkscape.org/namespaces/inkscape"
   xmlns:sodipodi="http://sodipodi.sourceforge.net/DTD/sodipodi-0.dtd"
   xmlns="http://www.w3.org/2000/svg"
   xmlns:svg="http://www.w3.org/2000/svg">
  <sodipodi:namedview
     id="namedview10317"
     pagecolor="#ffffff"
     bordercolor="#000000"
     borderopacity="0.25"
     inkscape:showpageshadow="2"
     inkscape:pageopacity="0.0"
     inkscape:pagecheckerboard="0"
     inkscape:deskcolor="#d1d1d1"
     inkscape:document-units="mm"
     showgrid="false"
     inkscape:zoom="1.6819304"
     inkscape:cx="242.28113"
     inkscape:cy="229.4982"
     inkscape:window-width="1858"
     inkscape:window-height="1177"
     inkscape:window-x="54"
     inkscape:window-y="-8"
     inkscape:window-maximized="1"
     inkscape:current-layer="g10458" />
  <defs
     id="defs10312">
    <clipPath
       clipPathUnits="userSpaceOnUse"
       id="clipPath4257-8-0-5">
      <g
         id="g4263-8-6-4"
         style="stroke-width:1">
        <g
           id="g4261-2-4-2"
           style="stroke-width:1">
          <path
             d="M 0,1296 H 1315.156 V 0 H 0 Z"
             id="path4259-7-0-6"
             style="stroke-width:1" />
        </g>
      </g>
    </clipPath>
    <clipPath
       clipPathUnits="userSpaceOnUse"
       id="clipPath4257-8-0-5-3">
      <g
         id="g4263-8-6-4-6"
         style="stroke-width:1">
        <g
           id="g4261-2-4-2-2"
           style="stroke-width:1">
          <path
             d="M 0,1296 H 1315.156 V 0 H 0 Z"
             id="path4259-7-0-6-8"
             style="stroke-width:1" />
        </g>
      </g>
    </clipPath>
  </defs>
  <g
     inkscape:label="[fixed] BG"
     inkscape:groupmode="layer"
     sodipodi:insensitive="true"
     id="g10444"
     transform="translate(10.38005,-14.499459)" />
  <g
     inkscape:label="Edge.Cuts"
     inkscape:groupmode="layer"
     id="g10446"
     transform="translate(10.3801, -14.4995)" />
  <g
     inkscape:label="B.Cu"
     inkscape:groupmode="layer"
     id="g10448"
     transform="translate(10.38005,-14.499459)" />
  <g
     inkscape:label="B.Mask"
     inkscape:groupmode="layer"
     id="g10450"
     transform="translate(10.38005,-14.499459)" />
  <g
     inkscape:label="B.SilkS"
     inkscape:groupmode="layer"
     id="g10452"
     transform="translate(10.38005,-14.499459)" />
  <g
     inkscape:label="F.Cu"
     inkscape:groupmode="layer"
     id="g10454"
     transform="translate(10.38005,-14.499459)" />
  <g
     inkscape:label="F.Mask"
     inkscape:groupmode="layer"
     id="g10456"
     transform="translate(10.38005,-14.499459)" />
  <g
     inkscape:label="F.SilkS"
     inkscape:groupmode="layer"
     id="g10458"
     transform="translate(10.38005,-14.499459)">
    <path
       id="rect5260"
       style="fill:#000000;fill-opacity:1;stroke:none;stroke-width:3;stroke-linecap:butt;stroke-linejoin:round;stroke-dasharray:none;stroke-opacity:0.430025"
       d="M 59.121651 15.149032 C 59.117425 15.149032 59.112443 15.149549 59.108215 15.149549 C 57.1308 15.149884 54.80245 15.228031 52.828495 15.457023 C 51.83936 15.571774 50.939467 15.724175 50.217285 15.923661 C 49.860311 16.022264 49.547462 16.132795 49.288143 16.255424 C 49.283544 16.257607 49.278755 16.259959 49.27419 16.262142 C 49.016972 16.385139 48.814198 16.52063 48.676294 16.669869 C 48.675585 16.670637 48.673899 16.671169 48.673193 16.671936 L 48.673193 16.672453 C 48.671283 16.674528 48.669418 16.676568 48.667509 16.678654 C 47.523192 17.926166 46.490625 19.244616 45.476489 20.571957 C 44.476562 21.880686 43.494189 23.197399 42.438431 24.461642 C 42.437637 24.462593 42.437159 24.463791 42.436364 24.464742 C 42.435742 24.465488 42.43492 24.466063 42.434297 24.466809 C 41.906973 25.098082 41.360984 25.716255 40.785819 26.313725 C 40.780901 26.318833 40.776272 26.324123 40.77135 26.329228 C 40.768151 26.332547 40.764733 26.335728 40.761531 26.339046 C 40.186371 26.93506 39.581451 27.510229 38.935803 28.057288 C 38.929739 28.062426 38.923787 28.067658 38.917716 28.072791 C 37.613142 29.175776 36.142076 30.163786 34.411531 30.974422 C 34.409648 30.971384 34.406699 30.96713 34.404813 30.964087 C 34.003098 30.316217 33.508941 29.56098 32.934619 28.790576 C 32.9288 28.78277 32.924436 28.776165 32.918599 28.768355 C 32.33893 27.992631 31.677274 27.202895 30.944043 26.493559 C 30.935445 26.48524 30.926822 26.477566 30.918204 26.469271 C 30.556935 26.121489 30.178929 25.792773 29.784423 25.495687 C 29.781603 25.493562 29.778978 25.491091 29.776155 25.488969 L 29.775638 25.488969 C 29.773832 25.487612 29.771761 25.486714 29.769954 25.485352 C 29.367686 25.183469 28.949342 24.913421 28.51525 24.687984 C 28.081814 24.462883 27.633144 24.282469 27.17063 24.157267 C 27.165296 24.15583 27.159947 24.15456 27.15461 24.153133 C 26.693179 24.029596 26.218083 23.961373 25.730407 23.960897 C 25.728646 23.960897 25.727001 23.96038 25.72524 23.96038 C 25.723761 23.96038 25.721552 23.960897 25.720072 23.960897 C 25.233852 23.961383 24.666543 24.033857 24.030253 24.188273 C 24.025987 24.189311 24.022122 24.18982 24.01785 24.190857 C 23.378543 24.346884 22.669149 24.586765 21.9017 24.919495 C 21.899776 24.920327 21.897942 24.920719 21.896016 24.921562 C 21.125692 25.255869 20.296476 25.685571 19.420198 26.219674 C 15.034612 28.892749 9.4672969 34.208198 4.1601478 43.530762 C 4.1109435 43.617195 4.061512 43.699438 4.0123532 43.78656 L 2.8377479 43.782426 C 2.7707945 43.474447 2.6834004 43.208149 2.5819495 42.97369 C 2.1582172 41.994422 1.4582491 41.640514 0.68645798 41.730355 C 0.67053213 41.732191 0.65541771 41.73124 0.63943242 41.733456 C 0.40019135 41.766858 0.15532708 41.847109 -0.090755566 41.960315 C -0.1155279 41.971682 -0.13884484 41.981269 -0.16361934 41.993388 C -0.68720291 42.24983 -1.2067177 42.6701 -1.6705041 43.211402 C -1.6855392 43.228931 -1.698486 43.245301 -1.7133955 43.263078 C -2.1785288 43.81774 -2.5848485 44.485501 -2.86578 45.227816 L -4.2656945 46.595691 C -4.955072 46.832209 -5.5665921 47.110792 -6.1213952 47.41838 C -6.1631952 47.441585 -6.2038355 47.46508 -6.2449019 47.48866 C -6.7816815 47.796426 -7.2603431 48.13334 -7.6778894 48.499968 C -7.6835068 48.50491 -7.6898625 48.509486 -7.6954593 48.514437 C -8.1277643 48.896184 -8.4970558 49.307822 -8.812187 49.742786 C -8.8170086 49.749453 -8.8213442 49.756261 -8.8261397 49.76294 C -9.1400052 50.199242 -9.3987335 50.65898 -9.6069706 51.138049 C -10.179395 52.454963 -10.376519 53.912374 -10.316488 55.404456 L -10.316488 55.404973 C -10.245309 57.172435 -9.8173725 58.984019 -9.2312829 60.6646 C -9.2243 60.684658 -9.2166061 60.702975 -9.2095788 60.722994 C -8.9202567 61.545895 -8.5963048 62.337493 -8.2566654 63.073755 C -8.2512343 63.08554 -8.2460836 63.095587 -8.2406457 63.107345 C -7.8975864 63.8484 -7.5415305 64.537326 -7.1967818 65.14598 C -7.1967818 65.392878 -7.176191 65.651989 -7.1445886 65.918026 C -6.9778395 67.321753 -6.3839179 68.980593 -5.4521854 70.802999 C -4.7189353 72.237186 -3.7706049 73.774083 -2.6704431 75.361377 C -2.6286046 75.421745 -2.5861342 75.480693 -2.5438358 75.541211 C -1.4536395 77.101034 -0.21582445 78.70775 1.1339759 80.322315 C 1.1728821 80.368854 1.2096141 80.413743 1.2486976 80.460291 C 2.6283684 82.103423 4.1143154 83.749377 5.6675493 85.354566 C 5.6972804 85.385293 5.7271719 85.414303 5.7569495 85.444999 C 7.2905688 87.025891 8.8836811 88.560979 10.494128 90.013713 C 10.565841 90.078407 10.635779 90.140567 10.707552 90.204916 C 12.316634 91.647539 13.937397 93.003436 15.529996 94.225859 C 15.565677 94.253248 15.6008 94.281802 15.63645 94.309058 C 17.245799 95.539444 18.819992 96.628283 20.318851 97.540385 C 20.416458 97.599786 20.510793 97.653589 20.607723 97.711434 C 21.262258 98.102036 21.903659 98.462868 22.522851 98.778036 C 22.56551 98.799749 22.610088 98.825947 22.652559 98.847282 C 23.288716 99.166862 23.896051 99.429893 24.485522 99.660152 C 24.598982 99.704476 24.712979 99.750586 24.824519 99.79141 C 25.417608 100.00849 25.987205 100.18355 26.52054 100.29629 C 26.545346 100.30153 26.570289 100.3073 26.594954 100.31231 C 27.168717 100.42879 27.706912 100.48517 28.198991 100.46785 C 28.847019 101.19714 29.553801 101.80549 30.287235 102.28376 C 31.020014 102.76161 31.779089 103.10936 32.532059 103.31781 C 32.532734 103.318 32.533452 103.31814 32.534126 103.31833 C 32.535209 103.31863 32.536144 103.31855 32.537227 103.31884 C 33.289823 103.52657 34.036147 103.59547 34.743811 103.51521 L 34.744327 103.51521 C 34.744866 103.51515 34.745339 103.51476 34.745878 103.5147 C 35.099443 103.47445 35.443548 103.39731 35.773722 103.28164 C 36.102179 103.16656 36.416923 103.01272 36.714233 102.82068 C 36.716333 102.81933 36.718852 102.81894 36.720951 102.81758 C 36.729813 102.82649 36.734855 102.83093 36.743689 102.8398 C 37.734695 103.83543 38.54818 104.63785 39.301672 105.32131 C 40.061046 106.0101 40.761389 106.5801 41.526859 107.11344 C 41.527257 107.11372 41.527496 107.1142 41.527893 107.11448 C 41.528844 107.11514 41.530042 107.11588 41.530993 107.11654 C 42.296094 107.64932 43.126377 108.14565 44.145821 108.68544 L 44.146338 108.68544 C 45.157968 109.22108 46.359916 109.80107 47.864974 110.50238 C 47.879832 110.50931 47.886745 110.51352 47.901664 110.52047 C 48.843178 111.96733 49.778162 113.46189 50.710278 114.89023 C 52.108541 117.03287 53.500298 119.02573 54.898136 120.48317 C 55.361613 120.96641 55.825566 121.39062 56.290816 121.74201 C 56.294576 121.74485 56.298425 121.74796 56.302185 121.75079 C 56.768008 122.10142 57.234615 122.37884 57.703133 122.56883 C 57.703627 122.56903 57.704189 122.56915 57.704683 122.56935 C 57.70558 122.56971 57.70637 122.57002 57.707267 122.57038 C 58.175804 122.75987 58.646406 122.86184 59.11855 122.86235 C 59.11958 122.86235 59.120622 122.86287 59.121651 122.86287 C 59.12268 122.86287 59.123721 122.86235 59.124751 122.86235 C 59.596588 122.86184 60.066251 122.75963 60.534485 122.57038 C 60.537002 122.56936 60.539718 122.56882 60.542236 122.5678 C 61.009199 122.37812 61.474248 122.10159 61.938533 121.75234 C 61.945149 121.74737 61.951556 121.74133 61.95817 121.73632 C 62.421343 121.38583 62.883749 120.96428 63.345166 120.48317 C 63.811081 119.99737 64.276421 119.45209 64.741463 118.86156 C 65.671548 117.68052 66.600907 116.31857 67.533024 114.89023 C 68.46514 113.46189 69.400124 111.96733 70.341638 110.52047 C 70.356556 110.51352 70.36347 110.50931 70.378328 110.50238 C 71.88357 109.80098 73.085254 109.22114 74.096964 108.68544 C 75.114656 108.14658 75.943648 107.65086 76.707658 107.11913 C 76.711912 107.11617 76.716844 107.11279 76.721093 107.10983 C 77.481857 106.5794 78.178778 106.01202 78.933361 105.32802 C 78.942246 105.31997 78.951849 105.31079 78.96075 105.3027 C 79.708904 104.62305 80.51641 103.82707 81.499096 102.8398 C 81.508033 102.83083 81.513385 102.82659 81.522351 102.81758 C 81.52445 102.81894 81.526969 102.81933 81.529069 102.82068 C 81.826377 103.01272 82.140607 103.16656 82.469063 103.28164 L 82.46958 103.28164 C 82.800271 103.39745 83.144829 103.47505 83.498974 103.51521 C 84.206449 103.59545 84.952653 103.52696 85.705041 103.31936 C 85.707479 103.31869 85.709838 103.31797 85.712276 103.31729 C 86.464195 103.10894 87.222215 102.76178 87.953999 102.2848 C 87.955437 102.28386 87.956697 102.28263 87.958134 102.2817 C 88.690593 101.8037 89.397086 101.19623 90.044311 100.46785 C 90.536251 100.48517 91.073736 100.42872 91.647314 100.31231 C 91.672832 100.30713 91.698644 100.3012 91.724312 100.29577 C 92.256554 100.18314 92.824986 100.00843 93.416715 99.791927 C 93.529426 99.750692 93.644659 99.704444 93.75933 99.659636 C 94.348279 99.429509 94.955204 99.166552 95.590743 98.847282 C 95.633665 98.82572 95.678887 98.799467 95.722001 98.777519 C 96.338086 98.463886 96.97571 98.104919 97.626794 97.716602 C 97.727721 97.65641 97.825889 97.600198 97.927551 97.538318 C 99.425326 96.626658 100.99828 95.538454 102.60634 94.309058 C 102.64207 94.281738 102.67702 94.252795 102.71279 94.225342 C 104.30445 93.003626 105.92502 91.649176 107.53317 90.207499 C 107.6072 90.141118 107.67881 90.076329 107.75279 90.009579 C 109.3618 88.557962 110.95355 87.024511 112.48584 85.444999 C 112.51561 85.414302 112.5455 85.385294 112.57524 85.354566 C 114.13027 83.747516 115.61824 82.099633 116.99926 80.454606 C 117.03491 80.412132 117.06813 80.370984 117.10364 80.328516 C 118.45551 78.711803 119.69498 77.103095 120.78662 75.541211 C 120.82892 75.480693 120.87139 75.421745 120.91323 75.361377 C 122.01339 73.774083 122.96172 72.237186 123.69497 70.802999 C 124.6267 68.980593 125.22063 67.321753 125.38737 65.918026 C 125.41898 65.651989 125.44008 65.392878 125.44008 65.14598 C 125.78159 64.543051 126.13353 63.860552 126.47361 63.127499 C 126.48334 63.106495 126.49283 63.088647 126.50255 63.067554 C 126.84112 62.333137 127.16389 61.54348 127.45236 60.722994 C 127.45939 60.702974 127.46709 60.684659 127.47407 60.6646 C 127.7663 59.826638 128.01899 58.95714 128.20839 58.075094 C 128.39883 57.188146 128.52358 56.291153 128.55927 55.404973 L 128.55927 55.404456 C 128.61927 53.913336 128.42236 52.456881 127.85079 51.140633 L 127.85079 51.140117 L 127.85027 51.1396 C 127.64211 50.660425 127.38376 50.20038 127.06996 49.763973 C 127.06526 49.757418 127.06074 49.750882 127.05601 49.744336 C 126.74169 49.310271 126.37384 48.899158 125.9429 48.518054 C 125.93434 48.510466 125.92464 48.503399 125.91602 48.495834 C 125.50063 48.131665 125.02499 47.796753 124.49182 47.490727 C 124.44905 47.466146 124.40671 47.44152 124.36315 47.417346 C 123.80867 47.110038 123.19787 46.832032 122.509 46.595691 L 121.10908 45.227816 C 120.82778 44.48451 120.42055 43.816096 119.95463 43.261011 C 119.94068 43.244392 119.9289 43.228838 119.91484 43.212435 C 119.45081 42.670607 118.93035 42.250004 118.4064 41.993388 C 118.38163 41.981268 118.35831 41.971682 118.33354 41.960315 C 118.08743 41.847096 117.84262 41.766854 117.60335 41.733456 C 117.58737 41.73124 117.57226 41.732191 117.55633 41.730355 C 116.78484 41.640595 116.08511 41.994164 115.66135 42.972656 C 115.66118 42.973061 115.66101 42.973286 115.66084 42.97369 C 115.5594 43.208121 115.4725 43.474498 115.40555 43.782426 L 114.23095 43.786043 C 114.18178 43.69891 114.13236 43.616688 114.08315 43.530245 C 114.08262 43.529316 114.08213 43.528591 114.0816 43.527661 C 113.02075 41.664323 111.94941 39.960869 110.87922 38.407044 C 109.80853 36.85249 108.73894 35.446589 107.68199 34.179911 C 105.5679 31.646283 103.50513 29.665372 101.58469 28.151856 C 100.62457 27.39517 99.700176 26.754285 98.823103 26.219674 C 97.947674 25.686067 97.119057 25.256795 96.349353 24.922595 C 96.345667 24.920996 96.342186 24.920061 96.338501 24.918461 C 95.572511 24.586521 94.864256 24.347228 94.225968 24.191374 C 94.220934 24.190142 94.216524 24.189495 94.211499 24.188273 C 93.575619 24.03403 93.009191 23.961383 92.52323 23.960897 C 92.52175 23.960897 92.519541 23.96038 92.518062 23.96038 C 92.5163 23.96038 92.514656 23.960897 92.512894 23.960897 C 92.025218 23.961373 91.550125 24.029596 91.088692 24.153133 C 91.083355 24.15456 91.078006 24.15583 91.072672 24.157267 C 90.610306 24.282426 90.161359 24.462991 89.728051 24.687984 L 89.727535 24.687984 C 89.291493 24.914426 88.871073 25.185446 88.467146 25.488969 C 88.066585 25.789968 87.682652 26.123305 87.316312 26.476506 C 87.313211 26.479496 87.310109 26.482297 87.307011 26.485291 C 87.305768 26.48649 87.304636 26.487707 87.303393 26.488908 C 86.566628 27.201015 85.9019 27.994454 85.320052 28.773523 C 84.740104 29.550049 84.24325 30.311806 83.838488 30.964604 C 83.836668 30.967542 83.833587 30.971489 83.83177 30.974422 C 82.097803 30.162182 80.623813 29.172216 79.317317 28.06659 C 78.664069 27.513777 78.052627 26.932084 77.471435 26.329228 C 76.890332 25.726466 76.339206 25.10252 75.806937 24.465259 L 75.806937 24.464742 C 74.742246 23.190015 73.752112 21.862049 72.743558 20.542501 C 71.736767 19.225266 70.7115 17.917334 69.575793 16.679171 C 69.573804 16.677009 69.572098 16.674615 69.570109 16.672453 L 69.570109 16.671936 C 69.569403 16.671169 69.567717 16.670637 69.567008 16.669869 C 69.429706 16.521289 69.227315 16.386268 68.971696 16.263692 C 68.965093 16.260526 68.958216 16.257536 68.951542 16.254391 C 68.69276 16.132269 68.381724 16.021908 68.026017 15.923661 C 67.304504 15.724359 66.404927 15.572247 65.416874 15.45754 C 65.416137 15.457454 65.415545 15.45711 65.414807 15.457023 C 65.414483 15.456991 65.414097 15.457067 65.413773 15.457023 C 63.439924 15.228074 61.112343 15.149884 59.135087 15.149549 C 59.130859 15.149549 59.125877 15.149032 59.121651 15.149032 z M 59.121651 17.449667 C 61.041239 17.449667 63.31669 17.530151 65.148673 17.742672 C 66.064664 17.848938 66.875157 17.992074 67.414685 18.141097 C 67.803246 18.248433 68.030115 18.419826 68.011547 18.381393 C 72.136086 22.94483 75.166302 29.363101 82.658199 32.960348 C 84.554629 37.766763 82.976519 45.891126 81.99364 49.824951 C 83.327897 45.802562 85.35133 38.477465 84.134594 33.216663 A 2.30023 2.30023 0 0 0 85.787723 32.186235 C 85.921535 31.970297 86.07761 31.732374 86.231107 31.497905 C 88.187295 31.448596 90.039158 31.906761 91.7517 32.926241 C 92.715673 33.500045 93.673005 34.152543 94.382548 35.02017 C 97.460535 38.783944 99.870958 43.284758 101.02039 48.009042 C 103.77622 59.335912 102.2896 72.819915 96.267704 81.961491 L 96.201041 82.062777 L 96.22688 82.181633 C 97.688134 88.845502 97.29841 92.991908 96.131278 95.905343 C 93.992864 97.113226 92.125004 97.846359 90.925394 98.077303 C 92.521982 94.078283 92.689477 89.247432 91.948071 85.387639 C 92.363872 89.277041 91.795132 94.420885 89.651054 98.220964 A 2.30023 2.30023 0 0 0 88.324519 98.939783 C 86.251655 101.27258 83.927488 101.63484 82.773954 100.88695 A 2.30023 2.30023 0 0 0 79.890926 101.19598 C 76.252613 104.8522 75.467749 105.54545 70.745748 107.78679 C 70.887368 106.33382 71.005821 104.87586 71.088879 103.43512 C 70.830969 104.99383 70.503364 106.54125 70.131832 108.07669 C 69.871638 108.19892 69.655355 108.30372 69.371671 108.43584 A 2.30023 2.30023 0 0 0 68.414624 109.26628 C 66.500936 112.2071 64.65248 115.25614 62.934338 117.43788 C 61.216197 119.61961 59.693032 120.56266 59.121651 120.56275 C 58.550271 120.56266 57.027105 119.61961 55.308964 117.43788 C 53.590823 115.25614 51.742367 112.2071 49.828678 109.26628 A 2.30023 2.30023 0 0 0 48.873698 108.43584 C 48.588979 108.30324 48.371508 108.1983 48.110437 108.07566 C 47.739027 106.54057 47.411755 104.99345 47.153906 103.43512 C 47.236945 104.87552 47.355475 106.33312 47.497037 107.78575 C 42.776597 105.54524 41.989734 104.85167 38.351859 101.19598 A 2.30023 2.30023 0 0 0 35.469348 100.88695 C 34.315956 101.63478 31.991133 101.27258 29.918265 98.939783 A 2.30023 2.30023 0 0 0 28.591731 98.220964 C 26.447652 94.420885 25.878913 89.277041 26.294714 85.387639 C 25.553315 89.247397 25.720771 94.078304 27.317391 98.077303 C 26.117781 97.84632 24.249568 97.113435 22.111507 95.90586 C 20.944222 92.992411 20.554577 88.845844 22.015905 82.181633 L 22.04226 82.062777 L 21.975598 81.961491 C 15.95369 72.819915 14.466564 59.335912 17.2224 48.009042 C 18.371822 43.284758 20.782247 38.783944 23.860237 35.02017 C 24.569781 34.152543 25.527112 33.500045 26.491084 32.926241 C 28.203957 31.906564 30.056468 31.448379 32.013228 31.497905 C 32.166864 31.732425 32.323806 31.970253 32.457645 32.186235 A 2.30023 2.30023 0 0 0 34.109224 33.216146 C 32.892181 38.476991 34.915352 45.802403 36.249662 49.824951 C 35.266799 45.891189 33.687872 37.766792 35.584069 32.960348 C 43.076968 29.363039 46.107262 22.944508 50.232271 18.380876 C 50.210101 18.423071 50.439038 18.249287 50.830684 18.141097 C 51.37019 17.992074 52.178128 17.848938 53.094112 17.742672 C 54.926079 17.530151 57.202064 17.449667 59.121651 17.449667 z M 59.121134 21.536239 C 52.531433 21.602396 50.696891 24.088302 48.279935 29.72902 C 46.921898 32.315503 44.87459 34.297459 42.473571 35.941044 C 37.302336 40.802955 42.783163 49.588678 46.623706 53.636088 C 46.836951 53.868248 47.058205 54.092434 47.28258 54.313566 L 47.28258 73.818319 C 47.28204 76.357572 45.307817 77.998233 42.252913 77.997909 L 41.906164 77.997909 L 41.906681 80.307328 C 41.990765 83.001245 43.314915 85.381218 45.636169 87.033016 C 43.411864 87.587906 41.221393 88.273094 39.089282 89.108342 C 39.12657 89.191673 40.042057 91.620059 40.08302 91.751591 C 40.591647 93.139784 41.303233 95.083965 41.794026 96.459831 C 41.892381 96.705825 42.224991 97.711339 42.334045 97.940361 C 42.80895 99.029816 43.727913 99.87758 44.714262 100.49008 C 46.911326 101.83428 49.529761 102.34087 52.07712 102.33958 C 52.077228 102.33958 52.12352 102.25855 52.123628 102.25844 C 52.876846 101.12154 53.960795 100.16178 55.173571 99.531995 C 56.390253 98.892754 57.756937 98.604614 59.121651 98.631791 C 60.486364 98.604614 61.852532 98.892754 63.069214 99.531995 C 64.28199 100.16178 65.365939 101.12154 66.119157 102.25844 C 66.119265 102.25855 66.165557 102.33958 66.165665 102.33958 C 68.713025 102.34087 71.331458 101.83428 73.528523 100.49008 C 74.514872 99.87758 75.433836 99.029816 75.90874 97.940361 C 76.017794 97.711339 76.350404 96.705825 76.448759 96.459831 C 76.939553 95.083965 77.651137 93.139784 78.159765 91.751591 C 78.200728 91.620059 79.116215 89.191673 79.153503 89.108342 C 77.021392 88.273094 74.830921 87.587906 72.606616 87.033016 C 74.92787 85.381218 76.25202 83.001245 76.336104 80.307328 L 76.336621 77.997909 L 75.989872 77.997909 C 72.934966 77.998233 70.960745 76.357572 70.960205 73.818319 L 70.960205 54.313566 C 71.184581 54.092434 71.405834 53.868248 71.619079 53.636088 C 75.459623 49.588678 80.940449 40.802955 75.769214 35.941044 C 73.368195 34.297459 71.320886 32.315503 69.96285 29.72902 C 67.545893 24.088302 65.711352 21.602396 59.121651 21.536239 L 59.121134 21.536239 z M 59.121651 23.420878 C 65.017094 23.378672 66.343978 25.704856 68.664221 30.566695 C 70.096291 33.128431 72.332979 35.242177 74.774959 36.789571 C 79.468589 40.996726 74.170232 49.27894 70.798974 52.86766 C 67.722845 56.242412 63.477204 58.518235 59.121651 58.61873 C 54.766098 58.518235 50.519939 56.242412 47.443811 52.86766 C 44.072552 49.27894 38.774197 40.996726 43.467826 36.789571 C 45.909807 35.242177 48.14701 33.128431 49.579081 30.566695 C 51.899323 25.704856 53.226206 23.378672 59.121651 23.420878 z M 25.72524 26.259981 C 26.838378 26.259981 28.096528 26.939418 29.338456 28.138937 C 29.582908 28.37504 29.819983 28.629909 30.052624 28.891862 C 29.025397 29.048054 27.985851 29.365094 26.936535 29.867513 C 25.473335 30.567985 24.050045 31.603174 22.942464 32.838908 C 19.620575 36.545145 16.91551 40.982122 15.39047 45.719776 C 13.359401 52.029448 12.890128 59.41387 13.552339 65.520117 C 14.228061 71.752382 16.24538 77.474476 19.548873 82.529415 C 18.575421 87.027668 18.42469 90.81814 19.000069 93.922001 C 15.648522 91.565932 11.979944 88.424152 8.5572954 85.011951 C 8.5099232 84.964723 8.4640137 84.916136 8.4167355 84.868807 C 4.2436133 77.51543 3.4701915 68.871752 3.4986894 66.618242 C 2.5529883 71.350566 3.7526123 77.342194 5.7595333 82.102568 C 3.1172614 79.237965 0.73417475 76.300146 -1.0989628 73.594043 C -2.286156 71.84149 -3.2046973 70.161754 -3.8445316 68.721472 C -4.328729 67.378561 -4.7228859 66.060051 -4.9152673 64.813184 C -4.9254904 64.80296 -4.9342104 64.79111 -4.9436893 64.780111 A 2.30023 2.30023 0 0 0 -5.1948368 64.012199 C -6.338444 61.993164 -7.6071589 58.943256 -7.9429895 56.224561 C -7.9267489 54.529016 -7.6217514 52.790113 -6.9849084 51.138049 C -6.3609244 50.247082 -5.3997408 49.462089 -3.7349776 48.853434 C -5.1020498 53.869366 -3.7976995 59.379868 -2.0746138 61.727067 C -3.3125202 58.241357 -3.9950438 52.457924 -2.398625 47.987854 L -1.2570926 46.87371 A 2.30023 2.30023 0 0 0 -0.7144901 46.04172 C -0.39029787 45.185107 0.21820166 44.591879 0.6079098 44.287305 A 2.30023 2.30023 0 0 0 2.8305132 46.082544 L 4.0046017 46.086161 A 2.30023 2.30023 0 0 0 4.6676103 45.96989 C 4.1004277 48.3627 3.6634348 51.165285 3.8025468 52.864559 C 4.1736855 50.97379 4.5387015 48.423965 5.8179277 45.155986 A 2.30023 2.30023 0 0 0 6.0163652 44.916207 C 10.157982 37.576074 14.424072 32.855765 18.019767 30.006523 C 21.615462 27.157281 24.672402 26.259981 25.72524 26.259981 z M 92.518062 26.259981 C 93.570966 26.259981 96.627333 27.157284 100.22302 30.006523 C 103.81872 32.855762 108.08536 37.576076 112.22694 44.916207 A 2.30023 2.30023 0 0 0 112.42486 45.155469 C 113.7041 48.423704 114.06909 50.97369 114.44024 52.864559 C 114.57935 51.165285 114.14236 48.3627 113.57517 45.96989 A 2.30023 2.30023 0 0 0 114.2387 46.086161 L 115.41434 46.082544 A 2.30023 2.30023 0 0 0 117.63539 44.285755 C 118.02486 44.589707 118.63269 45.184072 118.95728 46.04172 A 2.30023 2.30023 0 0 0 119.50246 46.87371 L 120.64089 47.986304 C 122.23803 52.456587 121.55545 58.240953 120.3174 61.727067 C 122.04044 59.379944 123.34508 53.869754 121.97828 48.853951 C 123.64189 49.462241 124.60321 50.246219 125.22718 51.136499 C 125.86482 52.79001 126.16985 54.530638 126.18577 56.227661 C 125.84935 58.945563 124.58131 61.993942 123.43814 64.012199 A 2.30023 2.30023 0 0 0 123.18802 64.778561 C 123.17797 64.789991 123.16878 64.802448 123.15805 64.813184 C 122.96476 66.065963 122.56836 67.390973 122.0806 68.740593 C 121.4412 70.176793 120.52644 71.848999 119.34433 73.594043 C 117.51084 76.300656 115.12567 79.239003 112.48222 82.104118 C 114.4896 77.34346 115.68991 71.351167 114.7441 66.618242 C 114.77259 68.871856 113.99916 77.516244 109.82553 84.869841 C 109.77859 84.916832 109.73303 84.965059 109.68601 85.011951 C 106.26353 88.423952 102.5947 91.565977 99.243233 93.922001 C 99.818584 90.818158 99.667361 87.027619 98.693912 82.529415 C 101.99742 77.474476 104.01473 71.752382 104.69045 65.520117 C 105.35266 59.41387 104.88337 52.029448 102.85231 45.719776 C 101.32727 40.982122 98.622729 36.545145 95.300838 32.838908 C 94.193254 31.603174 92.769449 30.567985 91.30625 29.867513 C 90.257109 29.365178 89.217737 29.048087 88.190678 28.891862 C 88.423159 28.629949 88.660429 28.375006 88.904846 28.138937 C 90.146776 26.939418 91.404925 26.259981 92.518062 26.259981 z M 59.121651 27.225814 C 55.351301 27.242352 53.642172 28.463107 52.575797 30.02461 C 52.07095 30.731461 51.717859 31.489454 51.39189 32.192953 C 50.985072 33.069703 50.556757 33.847735 50.108764 34.549398 C 49.104476 36.021889 47.85648 37.264656 46.413383 38.196204 C 44.993738 39.110999 44.274495 40.525718 44.274495 42.395947 C 44.274495 45.729378 46.81957 50.423389 50.332523 53.562708 C 53.196227 55.737747 56.133328 56.815092 59.121651 56.800236 C 62.109973 56.815092 65.046555 55.737747 67.910262 53.562708 C 71.423214 50.423389 73.96829 45.729378 73.96829 42.395947 C 73.96829 40.525718 73.249047 39.110999 71.829402 38.196204 C 70.386306 37.264656 69.138309 36.021889 68.134021 34.549398 C 67.686028 33.847735 67.257712 33.069703 66.850895 32.192953 C 66.524926 31.489454 66.172353 30.731461 65.667505 30.02461 C 64.60113 28.463107 62.892 27.242352 59.121651 27.225814 z M 57.621484 28.611259 L 57.621484 31.010079 C 57.169047 31.19854 56.745202 31.453252 56.387968 31.810547 C 55.672581 32.525935 55.276934 33.475459 55.27434 34.484286 C 55.270118 36.058308 56.251183 37.368931 57.621484 37.931104 L 57.621484 55.535197 C 55.402489 55.249523 53.217914 54.339835 51.083382 52.720899 C 47.860951 49.843569 45.527595 45.536705 45.535917 42.48018 C 45.54078 40.546504 46.239377 39.695391 47.289815 39.018376 C 48.393969 38.303421 49.689586 37.195142 50.594006 35.843376 C 51.113551 35.118369 51.576301 34.337873 51.965499 33.50295 L 52.099857 33.214596 C 52.517589 32.310066 52.928598 31.425288 53.54163 30.665914 C 54.411283 29.633461 55.425876 28.890293 57.621484 28.611259 z M 60.621301 28.611259 C 62.816908 28.890293 63.831503 29.633461 64.701155 30.665914 C 65.314188 31.425288 65.725714 32.310066 66.143444 33.214596 L 66.277286 33.50295 C 66.666485 34.337873 67.129238 35.118369 67.648779 35.843376 C 68.553203 37.195142 69.849332 38.303421 70.953487 39.018376 C 72.003924 39.695391 72.702521 40.546504 72.707385 42.48018 C 72.715707 45.536705 70.382351 49.843569 67.15992 52.720899 C 65.025388 54.339835 62.840401 55.249523 60.621301 55.535197 L 60.621301 37.931104 C 61.991602 37.368931 62.972667 36.058308 62.968444 34.484286 C 62.965851 33.475459 62.570205 32.525935 61.854817 31.810547 C 61.497584 31.453252 61.073738 31.19854 60.621301 31.010079 L 60.621301 28.611259 z M 30.435547 29.345581 C 30.819853 29.809874 31.176307 30.285104 31.507832 30.757898 C 29.605248 30.796032 27.792634 31.276668 26.106612 32.280286 C 25.199707 32.820149 24.28991 33.407701 23.61064 34.210917 C 20.399614 38.007857 17.791827 42.542931 16.569726 47.363086 C 13.326212 60.156 15.077348 72.815143 21.188566 82.221424 C 20.022272 87.643175 20.032005 91.909712 21.083663 95.303312 C 20.704582 95.070531 20.322272 94.830873 19.933862 94.570541 C 19.795999 94.478137 19.653388 94.374424 19.514249 94.279085 C 19.298181 93.28224 19.130775 92.202099 19.09257 90.922701 C 19.092137 90.909083 19.091365 90.894978 19.091019 90.88136 C 19.087669 90.764632 19.085815 90.646591 19.084301 90.527376 C 19.083977 90.505004 19.083484 90.483087 19.083268 90.460714 C 19.082187 90.347556 19.08178 90.23312 19.082234 90.117582 C 19.082342 90.091967 19.08252 90.065791 19.082751 90.040068 C 19.083508 89.923556 19.084916 89.805896 19.087402 89.687118 C 19.087834 89.665177 19.08839 89.643429 19.088952 89.621489 C 19.09187 89.493304 19.095454 89.363877 19.100321 89.232882 C 19.100753 89.222074 19.100901 89.211651 19.101355 89.200842 C 19.175174 87.280244 19.45979 85.060684 20.024296 82.486524 L 20.035148 82.438981 L 20.008276 82.398674 C 19.638099 81.83676 19.286468 81.269018 18.948392 80.697486 C 13.323106 71.093745 12.181953 60.031459 15.74187 46.163159 C 16.890956 41.686689 21.312653 35.212832 23.173974 33.240951 C 24.30555 32.042158 25.68102 30.969035 27.131355 30.274723 C 28.248138 29.740158 29.348022 29.470959 30.435547 29.345581 z M 87.807755 29.345581 C 88.895071 29.470978 89.994721 29.740193 91.111429 30.274723 C 92.561765 30.969035 93.937235 32.042158 95.068811 33.240951 C 96.930125 35.212832 101.35183 41.686689 102.50092 46.163159 C 106.06085 60.031459 104.91967 71.093745 99.294393 80.697486 C 98.956313 81.269018 98.604678 81.83676 98.234509 82.398674 L 98.208154 82.438981 L 98.218489 82.486524 C 98.782989 85.060684 99.06761 87.280244 99.14143 89.200842 C 99.14143 89.211651 99.142464 89.222074 99.142464 89.232882 C 99.147328 89.363877 99.150925 89.493304 99.153833 89.621489 C 99.154913 89.643429 99.155059 89.665177 99.155383 89.687118 C 99.157869 89.805896 99.159277 89.923556 99.160034 90.040068 L 99.160034 90.117582 C 99.160034 90.23312 99.160049 90.347556 99.159 90.460714 C 99.159 90.483087 99.159048 90.505004 99.157967 90.527376 C 99.156454 90.646591 99.154083 90.764632 99.150732 90.88136 C 99.150732 90.894978 99.149699 90.909083 99.149699 90.922701 C 99.111492 92.202318 98.94415 93.282631 98.728019 94.279602 C 98.589047 94.374828 98.446619 94.478244 98.308923 94.570541 C 97.920488 94.830883 97.537691 95.070524 97.158606 95.303312 C 98.210262 91.909712 98.21998 87.643175 97.053702 82.221424 C 103.16491 72.815143 104.91606 60.156 101.67254 47.363086 C 100.45044 42.542931 97.842658 38.007857 94.631628 34.210917 C 93.952358 33.407701 93.042045 32.820149 92.13514 32.280286 C 90.449837 31.277097 88.638034 30.796429 86.736503 30.757898 C 87.067676 30.285157 87.423793 29.809823 87.807755 29.345581 z M 59.061189 31.430725 C 59.081725 31.430725 59.10119 31.436527 59.121651 31.436926 C 59.142112 31.436494 59.16106 31.430725 59.181596 31.430725 C 59.993285 31.432995 60.758727 31.752421 61.335986 32.329895 C 61.91346 32.907154 62.232477 33.672084 62.234639 34.483769 C 62.236693 35.293188 61.923237 36.054564 61.351489 36.627824 C 60.779849 37.201086 60.018811 37.517067 59.209501 37.517175 L 59.201233 37.517175 C 59.174142 37.5171 59.148631 37.509664 59.121651 37.508907 C 59.09467 37.509664 59.068643 37.5171 59.041552 37.517175 L 59.033284 37.517175 C 58.223974 37.517067 57.462939 37.201086 56.891296 36.627824 C 56.319551 36.054564 56.006092 35.293188 56.008146 34.483769 C 56.010307 33.672084 56.329843 32.907154 56.907316 32.329895 C 57.484576 31.752421 58.249501 31.432995 59.061189 31.430725 z M 37.979272 52.597392 C 39.935212 59.27236 41.876435 66.408356 40.004471 73.311373 C 38.921285 77.397155 36.951938 81.353191 36.843424 85.659457 C 37.241381 82.834223 38.300249 80.205273 39.326477 77.560209 C 43.132758 69.289753 41.518596 60.644121 37.979272 52.597392 z M 80.263513 52.597392 C 76.72419 60.644121 75.110543 69.289753 78.916825 77.560209 C 79.943052 80.205273 81.001405 82.834223 81.399361 85.659457 C 81.290847 81.353191 79.3215 77.397155 78.238313 73.311373 C 76.36635 66.408356 78.307574 59.27236 80.263513 52.597392 z M 47.750769 54.761084 C 48.046801 55.036584 48.576041 55.562586 48.576041 55.562586 L 48.576041 74.483395 C 48.57669 77.153641 46.404615 79.325608 43.734476 79.324959 L 43.437854 79.324959 L 43.447155 79.622099 C 43.548536 82.852528 45.111674 85.153492 48.097518 86.480078 C 47.476593 86.605232 46.856328 86.732053 46.240267 86.878504 C 43.834388 85.306034 42.458656 82.995687 42.374353 80.296476 L 42.373836 78.465064 C 45.642634 78.421939 47.749364 76.607561 47.750769 73.818319 L 47.750769 54.761084 z M 70.492533 54.761084 L 70.492533 73.818319 C 70.493938 76.607561 72.600151 78.421939 75.868949 78.465064 L 75.868432 80.296476 C 75.784129 82.995687 74.408397 85.306034 72.002518 86.878504 C 71.386456 86.732053 70.766192 86.605232 70.145267 86.480078 C 73.131111 85.153492 74.694249 82.852528 74.79563 79.622099 L 74.804931 79.324959 L 74.508309 79.324959 C 71.838172 79.325608 69.666095 77.153641 69.666744 74.483395 L 69.666744 55.562586 C 69.666744 55.562586 70.196501 55.036584 70.492533 54.761084 z M 49.152234 55.943441 C 52.069367 58.196733 55.56585 59.59479 59.121651 59.670345 C 62.677451 59.59479 66.173934 58.196733 69.091068 55.943441 L 69.091068 74.483395 C 69.091717 77.370019 71.359405 79.736191 74.207552 79.892367 C 74.016787 83.04141 72.4651 85.014192 69.22181 86.156067 C 65.91702 85.5573 62.690205 85.261092 59.335591 85.262065 C 59.265325 85.261849 59.192154 85.267124 59.121651 85.267232 C 59.051148 85.267124 58.97746 85.261849 58.907194 85.262065 C 55.55258 85.261092 52.325765 85.5573 49.020975 86.156067 C 45.777685 85.014192 44.225997 83.04141 44.035233 79.892367 C 46.883379 79.736191 49.151585 77.370019 49.152234 74.483395 L 49.152234 55.943441 z M 58.14755 85.838774 C 58.471896 85.838763 58.79703 85.853513 59.121651 85.858928 C 59.446272 85.853513 59.770889 85.838763 60.095235 85.838774 C 67.698076 85.838774 75.246307 88.219635 77.378418 88.949178 L 78.453287 89.316598 L 78.064164 90.383199 C 77.924093 90.766994 77.816739 91.091189 77.745837 91.305624 L 77.719999 91.383138 C 77.695356 91.457282 77.675809 91.516723 77.660571 91.560388 L 77.624397 91.658574 C 77.152301 92.947656 76.438481 94.895967 75.943363 96.283614 L 75.935095 96.305318 C 75.890785 96.419345 75.820826 96.619702 75.737174 96.858773 C 75.50426 97.524877 75.455453 97.647665 75.421948 97.72332 L 75.410579 97.748641 C 74.933942 98.841663 73.96523 99.610768 73.231901 100.06633 C 71.547569 101.09677 69.397122 101.70268 67.012642 101.81919 L 66.444201 101.8471 L 66.089184 101.40268 C 65.889883 101.15302 65.673298 100.91105 65.446329 100.68386 C 64.802708 100.04035 64.074135 99.505034 63.27747 99.091195 C 62.078531 98.46119 60.688743 98.128463 59.258077 98.128463 C 59.212416 98.128463 59.167291 98.136083 59.121651 98.136731 C 59.076011 98.136083 59.030885 98.128463 58.985225 98.128463 C 57.55456 98.128463 56.164254 98.46119 54.965315 99.091195 C 54.16865 99.505034 53.440078 100.04035 52.796456 100.68386 C 52.569488 100.91105 52.35342 101.15302 52.154117 101.40268 L 51.798584 101.8471 L 51.230143 101.81919 C 48.845662 101.70268 46.695216 101.09677 45.010884 100.06633 C 44.277554 99.610768 43.30936 98.841663 42.832723 97.748641 L 42.821354 97.72332 C 42.787848 97.647665 42.738527 97.524877 42.505611 96.858773 C 42.421961 96.619702 42.352 96.419345 42.30769 96.305318 L 42.299422 96.283614 C 41.804304 94.895967 41.090485 92.947656 40.618387 91.658574 L 40.582214 91.560388 C 40.566976 91.516723 40.547429 91.457282 40.522786 91.383138 L 40.496948 91.305624 C 40.426046 91.091189 40.318692 90.766994 40.178621 90.383199 L 39.789498 89.316598 L 40.864367 88.949178 C 42.996478 88.219635 50.544709 85.838774 58.14755 85.838774 z M 58.14755 86.440287 C 51.565965 86.440287 45.133972 88.197163 41.885494 89.244251 L 40.585831 89.66283 L 41.095878 91.200204 C 41.121061 91.275861 41.141052 91.335268 41.157373 91.380554 L 41.230236 91.578992 C 41.68969 92.833704 42.383955 94.729907 42.863728 96.074325 L 42.873547 96.100163 C 42.920995 96.222834 42.991763 96.426855 43.06785 96.644316 L 43.073535 96.660335 C 43.152759 96.886763 43.209221 97.046804 43.249751 97.15953 L 43.249751 97.210173 L 43.38256 97.504728 C 43.798563 98.458652 44.667656 99.144289 45.326627 99.553699 C 46.812739 100.46287 48.707959 101.02852 50.80743 101.18977 L 51.485424 101.24197 L 51.931909 100.72934 C 52.072739 100.56765 52.220601 100.40923 52.371158 100.25857 C 53.057794 99.571709 53.836185 99.000247 54.686779 98.558411 C 55.969701 97.884312 57.456013 97.527466 58.984708 97.527466 C 59.030482 97.527466 59.075898 97.535624 59.121651 97.536251 C 59.167404 97.535603 59.212303 97.527466 59.258077 97.527466 C 60.786773 97.527466 62.273084 97.884312 63.556006 98.558411 C 64.4066 99.000247 65.18499 99.571709 65.871626 100.25857 C 66.022184 100.40923 66.170046 100.56765 66.310876 100.72934 L 66.75736 101.24197 L 67.435355 101.18977 C 69.534827 101.02852 71.430046 100.46287 72.916158 99.553699 C 73.575127 99.144289 74.44474 98.458652 74.860742 97.504728 L 74.993033 97.210173 L 74.993033 97.15953 C 75.033564 97.046804 75.090026 96.886763 75.16925 96.660335 L 75.174935 96.644316 C 75.251024 96.426855 75.322307 96.222834 75.369755 96.100163 L 75.379573 96.074325 C 75.859346 94.729907 76.553096 92.833704 77.012548 91.578992 L 77.085929 91.380554 C 77.102249 91.335268 77.121724 91.275861 77.146907 91.200204 L 77.656954 89.66283 L 76.357291 89.244251 C 73.108813 88.197163 66.67682 86.440287 60.095235 86.440287 C 59.771049 86.440282 59.446173 86.454445 59.121651 86.459924 C 58.797129 86.454445 58.471736 86.440282 58.14755 86.440287 z " />
    <path
       id="path529-78"
       style="display:inline;fill:#000081;fill-opacity:0.380392;stroke-width:0.0448567;stroke-linecap:round;stroke-linejoin:round"
       d="m -109.78777,52.700017 c -3.9604,0 -9.33812,0.31307 -10.44846,1.52291 -4.55235,4.96034 -7.32576,11.053512 -14.26166,14.302484 -1.62336,-2.619752 -4.74877,-7.014042 -8.68629,-7.014042 -3.93752,0 -13.18064,4.703985 -21.71289,19.825668 l -1.1746,-0.0041 c -0.82248,-3.78324 -4.45975,-1.84109 -5.70353,1.44539 l -1.39991,1.36788 c -9.40599,3.22709 -5.77949,13.52145 -2.93109,18.550293 0,9.88978 25.88013,35.65671 35.39577,35.32187 2.59212,2.91714 6.12831,3.90168 8.52196,2.34973 4.00914,4.02884 5.08341,4.86321 11.18071,7.70289 3.76607,5.78745 7.42748,12.3418 11.21999,12.3424 3.79252,-6e-4 7.45392,-6.55495 11.219993,-12.3424 6.0973,-2.83968 7.17158,-3.67405 11.18071,-7.70289 2.39365,1.55195 5.92984,0.56741 8.52196,-2.34973 9.51564,0.33484 35.395769,-25.43209 35.395769,-35.32187 2.8484,-5.028843 6.47491,-15.323203 -2.93108,-18.550293 l -1.39992,-1.36788 c -1.24378,-3.28648 -4.88105,-5.22863 -5.70353,-1.44539 l -1.1746,0.0041 c -8.532239,-15.121685 -17.775369,-19.825668 -21.712889,-19.825668 -3.93751,0 -7.06293,4.39429 -8.68629,7.014042 -6.93589,-3.248972 -9.70931,-9.342144 -14.26166,-14.302484 -1.110343,-1.20984 -6.488053,-1.52291 -10.448463,-1.52291 z" />
    <path
       id="path472-7-6-6-9-9"
       clip-path="url(#clipPath4257-8-0-5-3)"
       style="fill:#ff0000;fill-opacity:0.509434;fill-rule:nonzero;stroke:none;stroke-width:3.26398"
       d="m 658.69871,1101.6601 c -26.6856,-0.01 -89.85828,-1.4196 -107.54444,-14.1914 -2.055,-1.483 -4.1768,-3.3287 -6.48779,-5.6397 -7.13397,-7.133 -16.36126,-19.1342 -27.09522,-33.0952 -14.71094,-19.133 -33.01723,-42.9435 -51.34717,-61.27147 -8.59496,-8.59297 -16.47514,-15.25838 -23.47412,-19.86035 -20.88292,34.38482 -51.61102,55.59812 -80.85791,55.59812 -38.49184,0 -95.261,-11.935 -186.89063,-137.53855 -7.31298,-10.35596 -12.68855,-18.88771 -17.79053,-28.28467 -3.12598,2.698 -6.25943,4.34538 -8.60742,5.31738 C 131.63954,869.72222 110.39387,862.239 90.312952,842.16008 82.414983,834.26311 76.957595,825.60346 70.972619,814.3925 64.313647,813.4155 51.427477,807.68379 44.331505,800.52483 26.278577,782.31289 15.55826,750.44604 15.654258,715.28117 15.752258,680.07332 26.696605,647.50423 45.705529,625.75431 62.970458,555.76359 114.92375,475.3333 188.37545,404.93058 253.4112,342.59582 323.34908,300.68968 371.3989,295.17569 c 19.38492,-22.35889 46.07797,-31.08281 77.38183,-25.29785 26.2939,-26.08188 66.98428,-51.06906 91.13819,-60.14502 7.82597,-19.38592 23.24253,-48.10401 43.83545,-72.33692 24.51007,-28.84256 50.40955,-44.145005 74.94434,-44.351072 24.53478,0.206067 50.43427,15.508512 74.94434,44.351072 20.59292,24.23291 36.00947,52.951 43.83545,72.33692 24.1539,9.07596 64.84429,34.06314 91.13818,60.14502 31.30387,-5.78496 57.99692,2.93896 77.38184,25.29785 48.04981,5.51399 117.98768,47.42013 183.02348,109.75489 73.4517,70.40272 125.405,150.83301 142.6699,220.82373 19.0089,21.74992 29.9533,54.31901 30.0513,89.52686 0.096,35.16487 -10.6244,67.03172 -28.6773,85.24366 -7.096,7.15896 -19.9821,12.89067 -26.6411,13.86767 -5.985,11.21096 -11.4424,19.87061 -19.3403,27.76758 -20.081,20.07892 -41.3266,27.56214 -58.2906,20.53418 -2.348,-0.972 -5.4814,-2.61938 -8.6074,-5.31738 -5.102,9.39696 -10.4775,17.92871 -17.7905,28.28467 -91.6296,125.60355 -148.3988,137.53855 -186.89064,137.53855 -29.24689,0 -59.975,-21.2133 -80.85792,-55.59812 -6.99897,4.60197 -14.87916,11.26738 -23.47412,19.86035 -18.32993,18.32797 -36.63622,42.13847 -51.34717,61.27147 -10.73396,13.961 -19.96124,25.9622 -27.09521,33.0952 -2.31099,2.311 -4.4328,4.1567 -6.4878,5.6397 -17.68616,12.7718 -80.85884,14.1814 -107.54443,14.1914 z m 0,-21.4439 c 42.72927,-0.03 85.32322,-3.4773 94.86035,-10.3652 1.15799,-0.836 2.47128,-2.003 3.92725,-3.46 15.16592,-15.1648 45.85316,-61.7578 78.29297,-94.19674 15.17889,-16.56588 33.10068,-26.33022 32.82568,-26.17822 29.36882,-40.17676 11.92988,-130.29507 1.71094,-171.19483 13.47191,40.61376 34.99025,117.91303 16.31836,166.71973 26.71783,6.438 51.57687,2.95885 73.96875,-10.37109 8.91894,-5.309 17.77644,-11.34649 24.34131,-19.37402 28.47838,-34.82348 50.78028,-76.46249 61.41508,-120.17286 25.4977,-104.79934 11.7402,-229.55977 -43.9761,-314.14014 l -0.6167,-0.9375 0.2402,-1.09717 c 16.0659,-73.26658 8.5956,-114.6721 -7.28025,-141.71192 -16.56892,-8.12394 -31.91744,-13.44231 -45.56836,-15.84228 19.03591,38.63479 20.75772,88.85782 13.25976,127.89258 4.25095,-39.7634 -2.4267,-93.86614 -27.83496,-129.50391 0.009,2.2e-4 0.0188,0 0.0278,0 -0.009,-10e-4 -0.0188,-0.002 -0.0278,-0.003 -0.0268,-0.002 -0.0546,-0.006 -0.0806,-0.006 -17.98589,-25.96587 -43.19759,-31.33302 -73.44141,-22.35205 -27.64383,-31.97682 -78.36238,-59.85487 -95.57227,-65.04786 1.94697,16.63393 2.9845,33.39976 3.9375,49.93067 -3.89799,-23.55787 -8.87528,-47.03094 -15.99023,-69.75879 -17.72795,-38.04055 -56.90056,-93.18326 -94.73731,-93.87452 -37.83675,0.69126 -77.00937,55.83397 -94.73731,93.87452 -7.11495,22.72785 -12.09225,46.20092 -15.99023,69.75879 0.953,-16.53091 1.99053,-33.29674 3.9375,-49.93067 -17.2099,5.19299 -67.92844,33.07104 -95.57227,65.04786 -30.24382,-8.98097 -55.45553,-3.61382 -73.44141,22.35205 -0.026,0 -0.0538,0.004 -0.0806,0.006 -0.009,10e-4 -0.0188,0.002 -0.0278,0.003 0.009,0 0.0186,2.2e-4 0.0278,0 -25.40825,35.63777 -32.0859,89.74051 -27.83496,129.50391 -7.49795,-39.03476 -5.77614,-89.25779 13.25977,-127.89258 -13.65093,2.39997 -28.99944,7.71834 -45.56836,15.84228 -15.8759,27.03982 -23.34617,68.44534 -7.28028,141.71192 l 0.24024,1.09717 -0.6167,0.9375 c -55.71636,84.58037 -69.47384,209.3408 -43.97608,314.14014 10.63477,43.71037 32.93662,85.34938 61.41504,120.17286 6.56488,8.02753 15.42237,14.06502 24.34131,19.37402 22.39188,13.32994 47.25092,16.80909 73.96876,10.37109 -18.6719,-48.8067 2.84645,-126.10597 16.31836,-166.71973 -10.21894,40.89976 -27.65789,131.01807 1.71093,171.19483 -0.275,-0.152 17.64679,9.61234 32.82569,26.17822 32.4398,32.43894 63.12704,79.03194 78.29297,94.19674 1.45597,1.457 2.76926,2.624 3.92724,3.46 9.53713,6.8879 52.13109,10.3348 94.86036,10.3652 z m 0,-43.6626 c -60.97397,-0.6108 -77.94513,-23.6118 -100.30811,-75.8027 -12.56493,-23.93086 -31.50827,-42.26623 -53.72315,-57.47314 -47.8457,-44.98373 2.86418,-126.27197 38.39795,-163.71973 1.973,-2.148 4.0207,-4.22356 6.09668,-6.26953 V 552.82707 c -0.005,-23.49388 -18.2718,-38.67488 -46.53662,-38.67188 l -3.20801,0.001 0.007,-21.36768 c 0.77797,-24.92485 13.03044,-46.94367 34.50732,-62.22657 -20.57988,-5.13398 -40.8488,-11.47322 -60.57568,-19.20117 0.345,-0.771 8.81436,-23.24152 9.19336,-24.45849 4.70595,-12.84394 11.29254,-30.83015 15.83349,-43.56006 0.91,-2.276 3.98612,-11.57879 4.99512,-13.69776 4.39396,-10.07994 12.89796,-17.92434 22.02393,-23.59131 20.32785,-12.43691 44.55223,-17.12284 68.12109,-17.11084 10e-4,0 0.42967,0.749 0.43067,0.75 6.96898,10.51894 16.99927,19.39911 28.22021,25.22608 11.25707,5.91442 23.89772,8.58201 36.52442,8.33056 12.6267,0.25145 25.26734,-2.41614 36.52441,-8.33056 11.22094,-5.82697 21.25124,-14.70714 28.22022,-25.22608 0.001,-0.001 0.42966,-0.75 0.43066,-0.75 23.56887,-0.012 47.79325,4.67393 68.1211,17.11084 9.12597,5.66697 17.62997,13.51137 22.02392,23.59131 1.009,2.11897 4.08512,11.42176 4.99512,13.69776 4.54096,12.72991 11.12754,30.71612 15.8335,43.56006 0.379,1.21697 8.84836,23.68749 9.19336,24.45849 -19.72688,7.72795 -39.99581,14.06719 -60.57569,19.20117 21.47688,15.2829 33.72936,37.30172 34.50733,62.22657 l 0.007,21.36768 -3.20801,-0.001 c -28.26482,-0.003 -46.53162,15.178 -46.53662,38.67188 V 733.2885 c 2.07599,2.04597 4.12368,4.12153 6.09668,6.26953 35.53378,37.44776 86.24365,118.736 38.39795,163.71973 -22.21488,15.20691 -41.15822,33.54228 -53.72314,57.47314 -22.36298,52.1909 -39.33414,75.1919 -100.30811,75.8027 z m 0,-17.4345 c 54.54626,0.3905 66.82301,-21.13266 88.29053,-66.11575 13.24992,-23.70188 33.9447,-43.26024 56.53857,-57.57715 43.42675,-38.92576 -5.59335,-115.554 -36.78515,-148.75782 -28.4612,-31.22414 -67.74517,-52.28065 -108.04395,-53.21045 -40.29878,0.9298 -79.58276,21.98631 -108.04395,53.21045 -31.19181,33.20382 -80.2119,109.83206 -36.78516,148.75782 22.59388,14.31691 43.28865,33.87527 56.53858,57.57715 21.46752,44.98309 33.74426,66.50625 88.29053,66.11575 z m -296.02296,-17.3892 c 20.30488,0.115 39.19508,-17.3507 52.08399,-33.05858 -17.4689,2.64697 -35.51091,-0.42521 -53.8418,-9.20215 -13.53793,-6.48097 -26.71034,-16.05738 -36.95801,-27.49073 -30.73503,-34.29112 -55.7615,-75.3412 -69.87158,-119.17529 -18.79201,-58.37883 -23.13381,-126.70256 -17.00684,-183.19923 6.25195,-57.66264 24.91614,-110.60432 55.48096,-157.37402 -10.58394,-48.9077 -11.2743,-89.35376 -2.06836,-120.28858 -15.63193,9.88694 -31.73934,21.50291 -47.86524,34.59082 C 156.5464,455.27575 143.70793,591.29145 144.06393,619.4423 132.658,562.36663 154.75961,485.01394 183.52243,439.67521 125.85577,498.74785 75.619214,575.20474 66.216271,636.14738 c -0.119998,0.12 -0.217914,0.26527 -0.336914,0.38525 -25.584844,21.22808 -38.94026,83.18994 -16.504395,132.61964 11.212931,21.93788 26.243611,23.32007 30.225587,23.72607 -17.049898,-48.63673 -4.085413,-105.04537 12.896485,-128.17822 -15.22891,42.88173 -21.428124,123.38429 19.035646,162.87305 15.76289,15.38291 37.53843,15.112 46.15137,-3.90088 -6.89496,-23.58685 -12.34954,-58.17573 -10.81055,-76.97461 4.99495,25.44685 8.53513,62.67579 40.71094,116.62646 10.36494,17.38091 45.3391,70.36382 106.99072,115.81055 12.56694,7.98297 39.45376,22.43321 68.10059,22.59521 z m 592.04591,0 c 28.64684,-0.162 55.53364,-14.61224 68.10064,-22.59521 61.6516,-45.44673 96.6257,-98.42964 106.9907,-115.81055 32.1758,-53.95067 35.716,-91.17961 40.7109,-116.62646 1.539,18.79888 -3.9156,53.38776 -10.8105,76.97461 8.6129,19.01288 30.3884,19.28379 46.1513,3.90088 40.4638,-39.48876 34.2646,-119.99132 19.0357,-162.87305 16.9819,23.13285 29.9464,79.54149 12.8965,128.17822 3.9819,-0.406 19.0126,-1.78819 30.2256,-23.72607 22.4358,-49.4297 9.0804,-111.39156 -16.5044,-132.61964 -0.119,-0.11998 -0.217,-0.26525 -0.337,-0.38525 -9.4029,-60.94264 -59.6395,-137.39953 -117.3061,-196.47217 28.7628,45.33873 50.8644,122.69142 39.4585,179.76709 0.356,-28.15085 -12.4825,-164.16655 -98.565,-232.91016 -16.1259,-13.08791 -32.2333,-24.70388 -47.8652,-34.59082 9.2059,30.93482 8.5156,71.38088 -2.0684,120.28858 30.5649,46.7697 49.2291,99.71138 55.481,157.37402 6.127,56.49667 1.7852,124.8204 -17.0068,183.19923 -14.1101,43.83409 -39.1366,84.88417 -69.87161,119.17529 -10.24767,11.43335 -23.42009,21.00976 -36.95801,27.49073 -18.33089,8.77694 -36.37291,11.84912 -53.8418,9.20215 12.88891,15.70788 31.7791,33.17358 52.08398,33.05858 z M 658.69871,983.91155 c -34.88431,-0.15301 -50.69758,-11.44805 -60.56397,-25.89551 -4.67098,-6.53997 -7.9352,-13.5506 -10.95117,-20.05957 -3.76399,-8.11194 -7.7276,-15.3093 -11.87256,-21.80127 -9.29195,-13.62391 -20.83899,-25.1252 -34.19092,-33.74414 -13.13494,-8.46394 -19.79004,-21.55403 -19.79004,-38.85791 0,-30.84182 23.54944,-74.26961 56.05225,-103.31543 26.49578,-20.12406 53.66762,-30.09058 81.31641,-29.95313 27.64879,-0.13745 54.82062,9.82907 81.31641,29.95313 32.5028,29.04582 56.05224,72.47361 56.05224,103.31543 0,17.30388 -6.6551,30.39397 -19.79004,38.85791 -13.35192,8.61894 -24.89896,20.12023 -34.19091,33.74414 -4.14496,6.49197 -8.10858,13.68933 -11.87256,21.80127 -3.01597,6.50897 -6.28019,13.5196 -10.95118,20.05957 -9.86639,14.44746 -25.67966,25.7425 -60.56396,25.89551 z m -3.47608,-11.93408 -0.0557,-20.32032 c -8.21294,-0.71097 -15.85228,-4.25265 -21.76025,-10.16162 -6.61896,-6.61897 -10.27972,-15.40434 -10.30372,-24.73828 -0.049,-18.26491 14.00112,-33.24094 31.875,-34.71094 l -0.43652,-161.23389 c -23.89086,0.811 -47.34948,9.87199 -70.21436,27.21387 -29.81482,26.62185 -51.40366,66.47067 -51.32666,94.75049 0.045,17.89091 6.5086,25.76194 16.22754,32.02588 10.21594,6.61497 22.20627,16.87053 30.57422,29.37744 4.80696,6.70797 9.08603,13.92838 12.68701,21.65332 l 1.24219,2.66895 c 3.86496,8.36894 7.67131,16.55511 13.34326,23.58105 8.18896,9.72194 17.63162,16.72825 38.7085,19.19825 2.97296,0.328 6.10947,0.5648 9.43945,0.6958 z m 6.95215,0 c 3.32999,-0.131 6.4665,-0.3678 9.43946,-0.6958 21.07687,-2.47 30.51954,-9.47631 38.70849,-19.19825 5.67196,-7.02594 9.47831,-15.21211 13.34326,-23.58105 l 1.24219,-2.66895 c 3.60099,-7.72494 7.88006,-14.94535 12.68701,-21.65332 8.36796,-12.50691 20.35828,-22.76247 30.57422,-29.37744 9.71894,-6.26394 16.18254,-14.13497 16.22754,-32.02588 0.077,-28.27982 -21.51184,-68.12864 -51.32666,-94.75049 -22.86488,-17.34188 -46.32349,-26.40287 -70.21436,-27.21387 l -0.43652,161.23389 c 17.87388,1.47 31.924,16.44603 31.875,34.71094 -0.024,9.33394 -3.68476,18.11931 -10.30371,24.73828 -5.90797,5.90897 -13.54731,9.45065 -21.76025,10.16162 z m -260.60596,-6.58594 c 5.77217,0.0708 11.48565,-0.49398 17.12842,-1.69336 4.43898,-5.80794 7.92123,-11.05049 10.1792,-14.62646 -27.19884,5.75994 -52.61035,1.78308 -75.63721,-11.92383 -8.39094,-4.99497 -16.81139,-10.43219 -23.09619,-17.86377 C 300.43374,884.15377 276.3072,842.19547 264.99997,797.59807 234.99008,679.2345 251.19264,562.10704 307.73532,475.07755 295.28438,417.19688 296.46531,372.8387 311.34323,339.62491 c -5.03298,2.75097 -10.14735,5.73263 -15.31934,8.8916 -4.24495,12.41594 -7.13057,27.50721 -7.68457,46.05909 -0.004,0.126 -0.007,0.25193 -0.0102,0.37793 -0.031,1.08 -0.0519,2.17239 -0.0659,3.27539 -0.003,0.207 -0.004,0.41409 -0.006,0.62109 -0.01,1.04697 -0.0144,2.10532 -0.0102,3.17432 10e-4,0.237 8.6e-4,0.47538 0.003,0.71338 0.007,1.078 0.0209,2.16616 0.0439,3.26513 0.004,0.203 0.008,0.40491 0.0132,0.60791 0.027,1.186 0.0619,2.3842 0.10693,3.5962 0.004,0.1 0.006,0.19882 0.0102,0.29882 0.683,17.76991 3.31709,38.30425 8.54004,62.1211 l 0.0967,0.43799 -0.24755,0.375 c -3.42497,5.19897 -6.67622,10.45031 -9.8042,15.73828 -52.0467,88.85646 -62.6063,191.20864 -29.66895,319.52198 10.63166,41.41754 51.54419,101.31616 68.76563,119.56055 10.46965,11.09156 23.19487,21.01988 36.61377,27.44385 13.16348,6.3009 26.15031,9.53129 38.84912,9.68701 z m 514.25978,0 c 12.6988,-0.15572 25.68563,-3.38611 38.84912,-9.68701 13.4189,-6.42397 26.14412,-16.35229 36.61377,-27.44385 17.22141,-18.24439 58.13401,-78.14301 68.76561,-119.56055 32.9374,-128.31334 22.3778,-230.66552 -29.6689,-319.52198 -3.128,-5.28797 -6.3793,-10.53931 -9.8042,-15.73828 l -0.2476,-0.375 0.097,-0.43799 c 5.2229,-23.81685 7.857,-44.35119 8.54,-62.1211 0,-0.1 0.01,-0.19882 0.01,-0.29882 0.045,-1.212 0.08,-2.4102 0.1069,-3.5962 0.01,-0.203 0.01,-0.40491 0.013,-0.60791 0.023,-1.09897 0.037,-2.18713 0.044,-3.26513 0,-0.238 0,-0.47638 0,-0.71338 0,-1.069 -3e-4,-2.12735 -0.01,-3.17432 0,-0.207 0,-0.41409 -0.01,-0.62109 -0.014,-1.103 -0.035,-2.19539 -0.066,-3.27539 0,-0.126 -0.01,-0.25193 -0.01,-0.37793 -0.554,-18.55188 -3.4396,-33.64315 -7.6846,-46.05909 -5.172,-3.15897 -10.2863,-6.14063 -15.3193,-8.8916 14.8779,33.21379 16.0588,77.57197 3.6079,135.45264 56.5427,87.02949 72.7452,204.15695 42.7353,322.52052 -11.3072,44.5974 -35.4337,86.5557 -65.14302,121.68604 -6.2848,7.43158 -14.70525,12.8688 -23.09619,17.86377 -23.02687,13.70691 -48.43838,17.68377 -75.63721,11.92383 2.25797,3.57597 5.74021,8.81852 10.1792,14.62646 5.64276,1.19938 11.35624,1.76416 17.12842,1.69336 z m -257.688,-20.38477 c 0.19,0 0.3688,-0.0505 0.55811,-0.0542 0.18931,0.004 0.3681,0.0542 0.5581,0.0542 7.50996,-0.021 14.58825,-2.97297 19.9292,-8.31591 5.34296,-5.34097 8.29592,-12.41926 8.31592,-19.9292 0.019,-7.48897 -2.88094,-14.53441 -8.1709,-19.83838 -5.28898,-5.30397 -12.32843,-8.22703 -19.8164,-8.22803 h -0.0776 c -0.25065,7e-4 -0.48865,0.0677 -0.73828,0.0747 -0.24963,-0.007 -0.48763,-0.074 -0.73828,-0.0747 h -0.0776 c -7.48797,10e-4 -14.52742,2.92406 -19.81641,8.22803 -5.28995,5.30397 -8.1899,12.34941 -8.1709,19.83838 0.02,7.50994 2.97297,14.58823 8.31592,19.9292 5.34096,5.34294 12.41925,8.29491 19.9292,8.31591 z M 463.08786,749.16887 c 18.0969,-61.75864 36.05527,-127.7813 18.73536,-191.64991 -10.02194,-37.80279 -28.24308,-74.40773 -29.24708,-114.25049 3.682,26.13985 13.47821,50.4627 22.97315,74.93555 35.21677,76.52055 20.28539,156.5143 -12.46143,230.96485 z m 391.22169,0 c -32.74681,-74.45055 -47.6782,-154.4443 -12.46142,-230.96485 9.49494,-24.47285 19.29115,-48.7957 22.97314,-74.93555 -1.004,39.84276 -19.22513,76.4477 -29.24707,114.25049 -17.31991,63.86861 0.63846,129.89127 18.73535,191.64991 z M 553.49216,729.14885 c 2.73899,-2.549 7.63916,-7.41358 7.63916,-7.41358 V 546.67472 c 0.006,-24.70585 -20.09007,-44.80239 -44.79492,-44.79639 h -2.74512 l 0.085,-2.74804 c 0.938,-29.88882 15.40101,-51.17724 43.02686,-63.45118 -5.74497,-1.15797 -11.4841,-2.33201 -17.18408,-3.68701 -22.25985,14.54891 -34.98856,35.9241 -35.76856,60.89795 l -0.003,16.94385 c 30.24382,0.399 49.73163,17.18632 49.74463,42.99317 z m 210.41309,0 V 552.82707 c 0.013,-25.80685 19.50081,-42.59417 49.74463,-42.99317 l -0.003,-16.94385 c -0.78,-24.97385 -13.5087,-46.34904 -35.76855,-60.89795 -5.69999,1.355 -11.43911,2.52904 -17.18408,3.68701 27.62585,12.27394 42.08885,33.56236 43.02685,63.45118 l 0.085,2.74804 h -2.74511 c -24.70485,-0.006 -44.80093,20.09054 -44.79493,44.79639 v 175.06055 c 0,0 4.90018,4.86458 7.63916,7.41358 z M 566.45896,718.21086 c 26.99013,-20.84808 59.34051,-33.78483 92.23975,-34.48389 32.89924,0.69906 65.24961,13.63581 92.23975,34.48389 v -171.5376 c 0.006,-26.70785 20.99045,-48.59846 47.34228,-50.04346 -1.765,-29.13582 -16.1245,-47.38868 -46.13232,-57.95362 -30.57682,5.53997 -60.4285,8.28098 -91.46631,8.27198 -0.65012,0.002 -1.33109,-0.0503 -1.9834,-0.0513 -0.65231,10e-4 -1.33328,0.0533 -1.9834,0.0513 -31.03781,0.009 -60.88949,-2.73201 -91.46631,-8.27198 -30.00782,10.56494 -44.36733,28.8178 -46.13233,57.95362 26.35184,1.445 47.33629,23.33561 47.34229,50.04346 z m 83.22803,-276.60059 c 3.00093,10e-5 6.00824,-0.1374 9.01172,-0.1875 3.00348,0.0501 6.01079,0.1876 9.01172,0.1875 70.34358,0 140.18132,-22.02545 159.9082,-28.77539 l 9.94336,-3.39991 -3.60058,-9.87158 c -1.29597,-3.55097 -2.2898,-6.55018 -2.9458,-8.53418 l -0.23731,-0.71484 c -0.228,-0.686 -0.41125,-1.23809 -0.55224,-1.64209 l -0.33399,-0.90674 c -4.36798,-11.92694 -10.97126,-29.95357 -15.55224,-42.79248 l -0.0747,-0.19922 c -0.40997,-1.055 -1.05855,-2.91205 -1.83252,-5.12402 -2.155,-6.16297 -2.60944,-7.29952 -2.91944,-7.99952 l -0.10546,-0.22998 c -4.40997,-10.11294 -13.36984,-17.22888 -20.15479,-21.44385 -15.58391,-9.53394 -35.48013,-15.14368 -57.54199,-16.22168 l -5.25879,-0.25634 -3.28858,4.11328 c -1.84399,2.31 -3.84581,4.54695 -5.9458,6.64892 -5.95495,5.95397 -12.69592,10.90443 -20.06689,14.7334 -11.09291,5.82897 -23.95253,8.91065 -37.18946,8.91065 -0.42246,0 -0.84042,-0.0716 -1.26269,-0.0776 -0.42227,0.006 -0.84024,0.0776 -1.2627,0.0776 -13.23692,0 -26.09654,-3.08168 -37.18945,-8.91065 -7.37097,-3.82897 -14.11194,-8.77943 -20.0669,-14.7334 -2.09998,-2.10197 -4.1018,-4.33892 -5.9458,-6.64892 l -3.28857,-4.11328 -5.25879,0.25634 c -22.06187,1.078 -41.95808,6.68774 -57.54199,16.22168 -6.78496,4.21497 -15.74482,11.33091 -20.15479,21.44385 l -0.10547,0.22998 c -0.31,0.7 -0.76443,1.83655 -2.91943,7.99952 -0.77397,2.21197 -1.42255,4.06902 -1.83252,5.12402 l -0.0747,0.19922 c -4.58098,12.83891 -11.18426,30.86554 -15.55225,42.79248 l -0.33398,0.90674 c -0.14099,0.404 -0.32425,0.95609 -0.55225,1.64209 l -0.2373,0.71484 c -0.656,1.984 -1.64983,4.98321 -2.9458,8.53418 l -3.60059,9.87158 9.94336,3.39991 c 19.72688,6.74994 89.56463,28.77539 159.90821,28.77539 z m 0.003,-5.56641 c -60.89464,0 -120.40708,-16.25298 -150.4629,-25.94092 l -12.0249,-3.87451 4.71973,-14.22363 c 0.233,-0.7 0.41589,-1.248 0.56689,-1.667 l 0.6753,-1.83544 c 4.25098,-11.60894 10.6738,-29.15384 15.11279,-41.59278 l 0.0908,-0.24023 c 0.439,-1.135 1.09629,-3.02121 1.80029,-5.03321 l 0.0513,-0.14941 c 0.733,-2.09497 1.25684,-3.57422 1.63184,-4.61719 v -0.46875 l 1.22607,-2.72461 c 3.84899,-8.82597 11.89278,-15.17297 17.98975,-18.96094 13.74991,-8.41194 31.28508,-13.64569 50.70996,-15.13769 l 6.271,-0.48194 4.13086,4.74317 c 1.303,1.496 2.67194,2.96247 4.06494,4.35644 6.35295,6.35497 13.55486,11.64443 21.4248,15.73243 11.86994,6.23694 25.62073,9.53466 39.76465,9.53466 0.42351,0 0.84231,-0.0718 1.26563,-0.0776 0.42332,0.006 0.84211,0.0776 1.26562,0.0776 14.14393,0 27.89471,-3.29772 39.76465,-9.53466 7.86994,-4.088 15.07185,-9.37746 21.42481,-15.73243 1.393,-1.39397 2.76194,-2.86044 4.06494,-4.35644 l 4.13086,-4.74317 6.27099,0.48194 c 19.42489,1.492 36.96006,6.72575 50.70997,15.13769 6.09697,3.78797 14.14076,10.13497 17.98974,18.96094 l 1.22608,2.72461 v 0.46875 c 0.375,1.04297 0.89883,2.52222 1.63183,4.61719 l 0.0513,0.14941 c 0.704,2.012 1.3613,3.89821 1.8003,5.03321 l 0.0908,0.24023 c 4.43898,12.43894 10.8618,29.98384 15.11279,41.59278 l 0.67529,1.83544 c 0.151,0.419 0.3339,0.967 0.5669,1.667 l 4.71972,14.22363 -12.0249,3.87451 c -30.05582,9.68794 -89.56825,25.94092 -150.46289,25.94092 -2.99945,5e-5 -6.00623,-0.12801 -9.00879,-0.17871 -3.00256,0.0507 -6.00934,0.17876 -9.00879,0.17871 z"
       transform="matrix(0.10808184,0,0,-0.10808184,-179.70844,54.713472)" />
    <path
       id="path529-78-9"
       style="color:#000000;fill:#00ff00;fill-opacity:0.430025;stroke-linecap:round;stroke-linejoin:round;-inkscape-stroke:none"
       d="m -109.78777,52.700047 c -3.9604,0 -9.33812,0.313068 -10.44846,1.522905 -4.55235,4.960336 -7.32577,11.053517 -14.26166,14.302486 -1.62336,-2.61975 -4.74878,-7.014042 -8.68629,-7.014042 -3.93752,0 -13.18065,4.703996 -21.71289,19.825663 l -1.17461,-0.0041 c -0.82248,-3.783271 -4.45975,-1.841121 -5.70353,1.445355 l -1.39991,1.367876 c -9.40598,3.227086 -5.77948,13.521454 -2.93109,18.55029 0,9.88977 25.88015,35.65671 35.39578,35.32187 2.59211,2.91713 6.12831,3.90167 8.52196,2.34972 4.00913,4.02884 5.08342,4.86321 11.18071,7.70289 3.76607,5.78745 7.42748,12.3418 11.21999,12.3424 3.79251,-6e-4 7.45392,-6.55495 11.219983,-12.3424 6.0973,-2.83968 7.17159,-3.67405 11.18072,-7.70289 2.39364,1.55195 5.92984,0.56741 8.52196,-2.34972 9.51563,0.33484 35.395774,-25.4321 35.395774,-35.32187 2.8484,-5.028836 6.4749,-15.323204 -2.93108,-18.55029 l -1.39992,-1.367876 c -1.24378,-3.286476 -4.88105,-5.228626 -5.70353,-1.445389 l -1.1746,0.0041 C -63.210697,66.21539 -72.453847,61.511396 -76.391357,61.511396 c -3.93751,0 -7.06294,4.394292 -8.68629,7.014042 -6.93589,-3.248969 -9.70932,-9.34215 -14.26167,-14.302486 -1.110333,-1.209837 -6.488053,-1.522905 -10.448453,-1.522905 z m 0,2.300118 c 1.91959,0 4.19503,0.08048 6.02702,0.293005 0.91599,0.106263 1.72648,0.249397 2.26601,0.398426 0.38856,0.107328 0.61543,0.278726 0.59686,0.240295 4.161153,4.603941 7.205813,11.097324 14.844583,14.67559 a 2.30023,2.30023 0 0 0 2.9316,-0.870748 c 0.76689,-1.237555 1.87519,-2.847778 3.11712,-4.047298 1.24193,-1.19952 2.50008,-1.878955 3.61322,-1.878955 1.0529,0 4.10926,0.897297 7.70495,3.746541 3.59571,2.849245 7.86235,7.56954 12.00393,14.909685 a 2.30023,2.30023 0 0 0 2.011764,1.169954 l 1.17564,-0.0036 a 2.30023,2.30023 0 0 0 2.22105,-1.79679 c 0.38947,0.303953 0.9973,0.898315 1.32189,1.755965 a 2.30023,2.30023 0 0 0 0.54518,0.831991 l 1.39837,1.366841 a 2.30023,2.30023 0 0 0 0.86144,0.531234 c 1.95354,0.67024 2.98152,1.570581 3.6251,2.597774 0.64357,1.027192 0.91828,2.291283 0.88264,3.769796 -0.0713,2.957026 -1.53307,6.579815 -2.83187,8.872849 a 2.30023,2.30023 0 0 0 -0.29714,1.13274 c 0,1.46931 -1.33486,4.81495 -3.79667,8.4491 -2.46181,3.63415 -5.91618,7.6872 -9.658324,11.41791 -3.74216,3.73072 -7.78367,7.1501 -11.37709,9.55859 -3.59342,2.40849 -6.8773,3.64367 -8.18348,3.59771 a 2.30023,2.30023 0 0 0 -1.80093,0.77153 c -2.07286,2.3328 -4.39703,2.69505 -5.55056,1.94716 a 2.30023,2.30023 0 0 0 -2.88303,0.30903 c -3.97618,3.99575 -4.48454,4.42933 -10.51925,7.23986 a 2.30023,2.30023 0 0 0 -0.957053,0.83044 c -1.91369,2.94082 -3.76214,5.98986 -5.48029,8.1716 -1.71814,2.18174 -3.2413,3.12478 -3.81268,3.12487 -0.57138,-9e-5 -2.09455,-0.94313 -3.81269,-3.12487 -1.71814,-2.18174 -3.56659,-5.23078 -5.48029,-8.1716 a 2.30023,2.30023 0 0 0 -0.95498,-0.83044 c -6.0347,-2.81052 -6.54554,-3.24409 -10.52183,-7.23986 a 2.30023,2.30023 0 0 0 -2.88252,-0.30903 c -1.15339,0.74783 -3.47821,0.38564 -5.55108,-1.94716 a 2.30023,2.30023 0 0 0 -1.80041,-0.77153 c -1.30622,0.046 -4.59057,-1.18922 -8.18399,-3.59771 -3.59342,-2.40849 -7.63443,-5.82787 -11.37657,-9.55859 -3.74214,-3.73071 -7.19446,-7.78376 -9.65626,-11.41791 -2.4618,-3.63415 -3.79718,-6.97978 -3.79718,-8.4491 a 2.30023,2.30023 0 0 0 -0.29869,-1.13274 c -1.2988,-2.293034 -2.76058,-5.915822 -2.83187,-8.872849 -0.0356,-1.478513 0.23906,-2.742604 0.88263,-3.769796 0.64358,-1.027193 1.67156,-1.927534 3.6251,-2.597774 a 2.30023,2.30023 0 0 0 0.86145,-0.531234 l 1.40043,-1.366841 a 2.30023,2.30023 0 0 0 0.5426,-0.831991 c 0.3242,-0.856614 0.93269,-1.44984 1.3224,-1.754415 a 2.30023,2.30023 0 0 0 2.22261,1.79524 l 1.17409,0.0036 a 2.30023,2.30023 0 0 0 2.01176,-1.169954 c 4.14162,-7.340147 8.4077,-12.060437 12.0034,-14.909685 3.59571,-2.849247 6.65264,-3.746541 7.70548,-3.746541 1.11314,0 2.37128,0.679435 3.61321,1.878955 1.24193,1.19952 2.35231,2.809745 3.11919,4.047298 a 2.30023,2.30023 0 0 0 2.92954,0.870748 c 7.63917,-3.578402 10.68362,-10.07215 14.84509,-14.676107 -0.0222,0.04219 0.20676,-0.131593 0.59841,-0.239778 0.53951,-0.149026 1.34744,-0.292163 2.26343,-0.398426 1.83197,-0.212524 4.10795,-0.293005 6.02754,-0.293005 z" />
  </g>
  <g
     inkscape:label="Dwgs.User"
     inkscape:groupmode="layer"
     id="g10460"
     transform="translate(10.38005,-14.499459)" />
  <g
     inkscape:label="Drill"
     inkscape:groupmode="layer"
     id="g10462"
     transform="translate(10.3801, -14.4995)" />
</svg>
