<?xml version="1.0" encoding="UTF-8" standalone="no"?>
<!-- Created with Inkscape (http://www.inkscape.org/) -->

<svg
   width="11.505907mm"
   height="21.969599mm"
   viewBox="0 0 11.505907 21.969599"
   version="1.1"
   id="svg1"
   inkscape:version="1.3 (0e150ed6c4, 2023-07-21)"
   sodipodi:docname="silk_clue.svg"
   xmlns:inkscape="http://www.inkscape.org/namespaces/inkscape"
   xmlns:sodipodi="http://sodipodi.sourceforge.net/DTD/sodipodi-0.dtd"
   xmlns="http://www.w3.org/2000/svg"
   xmlns:svg="http://www.w3.org/2000/svg">
  <sodipodi:namedview
     id="namedview1"
     pagecolor="#ffffff"
     bordercolor="#000000"
     borderopacity="0.25"
     inkscape:showpageshadow="2"
     inkscape:pageopacity="0.0"
     inkscape:pagecheckerboard="0"
     inkscape:deskcolor="#d1d1d1"
     inkscape:document-units="mm"
     inkscape:zoom="4.3389453"
     inkscape:cx="39.180028"
     inkscape:cy="83.545649"
     inkscape:window-width="1853"
     inkscape:window-height="1177"
     inkscape:window-x="59"
     inkscape:window-y="-8"
     inkscape:window-maximized="1"
     inkscape:current-layer="svg1"
     showgrid="false" />
  <defs
     id="defs1" />
  <g
     inkscape:label="Layer 1"
     inkscape:groupmode="layer"
     id="layer1"
     transform="translate(-36.82336,-143.38336)">
    <path
       id="path529-78"
       style="display:inline;fill:none;fill-opacity:0.380392;stroke:#000000;stroke-width:0.05;stroke-linecap:round;stroke-linejoin:round;stroke-dasharray:none;stroke-opacity:1"
       d="m 35.454861,143.24848 c 0.0078,0.7309 0.07997,1.4721 0.201949,2.21066 0.487934,2.95424 1.773396,5.86635 2.930534,7.90927 9.4e-5,4.12549 4.424856,10.30164 7.041775,13.59634"
       transform="translate(1.0416667e-6)"
       sodipodi:nodetypes="cscc" />
    <path
       style="color:#000000;fill:none;fill-opacity:0.286496;stroke:#000000;stroke-width:0.2;stroke-linecap:round;stroke-linejoin:round;stroke-dasharray:none;stroke-opacity:0.286496"
       d="m 1.5253906,31.074219 c 0.00686,0.642995 0.070453,1.309202 0.1816406,1.982422 0.4447364,2.692696 1.6652058,5.490473 2.7558594,7.416015 0.1277022,0.225124 0.1949865,0.479459 0.1953125,0.738281 3.48e-5,1.52649 0.9634072,3.987312 2.3378906,6.357422 C 8.3705772,49.93847 10.09437,52.262688 11.375,53.875"
       id="path529-78-7"
       sodipodi:nodetypes="csccsc"
       transform="translate(35.429215,112.15743)" />
    <text
       xml:space="preserve"
       style="font-style:normal;font-variant:normal;font-weight:normal;font-stretch:normal;font-size:4.2654px;font-family:Acens;-inkscape-font-specification:Acens;text-align:center;text-anchor:middle;fill:#000000;fill-opacity:1;stroke:#000000;stroke-width:0.2;stroke-linecap:square;stroke-dasharray:none;stroke-opacity:1"
       id="text1"
       y="-6.5823855"
       x="43.531612"
       transform="rotate(66.772181,-67.378169,82.958524)"><tspan
         sodipodi:role="line"
         id="tspan1"
         style="font-style:normal;font-variant:normal;font-weight:bold;font-stretch:normal;font-size:4.2654px;font-family:Acens;-inkscape-font-specification:Acens;fill:#000000;fill-opacity:1;stroke:#000000;stroke-width:0.2;stroke-dasharray:none;stroke-opacity:1"
         x="43.531612"
         y="-6.5823855">R U L U R D</tspan></text>
  </g>
  <g
     inkscape:groupmode="layer"
     id="layer4"
     inkscape:label="F.SilkS"
     transform="translate(-1.3941447,-31.225931)">
    <path
       id="path2"
       style="color:#000000;-inkscape-font-specification:Acens;fill:#000000;stroke-linecap:square;-inkscape-stroke:none"
       d="m 4.1408325,31.227035 c -0.017767,-0.0022 -0.03469,-9e-4 -0.049093,0.0015 L 1.509985,31.665717 c -0.029065,0.0049 -0.067448,0.02227 -0.091984,0.05684 -0.024536,0.03458 -0.026633,0.07431 -0.021704,0.103353 l 0.044958,0.269751 c 0.00493,0.02905 0.02228,0.06745 0.056844,0.09198 0.034564,0.02453 0.074304,0.02613 0.1033528,0.02119 l 1.0588501,-0.179834 0.2733684,1.609721 c 0.017429,0.102591 0.020104,0.185282 0.011885,0.248046 v 0.0021 0.0036 c -0.00524,0.06123 -0.02273,0.100975 -0.047026,0.132808 -0.02308,0.02246 -0.057523,0.04683 -0.109554,0.07028 l -0.00207,0.0021 c -0.047303,0.02196 -0.1144849,0.04214 -0.2010213,0.05684 -0.024843,0.0042 -0.063223,0.0078 -0.1131714,0.01344 -0.049872,0.0057 -0.1121877,0.01294 -0.1855184,0.01964 h -0.00207 c -0.1509265,0.01694 -0.2633533,0.03194 -0.3400309,0.04496 -0.029065,0.0049 -0.066931,0.0202 -0.091467,0.05478 -0.024536,0.03458 -0.026633,0.07431 -0.021704,0.103353 l 0.049093,0.287321 c 0.00525,0.03094 0.028473,0.07235 0.064079,0.09147 0.035606,0.01912 0.068654,0.01827 0.094051,0.01395 l 0.7575765,-0.129192 c 0.081886,-0.01391 0.1577878,-0.03397 0.2304769,-0.05839 0.077125,-0.02283 0.145798,-0.05406 0.2051554,-0.0956 h 0.00207 c 0.0894,-0.06417 0.1306386,-0.154631 0.1756999,-0.242363 0.053724,0.03391 0.1013494,0.07551 0.1679484,0.08785 h 0.00207 c 0.106498,0.01858 0.2224469,0.01626 0.3513998,-0.0057 0.2575985,-0.04376 0.4576588,-0.167499 0.5663737,-0.365353 0.1087148,-0.197852 0.1273518,-0.45631 0.074414,-0.767911 L 4.256071,31.339689 c -0.00524,-0.03087 -0.024887,-0.07068 -0.060978,-0.09353 -0.018046,-0.01143 -0.036494,-0.01697 -0.05426,-0.01912 z m -0.379305,0.614949 0.2599325,1.53324 c 0.025298,0.148909 0.012354,0.253873 -0.019637,0.31626 -0.031991,0.06239 -0.079192,0.09642 -0.1777669,0.113171 -0.1027827,0.01746 -0.1631473,1.25e-4 -0.2165243,-0.05064 -0.053377,-0.05077 -0.1008735,-0.150377 -0.127124,-0.304891 l -0.2578654,-1.51567 z m 1.1167277,3.040125 c -0.016725,0.0022 -0.031668,0.0073 -0.044442,0.0124 l -1.3161988,0.531234 c -0.169058,0.06827 -0.3152649,0.136548 -0.4376993,0.205155 v 0.0021 c -0.1221743,0.07185 -0.2210686,0.143903 -0.2945557,0.222726 v 0.0021 h -0.00207 c -0.071078,0.08041 -0.1239474,0.171057 -0.1581298,0.269234 -0.030967,0.08894 -0.036128,0.188283 -0.031523,0.290938 -0.00291,0.0082 -0.00475,0.01585 -0.00568,0.02739 -5.954e-4,0.0074 -1.015e-4,0.0246 0,0.02532 3.08e-5,2.18e-4 0.0012,0.0045 0.00207,0.0078 0.00867,0.0935 0.030485,0.199934 0.066146,0.326078 0.038209,0.133986 0.093113,0.288722 0.1643311,0.465088 l 0.1503784,0.371037 c 0.071218,0.176365 0.1384996,0.324956 0.2030884,0.44545 0.065212,0.122329 0.1249931,0.218315 0.1855184,0.290939 2.131e-4,3.44e-4 0.00204,0.002 0.00207,0.0021 3.646e-4,4.34e-4 0.038294,0.02719 0.038757,0.02739 3.479e-4,1.5e-4 0.02194,0.0055 0.03514,0.0078 0.1368914,0.140448 0.2958172,0.248013 0.4883423,0.255798 0.2133346,0.0083 0.4828027,-0.0616 0.8242391,-0.199471 l 0.058394,-0.02325 1.2578043,-0.50798 c 0.027094,-0.01094 0.059809,-0.0319 0.078548,-0.07028 0.018739,-0.03838 0.013277,-0.08207 0.00155,-0.111104 l -0.097669,-0.24598 c -0.011564,-0.02864 -0.03603,-0.06314 -0.075964,-0.0801 -0.039934,-0.01696 -0.082466,-0.0095 -0.1111043,0.0021 l -1.3167155,0.531234 c -0.1347325,0.05441 -0.2507809,0.0955 -0.3477824,0.122989 h -0.00155 c -0.089992,0.0279 -0.1618618,0.03777 -0.2092896,0.03307 l -0.00568,-0.0021 h -0.00568 c -0.089383,0.0023 -0.1527965,-0.02997 -0.2191081,-0.125057 l -0.00207,-0.0021 C 3.6974718,37.918414 3.6026775,37.725929 3.4845418,37.433374 L 3.3341634,37.062337 C 3.2160276,36.769783 3.1509346,36.563362 3.1388265,36.472709 v -0.0021 -0.0021 c -0.020341,-0.112812 3.6e-5,-0.185955 0.068213,-0.255798 0.07602,-0.07694 0.2504742,-0.178975 0.5136637,-0.285254 L 5.036902,35.396223 c 0.027094,-0.01094 0.059809,-0.0319 0.078548,-0.07028 0.018739,-0.03838 0.013277,-0.08207 0.00155,-0.111104 L 5.017781,34.964725 c -0.01206,-0.02987 -0.04436,-0.06608 -0.084233,-0.07803 -0.019937,-0.006 -0.038569,-0.0068 -0.055294,-0.0046 z m 2.0789429,4.298962 c -0.018074,-5.2e-4 -0.035003,0.0023 -0.049093,0.0062 l -2.5254273,0.691431 c -0.028418,0.0078 -0.064798,0.02571 -0.085783,0.06253 -0.020986,0.03682 -0.019667,0.07907 -0.011885,0.107487 L 4.863269,42.15815 c 0.00778,0.02842 0.027776,0.06479 0.064596,0.08578 0.03682,0.02098 0.077005,0.01967 0.1054199,0.01189 l 0.2635498,-0.07235 c 0.028418,-0.0078 0.064798,-0.02726 0.085783,-0.06408 0.020986,-0.03682 0.017596,-0.07752 0.00982,-0.105937 l -0.4687052,-1.718758 2.129069,-0.581877 c 0.028178,-0.0077 0.062711,-0.02451 0.085783,-0.06046 0.023073,-0.03594 0.022226,-0.08091 0.013953,-0.111104 L 7.082255,39.28339 C 7.073985,39.25319 7.051687,39.21471 7.013525,39.19554 6.994444,39.18594 6.975272,39.18159 6.957198,39.18107 Z m 0.504362,3.043225 c -0.016234,0.0021 -0.030676,0.0066 -0.043408,0.01189 l -1.3125814,0.543119 c -0.1685047,0.06962 -0.3137526,0.139187 -0.4356323,0.208773 h -0.00207 c -0.1215937,0.07283 -0.218086,0.147449 -0.2909383,0.226859 h -0.00207 v 0.0021 c -0.070426,0.08106 -0.1247361,0.170786 -0.1581299,0.269235 -0.03228,0.09516 -0.039217,0.200275 -0.031006,0.310575 -5.945e-4,0.0035 -0.00179,0.0059 -0.00207,0.0098 2.935e-4,0.0034 -3.304e-4,0.0063 0,0.0098 2.809e-4,0.0061 -6.23e-5,0.01353 0,0.01395 3.24e-5,2.18e-4 0.00118,0.0046 0.00207,0.0078 0.00942,0.09343 0.031539,0.200218 0.068213,0.326078 0.039283,0.133675 0.095318,0.287231 0.1679484,0.463021 l 0.1545125,0.371037 c 0.072631,0.175789 0.1390853,0.323412 0.2046387,0.443384 0.066192,0.121802 0.1285468,0.216735 0.1896525,0.288871 5.267e-4,8.3e-4 0.00203,0.0041 0.00207,0.0041 3.68e-4,4.21e-4 0.038292,0.02668 0.038757,0.02687 3.237e-4,1.33e-4 0.017952,0.004 0.031523,0.0062 0.1383481,0.140642 0.3004918,0.245394 0.4940267,0.251664 0.1784424,0.0055 0.4219582,-0.07308 0.6872965,-0.171566 v 0.02119 l 0.1348755,-0.05426 1.3125814,-0.54312 c 0.027003,-0.01116 0.059601,-0.03175 0.078031,-0.07028 0.01843,-0.03853 0.011958,-0.08268 0,-0.111621 l -0.099219,-0.243913 c -0.011794,-0.02854 -0.03641,-0.06346 -0.076481,-0.0801 -0.040071,-0.01664 -0.082561,-0.0097 -0.1111043,0.0021 L 7.1504679,45.310929 C 7.016177,45.366419 6.8994621,45.40721 6.8026855,45.43547 h -0.00207 c -0.089766,0.02862 -0.1592411,0.03791 -0.2067057,0.03359 h -0.00775 -0.0062 c -0.08938,0.0029 -0.1515209,-0.02847 -0.2185913,-0.12299 l -0.00207,-0.0021 C 6.3044732,45.27069 6.2084799,45.078528 6.0880005,44.78693 L 5.933488,44.415894 C 5.8130086,44.124296 5.7473688,43.918883 5.7345337,43.828333 v -0.0021 -0.0021 c -0.021245,-0.112645 -0.00147,-0.185409 0.066146,-0.255798 0.0754,-0.07755 0.2492685,-0.181001 0.5115967,-0.289388 L 7.6248576,42.73641 c 0.027004,-0.01116 0.059601,-0.03175 0.078031,-0.07028 0.01843,-0.03853 0.011959,-0.08268 0,-0.111622 L 7.6016032,42.306462 c -0.012298,-0.02977 -0.045812,-0.0664 -0.085783,-0.07803 -0.019986,-0.0058 -0.038026,-0.0062 -0.05426,-0.0041 z M 9.17205,45.878853 c -0.042043,-0.0075 -0.079048,0.0063 -0.1038697,0.0217 l -2.2246704,1.382862 c -0.025029,0.01554 -0.054428,0.04246 -0.064079,0.08372 -0.00965,0.04127 0.0041,0.08039 0.019637,0.10542 l 0.1441772,0.232543 c 0.015543,0.02503 0.045034,0.05496 0.0863,0.0646 0.041267,0.0096 0.08039,-0.0041 0.1054199,-0.01964 l 0.910022,-0.566374 0.8614461,1.386479 c 0.054895,0.08841 0.08932,0.165642 0.1054199,0.226859 v 0.0021 l 0.00207,0.0015 c 0.018319,0.0588 0.018295,0.102369 0.00775,0.141076 -0.012879,0.02953 -0.037144,0.06558 -0.076481,0.106971 v 0.0021 c -0.035507,0.0382 -0.091309,0.08082 -0.1658813,0.127124 -0.021327,0.01324 -0.053585,0.03275 -0.097669,0.05684 -0.044081,0.02409 -0.1005079,0.05391 -0.1658813,0.08785 v 0.0021 c -0.1333457,0.0727 -0.233129,0.126918 -0.2992066,0.167948 -0.02503,0.01554 -0.054428,0.04451 -0.064079,0.08578 -0.00965,0.04127 0.0041,0.08039 0.019637,0.10542 l 0.1539958,0.24598 c 0.016554,0.02667 0.053846,0.05622 0.094051,0.06046 0.040205,0.0042 0.069588,-0.0096 0.091467,-0.02325 l 0.6526733,-0.404627 c 0.070411,-0.04372 0.1332264,-0.0906 0.1912028,-0.140559 0.06279,-0.05027 0.1152469,-0.104988 0.1545125,-0.165882 v -0.0021 h 0.00155 c 0.058149,-0.09258 0.061405,-0.191266 0.07028,-0.288871 0.062413,0.01101 0.1234948,0.03127 0.1896525,0.01757 h 0.00207 c 0.1056272,-0.02303 0.2128896,-0.07156 0.3240113,-0.14056 0.221978,-0.137835 0.359074,-0.326609 0.384989,-0.550871 0.02591,-0.224262 -0.05392,-0.469942 -0.220658,-0.738456 L 9.2635173,45.943449 c -0.01652,-0.0266 -0.049424,-0.05708 -0.091467,-0.0646 z m -0.1756999,0.714685 0.820105,1.3224 c 0.079677,0.128318 0.1057884,0.22884 0.099735,0.29869 -0.00605,0.06985 -0.036496,0.119338 -0.1214396,0.172083 -0.08857,0.055 -0.152058,0.06198 -0.2206584,0.03514 -0.068601,-0.02684 -0.149867,-0.09939 -0.2325439,-0.232544 l -0.810286,-1.306381 z m 2.3843509,2.726966 c -0.04252,-0.004 -0.07576,0.01359 -0.09922,0.03101 l -2.1037476,1.560628 c -0.023653,0.01757 -0.050654,0.048 -0.056844,0.08992 -0.00619,0.04193 0.011889,0.0797 0.029456,0.103353 l 1.0681526,1.439705 c 0.147847,0.199086 0.289937,0.352109 0.432015,0.460954 0.141201,0.108177 0.279923,0.173893 0.419612,0.187069 0.135164,0.01249 0.280701,-0.02438 0.4377,-0.09922 v 0.0021 c 0.08812,-0.04055 0.196633,-0.120531 0.296621,-0.183968 l -0.01343,0.03927 0.253731,-0.189653 c 0.161334,-0.119812 0.294672,-0.225159 0.400492,-0.318326 0.104134,-0.09169 0.187027,-0.168509 0.248046,-0.232544 l 0.0021,-0.0036 0.0021,-0.0021 c 0.160669,-0.193451 0.229294,-0.419809 0.19327,-0.65629 -0.03259,-0.233457 -0.166578,-0.493025 -0.390674,-0.794784 L 11.47844,49.376851 c -0.01867,-0.02514 -0.05515,-0.05231 -0.09767,-0.05633 z m -0.10542,0.712618 0.803052,1.082104 c 0.207464,0.279366 0.282215,0.487742 0.267167,0.589628 -0.01538,0.09238 -0.154064,0.274403 -0.444934,0.49041 l -0.177767,0.132808 c -0.108465,0.08055 -0.202934,0.145839 -0.281637,0.197404 -0.07692,0.0504 -0.137182,0.08149 -0.169499,0.09147 h -0.0062 l -0.0057,0.0041 c -0.0977,0.04364 -0.155819,0.03816 -0.220659,-0.0057 l -0.0041,-0.0021 -0.0057,-0.0041 c -0.06694,-0.03484 -0.196146,-0.159213 -0.351917,-0.36897 L 9.8340251,51.105408 Z" />
  </g>
</svg>
